<?xml version="1.0" encoding="UTF-8"?>
<svg id="Layer_1" data-name="Layer 1" xmlns="http://www.w3.org/2000/svg" xmlns:xlink="http://www.w3.org/1999/xlink" viewBox="0 0 614.78 434.77">
  <defs>
    <style>
      .cls-1 {
        fill: #fff;
        stroke: #fff;
        stroke-miterlimit: 10;
        stroke-width: .5px;
      }

      .cls-2 {
        opacity: .51;
      }

      .cls-3 {
        opacity: .97;
      }
    </style>
  </defs>
  <image width="912" height="699" transform="translate(38.14 15.51) rotate(-1.62) scale(.6)" xlink:href="../Downloads/Layer_3.png"/>
  <g class="cls-2">
    <path class="cls-1" d="m47.81,309.55l2.55,24.82c1.75,17,15.61,30.24,32.61,31.17l18.81,1.01-16,.48c-18.13.55-32.61,15.13-33.1,33.31l-.63,23.58-1.86-23.86c-1.4-17.99-16.37-31.97-34.34-32.07l-15.52-.08,15.99-1.29c17.71-1.42,31.31-16.16,31.4-33.99l.1-23.08Z"/>
    <path class="cls-1" d="m52.64,423.94l-1.18.02-1.86-23.86c-1.37-17.57-16.19-31.41-33.75-31.51l-15.53-.09-.05-1.18,15.99-1.29c17.51-1.41,30.77-15.77,30.85-33.4l.1-23.08,1.19-.05,2.55,24.82c1.73,16.84,15.2,29.72,32.04,30.63l18.81,1.01v1.19s-16,.48-16,.48c-17.77.54-32.05,14.92-32.53,32.74l-.63,23.58h0Zm-38.47-56.55h1.68c18.18.11,33.52,14.43,34.94,32.63l.98,12.54.33-12.23c.49-18.46,15.28-33.34,33.67-33.89l1.86-.05-4.68-.26c-17.43-.94-31.38-14.27-33.17-31.7l-1.42-13.79-.06,12.01c-.09,18.25-13.82,33.12-31.94,34.58l-2.18.17v-.02Z"/>
  </g>
  <g class="cls-3">
    <path class="cls-1" d="m49.79,348.87l.15,1.5c.69,6.8,6.24,12.11,13.04,12.48-6.63.2-11.93,5.54-12.11,12.19l-.05,1.87-.16-2.06c-.51-6.55-5.95-11.63-12.49-11.67,6.55-.53,11.57-5.98,11.6-12.57v-1.74s0,.01,0,.01Z"/>
    <path class="cls-1" d="m51.42,376.92l-1.18.02-.16-2.06c-.48-6.2-5.71-11.07-11.89-11.11l-.05-1.18c6.29-.51,11.03-5.66,11.06-11.99v-1.74s1.19-.05,1.19-.05l.15,1.5c.67,6.56,5.93,11.59,12.49,11.94v1.19c-6.3.19-11.37,5.3-11.54,11.63l-.05,1.87h-.02Zm-9.83-13.87c4.32,1.21,7.8,4.59,9.13,8.91,1.16-4.36,4.49-7.82,8.77-9.14-4.45-1.35-7.99-4.79-9.47-9.24-1.02,4.42-4.2,7.97-8.44,9.47Z"/>
  </g>
  <image width="1500" height="865" transform="translate(14.78 2.88) scale(.4)" xlink:href="purple_header_banner1.png"/>
</svg>