<?xml version="1.0" encoding="UTF-8"?>
<svg id="Layer_1" data-name="Layer 1" xmlns="http://www.w3.org/2000/svg" xmlns:xlink="http://www.w3.org/1999/xlink" viewBox="0 0 614.78 434.77">
  <defs>
    <style>
      .cls-1 {
        fill: #fff;
      }

      .cls-2 {
        opacity: .51;
      }

      .cls-3 {
        opacity: .97;
      }
    </style>
  </defs>
  <image width="912" height="699" transform="translate(38.14 15.51) rotate(-1.62) scale(.6)" xlink:href="../Downloads/Layer_3.png"/>
  <g class="cls-2">
    <g>
      <path class="cls-1" d="m47.81,309.55l2.55,24.82c1.75,17,15.61,30.24,32.61,31.17l18.81,1.01-16,.48c-18.13.55-32.61,15.13-33.1,33.31l-.63,23.58-1.86-23.86c-1.4-17.99-16.37-31.97-34.34-32.07l-15.52-.08,15.99-1.29c17.71-1.42,31.31-16.16,31.4-33.99l.1-23.08Z"/>
      <path class="cls-1" d="m51.8,423.94l-1.86-23.86c-1.38-17.75-16.36-31.74-34.1-31.84l-15.52-.08-.02-.5,15.99-1.29c17.68-1.42,31.08-15.93,31.17-33.74l.1-23.08.5-.02,2.55,24.82c.84,8.16,4.57,15.78,10.51,21.46,5.94,5.67,13.7,9.04,21.86,9.48l18.81,1.01v.5s-16,.48-16,.48c-17.94.54-32.38,15.07-32.85,33.07l-.63,23.58h-.5Zm-45.65-56.24l9.69.05c18,.1,33.19,14.29,34.59,32.3l1.49,19.1.5-18.81c.49-18.27,15.13-33.01,33.34-33.56l10.02-.3-12.84-.69c-8.28-.45-16.16-3.87-22.18-9.62-6.02-5.76-9.81-13.49-10.66-21.77l-2.07-20.16-.08,18.4c-.09,18.08-13.69,32.8-31.63,34.24l-10.17.82Z"/>
    </g>
    <g>
      <path class="cls-1" d="m52.64,423.94l-1.18.02-1.86-23.86c-1.37-17.57-16.19-31.41-33.75-31.51l-15.53-.09-.05-1.18,15.99-1.29c17.51-1.41,30.77-15.77,30.85-33.4l.1-23.08,1.19-.05,2.55,24.82c1.73,16.84,15.2,29.72,32.04,30.63l18.81,1.01v1.19s-16,.48-16,.48c-17.77.54-32.05,14.92-32.53,32.74l-.63,23.58h0Zm-38.47-56.55h1.68c18.18.11,33.52,14.43,34.94,32.63l.98,12.54.33-12.23c.49-18.46,15.28-33.34,33.67-33.89l1.86-.05-4.68-.26c-17.43-.94-31.38-14.27-33.17-31.7l-1.42-13.79-.06,12.01c-.09,18.25-13.82,33.12-31.94,34.58l-2.18.17v-.02Z"/>
      <path class="cls-1" d="m52.37,424.4v-.2s-1.14.02-1.14.02l-1.88-24.09c-1.36-17.44-16.08-31.18-33.5-31.28l-15.77-.09L0,367.09l16.23-1.31c17.38-1.4,30.55-15.65,30.62-33.15l.1-23.32,1.66-.07,2.57,25.06c1.72,16.72,15.1,29.5,31.81,30.41l19.05,1.03v1.67s-.24,0-.24,0l-16,.48c-17.63.54-31.81,14.81-32.29,32.5l-.62,23.31h.68s-1.2.71-1.2.71ZM.55,368.25l15.29.09c17.69.1,32.62,14.04,34,31.74l1.85,23.62h.7s.62-23.34.62-23.34c.49-17.95,14.89-32.44,32.78-32.99l15.76-.47v-.71s-18.57-1-18.57-1c-16.96-.92-30.53-13.89-32.28-30.86l-2.52-24.59-.72.03-.1,22.84c-.08,17.76-13.44,32.23-31.08,33.65l-15.75,1.27.03.71Zm50.96,44.34l-.98-12.54c-1.41-18.06-16.65-32.29-34.69-32.39h-1.48s-.51.03-.51.03l.11-.53h.21s.17-.01.17-.01l1.98-.15c17.99-1.44,31.63-16.2,31.71-34.33l.06-12.01.5-.02,1.42,13.79c1.77,17.3,15.62,30.54,32.94,31.47l4.68.26v.5s-1.87.05-1.87.05c-18.26.55-32.94,15.33-33.43,33.65l-.33,12.23h-.5Zm-33.07-45.33c17.15,1.38,31.23,15.3,32.59,32.74l.61,7.79.2-7.46c.47-17.65,13.94-32.06,31.16-33.94h-.08c-17.56-.95-31.61-14.38-33.4-31.93l-.94-9.17-.04,7.37c-.08,17.69-12.88,32.21-30.1,34.6Z"/>
    </g>
  </g>
  <g class="cls-3">
    <g>
      <path class="cls-1" d="m49.79,348.87l.15,1.5c.69,6.8,6.24,12.11,13.04,12.48-6.63.2-11.93,5.54-12.11,12.19l-.05,1.87-.16-2.06c-.51-6.55-5.95-11.63-12.49-11.67,6.55-.53,11.57-5.98,11.6-12.57v-1.74s0,.01,0,.01Z"/>
      <path class="cls-1" d="m50.58,376.92l-.16-2.06c-.49-6.37-5.87-11.4-12.24-11.44l-.02-.5c6.46-.52,11.34-5.82,11.37-12.32v-2.58s.51.83.51.83l.15,1.5c.67,6.62,6.18,11.89,12.81,12.25v.5c-6.49.2-11.7,5.45-11.88,11.94l-.05,1.87h-.5Zm-10.36-13.82c5.29.9,9.57,5.1,10.54,10.44.77-5.38,4.89-9.67,10.16-10.71-5.4-1.12-9.76-5.41-10.96-10.83-.59,5.44-4.49,9.84-9.74,11.1Z"/>
    </g>
    <g>
      <path class="cls-1" d="m51.42,376.92l-1.18.02-.16-2.06c-.48-6.2-5.71-11.07-11.89-11.11l-.05-1.18c6.29-.51,11.03-5.66,11.06-11.99v-1.74s1.19-.05,1.19-.05l.15,1.5c.67,6.56,5.93,11.59,12.49,11.94v1.19c-6.3.19-11.37,5.3-11.54,11.63l-.05,1.87h-.02Zm-9.83-13.87c4.32,1.21,7.8,4.59,9.13,8.91,1.16-4.36,4.49-7.82,8.77-9.14-4.45-1.35-7.99-4.79-9.47-9.24-1.02,4.42-4.2,7.97-8.44,9.47Z"/>
      <path class="cls-1" d="m51.68,377.24l-.29-.07-1.39.02-.18-2.29c-.47-6.06-5.58-10.84-11.65-10.88h-.24s-.07-1.66-.07-1.66l.24-.02c6.15-.5,10.8-5.54,10.83-11.74v-1.98s1.66-.07,1.66-.07l.18,1.73c.65,6.44,5.81,11.37,12.25,11.71h.24s0,1.68,0,1.68h-.24c-6.17.2-11.13,5.2-11.3,11.39l-.05,2.17Zm-13.26-13.72c6.22.16,11.42,5.1,11.9,11.34l.14,1.83h.72s.04-1.63.04-1.63c.17-6.38,5.22-11.54,11.54-11.86v-.71c-6.58-.46-11.82-5.54-12.49-12.15l-.13-1.27-.71.03v1.5c-.03,6.38-4.77,11.59-11.05,12.21l.03.71Zm12.32,9.35l-.26-.83c-1.3-4.21-4.73-7.56-8.96-8.74l-.76-.21.75-.26c4.19-1.48,7.28-4.95,8.28-9.29l.2-.87.28.84c1.45,4.35,4.93,7.75,9.3,9.08l.78.24-.78.24c-4.18,1.29-7.48,4.73-8.6,8.97l-.22.84Zm-8.39-9.84c3.82,1.3,6.94,4.33,8.35,8.11,1.27-3.82,4.25-6.92,8.01-8.32-3.94-1.42-7.1-4.49-8.64-8.4-1.14,3.91-3.96,7.05-7.72,8.61Z"/>
    </g>
  </g>
  <image width="1500" height="865" transform="translate(14.78 2.88) scale(.4)" xlink:href="purple_header_krans1.png"/>
</svg>