<svg width="84" height="93" viewBox="0 0 84 93" fill="none" xmlns="http://www.w3.org/2000/svg">
<path d="M43.9322 1.06455H43.8322L43.8322 1.16454L43.823 62.3123V62.3132C43.8102 67.6224 39.0608 71.9388 33.1833 71.9388C27.298 71.9388 22.5439 67.6106 22.5439 62.2914C22.5439 56.9722 27.298 52.644 33.1833 52.644H35.5153H35.6153V52.544V32.6401V32.5401H35.5153H33.2156C15.1089 32.5401 0.413672 45.8644 0.413672 62.3207C0.413672 78.777 15.1089 92.1012 33.2156 92.1012C51.3222 92.1012 66.0174 78.7769 66.0174 62.3206V38.1586C70.6401 39.8768 75.6981 40.828 81.0035 40.8385H81.0037H83.3031H83.4031V40.7385V20.7846V20.6846H83.3031H80.7977L80.6716 20.6584C80.6711 20.6583 80.6705 20.6582 80.67 20.658C72.223 18.5927 66.0173 11.5953 66.0173 3.29239V1.16455V1.06455H65.9174H43.9322ZM48.6316 5.43914H61.3318C62.2781 14.4993 69.1795 21.976 78.6035 24.663V36.3878L78.5988 36.3876C78.5986 36.3876 78.5984 36.3876 78.5982 36.3876C73.881 36.0863 69.4228 34.9359 65.6091 33.1879L65.6088 33.1878L61.3591 31.2593L61.2178 31.1951V31.3503V62.3209C61.2164 76.3424 48.6892 87.7248 33.2153 87.7248C17.7406 87.7248 5.21292 76.3414 5.21292 62.3187C5.21292 49.0606 16.4115 38.1616 30.8157 37.0063V48.456L30.8153 48.456C23.4485 49.5021 17.7994 55.2901 17.7994 62.2884C17.7994 70.0298 24.7108 76.2894 33.2156 76.2894C41.7077 76.2894 48.6111 70.0485 48.6316 62.3211V62.3208V5.43914Z" fill="#A75DF2" stroke="#A75DF2" stroke-width="0.2"/>
</svg>
