<svg width="76" height="76" viewBox="0 0 76 76" fill="none" xmlns="http://www.w3.org/2000/svg">
<circle cx="38" cy="38" r="38" fill="white"/>
<path d="M22.4073 10.75L22.407 10.75C16.5248 10.757 11.757 15.524 11.75 21.407V21.4073L11.75 53.5934L11.75 53.5937C11.757 59.4759 16.5241 64.243 22.407 64.25H22.4073H54.5934H54.5937C60.4759 64.243 65.243 59.4759 65.25 53.593V53.5927V21.4066V21.4063C65.243 15.5241 60.4759 10.757 54.593 10.75H54.5927L22.4073 10.75ZM38.5 24.5541H38.4997C31.3542 24.5625 25.5626 30.3534 25.5541 37.4997V37.5C25.5541 44.6499 31.3503 50.4459 38.5 50.4459C45.6499 50.4459 51.446 44.6499 51.446 37.5C51.446 30.3501 45.6499 24.5541 38.5 24.5541ZM62.3409 21.4076V53.593C62.3357 57.8697 58.8697 61.3356 54.5925 61.3409L22.4071 61.3409C18.1304 61.3356 14.6645 57.8697 14.6592 53.5924V21.4071C14.6645 17.1304 18.1304 13.6644 22.4077 13.6592H54.593C58.8697 13.6644 62.3357 17.1304 62.3409 21.4076ZM48.5369 37.5C48.5369 43.0431 44.0434 47.5366 38.5003 47.5368C32.9602 47.5301 28.4699 43.0404 28.4632 37.4998C28.4634 31.9567 32.957 27.4632 38.5 27.4632C44.0432 27.4632 48.5369 31.9567 48.5369 37.5ZM53.4364 26.2587C55.4771 26.2587 57.1314 24.6044 57.1314 22.5637C57.1314 20.523 55.4771 18.8687 53.4364 18.8687C51.3957 18.8687 49.7414 20.523 49.7414 22.5637C49.7414 24.6044 51.3957 26.2587 53.4364 26.2587Z" fill="#A75DF2" stroke="#A75DF2" stroke-width="0.5"/>
</svg>
