<svg width="76" height="76" viewBox="0 0 76 76" fill="none" xmlns="http://www.w3.org/2000/svg">
<circle cx="38" cy="38" r="38" fill="white"/>
<path d="M44.8171 31.5883V31.7383H44.9671H53.0816V45.3667H44.9671H44.8171V45.5167V70.1893H28.4436V45.5167V45.3667H28.2936H20.15V31.7382H28.2935H28.4435V31.5882V30.2879V30.2874C28.4435 17.4328 38.821 7.00199 51.6553 6.91581L51.6566 6.91579L51.6648 6.91567L51.6658 6.91565L51.6671 6.91563H55.85V23.2892H51.7868C47.9375 23.2892 44.8171 26.4097 44.8171 30.2589V30.2821V30.2833V31.5883ZM53.2603 9.65523L53.2602 9.50531H53.1103L51.6654 9.5053L51.6639 9.50532C40.2635 9.62038 31.0622 18.8745 31.0332 30.2847V30.2851V34.3279H22.8898H22.7398V34.4779V42.6268V42.7768H22.8898H31.0331V67.4495V67.5995H31.1831H42.0774H42.2274V67.4495V42.7768H50.3419H50.4919V42.6268V34.478V34.328H50.3419H42.2274V30.2879V30.259C42.2274 24.9795 46.5072 20.6996 51.7868 20.6996H53.116H53.266L53.266 20.5495L53.2603 9.65523Z" fill="#A75DF2" stroke="#A75DF2" stroke-width="0.3"/>
</svg>
