<svg width="74" height="74" viewBox="0 0 74 74" fill="none" xmlns="http://www.w3.org/2000/svg">
<circle cx="37" cy="37" r="37" fill="white"/>
<path d="M38.2712 5.9H38.1712L38.1712 5.99999L38.1654 48.0053V48.0058C38.1573 51.6411 35.1857 54.5869 31.5198 54.5869C27.8489 54.5869 24.8743 51.6331 24.8743 47.991C24.8743 44.3488 27.8489 41.395 31.5198 41.395H32.9845H33.0845V41.295V27.6221V27.5221H32.9845H31.54C20.1415 27.5221 10.9 36.6946 10.9 48.0111C10.9 59.3275 20.1415 68.5 31.54 68.5C42.9385 68.5 52.1801 59.3275 52.1801 48.011V31.4626C55.0739 32.6314 58.2379 33.278 61.5555 33.2852H61.5557H63H63.1V33.1852V19.4779V19.3779H63H61.4311L61.3563 19.3609C56.0697 17.9469 52.18 13.1547 52.18 7.46171V6V5.9H52.08H38.2712ZM41.26 8.96772H49.1655C49.7707 15.1796 54.0975 20.3094 60.011 22.1639V30.1625C57.0673 29.952 54.2857 29.1648 51.905 27.9714L51.9047 27.9712L49.2355 26.6465L49.091 26.5748V26.736V48.0112C49.0902 57.6314 41.2333 65.4311 31.5398 65.4311C21.8459 65.4311 13.9888 57.6306 13.9888 48.0097C13.9888 38.9273 20.9913 31.4667 29.9955 30.6561V38.4607C25.3617 39.1953 21.8199 43.1809 21.8199 47.9889C21.8199 53.3187 26.1725 57.6381 31.54 57.6381C36.8996 57.6381 41.2471 53.3316 41.26 48.0114V48.0111V8.96772Z" fill="#A75DF2" stroke="#A75DF2" stroke-width="0.2"/>
</svg>
