<?xml version="1.0" encoding="UTF-8"?>
<svg id="Layer_2" data-name="Layer 2" xmlns="http://www.w3.org/2000/svg" viewBox="0 0 755.3 711.68">
  <g id="Layer_3" data-name="Layer 3">
    <path d="m611.49,698.86c-28.98,0-61.01-5.32-95.56-15.89-90.62-27.74-188.46-88.48-275.48-171.03-87.03-82.55-152.84-177.05-185.31-266.09-15.8-43.32-22.84-83-20.92-117.93,1.99-36.22,13.57-65.73,34.42-87.7C89.5,18.24,118.35,5.12,154.42,1.22c34.79-3.76,74.78,1.18,118.87,14.67,90.62,27.74,188.46,88.48,275.48,171.03,87.03,82.56,152.84,177.05,185.31,266.09,15.8,43.32,22.84,83,20.92,117.93-1.99,36.22-13.57,65.72-34.42,87.7-20.85,21.98-49.71,35.1-85.77,38.99-7.53.81-15.31,1.22-23.31,1.22ZM177.36.91c-45.79,0-82.81,13.45-107.99,39.99-40.95,43.17-45.67,115.83-13.29,204.6,32.42,88.89,98.14,183.26,185.06,265.71s184.61,143.11,275.09,170.8c90.36,27.65,162.67,19.11,203.62-24.05l.36.34-.36-.34c40.95-43.17,45.67-115.83,13.29-204.6-32.42-88.89-98.14-183.26-185.06-265.71C461.16,105.2,363.47,44.54,272.99,16.85,238.19,6.2,206.05.91,177.36.91Z" style="fill: #fff;"/>
    <path d="m610.61,695.85c-29.72,0-62.83-5.9-98.7-17.6-89.13-29.08-185.4-90.74-271.05-173.6S90.4,327.63,58.38,239.5c-15.58-42.88-22.54-82-20.69-116.28,1.92-35.54,13.28-64.3,33.76-85.47S120.3,4.28,155.76,1.18c34.2-2.99,73.53,2.67,116.9,16.82,89.13,29.08,185.4,90.74,271.05,173.6s150.46,177.03,182.48,265.15c15.58,42.88,22.54,82,20.69,116.28-1.92,35.54-13.28,64.3-33.76,85.47s-48.85,33.48-84.31,36.57c-5.92.52-11.99.78-18.2.78ZM173.65,1.31c-42.88,0-77.61,12.47-101.48,37.14-40.21,41.57-44.78,112.85-12.85,200.71,31.97,87.98,96.69,182.01,182.24,264.77s181.67,144.33,270.67,173.37c88.87,29,159.96,22.08,200.18-19.49,40.21-41.57,44.78-112.85,12.85-200.71-31.97-87.98-96.69-182.01-182.24-264.77C457.47,109.56,361.34,47.99,272.35,18.95,236.22,7.16,203.02,1.31,173.65,1.31Z" style="fill: #fff;"/>
    <g>
      <g style="opacity: .51;">
        <g>
          <path d="m60.59,101.73l-9.44,18.7c-6.46,12.81-2.59,28.41,9.11,36.71l12.95,9.18-11.62-6.86c-13.17-7.77-30.11-3.97-38.7,8.67l-11.14,16.39,9.49-17.71c7.16-13.35,2.83-29.97-9.94-38.13L.27,121.64l11.98,6.28c13.27,6.96,29.65,2.66,37.8-9.91l10.54-16.28Z" style="fill: #fff;"/>
          <path d="m12.16,184.8l-.85-.52,9.49-17.71c6.99-13.04,2.7-29.5-9.77-37.47l-11.03-7.05.5-.86,11.98,6.28c13.12,6.88,29.09,2.69,37.14-9.74l10.54-16.28.87.5-9.44,18.7c-6.4,12.69-2.64,27.86,8.95,36.08l12.95,9.18-.54.84-11.62-6.86c-12.91-7.61-29.61-3.87-38.04,8.52l-11.14,16.39Zm-1.78-57.3l1.19.76c12.91,8.25,17.35,25.28,10.11,38.79l-4.99,9.31,5.78-8.5c8.72-12.83,26.01-16.7,39.37-8.82l1.35.8-3.22-2.29c-12-8.51-15.9-24.21-9.27-37.34l5.24-10.39-5.49,8.47c-8.34,12.87-24.87,17.21-38.45,10.08l-1.63-.86Z" style="fill: #fff;"/>
        </g>
      </g>
      <g style="isolation: isolate; opacity: .97;">
        <path d="m44.17,130.43l-.57,1.13c-2.59,5.12-1.04,11.37,3.64,14.69h0c-4.82-2.84-11.02-1.45-14.16,3.17l-.88,1.3.82-1.53c2.61-4.86,1.03-10.9-3.61-13.87h0c4.91,2.57,10.96.98,13.97-3.67l.79-1.23Z" style="fill: #fff;"/>
        <path d="m32.61,151l-.85-.52.82-1.53c2.47-4.6.95-10.4-3.44-13.21l.5-.86c4.71,2.47,10.43.96,13.32-3.5l.79-1.23.87.5-.57,1.13c-2.5,4.94-1.03,10.86,3.49,14.06l-.54.84c-4.58-2.7-10.51-1.37-13.5,3.03l-.88,1.3Zm-.72-14.23c2.53,2.8,3.48,6.76,2.47,10.41,2.8-2.56,6.75-3.51,10.4-2.52-2.56-2.96-3.52-6.98-2.56-10.79-2.73,2.67-6.61,3.75-10.31,2.9Z" style="fill: #fff;"/>
      </g>
    </g>
    <g>
      <g style="opacity: .51;">
        <g>
          <path d="m344.92,12.5l-5.48,10.85c-3.75,7.43-1.5,16.49,5.29,21.31l7.52,5.33-6.75-3.98c-7.65-4.51-17.48-2.31-22.47,5.03l-6.47,9.51,5.51-10.28c4.16-7.75,1.64-17.4-5.77-22.13l-6.4-4.09,6.95,3.65c7.7,4.04,17.21,1.54,21.94-5.75l6.12-9.45Z" style="fill: #fff;"/>
          <path d="m316.98,60.84l-.85-.52,5.51-10.28c4.01-7.48,1.55-16.91-5.6-21.48l-6.4-4.09.5-.86,6.95,3.65c7.52,3.94,16.67,1.54,21.29-5.58l6.12-9.45.87.5-5.48,10.85c-3.67,7.27-1.51,15.97,5.13,20.68l7.52,5.33-.54.84-6.75-3.98c-7.4-4.36-16.97-2.22-21.8,4.88l-6.47,9.51Zm1.16-31.99c6.37,5.15,8.33,14.31,4.38,21.67l-1.01,1.88,1.11-1.63c4.7-6.92,13.66-9.41,21.17-6.18-6.53-5.1-8.56-13.99-4.79-21.46l1.29-2.55-1.06,1.64c-4.59,7.09-13.42,9.77-21.08,6.63Z" style="fill: #fff;"/>
        </g>
      </g>
      <g style="isolation: isolate; opacity: .97;">
        <path d="m335.38,29.16l-.33.66c-1.5,2.98-.6,6.6,2.12,8.53h0c-2.8-1.65-6.4-.84-8.22,1.84l-.51.76.48-.89c1.51-2.82.6-6.33-2.1-8.05h0c2.85,1.49,6.36.57,8.11-2.13l.46-.71Z" style="fill: #fff;"/>
        <path d="m328.85,41.22l-.85-.52.48-.89c1.38-2.57.53-5.82-1.93-7.4l.5-.86c2.63,1.38,5.84.54,7.46-1.96l.46-.71.87.5-.33.66c-1.4,2.78-.58,6.1,1.96,7.9l-.54.84c-2.56-1.51-5.88-.77-7.56,1.69l-.51.75Zm-.06-8.07c1.11,1.47,1.57,3.36,1.24,5.18,1.47-1.11,3.36-1.56,5.17-1.24-1.12-1.54-1.59-3.47-1.29-5.35-1.44,1.16-3.29,1.67-5.12,1.42Z" style="fill: #fff;"/>
      </g>
    </g>
    <g>
      <g style="opacity: .51;">
        <g>
          <path d="m744.72,656.96l-19.89,6.55c-13.63,4.48-21.92,18.26-19.51,32.4l2.66,15.65-3.37-13.07c-3.82-14.81-18.48-24.1-33.5-21.24l-19.46,3.71,19.23-5.81c14.51-4.38,23.19-19.19,19.93-33.99l-2.82-12.78,4.03,12.91c4.46,14.3,19.08,22.85,33.73,19.72l18.97-4.05Z" style="fill: #fff;"/>
          <path d="m707.49,711.68l-3.37-13.07c-3.74-14.51-18.2-23.68-32.92-20.87l-19.46,3.71-.24-.97,19.23-5.81c14.17-4.28,22.77-18.95,19.59-33.4l-2.82-12.79.97-.26,4.03,12.91c4.41,14.14,18.66,22.48,33.15,19.38l18.97-4.05.26.96-19.89,6.55c-13.5,4.44-21.56,17.83-19.18,31.84l2.66,15.65-.98.21Zm-30.97-35.45c13.19,0,25.16,8.93,28.57,22.13l.39,1.52-.66-3.89c-2.47-14.5,5.88-28.36,19.85-32.96l11.05-3.64-9.86,2.11c-15,3.2-29.75-5.42-34.32-20.06l-.55-1.76.3,1.38c3.3,14.96-5.61,30.15-20.28,34.57l-10.11,3.05,10.1-1.93c1.85-.35,3.69-.52,5.51-.52Z" style="fill: #fff;"/>
        </g>
      </g>
      <g style="isolation: isolate; opacity: .97;">
        <path d="m712.81,665.64l-1.2.4c-5.45,1.79-8.77,7.31-7.81,12.97h0c-1.4-5.42-6.76-8.82-12.26-7.77l-1.54.29,1.67-.5c5.28-1.59,8.44-6.98,7.25-12.36h0c1.65,5.29,7.06,8.45,12.47,7.29l1.43-.31Z" style="fill: #fff;"/>
        <path d="m703.31,679.12c-1.33-5.15-6.46-8.4-11.68-7.4l-1.54.29-.24-.97,1.67-.5c5-1.51,8.03-6.68,6.91-11.78l.97-.26c1.58,5.07,6.7,8.06,11.89,6.95l1.43-.31.26.96-1.2.4c-5.26,1.73-8.4,6.95-7.48,12.41l-.98.21Zm-9.29-8.57c3.79.17,7.25,2.29,9.14,5.57.29-3.91,2.45-7.42,5.82-9.44-3.81-.04-7.33-2.02-9.34-5.24-.19,3.77-2.32,7.24-5.62,9.11Z" style="fill: #fff;"/>
      </g>
    </g>
  </g>
</svg>