<?xml version="1.0" encoding="UTF-8"?>
<svg id="Layer_1" data-name="Layer 1" xmlns="http://www.w3.org/2000/svg" viewBox="0 0 516.78 471.24">
  <path d="m13.77,103.66c8.96-18.43,23.09-24.88,43.63-39.66,31.74-22.84,25.99-27.59,46.53-38.85,23.04-12.62,44.54-14.45,60.92-15.69,24.89-1.87,37.78,1.68,93.63,12.72,38.07,7.52,19.14,3.28,98.26,18.86,28.02,5.52,56.61,11.28,92.15,24.84,22.64,8.64,34.24,15.15,43.54,27.11,16.08,20.69,15.49,45.06,15.32,52.09-.19,7.66-1,29.2-15.32,47.49-8.73,11.15-13.46,9.58-24.51,21.45,0,0-16.96,18.22-22.98,43.66-5.88,24.85,4.32,33.31,8.43,69.7,3.09,27.36,6.1,54.13-6.89,77.36-15.02,26.84-44.17,35.98-73.53,45.19-27.85,8.73-68.4,21.45-104.17,2.3-19.8-10.6-30.6-26.93-48.26-53.62-20.29-30.68-16.67-39.07-36.77-63.57-18.35-22.38-39.37-37.33-45.19-41.36-25.39-17.57-32.93-14.94-45.19-29.11-7.83-9.05-7.54-13.35-21.45-52.85-19.35-54.96-24.8-60.54-29.87-64.34-13.92-10.43-28.24-9.94-32.17-22.21-2.56-7.99,1.09-15.75,3.89-21.52Z" style="fill: #00f000;"/>
  <path d="m310.95,471.24c-15.38,0-31.22-2.92-46.43-11.06-21.81-11.67-33.63-29.54-51.52-56.59-9.65-14.58-14.11-24.34-18.04-32.95-4.46-9.76-7.99-17.46-18.17-29.89-16.54-20.18-35.83-34.46-43.35-39.67-10.63-7.35-18.01-11.01-23.94-13.94-8.32-4.12-14.88-7.37-22.94-16.68-6.91-7.99-8.71-13.34-14.67-31.09-2.13-6.34-4.78-14.22-8.45-24.66-17.67-50.21-23.09-57.36-26.78-60.13-4.61-3.45-9.42-5.56-14.07-7.59-8.27-3.62-17.65-7.73-21.28-19.08-3.71-11.58,1.35-21.99,4.37-28.2h0c8.18-16.83,19.96-24.84,34.88-34.98,3.68-2.51,7.49-5.1,11.59-8.04,15.29-11,21.38-17.52,26.28-22.75,5.23-5.59,9.74-10.41,21.19-16.68C124.82,3.46,148.51,1.68,164.18.5c23.02-1.73,36.64,1,77.1,9.09,5.72,1.14,12,2.4,18.95,3.77,15.73,3.11,21.53,4.17,28.89,5.52,10.25,1.88,23,4.21,69.37,13.35,26.55,5.23,56.64,11.15,93.62,25.26,22.24,8.48,36.38,15.78,47.44,30,11.98,15.41,17.77,34.86,17.21,57.83-.52,21.11-6.31,38.88-17.23,52.82-5.43,6.93-9.74,9.86-13.91,12.69-3.35,2.27-6.51,4.42-11.1,9.34-.14.15-15.45,16.92-20.81,39.6-3.04,12.86-1.13,20.28,2.03,32.58,2.18,8.48,4.89,19.03,6.58,34.04,3.16,28.03,6.43,57.01-7.98,82.77-16.77,29.97-48.25,39.84-78.69,49.38-17.52,5.5-40.52,12.71-64.68,12.71ZM176.5,18c-3.51,0-7.09.15-10.97.44-14.97,1.13-35.48,2.67-57.27,14.6-8.92,4.88-11.85,8.01-16.69,13.19-5.14,5.5-12.19,13.03-28.91,25.07-4.29,3.09-8.2,5.74-11.98,8.31-13.68,9.31-22.73,15.46-28.81,27.97h0c-2.69,5.54-4.81,10.48-3.41,14.84,1.06,3.31,3.8,4.77,11.36,8.08,5.06,2.22,11.37,4.98,17.64,9.68,7.47,5.59,13.41,13,32.96,68.55,3.72,10.56,6.39,18.51,8.54,24.9,5.88,17.51,6.81,19.94,11.23,25.05,5.68,6.56,9.81,8.61,17.31,12.32,6.45,3.19,14.49,7.17,26.2,15.27,10.12,7,29.69,21.91,47.03,43.06,11.67,14.23,16.02,23.74,20.62,33.81,3.84,8.4,7.81,17.09,16.69,30.5,16.96,25.64,27.2,41.12,45,50.65,32.44,17.36,69.89,5.62,97.23-2.95,28.34-8.89,55.1-17.28,68.37-41,11.58-20.7,8.78-45.6,5.8-71.96-1.55-13.77-3.99-23.23-6.13-31.58-3.45-13.42-6.17-24.02-2.11-41.2,6.49-27.44,24.39-46.91,25.15-47.72,5.97-6.41,10.51-9.49,14.17-11.97,3.57-2.42,6.15-4.18,9.85-8.89,12.78-16.32,13.25-35.77,13.41-42.16.46-18.71-4.06-34.3-13.43-46.34-7.62-9.8-17.25-15.69-39.65-24.23-35.55-13.56-64.84-19.33-90.68-24.42-46.25-9.11-58.94-11.43-69.13-13.3-7.13-1.31-13.29-2.43-29.13-5.56-6.96-1.38-13.26-2.64-18.99-3.78-32.19-6.44-46.15-9.23-61.24-9.23Z" style="fill: #a75df2;"/>
  <ellipse cx="238.8" cy="108.24" rx="40.22" ry="16.83" transform="translate(66.67 306.01) rotate(-73.35)" style="fill: #a75df2;"/>
  <ellipse cx="318.96" cy="117.82" rx="40.42" ry="14.7" transform="translate(135.71 404.24) rotate(-77.66)" style="fill: #a75df2;"/>
  <path d="m67.63,89.51c.35,2.01,1.53,3.19,4.36,6.1,8.93,9.22,7.09,7.7,8.88,9.28,7.63,6.77,10.79,7.28,17.02,12.59,6.02,5.13,4.83,13.77,7.74,17.27,12.74,15.31,20.96,11.82,43.5,36.4,15.34,16.74,19.59,28.42,22.88,33.94,7.06,11.82,6.02,13.93,18.64,41.21,4.47,9.67,11.41,14.8,15.77,22.7,8.43,15.28,12.16,18.24,27.08,39.85,21.11,30.58,21.09,35.46,33.93,47.36,7.88,7.31,9.42,6.89,20.44,17.2,14.21,13.29,16.68,18.69,25.46,21.11,8.46,2.33,18.24.66,25.36-4.13,8.98-6.02,11.54-15.48,14.49-27.11,2.89-11.38,7.69-16.25,8.79-37.68.75-14.67-4.64-8.19-2.14-43.05,2.1-29.29,1.79-30.72,3.62-36.54,6.14-19.46,22.25-31.21,25.84-34.8,13.43-13.45,14.84-11.1,23.08-22.95,8.42-12.11,10.14-21.93,18.54-24.03,4.59-1.15,4.93.35,11.65.45,7.33.11,19.16-2.17,21.14-8.84,1.24-4.16-1.43-9.83-4.83-10.61-3.58-.82-5.26,4.39-11.47,7.66-2.08,1.09-6.56,2.97-30.2-.59-13.7-2.06-18.21-3.6-21.74-.59-3.18,2.72-4.51,8.23-2.42,11.2,3.76,5.32,16.7-.25,18.72,3.54,1.4,2.61-3.49,7.64-13.89,17.68-12.95,12.5-18,16.88-23.55,22.39-11.9,11.8-17.85,17.7-21.74,25.93-5.73,12.1-5.6,23.47-5.44,37.71.15,12.9,1.86,12.92,2.42,28.29.13,3.58.53,17.28-1.81,35.36-2.13,16.43-3.51,26.27-10.27,37.13-3.61,5.81-8.18,13.15-15.7,14.14-7.41.98-13.66-4.74-20.53-11.2-12.83-12.05-12.13-18.04-23.55-31.23-11.12-12.84-10.17-11.75-21.07-24.46-9.08-10.59-11.85-11.83-22.41-28.57-16.22-25.74-18.55-25.16-26.42-43.32-6.68-15.41-6.53-16.27-14.04-32.7-6.24-13.67-14.06-22.72-22.95-33-8.12-9.39-8.44-19.66-22.24-32.52-21.36-19.9-37.95-23.56-35.74-29.35,1-2.62,5.9-4.69,15.7-8.84,10.21-4.32,13.68-4.34,14.49-7.07,1.61-5.38-8.84-15.25-15.1-13.55-3.88,1.05-3.06,5.71-9.06,10.02-5,3.6-10.57,3.95-13.29,4.13-1.81.12-7.19-1.88-13.73-5.3-12.35-6.44-14.49-18.26-19.48-17.69-2.87.33-5.38,5.35-4.72,9.08Z" style="fill: #a75df2;"/>
</svg>