<?xml version="1.0" encoding="UTF-8"?>
<svg id="Layer_1" data-name="Layer 1" xmlns="http://www.w3.org/2000/svg" viewBox="0 0 134.94 30.86">
  <defs>
    <style>
      .cls-1, .cls-2 {
        fill: #fff;
      }

      .cls-2 {
        stroke: #fff;
      }

      .cls-3 {
        stroke-width: .5px;
      }

      .cls-3, .cls-4 {
        fill: #a75df2;
        stroke: #a75df2;
      }

      .cls-4 {
        stroke-width: .2px;
      }
    </style>
  </defs>
  <ellipse class="cls-2" cx="117.33" cy="15.43" rx="14.9" ry="15.01"/>
  <ellipse class="cls-2" cx="16.01" cy="15.43" rx="14.9" ry="15.01"/>
  <ellipse class="cls-2" cx="65.83" cy="15.43" rx="14.9" ry="15.01"/>
  <path class="cls-4" d="m122.17,2.23h0s0,0,0,0h0s0,0,0,0h0s0,0,0,0c-5.26.04-9.5,4.34-9.5,9.64h0v.43h-3.34v5.85h3.34v10.07h6.91v-10.07h3.33v-5.85h-3.33v-.43h0c0-1.48,1.19-2.68,2.65-2.68h1.8V2.23h-1.85Zm-8.25,11.44h.1v-1.8h0c.01-4.54,3.65-8.22,8.15-8.27h.48v4.22s-.43,0-.43,0c-2.22,0-4.01,1.81-4.01,4.04h0v1.81h3.33v3.11h-3.33v10.07h-4.19v-10.07h-3.34v-3.11h3.24Z"/>
  <path class="cls-3" d="m59.35,4.43h0c-2.45,0-4.44,2.01-4.44,4.47h0v13.06h0c0,2.47,1.99,4.47,4.44,4.47h12.96c2.45,0,4.44-2.01,4.44-4.47h0v-13.06h0c0-2.47-1.99-4.47-4.44-4.47h-12.96Zm6.48,5.6h0c-2.96,0-5.36,2.42-5.36,5.4h0c0,2.98,2.4,5.4,5.36,5.4s5.36-2.42,5.36-5.4-2.4-5.4-5.36-5.4Zm9.45-1.13v13.06c0,1.65-1.33,2.99-2.97,2.99h-12.96c-1.64,0-2.97-1.34-2.97-2.99v-13.06c0-1.65,1.33-2.99,2.97-2.99h12.96c1.64,0,2.97,1.34,2.97,3Zm-5.56,6.53c0,2.17-1.74,3.92-3.89,3.92-2.15,0-3.89-1.76-3.89-3.92,0-2.17,1.74-3.92,3.89-3.92s3.89,1.75,3.89,3.92Zm2.12-4.41c.91,0,1.64-.74,1.64-1.65s-.73-1.65-1.64-1.65-1.64.74-1.64,1.65.73,1.65,1.64,1.65Z"/>
  <path class="cls-3" d="m14.8,2.21h5.76v.69c0,2.28,1.55,4.2,3.65,4.77h.02s.62,0,.62,0h.1v5.76h-.68c-1.31,0-2.57-.25-3.71-.71v6.63c0,4.62-3.75,8.37-8.37,8.37s-8.37-3.75-8.37-8.37,3.75-8.37,8.37-8.37h.68v5.75h-.69c-1.44,0-2.62,1.17-2.62,2.62s1.17,2.62,2.62,2.62,2.61-1.17,2.62-2.61h0"/>
  <path class="cls-1" d="m19.3,3.59c.26,2.51,1.99,4.58,4.34,5.34v3.14c-1.15-.09-2.23-.41-3.16-.88h0s-1.07-.54-1.07-.54l-.14-.07v8.8c0,3.87-3.12,7.01-6.97,7.01s-6.97-3.14-6.97-7.02c0-3.64,2.75-6.62,6.29-6.98v3.05c-1.86.32-3.27,1.96-3.27,3.92,0,2.2,1.77,3.98,3.95,3.98s3.95-1.78,3.95-3.97h0V3.59h3.05Z"/>
  <line class="cls-3" x1="14.79" y1="19.35" x2="14.79" y2="2.04"/>
</svg>