<?xml version="1.0" encoding="UTF-8"?>
<svg id="Layer_1" data-name="Layer 1" xmlns="http://www.w3.org/2000/svg" viewBox="0 0 991.15 255.21">
  <defs>
    <style>
      .cls-1 {
        fill: #fff;
      }

      .cls-2 {
        opacity: .51;
      }

      .cls-3 {
        opacity: .97;
      }
    </style>
  </defs>
  <g>
    <path class="cls-1" d="m3.93,70.68h17.6v4.95h-11.93v10.61h9.28v5h-9.28v16.93H3.93v-37.48Z"/>
    <path class="cls-1" d="m28.46,70.68h5.71v37.48h-5.71v-37.48Z"/>
    <path class="cls-1" d="m51.46,91.39l-3.06,3.77v13h-5.61v-37.48h5.61v16.73l12.85-16.73h6.83l-12.9,16.47,14.74,21.01h-6.99l-11.48-16.78Z"/>
    <path class="cls-1" d="m85.63,70.68h9.03c7.55,0,12.83,1.78,15.84,5.35,3.01,3.57,4.51,7.82,4.51,12.75,0,3.43-.65,6.6-1.94,9.51-1.29,2.91-3.43,5.28-6.4,7.11-2.98,1.84-6.88,2.75-11.7,2.75h-9.33v-37.48Zm9.94,32.44c4.69,0,8.1-1.33,10.23-4,2.12-2.67,3.19-6.03,3.19-10.07s-1.07-7.16-3.21-9.64c-2.14-2.48-5.54-3.72-10.2-3.72h-4.23v27.44h4.23Z"/>
    <path class="cls-1" d="m123.42,104.44c-2.11-2.82-3.16-6.92-3.16-12.29v-21.47h5.71v21.57c0,3.98.59,6.83,1.79,8.54,1.19,1.72,3.14,2.58,5.86,2.58s4.67-.84,5.84-2.52c1.17-1.68,1.76-4.55,1.76-8.59v-21.57h5.76v21.47c0,5.34-1.12,9.43-3.34,12.27-2.23,2.84-5.57,4.26-10.02,4.26-4.69,0-8.09-1.41-10.2-4.23Z"/>
    <path class="cls-1" d="m167.63,70.68h5.71v37.48h-5.71v-37.48Z"/>
    <path class="cls-1" d="m190.63,91.39l-3.06,3.77v13h-5.61v-37.48h5.61v16.73l12.85-16.73h6.83l-12.9,16.47,14.74,21.01h-6.99l-11.47-16.78Z"/>
    <path class="cls-1" d="m220.98,91.39l-3.06,3.77v13h-5.61v-37.48h5.61v16.73l12.85-16.73h6.83l-12.9,16.47,14.74,21.01h-6.99l-11.47-16.78Z"/>
    <path class="cls-1" d="m242.6,70.68h16.42v5h-10.76v10.35h8.67v5.1h-8.67v11.99h12.44v5.05h-18.11v-37.48Z"/>
    <path class="cls-1" d="m281.51,107.6c-2.01-.71-3.45-1.51-4.33-2.4l2.7-4.85c.71.65,1.83,1.32,3.34,2.01,1.51.7,2.97,1.05,4.36,1.05,1.8,0,3.27-.42,4.41-1.27,1.14-.85,1.71-2.02,1.71-3.52,0-1.16-.31-2.16-.92-3.01-.61-.85-1.36-1.56-2.24-2.12s-2.14-1.25-3.77-2.07c-1.94-.95-3.26-1.67-3.98-2.14-3.3-2.21-4.95-5.27-4.95-9.18,0-3.23,1.07-5.7,3.21-7.42,2.14-1.72,4.84-2.58,8.11-2.58,3.5,0,6.48,1,8.92,3.01l-2.7,4.64c-.65-.68-1.56-1.27-2.73-1.76-1.17-.49-2.42-.74-3.75-.74-1.7,0-3.03.38-4,1.15-.97.77-1.45,1.9-1.45,3.39,0,1.05.31,2,.92,2.83.61.83,1.38,1.56,2.32,2.17.94.61,2.2,1.36,3.8,2.24,1.53.85,2.7,1.52,3.52,2.01.82.49,1.58,1.08,2.29,1.76.99.88,1.78,1.94,2.4,3.16.61,1.22.92,2.57.92,4.03,0,2.28-.52,4.22-1.56,5.81-1.04,1.6-2.46,2.81-4.28,3.62-1.82.82-3.88,1.22-6.2,1.22-2.04,0-4.06-.36-6.07-1.07Z"/>
    <path class="cls-1" d="m300.94,70.68h6.48l11.22,25.75,11.27-25.75h6.43l-17.29,37.48h-.76l-17.34-37.48Z"/>
    <path class="cls-1" d="m350.42,70.63l18.05,37.54h-6.58l-3.21-7.34h-17.19l-3.21,7.34h-6.38l17.95-37.54h.56Zm-2.55,15.96l-4.08,9.08h12.65l-4.03-9.03-2.19-5.15h-.1l-2.24,5.1Z"/>
    <path class="cls-1" d="m390.35,108.17l-7.55-14.18c-1.56.07-2.96.1-4.18.1h-1.43v14.08h-5.56v-37.48h8.52c4.32,0,7.87.89,10.66,2.68,2.79,1.79,4.18,4.68,4.18,8.7,0,2.52-.59,4.68-1.76,6.5-1.17,1.82-2.92,3.22-5.23,4.21l8.93,15.4h-6.58Zm-9.54-18.72c3.33,0,5.62-.72,6.86-2.17,1.24-1.44,1.86-3.17,1.86-5.18,0-4.45-2.98-6.68-8.92-6.68h-3.42v14.03h3.62Z"/>
    <path class="cls-1" d="m415.23,70.68h8.26c4.66,0,8.07.99,10.23,2.98,2.16,1.99,3.24,4.72,3.24,8.19,0,4.01-1.17,7.09-3.52,9.23-2.35,2.14-5.83,3.21-10.45,3.21h-1.99v13.87h-5.76v-37.48Zm7.91,18.56c2.99,0,5.08-.66,6.27-1.99,1.19-1.33,1.79-2.92,1.79-4.79,0-2.01-.58-3.64-1.73-4.9-1.16-1.26-3.09-1.89-5.81-1.89h-2.65v13.57h2.14Z"/>
    <path class="cls-1" d="m453.18,70.63l18.05,37.54h-6.58l-3.21-7.34h-17.19l-3.21,7.34h-6.38l17.95-37.54h.56Zm-3.98-2.01c-1.16-.56-2.07-1.34-2.75-2.35-.68-1-1.02-2.15-1.02-3.44,0-1.9.74-3.46,2.22-4.67,1.48-1.21,3.26-1.81,5.33-1.81,1.33,0,2.57.27,3.72.82,1.16.54,2.08,1.32,2.78,2.32.7,1,1.05,2.12,1.05,3.34s-.35,2.39-1.05,3.39-1.62,1.79-2.78,2.37c-1.16.58-2.4.87-3.72.87s-2.62-.28-3.77-.84Zm1.43,17.98l-4.08,9.08h12.65l-4.03-9.03-2.19-5.15h-.1l-2.24,5.1Zm4.51-21.65c.59-.56.89-1.27.89-2.12s-.3-1.49-.89-2.01c-.59-.53-1.32-.79-2.17-.79s-1.56.26-2.14.79c-.58.53-.87,1.2-.87,2.01s.29,1.56.87,2.12,1.29.84,2.14.84,1.57-.28,2.17-.84Z"/>
    <path class="cls-1" d="m486.89,70.68h9.03c7.55,0,12.83,1.78,15.84,5.35,3.01,3.57,4.51,7.82,4.51,12.75,0,3.43-.65,6.6-1.94,9.51-1.29,2.91-3.43,5.28-6.4,7.11-2.98,1.84-6.88,2.75-11.71,2.75h-9.33v-37.48Zm9.95,32.44c4.69,0,8.1-1.33,10.23-4,2.12-2.67,3.19-6.03,3.19-10.07s-1.07-7.16-3.21-9.64c-2.14-2.48-5.54-3.72-10.2-3.72h-4.23v27.44h4.23Z"/>
    <path class="cls-1" d="m522.64,70.68h5.71v37.48h-5.71v-37.48Z"/>
    <path class="cls-1" d="m544.11,75.68h-9.59v-5h24.94v5h-9.69v32.49h-5.66v-32.49Z"/>
    <path class="cls-1" d="m580.01,107.6c-2.01-.71-3.45-1.51-4.33-2.4l2.7-4.85c.71.65,1.83,1.32,3.34,2.01,1.51.7,2.97,1.05,4.36,1.05,1.8,0,3.27-.42,4.41-1.27,1.14-.85,1.71-2.02,1.71-3.52,0-1.16-.31-2.16-.92-3.01-.61-.85-1.36-1.56-2.24-2.12s-2.14-1.25-3.77-2.07c-1.94-.95-3.26-1.67-3.98-2.14-3.3-2.21-4.95-5.27-4.95-9.18,0-3.23,1.07-5.7,3.21-7.42,2.14-1.72,4.84-2.58,8.11-2.58,3.5,0,6.48,1,8.92,3.01l-2.7,4.64c-.65-.68-1.56-1.27-2.73-1.76-1.17-.49-2.42-.74-3.75-.74-1.7,0-3.03.38-4,1.15-.97.77-1.45,1.9-1.45,3.39,0,1.05.31,2,.92,2.83.61.83,1.38,1.56,2.32,2.17.94.61,2.2,1.36,3.8,2.24,1.53.85,2.7,1.52,3.52,2.01.82.49,1.58,1.08,2.29,1.76.99.88,1.78,1.94,2.4,3.16.61,1.22.92,2.57.92,4.03,0,2.28-.52,4.22-1.56,5.81-1.04,1.6-2.46,2.81-4.28,3.62-1.82.82-3.88,1.22-6.2,1.22-2.04,0-4.06-.36-6.07-1.07Z"/>
    <path class="cls-1" d="m604.24,70.68h8.26c4.66,0,8.07.99,10.23,2.98,2.16,1.99,3.24,4.72,3.24,8.19,0,4.01-1.17,7.09-3.52,9.23-2.35,2.14-5.83,3.21-10.45,3.21h-1.99v13.87h-5.76v-37.48Zm7.91,18.56c2.99,0,5.08-.66,6.27-1.99,1.19-1.33,1.79-2.92,1.79-4.79,0-2.01-.58-3.64-1.73-4.9-1.16-1.26-3.09-1.89-5.81-1.89h-2.65v13.57h2.14Z"/>
    <path class="cls-1" d="m664.75,79.17c1.68,2.91,2.52,6.3,2.52,10.17s-.85,7.28-2.55,10.2c-1.7,2.92-3.99,5.18-6.86,6.76s-6.01,2.37-9.41,2.37c-2.28,0-4.42-.36-6.43-1.07l-2.75,6.12-2.91-1.33,2.75-6.07c-2.92-1.6-5.24-3.86-6.94-6.78-1.7-2.92-2.55-6.32-2.55-10.2s.85-7.32,2.55-10.23c1.7-2.91,3.99-5.14,6.86-6.71,2.87-1.56,6.01-2.35,9.41-2.35,2.28,0,4.47.36,6.58,1.07l2.35-5.2,2.86,1.27-2.35,5.2c2.89,1.6,5.18,3.85,6.86,6.76Zm-27.54,17.42c1,2.04,2.39,3.64,4.16,4.79l11.47-25.4c-1.43-.48-2.89-.71-4.39-.71-2.38,0-4.54.54-6.48,1.63-1.94,1.09-3.47,2.7-4.59,4.82-1.12,2.12-1.68,4.68-1.68,7.68,0,2.75.5,5.15,1.5,7.19Zm17.67,5.28c1.94-1.1,3.48-2.72,4.62-4.85,1.14-2.12,1.71-4.67,1.71-7.62,0-2.79-.49-5.2-1.48-7.24-.99-2.04-2.35-3.64-4.08-4.79l-11.48,25.45c1.43.48,2.86.71,4.28.71,2.35,0,4.49-.55,6.43-1.66Z"/>
    <path class="cls-1" d="m692.26,108.17l-7.55-14.18c-1.56.07-2.96.1-4.18.1h-1.43v14.08h-5.56v-37.48h8.52c4.32,0,7.87.89,10.66,2.68,2.79,1.79,4.18,4.68,4.18,8.7,0,2.52-.59,4.68-1.76,6.5-1.17,1.82-2.92,3.22-5.23,4.21l8.93,15.4h-6.58Zm-9.54-18.72c3.33,0,5.62-.72,6.86-2.17,1.24-1.44,1.86-3.17,1.86-5.18,0-4.45-2.98-6.68-8.92-6.68h-3.42v14.03h3.62Z"/>
    <path class="cls-1" d="m712.21,106.13c-2.92-1.7-5.21-4.04-6.86-7.01-1.65-2.97-2.47-6.31-2.47-10.02s.83-6.85,2.5-9.74c1.67-2.89,3.98-5.15,6.94-6.78,2.96-1.63,6.29-2.45,10-2.45,2.01,0,3.82.18,5.43.54,1.61.36,2.93.77,3.95,1.22,1.02.46,1.72.86,2.09,1.2l-2.24,4.79c-2.11-1.7-5.22-2.55-9.33-2.55-2.72,0-5.08.6-7.09,1.79-2.01,1.19-3.54,2.81-4.59,4.85s-1.58,4.32-1.58,6.83c0,2.86.57,5.41,1.71,7.65,1.14,2.24,2.72,3.99,4.74,5.23,2.02,1.24,4.31,1.86,6.86,1.86,1.6,0,3.13-.2,4.59-.59,1.46-.39,2.7-1.01,3.72-1.86v-7.24h-7.7v-5.25h13.36v14.69c-1.22,1.53-3.07,2.81-5.53,3.85-2.47,1.04-5.31,1.56-8.54,1.56-3.71,0-7.02-.85-9.94-2.55Z"/>
    <path class="cls-1" d="m745.15,107.6c-2.01-.71-3.45-1.51-4.33-2.4l2.7-4.85c.71.65,1.83,1.32,3.34,2.01,1.51.7,2.97,1.05,4.36,1.05,1.8,0,3.27-.42,4.41-1.27,1.14-.85,1.71-2.02,1.71-3.52,0-1.16-.31-2.16-.92-3.01-.61-.85-1.36-1.56-2.24-2.12s-2.14-1.25-3.77-2.07c-1.94-.95-3.26-1.67-3.98-2.14-3.3-2.21-4.95-5.27-4.95-9.18,0-3.23,1.07-5.7,3.21-7.42,2.14-1.72,4.84-2.58,8.11-2.58,3.5,0,6.48,1,8.92,3.01l-2.7,4.64c-.65-.68-1.56-1.27-2.73-1.76-1.17-.49-2.42-.74-3.75-.74-1.7,0-3.03.38-4,1.15-.97.77-1.45,1.9-1.45,3.39,0,1.05.31,2,.92,2.83.61.83,1.38,1.56,2.32,2.17.94.61,2.2,1.36,3.8,2.24,1.53.85,2.7,1.52,3.52,2.01.82.49,1.58,1.08,2.29,1.76.99.88,1.78,1.94,2.4,3.16.61,1.22.92,2.57.92,4.03,0,2.28-.52,4.22-1.56,5.81-1.04,1.6-2.46,2.81-4.28,3.62-1.82.82-3.88,1.22-6.2,1.22-2.04,0-4.06-.36-6.07-1.07Z"/>
    <path class="cls-1" d="m779.01,90.67l-2.35-5.3-1.07,5.3-3.47,17.49h-5.66l7.75-37.48h.61l10.3,20.25,3.06,6.78,3.06-6.78,10.1-20.25h.56l8.06,37.48h-5.61l-3.77-17.49-1.12-5.3-2.04,5.3-9.08,17.49h-.31l-9.03-17.49Z"/>
    <path class="cls-1" d="m828.74,70.63l18.05,37.54h-6.58l-3.21-7.34h-17.19l-3.21,7.34h-6.38l17.95-37.54h.56Zm-3.98-2.01c-1.16-.56-2.07-1.34-2.75-2.35-.68-1-1.02-2.15-1.02-3.44,0-1.9.74-3.46,2.22-4.67,1.48-1.21,3.26-1.81,5.33-1.81,1.33,0,2.57.27,3.72.82,1.16.54,2.08,1.32,2.78,2.32.7,1,1.05,2.12,1.05,3.34s-.35,2.39-1.05,3.39-1.62,1.79-2.78,2.37c-1.16.58-2.4.87-3.72.87s-2.62-.28-3.77-.84Zm1.43,17.98l-4.08,9.08h12.65l-4.03-9.03-2.19-5.15h-.1l-2.24,5.1Zm4.51-21.65c.59-.56.89-1.27.89-2.12s-.3-1.49-.89-2.01c-.59-.53-1.32-.79-2.17-.79s-1.56.26-2.14.79c-.58.53-.87,1.2-.87,2.01s.29,1.56.87,2.12,1.29.84,2.14.84,1.57-.28,2.17-.84Z"/>
    <path class="cls-1" d="m849.95,70.68h5.76v32.38h10.76v5.1h-16.52v-37.48Z"/>
    <path class="cls-1" d="m876.52,94.24c0-1.63.4-2.98,1.2-4.03.8-1.05,1.98-2.21,3.54-3.47,1.46-1.19,2.56-2.26,3.29-3.21.73-.95,1.1-2.12,1.1-3.52s-.49-2.54-1.45-3.44c-.97-.9-2.32-1.35-4.05-1.35-1.05,0-1.97.21-2.75.64-.78.43-1.4.92-1.86,1.48s-.76,1.06-.89,1.5l-5.1-2.55c.54-.95,1.11-1.82,1.71-2.6.59-.78,1.67-1.58,3.24-2.4s3.55-1.22,5.97-1.22c2.17,0,4.12.42,5.84,1.25,1.72.83,3.05,1.97,4,3.42.95,1.45,1.43,3.03,1.43,4.77,0,1.6-.27,2.98-.82,4.13-.54,1.16-1.2,2.12-1.96,2.88s-1.76,1.62-2.98,2.58c-1.36,1.05-2.35,1.94-2.96,2.65-.61.71-.92,1.6-.92,2.65,0,.68.03,1.41.1,2.19h-5.35c-.2-.71-.31-1.5-.31-2.35Zm.84,13.39c-.7-.7-1.04-1.56-1.04-2.58s.35-1.93,1.04-2.63c.7-.7,1.57-1.05,2.63-1.05s1.89.35,2.6,1.05c.71.7,1.07,1.57,1.07,2.63s-.36,1.88-1.07,2.58c-.71.7-1.58,1.05-2.6,1.05s-1.93-.35-2.63-1.05Z"/>
  </g>
  <g>
    <path class="cls-1" d="m318.97,179.48c-2.01-.71-3.45-1.51-4.33-2.4l2.7-4.84c.71.65,1.83,1.32,3.34,2.01,1.51.7,2.97,1.05,4.36,1.05,1.8,0,3.27-.42,4.41-1.27,1.14-.85,1.71-2.02,1.71-3.52,0-1.16-.31-2.16-.92-3.01-.61-.85-1.36-1.56-2.24-2.12-.88-.56-2.14-1.25-3.77-2.07-1.94-.95-3.26-1.67-3.98-2.14-3.3-2.21-4.95-5.27-4.95-9.18,0-3.23,1.07-5.7,3.21-7.42,2.14-1.72,4.84-2.58,8.11-2.58,3.5,0,6.48,1,8.92,3.01l-2.7,4.64c-.65-.68-1.56-1.27-2.73-1.76-1.17-.49-2.42-.74-3.75-.74-1.7,0-3.03.38-4,1.15-.97.77-1.45,1.9-1.45,3.39,0,1.05.31,2,.92,2.83.61.83,1.38,1.55,2.32,2.17.94.61,2.2,1.36,3.8,2.24,1.53.85,2.7,1.52,3.52,2.01.82.49,1.58,1.08,2.29,1.76.99.88,1.78,1.94,2.4,3.16.61,1.22.92,2.57.92,4.03,0,2.28-.52,4.22-1.56,5.81-1.04,1.6-2.46,2.81-4.28,3.62-1.82.82-3.88,1.22-6.2,1.22-2.04,0-4.06-.36-6.07-1.07Z"/>
    <path class="cls-1" d="m351.87,163.26l-3.06,3.77v13h-5.61v-37.48h5.61v16.73l12.85-16.73h6.83l-12.9,16.47,14.74,21.01h-6.99l-11.47-16.78Z"/>
    <path class="cls-1" d="m392.26,180.04l-7.55-14.18c-1.56.07-2.96.1-4.18.1h-1.43v14.08h-5.56v-37.48h8.52c4.32,0,7.87.89,10.66,2.68,2.79,1.79,4.18,4.68,4.18,8.7,0,2.52-.59,4.68-1.76,6.5-1.17,1.82-2.92,3.22-5.23,4.21l8.93,15.4h-6.58Zm-9.54-18.72c3.33,0,5.62-.72,6.86-2.17,1.24-1.44,1.86-3.17,1.86-5.18,0-4.45-2.98-6.68-8.92-6.68h-3.42v14.03h3.62Z"/>
    <path class="cls-1" d="m405.31,142.55h5.71v37.48h-5.71v-37.48Z"/>
    <path class="cls-1" d="m414.85,142.55h6.48l11.22,25.75,11.27-25.75h6.43l-17.29,37.48h-.76l-17.34-37.48Z"/>
    <path class="cls-1" d="m473.04,147.55h-9.59v-5h24.94v5h-9.69v32.49h-5.66v-32.49Z"/>
    <path class="cls-1" d="m494.56,142.55h5.71v37.48h-5.71v-37.48Z"/>
    <path class="cls-1" d="m508.89,142.55h5.76v32.38h10.76v5.1h-16.52v-37.48Z"/>
    <path class="cls-1" d="m125.2,208.75h-9.59v-5h24.94v5h-9.69v32.49h-5.66v-32.49Z"/>
    <path class="cls-1" d="m146.01,203.75h5.71v15.3h13.21v-15.3h5.71v37.49h-5.71v-17.39h-13.21v17.39h-5.71v-37.49Z"/>
    <path class="cls-1" d="m197.27,241.24l-7.55-14.18c-1.56.07-2.96.1-4.18.1h-1.43v14.08h-5.56v-37.49h8.52c4.32,0,7.87.89,10.66,2.68,2.79,1.79,4.18,4.68,4.18,8.7,0,2.52-.59,4.68-1.76,6.5-1.17,1.82-2.92,3.22-5.23,4.21l8.92,15.4h-6.58Zm-9.54-18.72c3.33,0,5.62-.72,6.86-2.17,1.24-1.45,1.86-3.17,1.86-5.18,0-4.45-2.98-6.68-8.92-6.68h-3.42v14.03h3.62Z"/>
    <path class="cls-1" d="m210.32,203.75h5.71v37.49h-5.71v-37.49Z"/>
    <path class="cls-1" d="m224.6,203.75h17.6v4.95h-11.93v10.61h9.28v5h-9.28v16.93h-5.66v-37.49Z"/>
    <path class="cls-1" d="m255.61,208.75h-9.59v-5h24.94v5h-9.69v32.49h-5.66v-32.49Z"/>
    <path class="cls-1" d="m276.47,203.75h8.26c4.66,0,8.07.99,10.23,2.98,2.16,1.99,3.24,4.72,3.24,8.19,0,4.01-1.17,7.09-3.52,9.23-2.35,2.14-5.83,3.21-10.45,3.21h-1.99v13.87h-5.76v-37.49Zm7.91,18.56c2.99,0,5.08-.66,6.27-1.99,1.19-1.33,1.79-2.92,1.79-4.79,0-2.01-.58-3.64-1.73-4.9-1.16-1.26-3.09-1.89-5.81-1.89h-2.65v13.57h2.14Z"/>
    <path class="cls-1" d="m303.5,203.75h5.76v32.38h10.76v5.1h-16.52v-37.49Z"/>
    <path class="cls-1" d="m339.25,203.7l18.05,37.54h-6.58l-3.21-7.34h-17.19l-3.21,7.34h-6.38l17.95-37.54h.56Zm-2.55,15.96l-4.08,9.08h12.65l-4.03-9.03-2.19-5.15h-.1l-2.24,5.1Z"/>
    <path class="cls-1" d="m366.02,216.96l.15,4.08v20.2h-5.71v-37.54h.71l22.03,24.58-.2-4.28v-20.25h5.71v37.49h-.77l-21.93-24.28Z"/>
    <path class="cls-1" d="m396.62,203.75h16.42v5h-10.76v10.35h8.67v5.1h-8.67v11.99h12.44v5.05h-18.11v-37.49Z"/>
    <path class="cls-1" d="m427.63,208.75h-9.59v-5h24.94v5h-9.69v32.49h-5.66v-32.49Z"/>
    <path class="cls-1" d="m456.98,248.25c-3.15-1.58-5.55-3.78-7.22-6.6s-2.5-6.05-2.5-9.69c0-4.56,1.15-8.63,3.44-12.21,2.29-3.59,5.44-6.38,9.44-8.39,3.99-2.01,8.44-3.01,13.34-3.01,3.84,0,7.09.7,9.74,2.09s4.64,3.27,5.97,5.63c1.33,2.36,1.99,4.97,1.99,7.83s-.61,5.63-1.84,8.11c-1.22,2.48-2.92,4.46-5.07,5.94-2.16,1.48-4.58,2.22-7.27,2.22-2.52,0-3.88-1.16-4.08-3.47-.82,1.12-1.81,1.96-2.98,2.5-1.17.54-2.46.82-3.85.82-2.35,0-4.28-.78-5.79-2.35-1.51-1.56-2.27-3.71-2.27-6.43,0-2.45.53-4.61,1.58-6.48,1.05-1.87,2.46-3.31,4.23-4.31,1.77-1,3.69-1.5,5.76-1.5,1.63,0,2.87.26,3.72.79.85.53,1.44,1.27,1.78,2.22l.66-2.8h4.79l-3.16,13.82c-.17.78-.25,1.36-.25,1.73,0,.54.13.93.38,1.15s.64.33,1.15.33c1.73,0,3.25-.64,4.56-1.91,1.31-1.27,2.32-2.84,3.03-4.69.71-1.85,1.07-3.63,1.07-5.33,0-3.77-1.22-6.82-3.67-9.13-2.45-2.31-6.09-3.47-10.91-3.47-4.01,0-7.66.86-10.94,2.58-3.28,1.72-5.87,4.07-7.75,7.06s-2.83,6.34-2.83,10.05c0,3.33.7,6.18,2.09,8.54,1.39,2.36,3.37,4.16,5.94,5.38,2.57,1.22,5.58,1.84,9.05,1.84,3.84,0,7.29-.73,10.35-2.19l1.48,3.16c-3.88,1.7-7.89,2.55-12.04,2.55s-8-.79-11.14-2.37Zm14.02-13.67c.94-.83,1.64-1.89,2.12-3.16.48-1.28.71-2.54.71-3.8,0-1.46-.33-2.6-1-3.42-.66-.82-1.67-1.22-3.03-1.22-1.97,0-3.57.76-4.79,2.27s-1.84,3.43-1.84,5.74c0,1.46.37,2.63,1.12,3.52.75.88,1.84,1.33,3.26,1.33s2.51-.42,3.44-1.25Z"/>
    <path class="cls-1" d="m505.46,239.2c-2.92-1.7-5.21-4.04-6.86-7.01-1.65-2.97-2.47-6.32-2.47-10.02s.83-6.85,2.5-9.74c1.67-2.89,3.98-5.15,6.94-6.78,2.96-1.63,6.29-2.45,10-2.45,2.01,0,3.82.18,5.43.54,1.61.36,2.93.77,3.95,1.22,1.02.46,1.72.86,2.09,1.2l-2.24,4.79c-2.11-1.7-5.22-2.55-9.33-2.55-2.72,0-5.08.6-7.09,1.79-2.01,1.19-3.54,2.81-4.59,4.85s-1.58,4.32-1.58,6.83c0,2.86.57,5.41,1.71,7.65,1.14,2.24,2.72,3.99,4.74,5.23,2.02,1.24,4.31,1.86,6.86,1.86,1.6,0,3.13-.2,4.59-.59,1.46-.39,2.7-1.01,3.72-1.86v-7.24h-7.7v-5.25h13.36v14.69c-1.22,1.53-3.07,2.81-5.53,3.85-2.47,1.04-5.31,1.56-8.54,1.56-3.71,0-7.02-.85-9.94-2.55Z"/>
    <path class="cls-1" d="m545.49,223.75l-2.35-5.3-1.07,5.3-3.47,17.49h-5.66l7.75-37.49h.61l10.3,20.25,3.06,6.78,3.06-6.78,10.1-20.25h.56l8.06,37.49h-5.61l-3.77-17.49-1.12-5.3-2.04,5.3-9.08,17.49h-.31l-9.03-17.49Z"/>
    <path class="cls-1" d="m595.21,203.7l18.05,37.54h-6.58l-3.21-7.34h-17.19l-3.21,7.34h-6.38l17.95-37.54h.56Zm-2.55,15.96l-4.08,9.08h12.65l-4.03-9.03-2.19-5.15h-.1l-2.24,5.1Z"/>
    <path class="cls-1" d="m617.09,203.75h5.71v37.49h-5.71v-37.49Z"/>
    <path class="cls-1" d="m631.42,203.75h5.76v32.38h10.76v5.1h-16.52v-37.49Z"/>
    <path class="cls-1" d="m654.27,240.7c-.71-.7-1.07-1.55-1.07-2.57s.35-1.93,1.05-2.63c.7-.7,1.57-1.05,2.63-1.05s1.93.35,2.63,1.05c.7.7,1.05,1.57,1.05,2.63s-.35,1.88-1.05,2.57c-.7.7-1.57,1.05-2.63,1.05s-1.89-.35-2.6-1.05Z"/>
    <path class="cls-1" d="m671.69,238.99c-2.84-1.73-5.01-4.05-6.5-6.96-1.5-2.91-2.24-6.11-2.24-9.61,0-3.71.81-7.02,2.42-9.95,1.61-2.92,3.88-5.21,6.81-6.86,2.92-1.65,6.24-2.47,9.95-2.47,1.67,0,3.22.18,4.67.54s2.64.77,3.6,1.22c.95.46,1.58.84,1.89,1.15l-2.5,5.1c-2.07-1.84-4.78-2.75-8.11-2.75-2.35,0-4.47.58-6.38,1.73-1.9,1.16-3.4,2.8-4.49,4.95-1.09,2.14-1.63,4.62-1.63,7.45,0,2.58.48,4.93,1.45,7.04.97,2.11,2.39,3.77,4.26,5,1.87,1.22,4.1,1.84,6.68,1.84,2.99,0,5.88-.85,8.67-2.55l1.68,4.85c-.75.68-2.12,1.33-4.11,1.96s-4,.94-6.04.94c-3.88,0-7.23-.87-10.07-2.6Z"/>
    <path class="cls-1" d="m704.12,239.38c-2.87-1.58-5.16-3.83-6.86-6.76-1.7-2.92-2.55-6.32-2.55-10.2s.85-7.32,2.55-10.22c1.7-2.91,3.99-5.14,6.86-6.71,2.87-1.56,6.01-2.35,9.41-2.35s6.54.78,9.41,2.35c2.87,1.56,5.16,3.8,6.86,6.71,1.7,2.91,2.55,6.32,2.55,10.22s-.85,7.28-2.55,10.2c-1.7,2.92-3.99,5.18-6.86,6.76-2.87,1.58-6.01,2.37-9.41,2.37s-6.54-.79-9.41-2.37Zm15.83-4.44c1.94-1.11,3.48-2.72,4.62-4.85,1.14-2.12,1.71-4.67,1.71-7.62s-.57-5.55-1.71-7.67c-1.14-2.12-2.67-3.73-4.59-4.82-1.92-1.09-4.07-1.63-6.45-1.63s-4.54.54-6.48,1.63c-1.94,1.09-3.47,2.7-4.59,4.82-1.12,2.12-1.68,4.68-1.68,7.67s.58,5.5,1.73,7.62c1.16,2.12,2.71,3.74,4.67,4.85,1.96,1.1,4.07,1.66,6.35,1.66s4.49-.55,6.43-1.66Z"/>
    <path class="cls-1" d="m748.36,223.75l-2.35-5.3-1.07,5.3-3.47,17.49h-5.66l7.75-37.49h.61l10.3,20.25,3.06,6.78,3.06-6.78,10.1-20.25h.56l8.06,37.49h-5.61l-3.77-17.49-1.12-5.3-2.04,5.3-9.08,17.49h-.31l-9.03-17.49Z"/>
  </g>
  <g class="cls-2">
    <g>
      <path class="cls-1" d="m936.92.32l2.55,24.82c1.75,17,15.61,30.24,32.61,31.17l18.81,1.01-16,.48c-18.13.55-32.61,15.13-33.1,33.31l-.63,23.58-1.86-23.86c-1.4-17.99-16.37-31.97-34.34-32.07l-15.52-.08,15.99-1.29c17.71-1.42,31.31-16.16,31.4-33.99l.1-23.08Z"/>
      <path class="cls-1" d="m940.91,114.71l-1.86-23.86c-1.38-17.75-16.36-31.74-34.1-31.84l-15.52-.08-.02-.5,15.99-1.29c17.68-1.42,31.08-15.93,31.17-33.74l.1-23.08.5-.02,2.55,24.82c.84,8.16,4.57,15.78,10.51,21.46,5.94,5.67,13.7,9.04,21.86,9.48l18.81,1.01v.5s-16,.48-16,.48c-17.94.54-32.38,15.07-32.85,33.07l-.63,23.58h-.5Zm-45.65-56.24l9.69.05c18,.1,33.19,14.29,34.59,32.3l1.49,19.1.5-18.81c.49-18.27,15.13-33.01,33.34-33.56l10.02-.3-12.84-.69c-8.28-.45-16.16-3.87-22.18-9.62-6.02-5.76-9.81-13.49-10.66-21.77l-2.07-20.16-.08,18.4c-.09,18.08-13.69,32.8-31.63,34.24l-10.17.82Z"/>
    </g>
    <g>
      <path class="cls-1" d="m941.75,114.71l-1.18.02-1.86-23.86c-1.37-17.57-16.19-31.41-33.75-31.51l-15.53-.09-.05-1.18,15.99-1.29c17.51-1.41,30.77-15.77,30.85-33.4l.1-23.08,1.19-.05,2.55,24.82c1.73,16.84,15.2,29.72,32.04,30.63l18.81,1.01v1.19s-16,.48-16,.48c-17.77.54-32.05,14.92-32.53,32.74l-.63,23.58h0Zm-38.47-56.55h1.68c18.18.11,33.52,14.43,34.94,32.63l.98,12.54.33-12.23c.49-18.46,15.28-33.34,33.67-33.89l1.86-.05-4.68-.26c-17.43-.94-31.38-14.27-33.17-31.7l-1.42-13.79-.06,12.01c-.09,18.25-13.82,33.12-31.94,34.58l-2.18.17v-.02Z"/>
      <path class="cls-1" d="m941.48,115.16v-.2s-1.14.02-1.14.02l-1.88-24.09c-1.36-17.44-16.08-31.18-33.5-31.28l-15.77-.09-.07-1.66,16.23-1.31c17.38-1.4,30.55-15.65,30.62-33.15l.1-23.32,1.66-.07,2.57,25.06c1.72,16.72,15.1,29.5,31.81,30.41l19.05,1.03v1.67s-.24,0-.24,0l-16,.48c-17.63.54-31.81,14.81-32.29,32.5l-.62,23.31h.68s-1.2.71-1.2.71Zm-51.82-56.15l15.29.09c17.69.1,32.62,14.04,34,31.74l1.85,23.62h.7s.62-23.34.62-23.34c.49-17.95,14.89-32.44,32.78-32.99l15.76-.47v-.71s-18.57-1-18.57-1c-16.96-.92-30.53-13.89-32.28-30.86l-2.52-24.59-.72.03-.1,22.84c-.08,17.76-13.44,32.23-31.08,33.65l-15.75,1.27.03.71Zm50.96,44.34l-.98-12.54c-1.41-18.06-16.65-32.29-34.69-32.39h-1.48s-.51.03-.51.03l.11-.53h.21s.17-.01.17-.01l1.98-.15c17.99-1.44,31.63-16.2,31.71-34.33l.06-12.01.5-.02,1.42,13.79c1.77,17.3,15.62,30.54,32.94,31.47l4.68.26v.5s-1.87.05-1.87.05c-18.26.55-32.94,15.33-33.43,33.65l-.33,12.23h-.5Zm-33.07-45.33c17.15,1.38,31.23,15.3,32.59,32.74l.61,7.79.2-7.46c.47-17.65,13.94-32.06,31.16-33.94h-.08c-17.56-.95-31.61-14.38-33.4-31.93l-.94-9.17-.04,7.37c-.08,17.69-12.88,32.21-30.1,34.6Z"/>
    </g>
  </g>
  <g class="cls-3">
    <g>
      <path class="cls-1" d="m938.9,43.64l.15,1.5c.69,6.8,6.24,12.11,13.04,12.48-6.63.2-11.93,5.54-12.11,12.19l-.05,1.87-.16-2.06c-.51-6.55-5.95-11.63-12.49-11.67,6.55-.53,11.57-5.98,11.6-12.57v-1.74s0,.01,0,.01Z"/>
      <path class="cls-1" d="m939.69,71.69l-.16-2.06c-.49-6.37-5.87-11.4-12.24-11.44l-.02-.5c6.46-.52,11.34-5.82,11.37-12.32v-2.58s.51.83.51.83l.15,1.5c.67,6.62,6.18,11.89,12.81,12.25v.5c-6.49.2-11.7,5.45-11.88,11.94l-.05,1.87h-.5Zm-10.36-13.82c5.29.9,9.57,5.1,10.54,10.44.77-5.38,4.89-9.67,10.16-10.71-5.4-1.12-9.76-5.41-10.96-10.83-.59,5.44-4.49,9.84-9.74,11.1Z"/>
    </g>
    <g>
      <path class="cls-1" d="m940.53,71.69l-1.18.02-.16-2.06c-.48-6.2-5.71-11.07-11.89-11.11l-.05-1.18c6.29-.51,11.03-5.66,11.06-11.99v-1.74s1.19-.05,1.19-.05l.15,1.5c.67,6.56,5.93,11.59,12.49,11.94v1.19c-6.3.19-11.37,5.3-11.54,11.63l-.05,1.87h-.02Zm-9.83-13.87c4.32,1.21,7.8,4.59,9.13,8.91,1.16-4.36,4.49-7.82,8.77-9.14-4.45-1.35-7.99-4.79-9.47-9.24-1.02,4.42-4.2,7.97-8.44,9.47Z"/>
      <path class="cls-1" d="m940.78,72.01l-.29-.07-1.39.02-.18-2.29c-.47-6.06-5.58-10.84-11.65-10.88h-.24s-.07-1.66-.07-1.66l.24-.02c6.15-.5,10.8-5.54,10.83-11.74v-1.98s1.66-.07,1.66-.07l.18,1.73c.65,6.44,5.81,11.37,12.25,11.71h.24s0,1.68,0,1.68h-.24c-6.17.2-11.13,5.2-11.3,11.39l-.05,2.17Zm-13.26-13.72c6.22.16,11.42,5.1,11.9,11.34l.14,1.83h.72s.04-1.63.04-1.63c.17-6.38,5.22-11.54,11.54-11.86v-.71c-6.58-.46-11.82-5.54-12.49-12.15l-.13-1.27-.71.03v1.5c-.03,6.38-4.77,11.59-11.05,12.21l.03.71Zm12.32,9.35l-.26-.83c-1.3-4.21-4.73-7.56-8.96-8.74l-.76-.21.75-.26c4.19-1.48,7.28-4.95,8.28-9.29l.2-.87.28.84c1.45,4.35,4.93,7.75,9.3,9.08l.78.24-.78.24c-4.18,1.29-7.48,4.73-8.6,8.97l-.22.84Zm-8.39-9.84c3.82,1.3,6.94,4.33,8.35,8.11,1.27-3.82,4.25-6.92,8.01-8.32-3.94-1.42-7.1-4.49-8.64-8.4-1.14,3.91-3.96,7.05-7.72,8.61Z"/>
    </g>
  </g>
  <g class="cls-2">
    <g>
      <path class="cls-1" d="m878.61,126.06l1.57,12.5c1.08,8.56,9.64,15.23,20.13,15.7l11.62.51-9.88.24c-11.19.27-20.14,7.62-20.44,16.78l-.39,11.87-1.15-12.02c-.86-9.06-10.11-16.1-21.21-16.15l-9.59-.04,9.87-.65c10.94-.72,19.34-8.14,19.39-17.12l.06-11.63Z"/>
      <path class="cls-1" d="m881.07,183.67l-1.15-12.02c-.85-8.94-10.1-15.98-21.05-16.03l-9.59-.04v-.25s9.86-.65,9.86-.65c10.92-.72,19.19-8.02,19.25-16.99l.06-11.63h.31s1.57,12.49,1.57,12.49c.52,4.11,2.82,7.95,6.49,10.81,3.67,2.86,8.46,4.55,13.5,4.78l11.62.51v.25s-9.88.24-9.88.24c-11.08.27-19.99,7.59-20.29,16.66l-.39,11.87h-.31Zm-28.18-28.33l5.98.03c11.11.05,20.49,7.2,21.36,16.27l.92,9.62.31-9.47c.3-9.2,9.34-16.62,20.59-16.9l6.19-.15-7.93-.35c-5.11-.23-9.98-1.95-13.7-4.85-3.72-2.9-6.06-6.79-6.58-10.96l-1.28-10.15-.05,9.27c-.06,9.1-8.45,16.52-19.53,17.24l-6.28.41Z"/>
    </g>
    <g>
      <path class="cls-1" d="m881.59,183.67h-.73s-1.15-12.01-1.15-12.01c-.85-8.85-10-15.82-20.84-15.87l-9.59-.04-.03-.6,9.87-.65c10.81-.71,19-7.94,19.05-16.82l.06-11.63.73-.02,1.57,12.5c1.07,8.48,9.39,14.97,19.79,15.43l11.62.51v.6s-9.88.24-9.88.24c-10.97.27-19.79,7.51-20.09,16.49l-.39,11.87h0Zm-23.75-28.48h1.03c11.22.06,20.69,7.27,21.57,16.44l.6,6.32.2-6.16c.3-9.29,9.44-16.79,20.79-17.07l1.15-.03-2.89-.13c-10.76-.47-19.38-7.19-20.48-15.96l-.88-6.94-.04,6.05c-.05,9.19-8.53,16.68-19.72,17.41l-1.35.09h0Z"/>
      <path class="cls-1" d="m881.42,183.9v-.1s-.7,0-.7,0l-1.16-12.13c-.84-8.78-9.93-15.7-20.69-15.75l-9.74-.05-.04-.84,10.02-.66c10.73-.71,18.86-7.88,18.91-16.7l.06-11.75,1.03-.03,1.59,12.62c1.06,8.42,9.32,14.86,19.64,15.31l11.76.52v.84s-.15,0-.15,0l-9.88.24c-10.88.27-19.64,7.46-19.94,16.37l-.38,11.74h.42s-.74.36-.74.36Zm-31.99-28.28l9.44.04c10.92.05,20.14,7.07,20.99,15.99l1.14,11.9h.43s.38-11.76.38-11.76c.3-9.04,9.19-16.34,20.24-16.61l9.73-.24v-.36s-11.47-.5-11.47-.5c-10.47-.46-18.85-7-19.93-15.54l-1.56-12.38-.44.02-.06,11.51c-.05,8.95-8.3,16.23-19.19,16.95l-9.72.64.02.36Zm31.47,22.33l-.6-6.32c-.87-9.1-10.28-16.26-21.42-16.31h-.91s-.32.02-.32.02l.07-.27h.13s.11,0,.11,0l1.22-.08c11.11-.73,19.53-8.16,19.58-17.29l.04-6.05h.31s.88,6.93.88,6.93c1.1,8.71,9.65,15.38,20.34,15.85l2.89.13v.25s-1.15.03-1.15.03c-11.27.28-20.34,7.72-20.64,16.95l-.2,6.16h-.31Zm-20.42-22.83c10.59.69,19.28,7.7,20.13,16.49l.38,3.92.12-3.76c.29-8.89,8.61-16.15,19.24-17.09h-.05c-10.84-.48-19.52-7.24-20.63-16.08l-.58-4.62-.02,3.71c-.05,8.91-7.95,16.22-18.59,17.42Z"/>
    </g>
  </g>
  <g class="cls-3">
    <g>
      <path class="cls-1" d="m879.83,145.86l.1.76c.43,3.42,3.85,6.1,8.05,6.28-4.1.1-7.37,2.79-7.48,6.14l-.03.94-.1-1.04c-.31-3.3-3.67-5.86-7.71-5.88,4.04-.27,7.15-3.01,7.16-6.33v-.88s0,0,0,0Z"/>
      <path class="cls-1" d="m880.32,159.99l-.1-1.04c-.3-3.21-3.62-5.74-7.56-5.76v-.25c3.97-.26,6.99-2.93,7.01-6.21v-1.3s.31.42.31.42l.1.76c.42,3.34,3.82,5.99,7.91,6.17v.25c-4.01.1-7.23,2.74-7.33,6.02l-.03.94h-.31Zm-6.4-6.96c3.27.45,5.91,2.57,6.51,5.26.48-2.71,3.02-4.87,6.28-5.39-3.34-.56-6.03-2.72-6.77-5.45-.37,2.74-2.77,4.96-6.01,5.59Z"/>
    </g>
    <g>
      <path class="cls-1" d="m880.84,159.99h-.73s-.1-1.03-.1-1.03c-.3-3.12-3.53-5.58-7.34-5.6l-.03-.6c3.88-.25,6.81-2.85,6.83-6.04v-.88s.74-.02.74-.02l.1.76c.41,3.3,3.66,5.84,7.71,6.01v.6c-3.89.1-7.02,2.67-7.13,5.86l-.03.94h-.01Zm-6.07-6.98c2.67.61,4.82,2.31,5.64,4.49.71-2.19,2.77-3.94,5.42-4.61-2.75-.68-4.93-2.41-5.85-4.65-.63,2.23-2.59,4.02-5.21,4.77Z"/>
      <path class="cls-1" d="m880.99,160.15l-.18-.03h-.86s-.11-1.15-.11-1.15c-.29-3.05-3.45-5.46-7.19-5.48h-.15s-.04-.84-.04-.84h.15c3.79-.26,6.67-2.8,6.69-5.92v-1s1.03-.03,1.03-.03l.11.87c.4,3.24,3.59,5.73,7.57,5.9h.15s0,.85,0,.85h-.15c-3.81.1-6.88,2.62-6.98,5.74l-.03,1.09Zm-8.19-6.91c3.84.08,7.05,2.57,7.35,5.71l.09.92h.45s.02-.82.02-.82c.1-3.21,3.22-5.81,7.13-5.97v-.36c-4.06-.23-7.3-2.79-7.71-6.12l-.08-.64-.44.02v.76c-.02,3.21-2.94,5.84-6.82,6.15l.02.36Zm7.61,4.71l-.16-.42c-.8-2.12-2.92-3.81-5.53-4.4l-.47-.11.46-.13c2.58-.74,4.5-2.49,5.11-4.68l.12-.44.17.43c.9,2.19,3.04,3.9,5.74,4.57l.48.12-.48.12c-2.58.65-4.62,2.38-5.31,4.52l-.14.42Zm-5.18-4.96c2.36.66,4.28,2.18,5.16,4.09.78-1.92,2.62-3.48,4.94-4.19-2.43-.72-4.38-2.26-5.34-4.23-.71,1.97-2.45,3.55-4.76,4.33Z"/>
    </g>
  </g>
</svg>