<?xml version="1.0" encoding="UTF-8"?>
<svg id="Layer_1" data-name="Layer 1" xmlns="http://www.w3.org/2000/svg" viewBox="0 0 246.17 246.29">
  <g>
    <path d="m99.75,16.38c-.16.03-.31.02-.45-.04-.14-.06-.22-.17-.25-.33l-2.35-12.71c-.03-.17,0-.31.12-.4.11-.09.25-.15.41-.18.15-.03.29-.01.41.05.13.06.25.15.38.26.12.11.24.24.34.39l6.88,8.99-1.91-10.33c-.03-.16.01-.29.12-.39.11-.1.25-.16.41-.19.15-.03.3-.02.44.03.14.05.23.16.26.32l2.35,12.71c.03.16-.01.3-.13.4-.12.11-.25.17-.4.2-.17.03-.35-.01-.52-.13-.17-.12-.32-.26-.44-.43l-7.06-9.15,1.91,10.33c.03.16-.01.3-.13.4-.12.11-.25.17-.4.2Z" style="fill: #fff;"/>
    <path d="m113.11,14.39c-.15.01-.3-.01-.44-.08-.14-.07-.22-.19-.23-.35l-.43-4.81c0-.06-.02-.11-.05-.15l-4.59-7.16c-.03-.06-.06-.12-.08-.17-.02-.06-.04-.11-.04-.16,0-.1.02-.2.09-.28s.15-.16.26-.21c.1-.05.21-.09.31-.09.1,0,.19.01.28.07s.17.14.24.26l4.1,6.59,2.88-7.22c.06-.13.13-.23.2-.3s.16-.11.26-.12c.11-.01.22,0,.33.04.1.04.2.09.27.17s.12.16.13.27c0,.05,0,.1,0,.16,0,.06-.02.12-.04.19l-3.26,7.87s-.03.09-.02.15l.43,4.81c.01.16-.04.29-.16.39-.12.09-.26.15-.42.16Z" style="fill: #fff;"/>
    <path d="m119.88,13.89c-.17,0-.31-.05-.44-.13-.13-.08-.19-.21-.18-.37l.21-12.92c0-.16.07-.28.2-.36.13-.07.27-.11.44-.11.15,0,.29.04.43.12.13.08.2.2.19.36l-.09,5.66,5.49.09.09-5.66c0-.16.07-.28.2-.36.13-.07.27-.11.44-.11.15,0,.29.04.43.12.13.08.2.2.19.36l-.21,12.92c0,.16-.07.29-.21.37-.13.08-.28.12-.43.12-.17,0-.31-.05-.44-.13-.13-.08-.19-.21-.18-.37l.1-6.16-5.49-.09-.1,6.16c0,.16-.07.29-.21.37-.13.08-.28.12-.43.12Z" style="fill: #fff;"/>
    <path d="m130.45,14.15c-.14-.01-.26-.07-.38-.16s-.16-.22-.15-.39l1.19-12.85c.02-.16.09-.28.21-.35.13-.07.26-.1.4-.09l6.74.62c.16.02.28.09.34.21.06.13.09.26.08.4-.01.15-.07.28-.16.4s-.22.16-.37.15l-6.05-.56-.48,5.2,2.97.28c.15.01.26.08.33.2.07.12.1.26.09.41-.01.13-.06.24-.15.35-.09.11-.21.15-.38.14l-2.97-.28-.48,5.22,6.05.56c.15.01.26.08.33.2.07.12.1.26.08.43-.01.14-.06.26-.15.38-.09.11-.21.16-.38.15l-6.73-.62Z" style="fill: #fff;"/>
    <path d="m139.77,15.17c-.17-.03-.3-.1-.39-.22s-.11-.23-.09-.35l2.35-12.72c.02-.12.09-.22.21-.3.12-.08.26-.1.44-.06l3.31.61c.73.14,1.37.39,1.92.76.54.37.93.88,1.17,1.53.23.65.26,1.46.08,2.43l-1.05,5.66c-.18.97-.5,1.72-.95,2.24-.45.52-1,.86-1.64,1.01-.64.15-1.33.16-2.06.02l-3.31-.61Zm.88-1.02l2.63.49c.83.15,1.53.04,2.09-.34.56-.38.93-1.06,1.11-2.03l1.05-5.66c.18-.97.08-1.73-.31-2.29-.39-.55-.99-.91-1.81-1.06l-2.65-.49-2.1,11.38Z" style="fill: #fff;"/>
    <path d="m156.13,19.14c-.16-.05-.29-.14-.4-.26-.11-.12-.16-.26-.15-.41l.63-13.41s0-.08.02-.13c.04-.11.1-.19.2-.23.1-.05.21-.07.33-.08s.23,0,.33.04c.11.04.2.1.28.19.08.09.11.18.1.29l-.69,12.1,4.08-6.09c.1-.14.22-.22.36-.24.14-.02.28,0,.43.05s.26.12.35.22c.09.1.12.23.1.4l-.49,7.33,6.89-9.97c.07-.08.16-.14.27-.16.11-.02.22-.02.32.02.12.04.22.1.3.17.08.08.15.16.19.26.05.1.05.2.02.31-.02.05-.04.09-.06.12l-7.71,10.97c-.1.13-.22.2-.38.23s-.32.01-.49-.05c-.16-.05-.29-.14-.4-.26-.11-.12-.16-.26-.15-.41l.48-6.93-3.89,5.76c-.09.13-.21.21-.37.23-.16.02-.33,0-.5-.05Z" style="fill: #fff;"/>
    <path d="m167.06,23.14c-.13-.06-.23-.15-.3-.28-.07-.13-.08-.26,0-.41l5.51-11.67c.07-.15.18-.23.32-.26.14-.02.28,0,.4.05l6.12,2.89c.15.07.23.18.25.32.02.14,0,.27-.06.4-.06.14-.16.24-.29.32-.13.07-.26.08-.4.01l-5.5-2.6-2.23,4.73,2.7,1.27c.14.06.22.17.25.3s0,.28-.06.41c-.05.11-.14.21-.26.28-.12.07-.25.07-.4,0l-2.7-1.27-2.24,4.74,5.5,2.6c.14.06.22.17.25.3s0,.28-.07.43c-.06.13-.15.23-.27.3-.12.08-.25.08-.4,0l-6.12-2.89Z" style="fill: #fff;"/>
    <path d="m175.48,27.28c-.15-.09-.25-.2-.29-.33s-.03-.25.04-.36l6.53-11.15c.08-.14.2-.22.34-.23s.28.02.4.09l2.69,1.57c.61.36,1.13.76,1.56,1.2.43.44.67.95.73,1.53.06.58-.13,1.25-.58,2.02-.4.69-.87,1.19-1.4,1.5-.53.31-1.06.44-1.58.38.26.33.45.68.57,1.06.12.38.14.79.07,1.23-.07.44-.27.95-.6,1.52l-.17.3c-.49.83-1.02,1.41-1.59,1.73-.57.33-1.17.45-1.79.38-.62-.07-1.23-.28-1.83-.63l-3.1-1.81Zm1.18-.65l2.36,1.38c.71.42,1.38.55,2.02.4.64-.15,1.2-.64,1.69-1.48l.16-.28c.5-.85.65-1.57.44-2.16-.21-.58-.67-1.08-1.38-1.5l-2.36-1.38-2.94,5.02Zm3.49-5.97l2.13,1.25c.77.45,1.42.62,1.97.51s1.05-.55,1.5-1.32c.3-.51.43-.96.4-1.35-.04-.39-.19-.73-.47-1.04-.28-.3-.65-.59-1.11-.86l-2.07-1.21-2.35,4.02Z" style="fill: #fff;"/>
    <path d="m185.97,34.05c-.66-.47-1.16-.97-1.49-1.51s-.53-1.03-.6-1.47c-.07-.44-.03-.76.1-.94.06-.08.14-.15.26-.21.11-.06.22-.09.34-.1.11,0,.21.02.28.07.1.07.16.21.18.42.02.21.06.46.12.76.06.3.19.62.4.96.21.34.55.68,1.04,1.03.49.34.96.56,1.41.64s.89.03,1.3-.15c.41-.18.78-.51,1.12-.99.35-.5.54-.96.57-1.39.03-.43-.04-.85-.21-1.27-.17-.41-.38-.81-.65-1.21-.27-.39-.53-.79-.8-1.19-.26-.4-.48-.82-.64-1.25-.16-.43-.21-.89-.15-1.36.06-.48.28-.99.66-1.52.4-.56.83-.95,1.29-1.17s.94-.32,1.41-.29c.47.02.93.13,1.38.31.44.18.85.4,1.21.66.29.21.57.44.84.7.27.26.51.53.71.79.2.27.34.52.41.75.08.23.06.42-.04.57-.04.06-.12.12-.21.19-.1.06-.2.11-.32.14s-.22,0-.32-.07c-.09-.07-.19-.21-.28-.42-.1-.22-.25-.47-.47-.77-.21-.3-.55-.61-1-.93-.37-.26-.77-.47-1.19-.61s-.83-.16-1.23-.05c-.4.11-.77.39-1.09.85-.29.41-.43.81-.42,1.2.01.39.11.77.31,1.14s.43.75.7,1.14c.27.39.53.79.78,1.21.25.42.45.86.58,1.32s.15.95.06,1.48c-.09.52-.36,1.1-.8,1.72-.52.73-1.09,1.24-1.7,1.51-.61.27-1.25.35-1.9.23-.65-.12-1.3-.41-1.94-.86Z" style="fill: #fff;"/>
    <path d="m191.36,37.88c-.12-.11-.21-.23-.25-.38-.04-.15-.01-.28.1-.41l8.39-9.83c.11-.12.23-.18.38-.15s.28.09.41.2c.12.1.2.22.25.36s.02.28-.08.4l-3.68,4.31,4.18,3.57,3.68-4.31c.11-.12.23-.18.38-.15.15.02.28.09.41.2.12.1.2.22.25.36.05.14.02.28-.08.4l-8.39,9.83c-.11.13-.24.18-.39.15-.15-.02-.29-.08-.41-.18-.12-.11-.21-.23-.25-.38-.04-.15-.01-.28.1-.41l4-4.68-4.18-3.57-4,4.68c-.11.12-.24.18-.39.15-.15-.02-.29-.08-.41-.18Z" style="fill: #fff;"/>
    <path d="m201.4,47.24c-.51-.53-.88-1.1-1.1-1.71-.22-.61-.24-1.25-.06-1.92.18-.67.63-1.35,1.34-2.03l4.22-4.09c.71-.69,1.4-1.11,2.08-1.27s1.31-.12,1.92.12c.61.24,1.16.63,1.67,1.16.52.54.89,1.11,1.11,1.72s.24,1.25.06,1.92c-.18.67-.63,1.35-1.34,2.03l-4.22,4.09c-.71.69-1.4,1.11-2.08,1.27-.67.16-1.31.12-1.92-.12-.61-.24-1.17-.63-1.69-1.17Zm.83-.81c.59.61,1.22.92,1.89.94s1.36-.33,2.08-1.02l4.22-4.08c.72-.7,1.08-1.38,1.08-2.05s-.29-1.31-.87-1.91c-.59-.61-1.22-.92-1.88-.93-.66-.01-1.35.33-2.07,1.03l-4.22,4.08c-.72.7-1.08,1.38-1.09,2.05,0,.67.28,1.3.86,1.9Z" style="fill: #fff;"/>
    <path d="m206.25,52.36c-.1-.13-.16-.27-.18-.42-.02-.15.04-.28.17-.38l10.06-8.11c.1-.08.21-.11.34-.09.13.02.25.09.36.21l2.19,2.72c.46.57.77,1.17.94,1.8.17.63.13,1.26-.12,1.9-.24.64-.75,1.26-1.5,1.87l-.15.12c-.77.62-1.49.98-2.18,1.08-.68.1-1.32,0-1.9-.3s-1.11-.74-1.57-1.31l-1.72-2.13-3.98,3.21c-.13.1-.27.13-.41.08-.15-.05-.27-.14-.36-.26Zm5.61-3.72l1.72,2.13c.53.66,1.13,1.03,1.8,1.1.67.07,1.39-.2,2.16-.82l.16-.13c.77-.62,1.19-1.26,1.26-1.93.07-.67-.16-1.33-.69-1.99l-1.72-2.13-4.69,3.78Z" style="fill: #fff;"/>
    <path d="m214.31,63.01c-.09-.14-.13-.29-.12-.44,0-.15.08-.27.22-.35l10.94-6.62c.19-.12.36-.15.5-.08.14.06.25.16.34.3.08.13.11.27.11.41,0,.15-.04.3-.1.45-.06.16-.14.31-.24.46l-3.69,6.05,7.06-.48c.19,0,.37,0,.53.02.16.01.31.05.45.12.14.07.24.16.31.28.09.15.13.3.12.45-.01.15-.12.28-.31.4l-10.94,6.62c-.14.08-.28.09-.42.03-.14-.07-.25-.17-.33-.31-.08-.13-.12-.27-.12-.43,0-.16.07-.28.21-.36l9.13-5.53-6.74.39c-.17.01-.3,0-.4-.04s-.17-.1-.22-.18c-.04-.07-.06-.15-.05-.26s.05-.24.14-.4l3.52-5.78-9.17,5.55c-.14.09-.28.09-.42.02-.14-.07-.25-.17-.33-.3Z" style="fill: #fff;"/>
    <path d="m220.47,73.68c-.06-.13-.08-.26-.06-.4.02-.14.11-.25.26-.32l11.65-5.55c.15-.07.29-.07.41,0,.13.07.22.17.28.3l2.91,6.11c.07.15.07.28,0,.4-.08.12-.18.21-.3.27-.14.07-.28.09-.42.06s-.25-.1-.31-.24l-2.62-5.49-4.72,2.25,1.28,2.69c.07.14.06.27,0,.39-.07.12-.17.22-.31.28-.11.05-.24.07-.38.05s-.24-.1-.31-.25l-1.28-2.69-4.73,2.26,2.62,5.49c.07.14.06.27,0,.39-.07.12-.18.22-.32.29-.13.06-.26.08-.4.06-.14-.02-.25-.1-.32-.25l-2.91-6.11Z" style="fill: #fff;"/>
    <path d="m224.37,82.19c-.06-.17-.07-.31-.01-.44.05-.13.14-.21.26-.26l12.14-4.49c.12-.04.24-.04.36.03.12.06.22.18.28.34l1.17,3.15c.26.7.37,1.38.33,2.04-.04.66-.28,1.25-.72,1.78-.44.53-1.12.97-2.05,1.31l-5.4,2c-.93.34-1.73.45-2.41.33-.68-.12-1.25-.42-1.71-.89-.46-.47-.82-1.06-1.08-1.76l-1.17-3.15Zm1.32.24l.93,2.51c.29.8.75,1.34,1.36,1.62.61.29,1.38.26,2.31-.08l5.4-2c.93-.34,1.53-.82,1.81-1.44.28-.62.27-1.32-.02-2.1l-.94-2.53-10.85,4.01Z" style="fill: #fff;"/>
    <path d="m228.57,94.63c-.02-.1-.03-.21,0-.33.02-.12.06-.23.12-.32.06-.09.14-.15.24-.17.05-.01.09-.02.13-.01l13.44.98c.17.01.31.08.41.2.1.12.17.26.2.42.04.17.04.34,0,.5-.04.16-.13.27-.27.35l-11.67,6.74s-.07.04-.11.04c-.1.02-.2,0-.29-.05-.1-.06-.18-.13-.26-.23-.08-.1-.13-.21-.16-.33-.02-.1-.02-.2.01-.29.03-.1.1-.18.2-.24l2.65-1.51-1.18-5.11-3.05-.19c-.12-.01-.21-.06-.28-.13-.07-.08-.12-.17-.15-.3Zm4.6.68l1.04,4.5,6.95-3.96-7.98-.54Z" style="fill: #fff;"/>
    <path d="m231.05,107.81c-.11-.8-.09-1.51.08-2.12s.38-1.09.66-1.44c.28-.35.53-.54.75-.58.1-.01.21,0,.33.04.12.04.22.1.3.18s.13.16.14.25c.02.13-.04.27-.18.42-.14.15-.3.35-.47.6-.18.25-.32.57-.42.95s-.12.87-.04,1.46.25,1.08.5,1.46.59.67,1,.84c.41.17.91.22,1.49.14.6-.08,1.07-.26,1.4-.54.33-.28.59-.62.78-1.02.19-.4.33-.84.43-1.3.1-.46.21-.93.32-1.4.11-.47.27-.91.48-1.32.2-.41.5-.76.89-1.04s.91-.47,1.56-.56c.68-.09,1.26-.05,1.74.14.48.19.87.46,1.18.82.31.36.54.76.72,1.21.17.45.29.89.35,1.33.05.35.07.72.07,1.09,0,.38-.04.73-.09,1.06-.06.33-.14.6-.26.81-.12.21-.26.33-.44.36-.08.01-.17,0-.28-.03-.11-.03-.22-.08-.32-.14-.1-.06-.16-.16-.17-.28-.02-.11.02-.28.11-.5s.17-.51.24-.87c.07-.36.07-.82,0-1.37-.06-.45-.19-.88-.37-1.28-.18-.4-.45-.71-.81-.93-.36-.22-.81-.29-1.36-.21-.5.07-.89.24-1.17.52-.28.27-.48.61-.62,1.01-.14.4-.25.82-.35,1.29-.1.46-.21.93-.34,1.4s-.32.91-.56,1.33-.59.76-1.03,1.06c-.45.29-1.04.49-1.8.6-.89.12-1.65.06-2.26-.2-.62-.26-1.11-.67-1.47-1.22-.36-.56-.59-1.23-.7-2Z" style="fill: #fff;"/>
    <path d="m231.94,116.87c-.05-.81.04-1.51.25-2.11.21-.6.47-1.06.78-1.38.31-.33.57-.5.8-.51.1,0,.21.02.33.07.12.05.21.12.29.2.07.08.11.17.12.26,0,.13-.06.26-.22.4-.15.14-.32.33-.52.56-.2.23-.36.54-.5.91-.14.38-.19.86-.16,1.45.03.59.16,1.1.38,1.5.22.41.53.71.93.92.4.21.89.29,1.47.26.61-.03,1.09-.17,1.44-.42.35-.25.64-.57.86-.95.22-.39.4-.81.54-1.26.14-.45.29-.91.44-1.37.15-.46.35-.89.59-1.28.24-.39.56-.72.97-.97.41-.25.94-.4,1.6-.43.68-.04,1.26.06,1.72.28.46.23.83.53,1.11.92.27.38.48.81.61,1.27.13.46.21.91.24,1.36.02.35.01.72-.02,1.1-.04.38-.1.73-.18,1.05-.08.32-.19.58-.33.79-.13.2-.29.31-.47.32-.08,0-.17-.01-.28-.05-.11-.04-.21-.09-.3-.16s-.14-.17-.15-.3c0-.11.04-.28.15-.48.11-.21.21-.49.31-.85.1-.35.14-.81.1-1.37-.03-.46-.11-.89-.26-1.31-.15-.42-.39-.75-.73-1s-.78-.36-1.34-.32c-.51.03-.91.17-1.2.42-.3.25-.53.57-.7.95-.17.38-.32.8-.45,1.25-.13.45-.29.91-.46,1.37-.17.46-.4.88-.67,1.27-.28.39-.65.71-1.12.97s-1.08.4-1.84.45c-.9.05-1.64-.08-2.24-.39-.59-.31-1.05-.76-1.36-1.34-.31-.59-.49-1.27-.53-2.05Z" style="fill: #fff;"/>
    <path d="m232.29,123.41c0-.14.05-.27.13-.39.09-.12.21-.17.38-.17l12.9.35c.16,0,.29.07.37.19.08.12.12.25.11.39l-.19,6.76c0,.16-.07.28-.19.36-.12.07-.25.11-.39.1-.15,0-.29-.05-.4-.13-.12-.09-.18-.2-.17-.36l.17-6.08-5.22-.14-.08,2.98c0,.15-.06.27-.18.35-.12.08-.25.12-.4.11-.13,0-.25-.04-.36-.12s-.17-.2-.16-.37l.08-2.98-5.24-.14-.17,6.08c0,.15-.06.27-.18.35-.12.08-.26.12-.42.11-.14,0-.27-.05-.39-.12-.12-.08-.18-.2-.17-.37l.19-6.76Z" style="fill: #fff;"/>
    <path d="m231.42,135.73c.08-.71.29-1.34.62-1.92.33-.57.81-1,1.45-1.29.63-.29,1.44-.37,2.42-.26l5.83.66c.98.11,1.75.38,2.3.81s.92.96,1.12,1.59c.2.63.26,1.3.17,2.02-.09.83-.32,1.52-.67,2.07-.35.55-.79.95-1.3,1.2-.51.25-1.06.35-1.64.28-.3-.03-.49-.11-.58-.23s-.11-.28-.09-.48c.03-.23.09-.38.2-.47.1-.08.22-.12.35-.12.2.02.43.01.7-.03.27-.04.53-.14.8-.29.27-.15.5-.4.69-.73s.33-.77.39-1.32c.1-.88-.06-1.58-.48-2.1s-1.12-.83-2.1-.94l-5.83-.66c-.99-.11-1.75.04-2.27.46s-.83,1.08-.93,1.99c-.06.57-.04,1.02.09,1.37s.29.61.5.8c.21.19.45.33.72.43.26.1.51.17.73.23.16.04.28.12.35.22s.1.26.07.46c-.02.21-.1.37-.21.46-.12.09-.33.13-.63.09-.57-.06-1.07-.28-1.52-.65-.45-.37-.79-.86-1.02-1.48s-.3-1.34-.21-2.17Z" style="fill: #fff;"/>
    <path d="m229.9,145.27c.15-.72.41-1.34.79-1.87.38-.53.9-.91,1.55-1.14.65-.23,1.47-.24,2.43-.04l5.75,1.18c.97.2,1.71.53,2.22,1,.51.47.84,1.02.98,1.66.14.64.14,1.31-.01,2.03-.15.73-.42,1.36-.8,1.89-.38.53-.9.91-1.55,1.13-.65.23-1.47.24-2.43.04l-5.75-1.18c-.97-.2-1.71-.53-2.22-1-.51-.47-.84-1.02-.98-1.66-.14-.64-.14-1.32.02-2.05Zm1.14.23c-.17.83-.08,1.53.29,2.09.36.56,1.04.94,2.02,1.14l5.75,1.18c.98.2,1.75.11,2.3-.26s.92-.97,1.09-1.79c.17-.83.07-1.52-.29-2.08-.36-.55-1.04-.93-2.02-1.13l-5.75-1.18c-.98-.2-1.75-.12-2.3.25-.55.37-.92.97-1.08,1.78Z" style="fill: #fff;"/>
    <path d="m226.45,158.47c.04-.13.15-.23.32-.3.17-.07.34-.11.51-.14l6.3-1.14.7-2.31-5.58-1.7c-.16-.05-.26-.15-.3-.3-.04-.15-.04-.3,0-.44.05-.16.13-.29.25-.38s.25-.12.41-.07l12.36,3.76c.12.04.21.11.27.22.06.11.07.23.05.37l-.98,3.22c-.22.71-.53,1.34-.92,1.86-.4.53-.91.89-1.54,1.09-.63.2-1.4.16-2.31-.12-.75-.23-1.33-.54-1.74-.94-.41-.4-.68-.85-.81-1.36-.13-.51-.16-1.05-.1-1.61l-6.23,1.16s-.09.03-.14.03c-.04,0-.08-.02-.12-.03-.1-.03-.18-.09-.26-.19-.08-.1-.13-.21-.16-.34s-.02-.25,0-.35Zm8.87-3.58l-.75,2.47c-.25.81-.25,1.53,0,2.15.24.62.82,1.07,1.73,1.35.92.28,1.65.23,2.19-.16.54-.39.93-.98,1.18-1.8l.75-2.47-5.09-1.55Z" style="fill: #fff;"/>
    <path d="m225.34,161.5c.06-.15.15-.28.27-.37.12-.09.26-.11.41-.05l12.1,4.54c.15.06.24.16.27.3.03.15.01.29-.05.45-.05.14-.14.26-.26.36-.12.1-.25.12-.41.06l-12.1-4.54c-.15-.06-.25-.16-.28-.32-.03-.15-.02-.3.03-.44Z" style="fill: #fff;"/>
    <path d="m223.94,165.13c.06-.13.15-.23.27-.31.12-.08.26-.08.41-.01l11.78,5.27c.15.07.24.17.26.32s.01.28-.05.41l-2.76,6.17c-.07.15-.17.24-.31.26-.14.02-.27,0-.4-.05-.14-.06-.25-.16-.32-.28s-.08-.26-.02-.39l2.48-5.55-4.77-2.13-1.22,2.72c-.06.14-.16.22-.3.25-.14.03-.28.01-.41-.05-.12-.05-.21-.14-.28-.25-.07-.12-.08-.25,0-.4l1.22-2.72-4.79-2.14-2.48,5.55c-.06.14-.16.22-.3.25-.14.03-.28,0-.43-.06-.13-.06-.23-.14-.31-.26-.08-.12-.08-.25-.02-.4l2.76-6.17Z" style="fill: #fff;"/>
    <path d="m218.61,175.78c.39-.71.84-1.26,1.34-1.65.5-.39.96-.64,1.4-.76.43-.12.75-.12.95,0,.09.05.17.13.24.23.07.11.12.21.14.32.02.11,0,.21-.04.28-.06.11-.19.19-.4.23-.2.04-.45.11-.74.2-.29.09-.59.26-.91.51s-.62.63-.91,1.15c-.29.52-.45,1.01-.48,1.47-.03.46.07.88.3,1.27.23.39.6.72,1.11,1,.53.29,1.01.43,1.45.41.43-.02.84-.14,1.23-.35s.77-.47,1.13-.78c.36-.31.72-.62,1.1-.92.37-.31.76-.56,1.18-.77.41-.21.86-.31,1.34-.3.48,0,1.01.17,1.59.49.6.33,1.03.72,1.3,1.16.27.44.42.9.45,1.37.03.47-.02.94-.16,1.4-.13.46-.31.89-.52,1.28-.17.31-.37.62-.6.91-.23.3-.47.56-.71.79-.24.23-.47.39-.7.49-.22.1-.41.11-.57.02-.07-.04-.14-.1-.21-.19-.07-.09-.13-.19-.17-.3-.04-.11-.03-.22.03-.33.06-.1.18-.21.39-.33s.44-.3.72-.55.55-.61.82-1.1c.22-.4.38-.81.47-1.25.09-.43.06-.84-.09-1.23-.15-.39-.47-.72-.96-.99-.44-.25-.86-.34-1.24-.29-.39.05-.75.2-1.1.44-.35.23-.7.51-1.05.82-.35.31-.72.62-1.11.91-.39.3-.8.54-1.25.72-.44.18-.93.26-1.46.22-.53-.03-1.13-.23-1.79-.6-.79-.44-1.35-.94-1.69-1.52s-.48-1.2-.44-1.86.26-1.34.64-2.02Z" style="fill: #fff;"/>
    <path d="m206.69,193.46c.11-.12.24-.2.38-.24.15-.04.28,0,.4.11l9.63,8.62c.13.12.18.25.15.39-.03.14-.1.27-.21.4-.1.11-.22.18-.36.21-.14.03-.29.04-.46.03-.17-.01-.34-.05-.51-.1l-10.94-2.91,7.83,7.01c.12.11.17.24.14.38s-.1.28-.21.4c-.1.11-.22.19-.37.24-.15.05-.28.02-.4-.09l-9.63-8.62c-.12-.11-.17-.24-.14-.4.03-.15.09-.29.19-.4.12-.13.28-.2.49-.22.21-.01.41.01.61.07l11.18,2.92-7.83-7.01c-.12-.11-.17-.24-.14-.4.03-.15.09-.29.19-.4Z" style="fill: #fff;"/>
    <path d="m197.32,203.23c.11-.1.24-.17.4-.2.15-.03.29.02.4.14l3.28,3.54s.09.07.13.09l8.01,2.85c.06.03.12.06.17.09.05.03.1.06.13.1.07.07.1.17.1.28,0,.11-.02.22-.07.33-.05.11-.11.19-.18.26-.07.07-.16.11-.27.12-.1,0-.22-.01-.35-.06l-7.28-2.7,2.14,7.47c.03.14.04.27.03.36-.01.1-.06.18-.13.25-.08.08-.18.13-.28.17s-.21.05-.32.04c-.11-.01-.2-.06-.26-.13-.03-.04-.07-.08-.1-.13-.03-.05-.06-.11-.08-.17l-2.23-8.22s-.03-.09-.08-.14l-3.28-3.54c-.11-.12-.15-.25-.11-.4.04-.15.12-.28.24-.39Z" style="fill: #fff;"/>
    <path d="m192.23,207.74c.13-.1.27-.16.42-.17.15-.01.28.05.38.18l7.88,10.24c.1.13.12.27.07.4s-.15.26-.28.36c-.12.09-.26.15-.41.17-.15.02-.28-.04-.38-.16l-3.45-4.49-4.35,3.35,3.45,4.49c.1.13.12.27.07.4-.05.14-.15.26-.28.36-.12.09-.26.15-.41.17-.15.02-.28-.03-.38-.16l-7.88-10.24c-.1-.13-.12-.27-.07-.41.06-.15.14-.27.26-.36.13-.1.27-.16.42-.17.15-.01.28.05.38.18l3.75,4.88,4.35-3.35-3.75-4.88c-.1-.13-.12-.27-.07-.42.06-.15.14-.27.26-.36Z" style="fill: #fff;"/>
    <path d="m183.76,214c.12-.07.25-.11.4-.1.15,0,.26.08.35.22l6.9,10.9c.09.14.1.28.05.41s-.15.24-.26.31l-5.71,3.62c-.14.09-.27.1-.4.04-.13-.06-.23-.15-.3-.27-.08-.13-.12-.27-.11-.41,0-.15.07-.26.2-.34l5.14-3.25-2.8-4.41-2.52,1.6c-.13.08-.26.1-.39.04-.13-.05-.24-.14-.32-.27-.07-.11-.1-.23-.1-.37,0-.14.07-.25.21-.34l2.52-1.6-2.81-4.43-5.14,3.25c-.13.08-.26.1-.39.04-.13-.05-.24-.15-.33-.29-.07-.12-.11-.25-.11-.39,0-.14.07-.26.21-.34l5.71-3.62Z" style="fill: #fff;"/>
    <path d="m175.77,218.89c.16-.08.3-.1.44-.06.13.04.23.11.29.23l5.91,11.51c.06.11.06.23.02.37-.05.13-.15.24-.31.32l-2.99,1.54c-.66.34-1.33.53-1.98.57s-1.28-.13-1.86-.5c-.58-.37-1.1-1-1.55-1.87l-2.63-5.12c-.45-.88-.66-1.66-.62-2.35.04-.69.26-1.29.68-1.8.41-.51.95-.94,1.62-1.28l2.99-1.54Zm-.08,1.34l-2.38,1.22c-.75.39-1.24.9-1.45,1.54-.21.64-.09,1.4.36,2.28l2.63,5.12c.45.88,1,1.42,1.64,1.62.65.2,1.34.11,2.08-.27l2.4-1.23-5.28-10.29Z" style="fill: #fff;"/>
    <path d="m160.4,225.73c.16-.05.32-.07.48-.04.16.02.29.1.37.24l7.69,11s.04.07.06.12c.04.11.03.21-.02.31-.05.1-.12.18-.21.26-.09.08-.19.13-.28.17-.11.04-.22.04-.33.02-.11-.02-.2-.08-.26-.16l-6.85-10,.49,7.32c0,.17-.04.31-.14.41s-.22.17-.37.22-.28.06-.41.04c-.13-.02-.24-.11-.33-.25l-4.09-6.1.64,12.1c0,.11-.04.2-.11.29-.07.08-.16.15-.27.18-.12.04-.23.06-.35.05-.11,0-.21-.04-.31-.09-.1-.05-.16-.13-.2-.23-.02-.05-.02-.09-.02-.13l-.6-13.4c0-.16.05-.3.16-.42.11-.12.25-.2.41-.26.16-.05.32-.07.48-.04.16.03.29.1.37.24l3.86,5.78-.44-6.93c-.01-.16.04-.29.15-.41.11-.12.25-.21.42-.26Z" style="fill: #fff;"/>
    <path d="m149.29,229.24c.14-.03.27-.02.41.04.14.05.22.16.26.32l2.76,12.6c.04.16,0,.29-.1.4s-.22.17-.35.2l-6.61,1.45c-.16.04-.29,0-.39-.1-.1-.1-.16-.22-.19-.36-.03-.15-.02-.29.03-.43.05-.13.16-.22.3-.25l5.94-1.3-1.12-5.1-2.91.64c-.15.03-.27,0-.38-.09s-.17-.21-.21-.36c-.03-.12-.02-.25.03-.38s.16-.21.32-.24l2.91-.64-1.12-5.12-5.94,1.3c-.15.03-.27,0-.38-.09s-.18-.22-.21-.38c-.03-.14-.02-.27.03-.4.05-.13.15-.22.31-.25l6.61-1.45Z" style="fill: #fff;"/>
    <path d="m140.1,231.1c.18-.02.32,0,.43.09.11.08.18.18.19.31l1.64,12.82c.02.16-.02.29-.13.39-.11.1-.23.15-.37.17l-3.09.4c-.7.09-1.36.09-1.96,0-.61-.09-1.11-.34-1.52-.76-.4-.42-.66-1.07-.78-1.95-.1-.79-.04-1.47.19-2.04.23-.57.57-1,1.02-1.27-.41-.1-.77-.27-1.1-.49s-.59-.54-.81-.93-.37-.92-.45-1.57l-.04-.34c-.12-.96-.06-1.74.2-2.34.25-.61.65-1.07,1.18-1.4s1.15-.53,1.84-.62l3.56-.46Zm-.53,1.24l-2.71.35c-.82.1-1.43.41-1.85.92-.41.51-.56,1.24-.44,2.21l.04.32c.13.98.45,1.64.97,1.97.52.33,1.19.45,2.01.35l2.71-.35-.74-5.77Zm.88,6.86l-2.45.31c-.88.11-1.5.38-1.87.79-.37.42-.5,1.07-.38,1.96.08.59.25,1.03.51,1.31.27.29.6.46,1.01.53.41.07.87.07,1.4,0l2.37-.3-.59-4.62Z" style="fill: #fff;"/>
    <path d="m127.63,232.15c.81-.03,1.51.06,2.1.29.59.22,1.05.49,1.37.8.32.31.49.58.5.81,0,.1-.02.21-.07.33-.05.12-.12.21-.21.28-.09.07-.17.11-.26.12-.13,0-.26-.07-.4-.22-.14-.15-.32-.33-.55-.53s-.53-.37-.91-.51c-.37-.14-.86-.2-1.45-.18-.59.02-1.1.14-1.51.36-.41.21-.72.52-.93.91-.21.39-.31.88-.28,1.47.02.61.16,1.09.4,1.45.24.36.56.65.94.88.38.22.8.41,1.25.56.45.15.9.3,1.36.46.46.16.88.36,1.27.6.39.24.71.57.95.99.24.42.38.95.41,1.61.03.68-.08,1.25-.31,1.71-.24.46-.55.82-.94,1.09-.39.27-.81.47-1.28.59-.46.13-.92.2-1.36.22-.35.01-.72,0-1.1-.04-.38-.04-.72-.11-1.04-.2-.32-.09-.58-.2-.78-.34-.2-.14-.31-.3-.31-.47,0-.08.02-.17.06-.28s.1-.21.17-.3c.07-.09.17-.14.3-.15.11,0,.27.05.48.16.21.11.49.22.84.33s.81.15,1.36.13c.46-.02.89-.1,1.31-.24.42-.14.75-.38,1.01-.72.25-.33.37-.78.35-1.34-.02-.51-.15-.91-.4-1.21-.25-.3-.56-.54-.94-.71-.38-.17-.8-.33-1.25-.47-.45-.14-.9-.3-1.36-.48-.46-.18-.88-.41-1.26-.69-.39-.28-.7-.66-.95-1.13-.25-.47-.39-1.09-.42-1.85-.04-.9.1-1.64.42-2.23.32-.59.77-1.04,1.36-1.34s1.28-.47,2.06-.5Z" style="fill: #fff;"/>
    <path d="m121.04,232.42c.16,0,.31.06.43.14.12.09.18.21.17.38l-.62,12.91c0,.16-.08.28-.21.35-.13.07-.28.1-.44.09-.15,0-.29-.05-.42-.13-.13-.08-.19-.21-.18-.37l.27-5.66-5.48-.26-.27,5.66c0,.16-.08.28-.21.35-.13.07-.28.1-.44.09-.15,0-.29-.05-.42-.13-.13-.08-.19-.21-.18-.37l.62-12.9c0-.17.08-.29.22-.36.14-.08.28-.11.43-.1.16,0,.31.06.43.14.12.09.18.21.17.38l-.3,6.15,5.48.26.3-6.15c0-.17.08-.29.22-.36.14-.08.28-.11.43-.1Z" style="fill: #fff;"/>
    <path d="m107.36,231.15c.73.11,1.37.33,1.92.68.55.35.96.84,1.23,1.48.27.64.33,1.45.19,2.43l-.84,5.81c-.14.98-.43,1.74-.87,2.27-.44.54-.97.9-1.59,1.08-.63.18-1.3.21-2.03.11-.74-.11-1.39-.33-1.94-.68-.55-.35-.96-.84-1.23-1.48-.27-.64-.33-1.45-.19-2.43l.84-5.81c.14-.98.43-1.74.86-2.27.44-.54.97-.9,1.59-1.08.63-.18,1.31-.21,2.05-.11Zm-.17,1.15c-.84-.12-1.53.02-2.07.41-.54.4-.88,1.09-1.02,2.08l-.84,5.81c-.14.99,0,1.75.4,2.29.41.53,1.03.86,1.86.98.84.12,1.53-.02,2.06-.41.53-.4.87-1.09,1.01-2.08l.84-5.81c.14-.99.01-1.75-.39-2.28-.4-.53-1.02-.86-1.85-.98Z" style="fill: #fff;"/>
    <path d="m100.4,230.07c.16.04.29.11.4.22.1.11.14.24.1.4l-3,12.57c-.03.12-.1.22-.21.28-.11.06-.25.08-.41.06l-3.4-.81c-.71-.17-1.33-.46-1.85-.85-.52-.4-.87-.92-1.07-1.57-.2-.65-.18-1.45.05-2.4l.04-.18c.23-.96.58-1.69,1.06-2.19.48-.5,1.04-.81,1.69-.93.65-.12,1.33-.09,2.04.08l2.66.64,1.19-4.97c.04-.16.13-.27.28-.31.15-.05.3-.06.44-.02Zm-2.17,6.38l-2.66-.64c-.83-.2-1.52-.12-2.1.23s-.97,1.01-1.2,1.97l-.05.2c-.23.96-.17,1.73.18,2.3s.94.96,1.77,1.15l2.66.64,1.4-5.86Z" style="fill: #fff;"/>
    <path d="m87.49,226.56c.15.06.27.15.36.27.09.12.1.26.04.41l-4.63,11.92c-.08.21-.2.34-.35.37-.15.04-.3.03-.46-.03-.14-.05-.25-.14-.34-.26-.08-.12-.15-.26-.19-.42-.05-.16-.08-.33-.09-.51l-.77-7.04-5.31,4.69c-.15.12-.3.22-.44.31-.14.09-.28.15-.43.18-.15.03-.29.02-.42-.03-.17-.06-.29-.16-.37-.29s-.08-.29,0-.51l4.63-11.92c.06-.15.16-.25.31-.28.15-.03.3-.02.45.04.14.05.26.14.35.27s.11.26.05.42l-3.87,9.95,5.1-4.42c.13-.11.24-.18.35-.21.11-.03.2-.02.28,0,.07.03.14.09.2.18.06.09.1.22.13.4l.73,6.72,3.88-9.99c.06-.15.17-.24.32-.27.15-.03.3-.02.44.04Z" style="fill: #fff;"/>
    <path d="m76.11,221.86c.12.06.22.16.29.29s.07.26,0,.41l-5.85,11.5c-.07.15-.18.23-.33.25-.14.02-.28,0-.4-.07l-6.03-3.06c-.15-.08-.23-.18-.24-.33s.01-.27.07-.4c.07-.14.17-.24.3-.31.13-.07.26-.07.4,0l5.42,2.75,2.37-4.66-2.66-1.35c-.14-.07-.21-.17-.24-.31-.02-.14,0-.28.07-.41.06-.11.15-.2.27-.27.12-.07.25-.06.4.01l2.66,1.35,2.38-4.67-5.42-2.76c-.14-.07-.21-.17-.24-.31-.02-.14,0-.28.08-.43.06-.12.16-.22.28-.29.12-.07.26-.07.4,0l6.03,3.07Z" style="fill: #fff;"/>
    <path d="m67.83,217.48c.15.09.24.21.28.34.04.13.02.26-.05.36l-6.88,10.96c-.07.11-.17.17-.31.2s-.28,0-.43-.1l-2.85-1.79c-.63-.4-1.13-.87-1.5-1.41-.37-.55-.54-1.16-.52-1.85.02-.69.3-1.45.82-2.29l3.06-4.88c.53-.84,1.09-1.42,1.71-1.73.61-.32,1.24-.43,1.89-.34s1.29.34,1.93.74l2.85,1.79Zm-1.2.62l-2.27-1.42c-.72-.45-1.41-.6-2.07-.46-.66.15-1.25.64-1.78,1.47l-3.06,4.88c-.53.84-.71,1.58-.56,2.24s.59,1.21,1.29,1.65l2.28,1.43,6.15-9.8Z" style="fill: #fff;"/>
    <path d="m56.91,210.19c.08.06.15.15.21.26.06.11.09.22.1.33,0,.11-.02.21-.09.29-.03.04-.06.07-.1.09l-11.24,7.44c-.14.09-.29.12-.44.09-.15-.04-.29-.1-.42-.21-.14-.11-.24-.24-.3-.4-.06-.15-.06-.3,0-.44l5.11-12.47s.03-.07.06-.1c.06-.08.15-.12.26-.14.11-.02.23,0,.35.03s.23.09.33.17c.08.06.14.14.17.24.04.1.03.2,0,.31l-1.18,2.82,4.05,3.33,2.53-1.71c.1-.06.2-.09.3-.07.1.02.2.07.3.15Zm-4.05,2.28l-3.57-2.93-3.08,7.38,6.65-4.45Z" style="fill: #fff;"/>
    <path d="m46.91,201.3c.58.57.99,1.14,1.24,1.73.24.58.36,1.1.36,1.55,0,.45-.08.75-.24.92-.07.07-.17.13-.29.17-.12.04-.24.06-.35.04-.11-.01-.2-.05-.26-.11-.09-.09-.13-.24-.11-.44.02-.21.02-.46,0-.77-.01-.3-.09-.64-.25-1.01-.15-.37-.44-.76-.87-1.18-.43-.42-.86-.7-1.29-.85-.44-.15-.87-.17-1.3-.05-.43.12-.85.38-1.26.8-.42.44-.68.86-.78,1.29-.09.42-.09.85,0,1.28.1.43.25.86.45,1.29.2.43.4.86.6,1.3s.34.89.43,1.34c.09.45.07.91-.06,1.37s-.43.93-.89,1.4c-.48.49-.96.81-1.46.95-.5.14-.97.17-1.44.07-.46-.1-.9-.27-1.31-.52-.41-.25-.77-.53-1.09-.84-.25-.25-.49-.52-.72-.82s-.42-.6-.57-.89-.25-.56-.29-.8c-.04-.24,0-.43.13-.55.05-.05.13-.1.24-.15.11-.05.22-.07.33-.08.12-.01.22.03.31.12.08.08.15.23.21.46.06.23.17.51.34.84.17.33.45.69.85,1.08.33.32.69.58,1.08.79s.8.29,1.21.24c.42-.05.82-.27,1.21-.67.35-.36.56-.74.6-1.12.05-.39,0-.78-.13-1.17-.13-.4-.31-.81-.51-1.23-.21-.42-.4-.86-.59-1.32-.18-.45-.31-.92-.37-1.39s0-.96.17-1.47c.17-.5.53-1.03,1.06-1.57.63-.64,1.27-1.05,1.91-1.23s1.28-.15,1.91.07c.63.22,1.22.61,1.78,1.15Z" style="fill: #fff;"/>
    <path d="m40.65,194.67c.53.61.89,1.22,1.09,1.82.19.6.27,1.13.23,1.57-.04.45-.15.74-.32.89-.08.07-.18.12-.3.15s-.24.04-.35.02c-.11-.02-.2-.07-.25-.13-.08-.1-.11-.25-.08-.45.03-.2.06-.46.07-.76.01-.3-.04-.65-.16-1.03s-.38-.8-.77-1.25c-.39-.45-.8-.77-1.22-.96-.42-.19-.85-.24-1.29-.16-.44.08-.88.31-1.32.69-.46.4-.75.8-.88,1.22-.13.41-.16.84-.1,1.28.06.44.18.88.34,1.32.17.44.33.89.49,1.35.16.46.27.91.32,1.37.05.46,0,.91-.18,1.36-.17.45-.51.89-1,1.32-.52.45-1.03.72-1.53.83s-.98.09-1.44-.05c-.45-.14-.87-.35-1.26-.63-.39-.28-.73-.59-1.02-.93-.23-.27-.45-.56-.65-.88-.2-.32-.37-.63-.5-.94-.13-.31-.21-.58-.22-.82-.02-.24.04-.42.17-.54.06-.05.14-.09.25-.13.11-.04.22-.06.34-.06.12,0,.22.05.3.14.07.09.13.25.17.48.04.23.13.52.27.86.14.34.39.72.75,1.14.3.34.64.64,1.01.87s.77.35,1.19.34c.42-.01.84-.2,1.26-.56.38-.33.62-.69.7-1.07.08-.38.07-.77-.03-1.18-.1-.41-.24-.83-.41-1.27-.17-.44-.33-.89-.48-1.36-.15-.47-.23-.94-.25-1.42-.02-.48.08-.96.29-1.45.21-.49.61-.98,1.18-1.48.68-.59,1.35-.94,2.01-1.06s1.29-.04,1.9.23c.6.27,1.16.7,1.68,1.3Z" style="fill: #fff;"/>
    <path d="m36.38,189.71c.08.11.13.24.13.39,0,.15-.06.27-.19.36l-10.42,7.6c-.13.1-.27.12-.41.07-.14-.05-.25-.13-.33-.24l-3.98-5.47c-.1-.13-.12-.27-.07-.4s.13-.24.25-.32c.12-.09.26-.14.4-.14.15,0,.26.06.35.18l3.58,4.91,4.22-3.08-1.76-2.41c-.09-.12-.11-.25-.07-.38.04-.13.13-.25.25-.33.1-.07.22-.11.36-.12s.25.06.35.19l1.76,2.41,4.24-3.09-3.58-4.91c-.09-.12-.11-.25-.07-.38.04-.13.13-.25.27-.35.11-.08.24-.13.38-.14.14,0,.26.05.36.19l3.98,5.47Z" style="fill: #fff;"/>
    <path d="m29.55,179.45c.37.61.6,1.24.68,1.9s-.03,1.29-.36,1.9c-.32.61-.91,1.17-1.75,1.69l-5.02,3.04c-.84.51-1.62.77-2.32.76-.7,0-1.32-.2-1.86-.57s-1-.87-1.37-1.49c-.43-.71-.68-1.4-.73-2.05-.05-.65.05-1.23.3-1.75.25-.51.62-.92,1.12-1.23.26-.16.46-.21.6-.17.14.04.26.15.36.32.12.19.16.36.13.49-.03.13-.1.23-.2.31-.17.1-.35.25-.54.45-.19.19-.34.43-.45.72-.12.29-.15.62-.11,1s.21.81.5,1.28c.46.76,1.01,1.21,1.66,1.37.65.15,1.4-.02,2.24-.54l5.02-3.04c.86-.52,1.36-1.1,1.52-1.75.15-.65,0-1.36-.48-2.14-.3-.49-.6-.83-.9-1.03-.31-.2-.6-.31-.89-.33-.29-.02-.56.01-.83.09s-.51.17-.72.27c-.15.06-.29.08-.41.04s-.23-.14-.34-.32c-.11-.18-.15-.35-.11-.5.04-.15.18-.3.44-.46.49-.3,1.02-.43,1.6-.42.58.02,1.15.2,1.71.55.56.35,1.06.88,1.49,1.6Z" style="fill: #fff;"/>
    <path d="m24.93,170.96c.32.66.49,1.32.52,1.97.02.65-.16,1.27-.54,1.85-.38.58-1.01,1.09-1.9,1.52l-5.28,2.57c-.89.43-1.68.62-2.37.56s-1.29-.3-1.79-.71-.91-.96-1.23-1.62c-.33-.67-.5-1.33-.52-1.98s.16-1.27.54-1.85c.38-.58,1.01-1.09,1.9-1.52l5.28-2.57c.89-.43,1.68-.62,2.37-.56.69.06,1.29.3,1.79.71s.91.96,1.24,1.64Zm-1.04.51c-.37-.76-.87-1.25-1.5-1.48-.63-.22-1.39-.11-2.29.33l-5.28,2.57c-.9.44-1.45.98-1.66,1.62-.21.64-.13,1.33.23,2.08.37.76.87,1.25,1.5,1.47.63.22,1.39.1,2.29-.33l5.28-2.57c.9-.44,1.46-.97,1.67-1.61s.14-1.32-.23-2.08Z" style="fill: #fff;"/>
    <path d="m19.59,158.37c.05.13.03.27-.07.43-.1.16-.2.3-.32.42l-4.29,4.75.85,2.26,5.46-2.07c.15-.06.29-.04.42.06s.21.21.27.36c.06.15.07.31.04.45-.03.15-.12.25-.28.31l-12.08,4.57c-.12.04-.23.04-.35,0-.11-.05-.2-.14-.26-.27l-1.19-3.15c-.26-.7-.4-1.38-.41-2.04,0-.66.18-1.26.56-1.81.38-.54,1.01-.98,1.9-1.32.73-.28,1.38-.39,1.95-.32.57.06,1.06.26,1.47.58.41.32.77.73,1.06,1.21l4.22-4.73s.05-.08.09-.11c.04-.02.08-.04.11-.05.1-.04.2-.04.32,0,.12.03.23.09.33.17.1.08.17.18.21.29Zm-4.84,8.25l-.92-2.42c-.3-.79-.74-1.36-1.31-1.71-.57-.35-1.3-.35-2.19-.01-.9.34-1.45.83-1.64,1.46-.19.64-.14,1.35.16,2.14l.92,2.42,4.98-1.88Z" style="fill: #fff;"/>
    <path d="m18.63,155.32c.05.16.05.31.01.45-.04.15-.14.24-.3.29l-12.35,3.8c-.16.05-.29.02-.4-.08s-.19-.23-.24-.38c-.04-.15-.05-.29-.02-.44.03-.15.13-.25.29-.3l12.35-3.8c.16-.05.3-.02.41.08.12.1.2.23.24.37Z" style="fill: #fff;"/>
    <path d="m17.51,151.59c.03.14.02.27-.03.41-.05.14-.16.22-.32.26l-12.54,3.02c-.16.04-.29,0-.4-.09s-.18-.21-.21-.35l-1.59-6.58c-.04-.16,0-.29.09-.39s.22-.17.35-.2c.15-.04.29-.03.43.02.14.05.22.15.26.3l1.43,5.91,5.08-1.22-.7-2.9c-.04-.15,0-.27.08-.38.09-.11.21-.18.36-.21.12-.03.25-.02.38.03.13.05.21.15.25.31l.7,2.9,5.1-1.23-1.43-5.91c-.04-.15,0-.27.08-.38.09-.11.22-.18.38-.22.14-.03.27-.03.41.02.13.05.22.15.26.31l1.59,6.58Z" style="fill: #fff;"/>
    <path d="m15.22,139.89c.12.8.11,1.51-.05,2.12-.16.61-.37,1.1-.64,1.45s-.52.55-.75.58c-.1.02-.21,0-.33-.04s-.22-.1-.31-.17-.13-.16-.14-.25c-.02-.12.04-.27.18-.42.14-.16.29-.36.46-.61.17-.25.31-.57.41-.96.1-.39.11-.87.02-1.46-.09-.59-.26-1.07-.52-1.46-.26-.38-.59-.66-1.01-.83s-.91-.21-1.49-.12c-.6.09-1.07.28-1.39.56-.33.28-.58.62-.77,1.03-.18.41-.32.84-.42,1.3-.1.46-.2.93-.3,1.4-.11.47-.26.91-.46,1.33-.2.41-.49.77-.88,1.06-.38.29-.9.48-1.55.58-.68.1-1.26.06-1.74-.12-.48-.18-.88-.45-1.19-.81-.31-.36-.55-.76-.73-1.2-.18-.45-.3-.89-.37-1.33-.05-.35-.08-.71-.08-1.09,0-.38.03-.73.08-1.06.05-.33.14-.6.25-.82s.26-.34.43-.36c.08-.01.17,0,.28.02.11.03.22.07.32.13.1.06.16.16.18.28.02.11-.02.28-.11.5-.09.22-.17.51-.23.87-.07.36-.06.82.03,1.37.07.45.2.88.39,1.28s.46.71.82.92c.36.21.81.28,1.37.19.5-.08.89-.25,1.16-.53.27-.28.47-.62.6-1.01s.24-.83.33-1.29c.09-.46.2-.93.32-1.4.13-.47.31-.92.55-1.33.24-.41.58-.77,1.02-1.07.44-.3,1.04-.5,1.79-.62.89-.14,1.64-.08,2.27.17s1.12.65,1.48,1.21.61,1.22.73,1.99Z" style="fill: #fff;"/>
    <path d="m13.86,118.6c-.01.16-.06.31-.15.43-.09.12-.22.17-.38.16l-12.89-.92c-.18-.01-.3-.08-.36-.22-.06-.13-.08-.28-.07-.44.01-.15.06-.28.15-.39.09-.11.21-.21.35-.3.14-.09.29-.17.46-.23l10.43-4.4-10.48-.75c-.16-.01-.28-.08-.35-.22-.07-.13-.09-.28-.08-.44.01-.15.06-.29.14-.42.09-.13.21-.19.37-.17l12.89.92c.16.01.28.09.36.23.07.14.1.28.09.44-.01.18-.1.33-.25.47-.16.13-.33.24-.53.31l-10.63,4.53,10.48.75c.16.01.28.09.36.23s.1.28.09.44Z" style="fill: #fff;"/>
    <path d="m15.29,105.14c-.02.15-.09.28-.19.4-.1.12-.24.16-.4.14l-4.76-.79c-.06-.01-.11,0-.16.01l-8.09,2.64c-.07.01-.13.03-.19.04-.06,0-.11,0-.16,0-.1-.02-.18-.07-.25-.16-.07-.09-.12-.19-.14-.3-.03-.11-.03-.22-.01-.32.02-.1.06-.19.14-.26.08-.07.18-.13.32-.17l7.41-2.31-6.27-4.6c-.11-.1-.19-.19-.24-.27-.05-.09-.07-.18-.05-.28.02-.11.06-.21.12-.31.06-.09.14-.17.23-.22.09-.05.19-.07.29-.06.05,0,.1.02.16.05.05.02.11.05.17.09l6.79,5.13s.08.05.14.06l4.76.79c.16.03.27.11.33.25.06.14.08.29.05.45Z" style="fill: #fff;"/>
    <path d="m16.56,98.47c-.04.16-.12.29-.23.39-.11.1-.25.13-.41.09l-12.49-3.3c-.16-.04-.26-.13-.3-.28-.04-.14-.04-.29,0-.45.04-.15.11-.27.22-.38s.24-.14.4-.1l5.47,1.44,1.4-5.31-5.47-1.45c-.16-.04-.26-.13-.3-.28-.04-.14-.04-.29,0-.45.04-.15.11-.28.22-.38.11-.11.24-.14.4-.1l12.49,3.3c.16.04.26.14.31.29.05.15.05.3.01.44-.04.16-.12.29-.23.39-.11.1-.25.13-.41.09l-5.95-1.57-1.4,5.31,5.95,1.57c.16.04.26.14.31.29.05.15.05.3.01.44Z" style="fill: #fff;"/>
    <path d="m19.45,88.33c-.05.13-.13.24-.25.32-.12.08-.26.1-.41.04l-12.12-4.43c-.15-.06-.25-.16-.29-.3-.04-.14-.03-.28.02-.41l2.32-6.35c.06-.15.15-.25.29-.28s.27-.02.4.03c.14.05.26.14.34.26.08.12.1.25.05.39l-2.09,5.71,4.91,1.79,1.02-2.8c.05-.14.15-.23.28-.27.14-.04.27-.03.42.02.12.04.22.12.3.23.08.11.09.24.04.4l-1.02,2.8,4.93,1.8,2.09-5.71c.05-.14.15-.23.28-.27.14-.04.28-.03.44.03.13.05.24.13.33.24.09.11.1.25.05.4l-2.32,6.35Z" style="fill: #fff;"/>
    <path d="m22.8,79.59c-.08.16-.18.27-.31.32-.13.05-.25.05-.37,0l-11.7-5.52c-.11-.05-.19-.15-.24-.28s-.03-.28.05-.44l1.44-3.04c.32-.68.73-1.23,1.22-1.66.5-.43,1.09-.68,1.78-.74.69-.06,1.48.12,2.37.54l5.21,2.46c.89.42,1.54.92,1.92,1.49s.58,1.18.56,1.84c-.02.66-.18,1.32-.5,2l-1.44,3.04Zm-.76-1.11l1.14-2.42c.36-.77.43-1.47.21-2.11-.22-.64-.78-1.17-1.68-1.59l-5.21-2.46c-.89-.42-1.66-.52-2.29-.28-.64.23-1.13.73-1.49,1.48l-1.15,2.44,10.46,4.94Z" style="fill: #fff;"/>
    <path d="m30.8,64.79c-.09.14-.21.25-.35.32s-.29.09-.44.04l-12.8-4.02s-.08-.03-.12-.06c-.09-.06-.15-.15-.17-.25s-.02-.22,0-.34c.03-.12.07-.22.12-.31.06-.09.15-.17.25-.22.1-.05.21-.06.3-.03l11.53,3.74-4.85-5.5c-.11-.13-.15-.27-.14-.41.02-.14.07-.27.15-.4s.18-.22.3-.28c.12-.06.25-.06.41,0l6.96,2.34-7.89-9.19c-.06-.09-.09-.19-.09-.3,0-.11.04-.21.1-.31.07-.1.15-.19.25-.25.09-.06.19-.1.3-.12s.21,0,.3.06c.04.03.08.06.1.09l8.65,10.25c.1.13.14.27.13.43-.01.16-.07.31-.17.46-.09.14-.21.25-.35.32-.14.08-.29.09-.44.04l-6.58-2.22,4.58,5.22c.1.12.15.26.13.42-.02.16-.08.32-.17.47Z" style="fill: #fff;"/>
    <path d="m37.47,55.21c-.09.11-.2.18-.34.22-.14.04-.27,0-.4-.1l-9.89-8.29c-.13-.11-.18-.23-.17-.38s.07-.27.16-.38l4.34-5.18c.11-.13.23-.18.37-.16.14.02.27.07.37.16.12.1.19.22.23.36.04.14.01.27-.09.39l-3.91,4.66,4.01,3.36,1.92-2.29c.1-.12.22-.17.36-.16.14.01.27.06.39.16.1.08.16.19.2.32.04.13,0,.26-.1.39l-1.92,2.29,4.02,3.37,3.91-4.66c.1-.12.22-.17.36-.16.14.01.27.07.4.17.11.09.18.2.23.34.04.14.01.27-.09.39l-4.34,5.18Z" style="fill: #fff;"/>
    <path d="m43.61,48.12c-.13.13-.26.19-.4.19-.14,0-.25-.04-.34-.13l-9.14-9.14c-.12-.12-.16-.25-.13-.39s.09-.26.19-.36l2.2-2.2c.5-.5,1.02-.9,1.55-1.2.53-.3,1.09-.41,1.67-.32s1.18.44,1.81,1.07c.56.56.93,1.14,1.1,1.73.17.59.16,1.13-.03,1.63.38-.17.77-.26,1.17-.28s.8.06,1.21.24c.41.18.85.5,1.32.97l.24.24c.68.68,1.11,1.34,1.28,1.97.17.64.14,1.25-.08,1.83-.22.58-.58,1.12-1.07,1.61l-2.54,2.54Zm-5.23-6.19l1.75-1.75c.63-.63.96-1.22.99-1.77.04-.56-.26-1.15-.9-1.79-.42-.42-.82-.66-1.21-.73s-.76,0-1.12.19-.73.48-1.11.85l-1.69,1.69,3.29,3.29Zm4.89,4.89l1.93-1.93c.58-.58.88-1.2.9-1.85.02-.65-.32-1.33-1.01-2.02l-.23-.23c-.7-.7-1.36-1.02-1.97-.97-.62.05-1.22.37-1.8.95l-1.94,1.93,4.11,4.11Z" style="fill: #fff;"/>
    <path d="m52.8,39.69c-.62.52-1.23.88-1.84,1.06-.6.19-1.13.25-1.58.21-.45-.05-.74-.16-.89-.33-.07-.08-.11-.18-.14-.3s-.03-.24,0-.35c.02-.11.07-.19.14-.25.1-.08.25-.1.45-.07s.46.06.76.08c.3.02.65-.03,1.03-.15s.8-.36,1.26-.75c.46-.38.78-.78.97-1.2.19-.42.25-.85.18-1.29-.07-.44-.3-.89-.67-1.33-.39-.47-.79-.77-1.2-.9-.41-.13-.84-.17-1.28-.12-.44.06-.88.16-1.33.32s-.9.32-1.36.47c-.46.15-.92.25-1.37.3s-.91-.02-1.36-.2-.88-.52-1.31-1.02c-.44-.52-.71-1.04-.8-1.55s-.07-.99.07-1.44.36-.87.65-1.25c.29-.38.6-.72.94-1,.27-.23.57-.44.89-.64s.64-.36.95-.48c.31-.13.58-.2.83-.21.24-.01.42.05.54.18.05.06.09.14.13.25.04.11.05.23.05.34,0,.12-.05.22-.15.3-.09.07-.25.13-.48.17-.23.04-.52.12-.86.26s-.73.38-1.16.74c-.35.29-.65.62-.89.99-.24.37-.36.76-.36,1.18,0,.42.19.84.54,1.27.33.39.68.63,1.06.71.38.09.77.08,1.18-.01.41-.1.83-.22,1.27-.39.44-.16.9-.32,1.37-.45.47-.14.94-.21,1.42-.23s.96.09,1.44.31c.48.22.97.62,1.46,1.21.58.69.92,1.36,1.03,2.02.11.66.02,1.29-.26,1.89-.28.6-.72,1.15-1.32,1.66Z" style="fill: #fff;"/>
    <path d="m57.85,35.45c-.14.09-.28.14-.43.15s-.27-.06-.37-.2l-7.39-10.6c-.09-.13-.11-.27-.05-.4.06-.13.16-.25.29-.34.12-.09.26-.14.42-.15.15-.01.28.05.37.18l3.24,4.64,4.5-3.14-3.24-4.64c-.09-.13-.11-.27-.05-.4.06-.13.16-.25.29-.34.12-.09.26-.14.42-.15.15-.01.28.05.37.18l7.39,10.6c.09.14.11.27.05.42s-.16.26-.28.35c-.14.09-.28.14-.43.15s-.27-.06-.37-.2l-3.52-5.05-4.5,3.14,3.52,5.05c.09.13.11.27.05.42s-.16.26-.28.35Z" style="fill: #fff;"/>
    <path d="m69.47,28.09c-.64.36-1.28.57-1.93.63-.65.06-1.27-.08-1.88-.42-.6-.34-1.15-.95-1.63-1.81l-2.89-5.11c-.49-.86-.72-1.64-.7-2.33.02-.69.22-1.3.61-1.83s.9-.97,1.54-1.33c.65-.37,1.3-.58,1.95-.64s1.27.08,1.88.42,1.15.95,1.63,1.81l2.89,5.11c.49.86.72,1.64.7,2.33s-.22,1.3-.61,1.83-.91.97-1.56,1.34Zm-.57-1.01c.74-.42,1.2-.95,1.38-1.59s.03-1.4-.46-2.27l-2.89-5.11c-.49-.87-1.06-1.39-1.71-1.56-.65-.17-1.34-.05-2.07.36-.74.42-1.2.95-1.38,1.58-.18.64-.02,1.39.47,2.27l2.89,5.11c.49.87,1.06,1.4,1.7,1.57.64.17,1.33.06,2.06-.35Z" style="fill: #fff;"/>
    <path d="m75.64,24.69c-.15.07-.3.09-.45.07-.15-.02-.26-.11-.33-.26l-5.3-11.78c-.05-.12-.05-.23,0-.35s.15-.22.29-.3l3.19-1.43c.67-.3,1.33-.45,1.98-.45.65,0,1.25.2,1.81.59.55.4,1.03,1.04,1.43,1.93l.08.17c.41.9.57,1.69.5,2.38-.07.69-.33,1.27-.77,1.76-.44.49-.99.88-1.66,1.19l-2.5,1.12,2.09,4.66c.07.15.06.29-.03.42-.09.13-.2.23-.34.29Zm-2.18-6.37l2.5-1.12c.77-.35,1.28-.84,1.52-1.46.24-.63.16-1.39-.25-2.29l-.09-.19c-.4-.9-.92-1.47-1.55-1.71-.63-.24-1.33-.18-2.1.16l-2.5,1.12,2.47,5.49Z" style="fill: #fff;"/>
  </g>
  <path d="m123.03,222c-54.5,0-98.84-44.34-98.84-98.84S68.53,24.32,123.03,24.32s98.84,44.34,98.84,98.84-44.34,98.84-98.84,98.84Zm0-194.68c-52.85,0-95.84,42.99-95.84,95.84s42.99,95.84,95.84,95.84,95.84-42.99,95.84-95.84S175.88,27.32,123.03,27.32Z" style="fill: #fff;"/>
</svg>