<?xml version="1.0" encoding="UTF-8"?>
<svg id="Layer_1" data-name="Layer 1" xmlns="http://www.w3.org/2000/svg" viewBox="0 0 1920 1080">
  <path d="m2005.27,364.16c-13.54-100.84-99.92-178.61-204.47-178.61-64.49,0-122.06,29.59-159.89,75.93-37.83-46.34-95.4-75.93-159.89-75.93s-125.83,31.57-163.55,80.55c-37.72-48.98-96.95-80.55-163.55-80.55s-121.5,29.3-159.34,75.24c-37.84-45.94-95.17-75.24-159.34-75.24s-124.58,30.89-162.35,78.98c-37.77-48.09-96.45-78.98-162.35-78.98-60.21,0-114.39,25.8-152.11,66.93-37.72-41.14-91.9-66.93-152.11-66.93-104.55,0-190.93,77.77-204.47,178.61h2003.42Z" style="fill: #e7d6d6;"/>
</svg>