<?xml version="1.0" encoding="UTF-8"?>
<svg id="Layer_1" data-name="Layer 1" xmlns="http://www.w3.org/2000/svg" viewBox="0 0 374.99 330.29">
  <defs>
    <style>
      .cls-1, .cls-2 {
        fill: #fff;
      }

      .cls-3 {
        fill: #231f20;
      }

      .cls-2, .cls-4 {
        stroke: #fff;
        stroke-miterlimit: 10;
        stroke-width: 2px;
      }

      .cls-4 {
        fill: none;
      }
    </style>
  </defs>
  <g>
    <path class="cls-1" d="m29.35,5.69h-4.92v-1.78h11.98v1.78h-4.94v14.4h-2.11V5.69Z"/>
    <path class="cls-1" d="m40.3,3.91v16.18h-2.09V3.91h2.09Z"/>
    <path class="cls-1" d="m43.94,4.13c1.27-.19,2.78-.34,4.44-.34,3,0,5.14.7,6.55,2.02,1.44,1.32,2.28,3.19,2.28,5.81s-.82,4.8-2.33,6.29c-1.51,1.51-4.01,2.33-7.15,2.33-1.49,0-2.74-.07-3.79-.19V4.13Zm2.09,14.31c.53.1,1.3.12,2.11.12,4.46,0,6.89-2.5,6.89-6.86.02-3.82-2.14-6.24-6.55-6.24-1.08,0-1.9.1-2.45.22v12.77Z"/>
    <path class="cls-1" d="m59.64,17.54c.94.58,2.3,1.06,3.74,1.06,2.14,0,3.38-1.13,3.38-2.76,0-1.51-.86-2.38-3.05-3.22-2.64-.94-4.27-2.3-4.27-4.58,0-2.52,2.09-4.39,5.23-4.39,1.66,0,2.86.38,3.58.79l-.58,1.7c-.53-.29-1.61-.77-3.07-.77-2.21,0-3.05,1.32-3.05,2.42,0,1.51.98,2.26,3.22,3.12,2.74,1.06,4.13,2.38,4.13,4.75,0,2.5-1.85,4.66-5.66,4.66-1.56,0-3.26-.46-4.13-1.03l.53-1.75Z"/>
    <path class="cls-1" d="m71.76,3.91h2.09v14.43h6.91v1.75h-9V3.91Z"/>
    <path class="cls-1" d="m85.17,3.91v16.18h-2.09V3.91h2.09Z"/>
    <path class="cls-1" d="m88.82,20.09V3.91h2.28l5.18,8.18c1.2,1.9,2.14,3.6,2.9,5.26l.05-.02c-.19-2.16-.24-4.13-.24-6.65V3.91h1.97v16.18h-2.11l-5.14-8.21c-1.13-1.8-2.21-3.65-3.02-5.4l-.07.02c.12,2.04.17,3.98.17,6.67v6.91h-1.97Z"/>
    <path class="cls-1" d="m107.93,3.91h2.09v10.82c0,4.3-2.11,5.62-4.9,5.62-.77,0-1.7-.17-2.23-.38l.31-1.7c.43.17,1.06.31,1.75.31,1.87,0,2.98-.84,2.98-4.01V3.91Z"/>
    <path class="cls-1" d="m121.87,12.5h-6.29v5.83h7.01v1.75h-9.1V3.91h8.74v1.75h-6.65v5.11h6.29v1.73Z"/>
    <path class="cls-1" d="m130.39,3.91h8.71v1.75h-6.62v5.38h6.12v1.73h-6.12v7.32h-2.09V3.91Z"/>
    <path class="cls-1" d="m155.9,11.83c0,5.57-3.38,8.52-7.51,8.52s-7.27-3.31-7.27-8.21c0-5.14,3.19-8.5,7.51-8.5s7.27,3.38,7.27,8.18Zm-12.55.26c0,3.46,1.87,6.55,5.16,6.55s5.18-3.05,5.18-6.72c0-3.22-1.68-6.58-5.16-6.58s-5.18,3.19-5.18,6.74Z"/>
    <path class="cls-1" d="m158.61,4.13c1.06-.22,2.57-.34,4.01-.34,2.23,0,3.67.41,4.68,1.32.82.72,1.27,1.82,1.27,3.07,0,2.14-1.34,3.55-3.05,4.13v.07c1.25.43,1.99,1.58,2.38,3.26.53,2.26.91,3.82,1.25,4.44h-2.16c-.26-.46-.62-1.85-1.08-3.86-.48-2.23-1.34-3.07-3.24-3.14h-1.97v7.01h-2.09V4.13Zm2.09,7.37h2.14c2.23,0,3.65-1.22,3.65-3.07,0-2.09-1.51-3-3.72-3.02-1.01,0-1.73.1-2.06.19v5.9Z"/>
    <path class="cls-1" d="m176.61,4.13c.91-.19,2.35-.34,3.82-.34,2.09,0,3.43.36,4.44,1.18.84.62,1.34,1.58,1.34,2.86,0,1.56-1.03,2.93-2.74,3.55v.05c1.54.38,3.34,1.66,3.34,4.06,0,1.39-.55,2.45-1.37,3.24-1.13,1.03-2.95,1.51-5.59,1.51-1.44,0-2.54-.1-3.24-.19V4.13Zm2.09,6.62h1.9c2.21,0,3.5-1.15,3.5-2.71,0-1.9-1.44-2.64-3.55-2.64-.96,0-1.51.07-1.85.14v5.21Zm0,7.75c.41.07,1.01.1,1.75.1,2.16,0,4.15-.79,4.15-3.14,0-2.21-1.9-3.12-4.18-3.12h-1.73v6.17Z"/>
    <path class="cls-1" d="m191.71,3.91v9.58c0,3.62,1.61,5.16,3.77,5.16,2.4,0,3.94-1.58,3.94-5.16V3.91h2.11v9.43c0,4.97-2.62,7.01-6.12,7.01-3.31,0-5.81-1.9-5.81-6.91V3.91h2.11Z"/>
    <path class="cls-1" d="m208.22,5.69h-4.92v-1.78h11.98v1.78h-4.94v14.4h-2.11V5.69Z"/>
    <path class="cls-1" d="m219.16,3.91v16.18h-2.09V3.91h2.09Z"/>
    <path class="cls-1" d="m222.81,3.91h2.09v7.8h.07c.43-.62.86-1.2,1.27-1.73l4.94-6.07h2.59l-5.86,6.86,6.31,9.31h-2.47l-5.33-7.94-1.54,1.78v6.17h-2.09V3.91Z"/>
    <path class="cls-1" d="m235.82,3.91h2.09v7.8h.07c.43-.62.86-1.2,1.27-1.73l4.94-6.07h2.59l-5.86,6.86,6.31,9.31h-2.47l-5.33-7.94-1.54,1.78v6.17h-2.09V3.91Z"/>
    <path class="cls-1" d="m257.2,12.5h-6.29v5.83h7.01v1.75h-9.1V3.91h8.74v1.75h-6.65v5.11h6.29v1.73Z"/>
    <path class="cls-1" d="m260.64,20.09V3.91h2.28l5.18,8.18c1.2,1.9,2.14,3.6,2.9,5.26l.05-.02c-.19-2.16-.24-4.13-.24-6.65V3.91h1.97v16.18h-2.11l-5.14-8.21c-1.13-1.8-2.21-3.65-3.02-5.4l-.07.02c.12,2.04.17,3.98.17,6.67v6.91h-1.97Z"/>
  </g>
  <g>
    <path class="cls-3" d="m50.41,70c.53-.71.98-1.38,1.33-1.99.36-.61.54-1.18.54-1.7,0-.63-.17-1.12-.5-1.45-.33-.33-.84-.5-1.5-.5-.61,0-1.1.17-1.48.51-.37.34-.69.75-.94,1.24l-1.58-.85c.4-.76.92-1.4,1.56-1.92.65-.52,1.47-.78,2.48-.78,1.26,0,2.22.33,2.89.98.67.65,1,1.5,1,2.56,0,1.37-.68,2.89-2.04,4.56l-2.31,2.92h4.85v1.68h-8.5l4.2-5.25Z"/>
    <path class="cls-3" d="m58.04,73.71c-.74-1.2-1.1-2.77-1.1-4.69s.36-3.56,1.07-4.72c.71-1.16,1.88-1.74,3.48-1.74,3.03,0,4.54,2.15,4.54,6.46,0,1.96-.37,3.53-1.1,4.72-.74,1.18-1.88,1.78-3.43,1.78s-2.71-.6-3.45-1.8Zm5.38-1.27c.36-.89.54-2.03.54-3.43,0-1.46-.18-2.62-.53-3.47-.35-.85-1-1.27-1.94-1.27s-1.59.42-1.95,1.27-.54,2.01-.54,3.47c0,3.17.83,4.76,2.48,4.76.93,0,1.57-.44,1.93-1.33Z"/>
    <path class="cls-3" d="m69.17,62.94l1.92-.54v12.85h-1.92v-12.31Z"/>
    <path class="cls-3" d="m76.27,75.22c-.63-.19-1.16-.48-1.59-.85l.87-1.6c.25.22.62.43,1.1.64.49.21,1.03.31,1.63.31.77,0,1.4-.22,1.9-.65.49-.44.74-1.03.74-1.78,0-.7-.22-1.28-.67-1.74s-1.17-.69-2.17-.69c-.51,0-1.04.05-1.6.14s-.95.2-1.17.32l.25-6.56h6.41v1.67h-4.56l-.17,2.96c.33-.09.8-.14,1.43-.14,1.31,0,2.35.34,3.1,1.03.75.69,1.13,1.63,1.13,2.83,0,.86-.18,1.63-.54,2.29-.36.67-.88,1.19-1.57,1.56s-1.51.55-2.46.55c-.75,0-1.44-.1-2.07-.29Z"/>
    <path class="cls-3" d="m85.73,69.33c-.24-.23-.36-.52-.36-.86s.12-.64.35-.88.52-.35.88-.35.64.12.88.35c.23.23.35.52.35.88s-.12.63-.35.86c-.23.23-.52.35-.88.35s-.63-.12-.87-.35Zm0,5.75c-.24-.23-.36-.52-.36-.86s.12-.64.35-.88.52-.35.88-.35.64.12.88.35c.23.23.35.52.35.88s-.12.63-.35.86-.52.35-.88.35-.63-.12-.87-.35Z"/>
    <path class="cls-3" d="m96.83,64.42h-3.2v-1.67h8.31v1.67h-3.23v10.83h-1.89v-10.83Z"/>
    <path class="cls-3" d="m103.07,62.76h1.79v4.69l-.07,1.45c.22-.48.56-.87,1.04-1.18.48-.31,1.03-.47,1.67-.47.8,0,1.42.17,1.85.5s.72.8.87,1.4c.15.6.22,1.38.22,2.35v3.76h-1.82v-3.77c0-.66-.04-1.17-.11-1.55-.07-.37-.22-.66-.44-.85-.22-.19-.54-.29-.96-.29-.34,0-.68.1-1.03.31-.35.2-.63.5-.86.89-.23.39-.34.85-.34,1.39v3.88h-1.8v-12.5Z"/>
    <path class="cls-3" d="m112.71,67.45h1.84v1.53c.18-.52.48-.94.88-1.26s.87-.48,1.39-.48c.36,0,.61.03.75.1l-.25,1.85c-.1-.07-.32-.1-.66-.1-.53,0-1.02.17-1.45.51-.44.34-.65.88-.65,1.63v4.01h-1.84v-7.8Z"/>
    <path class="cls-3" d="m119.05,65.63c-.24-.24-.36-.53-.36-.88,0-.32.12-.59.36-.82.24-.23.53-.34.88-.34s.63.11.87.34.36.5.36.82c0,.35-.12.65-.35.88-.23.24-.52.36-.88.36s-.65-.12-.88-.36Zm-.05,1.82h1.9v7.8h-1.9v-7.8Z"/>
    <path class="cls-3" d="m124.19,68.91h-1.26v-1.46h1.26v-1.68c0-1.02.25-1.81.74-2.37.49-.56,1.22-.84,2.17-.84.38,0,.82.11,1.31.32l-.36,1.73c-.08-.09-.2-.18-.37-.26-.16-.09-.34-.13-.54-.13-.76,0-1.15.49-1.16,1.48v1.75h1.84v1.46h-1.84v6.34h-1.8v-6.34Z"/>
    <path class="cls-3" d="m130.29,68.95h-1.38v-1.5h1.38v-3.18l1.85-.41v3.59h1.8v1.5h-1.8v6.31h-1.85v-6.31Z"/>
    <path class="cls-3" d="m139.72,62.76h2.75c1.55,0,2.69.33,3.41.99s1.08,1.57,1.08,2.73c0,1.34-.39,2.36-1.17,3.08-.78.71-1.94,1.07-3.48,1.07h-.66v4.62h-1.92v-12.5Zm2.63,6.19c1,0,1.69-.22,2.09-.66.4-.44.6-.97.6-1.6,0-.67-.19-1.21-.58-1.63-.39-.42-1.03-.63-1.94-.63h-.88v4.52h.71Z"/>
    <path class="cls-3" d="m148.77,62.76h1.82v12.5h-1.82v-12.5Z"/>
    <path class="cls-3" d="m154.67,74.92c-.59-.33-1.07-.81-1.43-1.43-.36-.62-.54-1.34-.54-2.17s.16-1.53.47-2.14c.31-.61.76-1.09,1.33-1.43.58-.34,1.26-.51,2.04-.51.45,0,.88.08,1.28.24.4.16.73.35,1,.59.27.23.45.46.54.69l.03-1.31h1.75v7.8h-1.73l-.03-1.38c-.19.41-.54.77-1.05,1.08s-1.08.47-1.72.47c-.7,0-1.35-.17-1.95-.5Zm3.88-1.7c.44-.45.66-1.03.66-1.76v-.12c0-.49-.1-.92-.31-1.31-.2-.38-.48-.69-.83-.9-.35-.21-.74-.32-1.16-.32-.73,0-1.29.24-1.68.71-.4.47-.59,1.08-.59,1.83s.2,1.37.59,1.84.95.71,1.69.71c.65,0,1.19-.22,1.63-.67Z"/>
    <path class="cls-3" d="m163.62,67.45h1.8l.02,1.43c.22-.48.56-.87,1.02-1.17.46-.31,1.01-.46,1.63-.46.8,0,1.42.17,1.85.5s.72.8.87,1.4c.15.6.22,1.38.22,2.35v3.76h-1.84v-3.71c0-.99-.1-1.7-.29-2.13-.19-.44-.59-.65-1.19-.65-.34,0-.69.1-1.04.31-.35.21-.64.51-.88.91-.23.4-.35.86-.35,1.39v3.88h-1.84v-7.8Z"/>
    <path class="cls-3" d="m174.76,74.87c-.62-.37-1.08-.86-1.38-1.48-.29-.62-.44-1.29-.44-2.03,0-.83.17-1.55.52-2.18.35-.62.82-1.1,1.44-1.44.61-.33,1.3-.5,2.07-.5,1.2,0,2.09.33,2.68.99.58.66.88,1.6.88,2.8,0,.31-.02.62-.05.95h-5.61c.12.69.37,1.19.74,1.5.37.31.88.46,1.54.46.54,0,.99-.04,1.34-.14.35-.09.67-.22.97-.37l.56,1.31c-.28.18-.67.34-1.16.48-.49.14-1.08.2-1.77.2-.93,0-1.71-.18-2.33-.55Zm3.98-4.16c.01-.7-.14-1.2-.46-1.49s-.77-.43-1.36-.43c-1.19,0-1.88.64-2.06,1.92h3.88Z"/>
    <path class="cls-3" d="m183.12,68.95h-1.38v-1.5h1.38v-3.18l1.85-.41v3.59h1.8v1.5h-1.8v6.31h-1.85v-6.31Z"/>
    <path class="cls-3" d="m193.43,75.21c-.58-.14-1-.31-1.25-.5l.61-1.44c.68.48,1.46.71,2.33.71s1.31-.25,1.31-.77c0-.23-.09-.4-.27-.53-.18-.12-.5-.27-.97-.44l-.65-.24c-.68-.27-1.22-.6-1.62-.98-.4-.38-.6-.88-.6-1.5,0-.71.28-1.27.84-1.67s1.31-.6,2.25-.6c.46,0,.92.05,1.37.15s.79.23,1.03.39l-.66,1.46c-.15-.15-.38-.27-.71-.38-.32-.11-.68-.16-1.08-.16-.8,0-1.21.24-1.21.73,0,.27.11.48.32.62.21.14.57.3,1.05.47.05.01.22.07.53.19.73.28,1.26.61,1.62.97s.53.83.53,1.39c0,.77-.29,1.35-.88,1.75-.58.4-1.32.59-2.22.59-.54,0-1.11-.07-1.69-.21Z"/>
    <path class="cls-3" d="m200.8,68.95h-1.38v-1.5h1.38v-3.18l1.85-.41v3.59h1.8v1.5h-1.8v6.31h-1.85v-6.31Z"/>
    <path class="cls-3" d="m207.46,74.92c-.59-.33-1.07-.81-1.43-1.43s-.54-1.34-.54-2.17.16-1.53.47-2.14c.31-.61.76-1.09,1.33-1.43.58-.34,1.26-.51,2.04-.51.45,0,.88.08,1.28.24.4.16.73.35,1,.59.27.23.45.46.54.69l.03-1.31h1.75v7.8h-1.73l-.03-1.38c-.19.41-.54.77-1.05,1.08s-1.08.47-1.72.47c-.7,0-1.35-.17-1.95-.5Zm3.88-1.7c.44-.45.66-1.03.66-1.76v-.12c0-.49-.1-.92-.31-1.31-.2-.38-.48-.69-.83-.9-.35-.21-.74-.32-1.16-.32-.73,0-1.29.24-1.68.71s-.6,1.08-.6,1.83.2,1.37.59,1.84c.39.47.96.71,1.69.71.65,0,1.19-.22,1.63-.67Z"/>
    <path class="cls-3" d="m216.36,67.45h1.84v1.53c.18-.52.48-.94.88-1.26s.87-.48,1.39-.48c.36,0,.61.03.75.1l-.25,1.85c-.1-.07-.32-.1-.66-.1-.53,0-1.02.17-1.45.51s-.65.88-.65,1.63v4.01h-1.84v-7.8Z"/>
    <path class="cls-3" d="m223.19,68.95h-1.38v-1.5h1.38v-3.18l1.85-.41v3.59h1.8v1.5h-1.8v6.31h-1.85v-6.31Z"/>
    <path class="cls-3" d="m229.7,74.87c-.62-.37-1.08-.86-1.38-1.48-.29-.62-.44-1.29-.44-2.03,0-.83.17-1.55.52-2.18.35-.62.82-1.1,1.44-1.44s1.3-.5,2.07-.5c1.2,0,2.09.33,2.68.99.58.66.88,1.6.88,2.8,0,.31-.02.62-.05.95h-5.61c.12.69.37,1.19.74,1.5s.88.46,1.54.46c.54,0,.99-.04,1.34-.14s.67-.22.97-.37l.56,1.31c-.28.18-.67.34-1.16.48-.49.14-1.08.2-1.77.2-.93,0-1.71-.18-2.33-.55Zm3.98-4.16c.01-.7-.14-1.2-.46-1.49s-.77-.43-1.36-.43c-1.19,0-1.88.64-2.06,1.92h3.88Z"/>
    <path class="cls-3" d="m237.34,67.45h1.84v1.53c.18-.52.48-.94.88-1.26s.87-.48,1.39-.48c.36,0,.61.03.75.1l-.25,1.85c-.1-.07-.32-.1-.66-.1-.53,0-1.02.17-1.45.51s-.65.88-.65,1.63v4.01h-1.84v-7.8Z"/>
    <path class="cls-3" d="m248.65,75.21c-.58-.14-1-.31-1.25-.5l.61-1.44c.68.48,1.46.71,2.33.71s1.31-.25,1.31-.77c0-.23-.09-.4-.27-.53-.18-.12-.5-.27-.97-.44l-.65-.24c-.68-.27-1.22-.6-1.62-.98-.4-.38-.59-.88-.59-1.5,0-.71.28-1.27.84-1.67.56-.4,1.31-.6,2.25-.6.46,0,.92.05,1.37.15s.79.23,1.03.39l-.66,1.46c-.15-.15-.38-.27-.71-.38-.32-.11-.68-.16-1.08-.16-.81,0-1.21.24-1.21.73,0,.27.11.48.32.62.22.14.57.3,1.05.47.04.01.22.07.53.19.73.28,1.26.61,1.62.97s.53.83.53,1.39c0,.77-.29,1.35-.88,1.75-.58.4-1.32.59-2.22.59-.54,0-1.11-.07-1.69-.21Z"/>
    <path class="cls-3" d="m256.83,74.88c-.62-.36-1.11-.86-1.45-1.48-.34-.62-.51-1.31-.51-2.07s.17-1.43.5-2.06c.33-.62.81-1.12,1.44-1.48.62-.36,1.34-.54,2.16-.54s1.53.18,2.15.54c.62.36,1.09.86,1.43,1.48.33.62.5,1.31.5,2.06s-.17,1.45-.51,2.07c-.34.62-.82,1.12-1.44,1.48-.62.36-1.33.54-2.13.54s-1.52-.18-2.14-.54Zm3.75-1.68c.38-.49.57-1.1.57-1.84s-.2-1.36-.61-1.86-.95-.76-1.62-.76-1.16.25-1.56.75c-.39.5-.59,1.12-.59,1.87s.21,1.33.63,1.83c.42.49.96.74,1.62.74s1.17-.24,1.55-.73Z"/>
    <path class="cls-3" d="m265.01,67.45h1.84v1.41c.25-.53.61-.94,1.1-1.21.48-.27,1.03-.41,1.66-.41,1.39.01,2.25.49,2.57,1.44.25-.44.62-.79,1.12-1.05.5-.26,1.03-.39,1.58-.39.82,0,1.43.16,1.85.47.42.31.7.75.84,1.33s.21,1.34.21,2.3v3.91h-1.85v-3.93c0-.92-.09-1.58-.28-1.97-.19-.4-.55-.6-1.08-.6-.71,0-1.25.24-1.62.72-.37.48-.55,1.11-.55,1.9v3.88h-1.84v-4.2c0-.6-.02-1.05-.07-1.34-.04-.29-.17-.53-.37-.7-.2-.17-.53-.26-.99-.26-.4,0-.77.12-1.11.36-.35.24-.62.56-.83.96-.21.4-.31.84-.31,1.3v3.88h-1.85v-7.8Z"/>
    <path class="cls-3" d="m50.97,91.32l-2.31,4.33h-.32l-3.28-7.8h1.97l1.68,4.54,2.23-4.54h.07l2.24,4.51,1.68-4.51h1.94l-3.26,7.8h-.32l-2.31-4.33Z"/>
    <path class="cls-3" d="m59.28,95.27c-.62-.37-1.08-.86-1.38-1.48-.29-.62-.44-1.29-.44-2.03,0-.83.17-1.55.52-2.18.35-.62.82-1.1,1.44-1.44.61-.33,1.3-.5,2.07-.5,1.2,0,2.09.33,2.68.99.58.66.88,1.6.88,2.8,0,.31-.02.62-.05.95h-5.61c.12.69.37,1.19.74,1.5.37.31.88.46,1.54.46.54,0,.99-.04,1.34-.14.35-.09.67-.22.97-.37l.56,1.31c-.28.18-.67.34-1.16.48-.49.14-1.08.2-1.77.2-.93,0-1.71-.18-2.33-.55Zm3.98-4.16c.01-.7-.14-1.2-.46-1.49s-.77-.43-1.36-.43c-1.19,0-1.88.64-2.06,1.92h3.88Z"/>
    <path class="cls-3" d="m69.88,95.35c-.5-.31-.85-.67-1.05-1.08l-.03,1.38h-1.77v-12.5h1.8v4.81l-.08,1.33c.19-.45.57-.84,1.13-1.16.56-.32,1.17-.48,1.83-.48.77,0,1.44.17,2.01.52s1.01.83,1.32,1.44c.31.62.46,1.33.46,2.15s-.18,1.55-.54,2.16c-.36.61-.83,1.08-1.43,1.41-.59.33-1.24.49-1.95.49-.63,0-1.2-.16-1.71-.47Zm3.1-1.77c.4-.47.59-1.08.59-1.83s-.2-1.37-.59-1.84-.96-.71-1.71-.71c-.65,0-1.19.22-1.63.67s-.66,1.03-.66,1.76v.12c0,.49.1.92.31,1.31.21.39.49.69.83.9.35.22.73.32,1.15.32.74,0,1.3-.24,1.7-.71Z"/>
    <path class="cls-3" d="m78.45,95.61c-.58-.14-1-.31-1.25-.5l.61-1.44c.68.48,1.46.71,2.33.71s1.31-.25,1.31-.77c0-.23-.09-.4-.27-.53-.18-.12-.5-.27-.97-.44l-.65-.24c-.68-.27-1.22-.6-1.61-.98-.4-.38-.6-.88-.6-1.5,0-.71.28-1.27.84-1.67.56-.4,1.31-.6,2.25-.6.46,0,.92.05,1.37.15s.79.23,1.03.39l-.66,1.46c-.15-.15-.38-.27-.71-.38-.32-.11-.68-.16-1.08-.16-.8,0-1.21.24-1.21.73,0,.27.11.48.32.62.21.14.57.3,1.05.47.05.01.22.07.53.19.73.28,1.26.61,1.61.97.35.36.53.83.53,1.39,0,.77-.29,1.35-.88,1.75-.58.4-1.32.59-2.22.59-.54,0-1.11-.07-1.69-.21Z"/>
    <path class="cls-3" d="m85.22,83.16h1.79v4.69l-.07,1.45c.22-.48.56-.87,1.04-1.18.48-.31,1.03-.47,1.67-.47.8,0,1.42.17,1.85.5s.72.8.87,1.4c.15.6.22,1.38.22,2.35v3.76h-1.82v-3.77c0-.66-.04-1.17-.11-1.55-.07-.37-.22-.66-.44-.85-.22-.19-.54-.29-.96-.29-.34,0-.68.1-1.03.31-.35.2-.63.5-.86.89-.23.39-.34.85-.34,1.39v3.88h-1.8v-12.5Z"/>
    <path class="cls-3" d="m96.41,95.28c-.62-.36-1.1-.86-1.45-1.48-.34-.62-.51-1.31-.51-2.07s.17-1.43.5-2.06c.33-.62.81-1.12,1.44-1.48.62-.36,1.34-.54,2.16-.54s1.53.18,2.15.54c.62.36,1.09.86,1.43,1.48.33.62.5,1.31.5,2.06s-.17,1.45-.51,2.07c-.34.62-.82,1.12-1.44,1.48s-1.33.54-2.13.54-1.52-.18-2.14-.54Zm3.75-1.68c.38-.49.57-1.1.57-1.84s-.2-1.36-.61-1.86c-.41-.5-.95-.76-1.62-.76s-1.16.25-1.56.75c-.39.5-.59,1.12-.59,1.87s.21,1.33.63,1.83c.42.49.96.74,1.62.74s1.18-.24,1.56-.73Z"/>
    <path class="cls-3" d="m104.62,87.85h1.77v1.45c.62-1.1,1.6-1.65,2.92-1.65,1.1,0,1.99.35,2.67,1.05.68.7,1.02,1.7,1.02,3.02,0,.82-.17,1.54-.5,2.16-.33.62-.79,1.1-1.36,1.45-.57.34-1.21.51-1.91.51-.66,0-1.23-.12-1.71-.35-.48-.23-.86-.56-1.13-.99l.02,5.3h-1.78v-11.93Zm5.88,5.72c.4-.47.59-1.07.59-1.81s-.2-1.39-.59-1.84c-.39-.46-.96-.69-1.71-.69-.41,0-.79.1-1.15.3s-.64.48-.85.85c-.21.37-.31.8-.31,1.28v.12c0,.49.1.92.31,1.3.21.38.49.67.84.88.35.21.74.31,1.16.31.74,0,1.3-.24,1.7-.71Z"/>
    <path class="cls-3" d="m119.15,87.85h1.77v1.45c.62-1.1,1.6-1.65,2.92-1.65,1.1,0,1.99.35,2.67,1.05.68.7,1.02,1.7,1.02,3.02,0,.82-.17,1.54-.5,2.16-.33.62-.79,1.1-1.36,1.45-.57.34-1.21.51-1.91.51-.66,0-1.23-.12-1.71-.35-.48-.23-.86-.56-1.13-.99l.02,5.3h-1.78v-11.93Zm5.88,5.72c.4-.47.59-1.07.59-1.81s-.2-1.39-.59-1.84c-.39-.46-.96-.69-1.71-.69-.41,0-.79.1-1.15.3s-.64.48-.85.85c-.21.37-.31.8-.31,1.28v.12c0,.49.1.92.31,1.3.21.38.49.67.84.88.35.21.74.31,1.16.31.74,0,1.3-.24,1.7-.71Z"/>
    <path class="cls-3" d="m130.99,95.32c-.59-.33-1.07-.81-1.43-1.43-.36-.62-.54-1.34-.54-2.17s.16-1.53.47-2.14c.31-.61.76-1.09,1.33-1.43.58-.34,1.26-.51,2.04-.51.45,0,.88.08,1.28.24.4.16.73.35,1,.59.27.23.45.46.54.69l.03-1.31h1.75v7.8h-1.73l-.03-1.38c-.19.41-.54.77-1.05,1.08s-1.08.47-1.72.47c-.7,0-1.35-.17-1.95-.5Zm1.19-8.78c-.39-.19-.7-.46-.94-.82-.23-.35-.35-.75-.35-1.21s.12-.84.35-1.2.54-.63.94-.83c.39-.2.81-.3,1.25-.3s.88.1,1.27.3.7.48.94.83c.23.36.35.76.35,1.2s-.12.84-.35,1.19c-.23.35-.54.63-.94.82-.39.2-.81.3-1.27.3s-.86-.1-1.25-.29Zm2.69,7.08c.44-.45.66-1.03.66-1.76v-.12c0-.49-.1-.92-.31-1.31-.2-.38-.48-.69-.83-.9-.35-.21-.74-.32-1.16-.32-.73,0-1.29.24-1.68.71-.4.47-.59,1.08-.59,1.83s.2,1.37.59,1.84.95.71,1.69.71c.65,0,1.19-.22,1.63-.67Zm-.73-8.33c.19-.2.29-.46.29-.77s-.1-.58-.29-.77c-.19-.2-.43-.3-.71-.3s-.5.1-.69.3c-.19.2-.28.46-.28.77s.09.58.28.77.42.3.69.3.52-.1.71-.3Z"/>
    <path class="cls-3" d="m145.47,95.27c-.62-.37-1.08-.86-1.38-1.48-.29-.62-.44-1.29-.44-2.03,0-.83.17-1.55.52-2.18.35-.62.82-1.1,1.44-1.44.61-.33,1.3-.5,2.07-.5,1.2,0,2.09.33,2.68.99.58.66.88,1.6.88,2.8,0,.31-.02.62-.05.95h-5.61c.12.69.37,1.19.74,1.5.37.31.88.46,1.54.46.54,0,.99-.04,1.34-.14.35-.09.67-.22.97-.37l.56,1.31c-.28.18-.67.34-1.16.48-.49.14-1.08.2-1.77.2-.93,0-1.71-.18-2.33-.55Zm3.98-4.16c.01-.7-.14-1.2-.46-1.49s-.77-.43-1.36-.43c-1.19,0-1.88.64-2.06,1.92h3.88Z"/>
    <path class="cls-3" d="m153.83,89.35h-1.38v-1.5h1.38v-3.18l1.85-.41v3.59h1.8v1.5h-1.8v6.31h-1.85v-6.31Z"/>
    <path class="cls-3" d="m164.14,95.61c-.58-.14-1-.31-1.25-.5l.61-1.44c.68.48,1.46.71,2.33.71s1.31-.25,1.31-.77c0-.23-.09-.4-.27-.53-.18-.12-.5-.27-.97-.44l-.65-.24c-.68-.27-1.22-.6-1.61-.98-.4-.38-.6-.88-.6-1.5,0-.71.28-1.27.84-1.67.56-.4,1.31-.6,2.25-.6.46,0,.92.05,1.37.15s.79.23,1.03.39l-.66,1.46c-.15-.15-.38-.27-.71-.38-.32-.11-.68-.16-1.08-.16-.8,0-1.21.24-1.21.73,0,.27.11.48.32.62.21.14.57.3,1.05.47.05.01.22.07.53.19.73.28,1.26.61,1.61.97.35.36.53.83.53,1.39,0,.77-.29,1.35-.88,1.75-.58.4-1.32.59-2.22.59-.54,0-1.11-.07-1.69-.21Z"/>
    <path class="cls-3" d="m171.51,89.35h-1.38v-1.5h1.38v-3.18l1.85-.41v3.59h1.8v1.5h-1.8v6.31h-1.85v-6.31Z"/>
    <path class="cls-3" d="m177.15,94.87c-.4-.63-.6-1.52-.6-2.65v-4.37h1.84v3.91c0,.65.04,1.15.11,1.5.07.36.22.62.44.79.22.17.55.26.99.26.32,0,.62-.09.92-.27.29-.18.54-.43.72-.74.19-.31.28-.65.28-1.03v-4.42h1.82v7.8h-1.5l-.2-1.14c-.28.44-.64.77-1.06.99-.43.21-.94.32-1.54.32-1.08,0-1.82-.32-2.22-.95Z"/>
    <path class="cls-3" d="m187.48,95.27c-.62-.37-1.08-.86-1.38-1.48-.29-.62-.44-1.29-.44-2.03,0-.83.17-1.55.52-2.18.35-.62.82-1.1,1.44-1.44s1.3-.5,2.07-.5c1.2,0,2.09.33,2.68.99.58.66.88,1.6.88,2.8,0,.31-.02.62-.05.95h-5.61c.12.69.37,1.19.74,1.5.37.31.88.46,1.54.46.54,0,.99-.04,1.34-.14s.67-.22.97-.37l.56,1.31c-.28.18-.67.34-1.16.48-.49.14-1.08.2-1.77.2-.93,0-1.71-.18-2.33-.55Zm3.98-4.16c.01-.7-.14-1.2-.46-1.49s-.77-.43-1.36-.43c-1.19,0-1.88.64-2.06,1.92h3.88Z"/>
    <path class="cls-3" d="m197.24,99.49c-.56-.16-.96-.31-1.2-.44l.41-1.7c.75.49,1.56.73,2.45.73.68,0,1.25-.16,1.72-.49s.7-.97.71-1.92v-1.39c-.24.44-.62.81-1.16,1.1-.53.29-1.12.44-1.77.44-.68,0-1.3-.17-1.87-.5s-1.01-.81-1.34-1.44c-.33-.62-.49-1.35-.49-2.18s.16-1.5.47-2.12c.31-.62.76-1.1,1.33-1.44.58-.34,1.25-.51,2.02-.51.45,0,.88.08,1.27.24s.73.35,1.01.59c.28.23.46.46.55.69l.03-1.31h1.73v7.75c0,1.33-.34,2.35-1.02,3.06-.68.71-1.73,1.07-3.16,1.07-.58,0-1.15-.08-1.71-.24Zm3.31-5.89c.44-.45.66-1.03.66-1.76v-.12c0-.49-.1-.92-.31-1.31s-.48-.69-.83-.9c-.35-.21-.74-.32-1.16-.32-.73,0-1.29.24-1.68.71s-.6,1.08-.6,1.83.2,1.37.59,1.84.95.71,1.69.71c.65,0,1.19-.22,1.63-.67Z"/>
    <path class="cls-3" d="m205.96,94.87c-.4-.63-.6-1.52-.6-2.65v-4.37h1.84v3.91c0,.65.04,1.15.11,1.5.07.36.22.62.44.79s.55.26.99.26c.32,0,.62-.09.92-.27.29-.18.54-.43.72-.74.19-.31.28-.65.28-1.03v-4.42h1.82v7.8h-1.5l-.2-1.14c-.28.44-.64.77-1.06.99-.43.21-.94.32-1.54.32-1.08,0-1.82-.32-2.22-.95Z"/>
    <path class="cls-3" d="m215.08,83.16h1.82v12.5h-1.82v-12.5Z"/>
    <path class="cls-3" d="m218.24,87.85h2.09l1.68,3.52.54,1.41.54-1.41,1.67-3.52h2.04l-4.1,7.8h-.36l-4.11-7.8Z"/>
    <path class="cls-3" d="m232.34,86.03c-.24-.24-.36-.53-.36-.88,0-.32.12-.59.36-.82.24-.23.53-.34.88-.34s.63.11.87.34c.24.23.36.5.36.82,0,.35-.12.65-.35.88-.23.24-.52.36-.88.36s-.65-.12-.88-.36Zm-.05,1.82h1.9v7.8h-1.9v-7.8Z"/>
    <path class="cls-3" d="m242.88,87.56l.05,1.36v6.73h-1.9v-12.51h.24l7.34,8.19-.07-1.43v-6.75h1.9v12.5h-.25l-7.31-8.09Z"/>
    <path class="cls-3" d="m254.47,95.28c-.62-.36-1.11-.86-1.45-1.48-.34-.62-.51-1.31-.51-2.07s.17-1.43.5-2.06c.33-.62.81-1.12,1.44-1.48.62-.36,1.34-.54,2.16-.54s1.53.18,2.15.54c.62.36,1.09.86,1.43,1.48.33.62.5,1.31.5,2.06s-.17,1.45-.51,2.07c-.34.62-.82,1.12-1.44,1.48-.62.36-1.33.54-2.13.54s-1.52-.18-2.14-.54Zm3.75-1.68c.38-.49.57-1.1.57-1.84s-.2-1.36-.61-1.86-.95-.76-1.62-.76-1.16.25-1.56.75c-.39.5-.59,1.12-.59,1.87s.21,1.33.63,1.83c.42.49.96.74,1.62.74s1.17-.24,1.55-.73Z"/>
    <path class="cls-3" d="m262.6,87.85h1.84v1.53c.18-.52.48-.94.88-1.26s.87-.48,1.39-.48c.36,0,.61.03.75.1l-.25,1.85c-.1-.07-.32-.1-.66-.1-.53,0-1.02.17-1.45.51s-.65.88-.65,1.63v4.01h-1.84v-7.8Z"/>
    <path class="cls-3" d="m270.26,95.32c-.6-.33-1.07-.81-1.43-1.43-.36-.62-.54-1.34-.54-2.17,0-1.24.35-2.22,1.04-2.97.69-.74,1.63-1.11,2.8-1.11.66,0,1.26.16,1.8.48.54.32.91.71,1.11,1.16l-.08-1.33v-4.81h1.8v12.5h-1.75l-.03-1.38c-.19.41-.54.77-1.05,1.08s-1.08.47-1.72.47c-.7,0-1.35-.17-1.95-.5Zm3.88-1.72c.44-.45.66-1.03.66-1.76v-.12c0-.49-.1-.92-.31-1.31s-.48-.69-.83-.9c-.35-.21-.74-.32-1.16-.32-.73,0-1.29.24-1.68.71-.4.47-.6,1.08-.6,1.83s.2,1.37.59,1.84.96.71,1.69.71c.65,0,1.19-.22,1.63-.67Z"/>
    <path class="cls-3" d="m277.95,87.85h2.09l1.68,3.52.54,1.41.54-1.41,1.67-3.52h2.04l-4.1,7.8h-.36l-4.11-7.8Z"/>
    <path class="cls-3" d="m288.85,95.27c-.62-.37-1.08-.86-1.38-1.48-.29-.62-.44-1.29-.44-2.03,0-.83.17-1.55.52-2.18.35-.62.82-1.1,1.44-1.44s1.3-.5,2.07-.5c1.2,0,2.09.33,2.68.99.58.66.88,1.6.88,2.8,0,.31-.02.62-.05.95h-5.61c.12.69.37,1.19.74,1.5s.88.46,1.54.46c.54,0,.99-.04,1.34-.14s.67-.22.97-.37l.56,1.31c-.28.18-.67.34-1.16.48-.49.14-1.08.2-1.77.2-.93,0-1.71-.18-2.33-.55Zm3.98-4.16c.01-.7-.14-1.2-.46-1.49s-.77-.43-1.36-.43c-1.19,0-1.88.64-2.06,1.92h3.88Z"/>
    <path class="cls-3" d="m297.52,95.61c-.58-.14-1-.31-1.25-.5l.61-1.44c.68.48,1.46.71,2.33.71s1.31-.25,1.31-.77c0-.23-.09-.4-.27-.53-.18-.12-.5-.27-.97-.44l-.65-.24c-.68-.27-1.22-.6-1.62-.98-.4-.38-.59-.88-.59-1.5,0-.71.28-1.27.84-1.67.56-.4,1.31-.6,2.25-.6.46,0,.92.05,1.37.15s.79.23,1.03.39l-.66,1.46c-.15-.15-.38-.27-.71-.38-.32-.11-.68-.16-1.08-.16-.81,0-1.21.24-1.21.73,0,.27.11.48.32.62.22.14.57.3,1.05.47.04.01.22.07.53.19.73.28,1.26.61,1.62.97s.53.83.53,1.39c0,.77-.29,1.35-.88,1.75-.58.4-1.32.59-2.22.59-.54,0-1.11-.07-1.69-.21Z"/>
    <path class="cls-3" d="m304.89,89.35h-1.38v-1.5h1.38v-3.18l1.85-.41v3.59h1.8v1.5h-1.8v6.31h-1.85v-6.31Z"/>
  </g>
  <g>
    <path class="cls-3" d="m51.6,146.17c.53-.71.98-1.38,1.33-1.99.36-.61.54-1.18.54-1.7,0-.63-.17-1.12-.5-1.45-.33-.33-.84-.5-1.5-.5-.61,0-1.1.17-1.48.51-.37.34-.69.75-.94,1.24l-1.58-.85c.4-.76.92-1.4,1.56-1.92.65-.52,1.47-.78,2.48-.78,1.26,0,2.22.33,2.89.98.67.65,1,1.5,1,2.56,0,1.37-.68,2.89-2.04,4.56l-2.31,2.92h4.85v1.68h-8.5l4.2-5.25Z"/>
    <path class="cls-3" d="m59.23,149.88c-.74-1.2-1.11-2.77-1.11-4.69s.36-3.56,1.07-4.72c.71-1.16,1.88-1.74,3.48-1.74,3.03,0,4.54,2.15,4.54,6.46,0,1.96-.37,3.53-1.1,4.72-.74,1.18-1.88,1.78-3.43,1.78s-2.71-.6-3.45-1.8Zm5.38-1.27c.36-.89.54-2.03.54-3.43,0-1.46-.18-2.62-.53-3.47s-1-1.27-1.94-1.27-1.59.42-1.95,1.27c-.36.85-.54,2.01-.54,3.47,0,3.17.83,4.76,2.48,4.76.93,0,1.57-.44,1.93-1.33Z"/>
    <path class="cls-3" d="m70.37,139.12l1.92-.54v12.85h-1.92v-12.31Z"/>
    <path class="cls-3" d="m77.79,151.18c-.64-.33-1.14-.82-1.51-1.44-.37-.63-.55-1.36-.55-2.2,0-.59.09-1.17.27-1.74.18-.57.57-1.4,1.16-2.47.59-1.08,1.53-2.68,2.82-4.81l1.63.95c-1.11,1.68-1.99,3.08-2.63,4.22-.05.08-.09.16-.14.24-.05.08-.08.14-.12.17.18-.17.42-.31.73-.41.31-.1.66-.15,1.05-.15.75,0,1.41.18,1.99.54s1.02.83,1.33,1.43c.31.59.47,1.24.47,1.93,0,.88-.19,1.65-.56,2.3s-.89,1.14-1.56,1.47c-.66.33-1.42.5-2.27.5-.77,0-1.48-.17-2.12-.5Zm3.93-1.84c.41-.45.62-1.04.62-1.75s-.21-1.34-.64-1.78c-.42-.44-.97-.65-1.62-.65-.72,0-1.31.22-1.74.66s-.65,1.04-.65,1.8c0,.69.22,1.26.67,1.72.45.45,1.01.68,1.67.68.71,0,1.28-.23,1.69-.68Z"/>
    <path class="cls-3" d="m88.73,155.39l.39-1.65c.18.07.36.13.53.18.17.05.33.08.48.08.37,0,.64-.1.81-.31.16-.2.25-.62.25-1.24v-8.82h1.84v8.91c0,.99-.25,1.74-.77,2.26-.51.52-1.23.78-2.16.78-.42,0-.87-.06-1.36-.19Zm2.38-13.58c-.24-.24-.36-.53-.36-.88,0-.32.12-.59.36-.82s.53-.34.88-.34.63.11.87.34.36.5.36.82c0,.35-.12.65-.35.88-.23.24-.52.36-.88.36s-.65-.12-.88-.36Z"/>
    <path class="cls-3" d="m96.05,150.64c-.4-.63-.6-1.52-.6-2.65v-4.37h1.84v3.91c0,.65.04,1.15.11,1.5.07.36.22.62.44.79.22.17.55.26.99.26.32,0,.62-.09.92-.27.29-.18.54-.43.72-.74.19-.31.28-.65.28-1.03v-4.42h1.82v7.8h-1.5l-.2-1.14c-.28.44-.64.77-1.06.99-.42.21-.94.32-1.54.32-1.08,0-1.82-.32-2.22-.95Z"/>
    <path class="cls-3" d="m105.17,138.93h1.82v12.5h-1.82v-12.5Z"/>
    <path class="cls-3" d="m109.76,141.8c-.24-.24-.36-.53-.36-.88,0-.32.12-.59.36-.82s.53-.34.88-.34.63.11.87.34c.24.23.36.5.36.82,0,.35-.12.65-.35.88-.23.24-.52.36-.88.36s-.65-.12-.88-.36Zm-.05,1.82h1.9v7.8h-1.9v-7.8Z"/>
    <path class="cls-3" d="m114.43,145.5c-.24-.23-.36-.52-.36-.86s.12-.64.35-.88c.23-.23.52-.35.88-.35s.64.12.88.35c.23.23.35.52.35.88s-.12.63-.35.86c-.23.23-.52.35-.88.35s-.63-.12-.87-.35Zm0,5.75c-.24-.23-.36-.52-.36-.86s.12-.64.35-.88c.23-.23.52-.35.88-.35s.64.12.88.35c.23.23.35.52.35.88s-.12.63-.35.86c-.23.23-.52.35-.88.35s-.63-.12-.87-.35Z"/>
    <path class="cls-3" d="m125.53,140.6h-3.2v-1.67h8.31v1.67h-3.23v10.83h-1.89v-10.83Z"/>
    <path class="cls-3" d="m131.77,138.93h1.79v4.69l-.07,1.45c.22-.48.56-.87,1.04-1.18.48-.31,1.03-.47,1.67-.47.8,0,1.42.17,1.85.5s.72.8.87,1.4c.15.6.22,1.38.22,2.35v3.76h-1.82v-3.77c0-.66-.04-1.17-.11-1.55-.07-.37-.22-.66-.44-.85-.22-.19-.54-.29-.96-.29-.34,0-.68.1-1.03.31-.35.2-.63.5-.86.89-.23.39-.34.85-.34,1.39v3.88h-1.8v-12.5Z"/>
    <path class="cls-3" d="m141.41,143.62h1.84v1.53c.18-.52.48-.94.88-1.26s.87-.48,1.39-.48c.36,0,.61.03.75.1l-.25,1.85c-.1-.07-.32-.1-.66-.1-.53,0-1.02.17-1.45.51-.44.34-.65.88-.65,1.63v4.01h-1.84v-7.8Z"/>
    <path class="cls-3" d="m147.75,141.8c-.24-.24-.36-.53-.36-.88,0-.32.12-.59.36-.82.24-.23.53-.34.88-.34s.63.11.87.34c.24.23.36.5.36.82,0,.35-.12.65-.35.88-.23.24-.52.36-.88.36s-.65-.12-.88-.36Zm-.05,1.82h1.9v7.8h-1.9v-7.8Z"/>
    <path class="cls-3" d="m152.89,145.09h-1.26v-1.46h1.26v-1.68c0-1.02.25-1.81.74-2.37s1.22-.84,2.17-.84c.38,0,.82.11,1.31.32l-.36,1.73c-.08-.09-.2-.18-.37-.26-.16-.09-.34-.13-.54-.13-.76,0-1.15.49-1.16,1.48v1.75h1.84v1.46h-1.84v6.34h-1.8v-6.34Z"/>
    <path class="cls-3" d="m158.99,145.12h-1.38v-1.5h1.38v-3.18l1.85-.41v3.59h1.8v1.5h-1.8v6.31h-1.85v-6.31Z"/>
    <path class="cls-3" d="m168.42,138.93h2.75c1.55,0,2.69.33,3.41.99s1.08,1.57,1.08,2.73c0,1.34-.39,2.36-1.17,3.08-.78.71-1.94,1.07-3.48,1.07h-.66v4.62h-1.92v-12.5Zm2.63,6.19c1,0,1.69-.22,2.09-.66.4-.44.59-.97.59-1.6,0-.67-.19-1.21-.58-1.63-.38-.42-1.03-.63-1.94-.63h-.88v4.52h.71Z"/>
    <path class="cls-3" d="m177.47,138.93h1.82v12.5h-1.82v-12.5Z"/>
    <path class="cls-3" d="m183.37,151.09c-.59-.33-1.07-.81-1.43-1.43s-.54-1.34-.54-2.17.16-1.53.47-2.14c.31-.61.76-1.09,1.33-1.43s1.26-.51,2.04-.51c.45,0,.88.08,1.28.24.4.16.73.35,1,.59.27.23.45.46.54.69l.03-1.31h1.75v7.8h-1.73l-.03-1.38c-.19.41-.54.77-1.05,1.08s-1.08.47-1.72.47c-.7,0-1.35-.17-1.95-.5Zm3.88-1.7c.44-.45.66-1.03.66-1.76v-.12c0-.49-.1-.92-.31-1.31-.2-.38-.48-.69-.83-.9-.35-.21-.74-.32-1.16-.32-.73,0-1.29.24-1.68.71-.4.47-.59,1.08-.59,1.83s.2,1.37.59,1.84c.39.47.95.71,1.69.71.65,0,1.19-.22,1.63-.67Z"/>
    <path class="cls-3" d="m192.33,143.62h1.8l.02,1.43c.22-.48.56-.87,1.02-1.17.46-.31,1.01-.46,1.63-.46.8,0,1.42.17,1.85.5s.72.8.87,1.4c.15.6.22,1.38.22,2.35v3.76h-1.84v-3.71c0-.99-.1-1.7-.29-2.13-.19-.44-.59-.65-1.19-.65-.34,0-.69.1-1.04.31-.35.21-.64.51-.88.91-.23.4-.35.86-.35,1.39v3.88h-1.84v-7.8Z"/>
    <path class="cls-3" d="m203.46,151.04c-.62-.37-1.08-.86-1.38-1.48-.29-.62-.44-1.29-.44-2.03,0-.83.17-1.55.52-2.18.35-.62.82-1.1,1.44-1.44s1.3-.5,2.07-.5c1.2,0,2.09.33,2.68.99.58.66.88,1.6.88,2.8,0,.31-.02.62-.05.95h-5.61c.12.69.37,1.19.74,1.5.37.31.88.46,1.54.46.54,0,.99-.04,1.34-.14s.67-.22.97-.37l.56,1.31c-.28.18-.67.34-1.16.48-.49.14-1.08.2-1.77.2-.93,0-1.71-.18-2.33-.55Zm3.98-4.16c.01-.7-.14-1.2-.46-1.49s-.77-.43-1.36-.43c-1.19,0-1.88.64-2.06,1.92h3.88Z"/>
    <path class="cls-3" d="m211.82,145.12h-1.38v-1.5h1.38v-3.18l1.85-.41v3.59h1.8v1.5h-1.8v6.31h-1.85v-6.31Z"/>
    <path class="cls-3" d="m221.23,138.93h1.79v4.69l-.07,1.45c.22-.48.56-.87,1.04-1.18.48-.31,1.03-.47,1.67-.47.8,0,1.42.17,1.85.5.43.33.72.8.87,1.4.15.6.22,1.38.22,2.35v3.76h-1.82v-3.77c0-.66-.04-1.17-.11-1.55-.07-.37-.22-.66-.44-.85-.22-.19-.54-.29-.96-.29-.34,0-.68.1-1.03.31-.35.2-.63.5-.86.89-.23.39-.34.85-.34,1.39v3.88h-1.8v-12.5Z"/>
    <path class="cls-3" d="m232.41,151.05c-.62-.36-1.11-.86-1.45-1.48-.34-.62-.51-1.31-.51-2.07s.17-1.43.5-2.06c.33-.62.81-1.12,1.44-1.48.62-.36,1.34-.54,2.16-.54s1.53.18,2.15.54c.62.36,1.09.86,1.43,1.48.33.62.5,1.31.5,2.06s-.17,1.45-.51,2.07c-.34.62-.82,1.12-1.44,1.48-.62.36-1.33.54-2.13.54s-1.52-.18-2.14-.54Zm3.75-1.68c.38-.49.57-1.1.57-1.84s-.2-1.36-.61-1.86-.95-.76-1.62-.76-1.16.25-1.56.75c-.39.5-.59,1.12-.59,1.87s.21,1.33.63,1.83c.42.49.96.74,1.62.74s1.17-.24,1.55-.73Z"/>
    <path class="cls-3" d="m240.74,138.93h1.82v12.5h-1.82v-12.5Z"/>
    <path class="cls-3" d="m246.65,151.09c-.6-.33-1.07-.81-1.43-1.43-.36-.62-.54-1.34-.54-2.17,0-1.24.35-2.22,1.04-2.97.69-.74,1.63-1.11,2.8-1.11.66,0,1.26.16,1.8.48.54.32.91.71,1.11,1.16l-.08-1.33v-4.81h1.8v12.5h-1.75l-.03-1.38c-.19.41-.54.77-1.05,1.08s-1.08.47-1.72.47c-.7,0-1.35-.17-1.95-.5Zm3.88-1.72c.44-.45.66-1.03.66-1.76v-.12c0-.49-.1-.92-.31-1.31s-.48-.69-.83-.9c-.35-.21-.74-.32-1.16-.32-.73,0-1.29.24-1.68.71-.4.47-.6,1.08-.6,1.83s.2,1.37.59,1.84.96.71,1.69.71c.65,0,1.19-.22,1.63-.67Z"/>
    <path class="cls-3" d="m256.94,151.04c-.62-.37-1.08-.86-1.38-1.48-.29-.62-.44-1.29-.44-2.03,0-.83.17-1.55.52-2.18.35-.62.82-1.1,1.44-1.44s1.3-.5,2.07-.5c1.2,0,2.09.33,2.68.99.58.66.88,1.6.88,2.8,0,.31-.02.62-.05.95h-5.61c.12.69.37,1.19.74,1.5s.88.46,1.54.46c.54,0,.99-.04,1.34-.14s.67-.22.97-.37l.56,1.31c-.28.18-.67.34-1.16.48-.49.14-1.08.2-1.77.2-.93,0-1.71-.18-2.33-.55Zm3.98-4.16c.01-.7-.14-1.2-.46-1.49s-.77-.43-1.36-.43c-1.19,0-1.88.64-2.06,1.92h3.88Z"/>
    <path class="cls-3" d="m264.57,143.62h1.84v1.53c.18-.52.48-.94.88-1.26s.87-.48,1.39-.48c.36,0,.61.03.75.1l-.25,1.85c-.1-.07-.32-.1-.66-.1-.53,0-1.02.17-1.45.51s-.65.88-.65,1.63v4.01h-1.84v-7.8Z"/>
    <path class="cls-3" d="m276.25,151.04c-.62-.37-1.08-.86-1.38-1.48-.29-.62-.44-1.29-.44-2.03,0-.83.17-1.55.52-2.18.35-.62.82-1.1,1.44-1.44s1.3-.5,2.07-.5c1.2,0,2.09.33,2.68.99.58.66.88,1.6.88,2.8,0,.31-.02.62-.05.95h-5.61c.12.69.37,1.19.74,1.5s.88.46,1.54.46c.54,0,.99-.04,1.34-.14s.67-.22.97-.37l.56,1.31c-.28.18-.67.34-1.16.48-.49.14-1.08.2-1.77.2-.93,0-1.71-.18-2.33-.55Zm3.98-4.16c.01-.7-.14-1.2-.46-1.49s-.77-.43-1.36-.43c-1.19,0-1.88.64-2.06,1.92h3.88Z"/>
    <path class="cls-3" d="m283.94,143.62h1.8l.02,1.43c.21-.48.55-.87,1.02-1.17.46-.31,1.01-.46,1.63-.46.8,0,1.42.17,1.85.5s.72.8.87,1.4c.15.6.22,1.38.22,2.35v3.76h-1.84v-3.71c0-.99-.1-1.7-.29-2.13-.19-.44-.59-.65-1.19-.65-.34,0-.69.1-1.04.31-.35.21-.64.51-.88.91-.23.4-.35.86-.35,1.39v3.88h-1.84v-7.8Z"/>
    <path class="cls-3" d="m47.52,159.33h2.75c1.55,0,2.69.33,3.41.99s1.08,1.57,1.08,2.73c0,1.34-.39,2.36-1.17,3.08-.78.71-1.94,1.07-3.48,1.07h-.66v4.62h-1.92v-12.5Zm2.63,6.19c1,0,1.69-.22,2.09-.66.4-.44.59-.97.59-1.6,0-.67-.19-1.21-.58-1.63-.38-.42-1.03-.63-1.94-.63h-.88v4.52h.71Z"/>
    <path class="cls-3" d="m57.91,171.45c-.62-.36-1.11-.86-1.45-1.48-.34-.62-.51-1.31-.51-2.07s.17-1.43.5-2.06c.33-.62.81-1.12,1.44-1.48s1.34-.54,2.16-.54,1.53.18,2.15.54,1.09.86,1.43,1.48c.33.62.5,1.31.5,2.06s-.17,1.45-.51,2.07c-.34.62-.82,1.12-1.44,1.48-.62.36-1.33.54-2.13.54s-1.52-.18-2.14-.54Zm3.75-1.68c.38-.49.57-1.1.57-1.84s-.2-1.36-.61-1.86c-.41-.5-.95-.76-1.62-.76s-1.17.25-1.56.75c-.39.5-.59,1.12-.59,1.87s.21,1.33.63,1.83c.42.49.96.74,1.62.74s1.18-.24,1.56-.73Z"/>
    <path class="cls-3" d="m66.12,164.02h1.77v1.45c.62-1.1,1.6-1.65,2.92-1.65,1.1,0,1.99.35,2.67,1.05.68.7,1.02,1.7,1.02,3.02,0,.82-.17,1.54-.5,2.16-.33.62-.79,1.1-1.36,1.45-.57.34-1.21.51-1.91.51-.66,0-1.23-.12-1.71-.35-.48-.23-.86-.56-1.13-.99l.02,5.3h-1.78v-11.93Zm5.88,5.72c.4-.47.59-1.07.59-1.81s-.2-1.39-.59-1.84c-.39-.46-.96-.69-1.71-.69-.41,0-.79.1-1.15.3-.36.2-.64.48-.85.85-.21.37-.31.8-.31,1.28v.12c0,.49.11.92.31,1.3.21.38.49.67.84.88.35.21.74.31,1.16.31.74,0,1.3-.24,1.7-.71Z"/>
    <path class="cls-3" d="m81.64,170.58c-.7-.94-1.05-2.31-1.05-4.1v-7.16h1.9v7.19c0,1.33.2,2.28.59,2.85s1.05.86,1.96.86,1.56-.28,1.95-.84c.39-.56.59-1.52.59-2.86v-7.19h1.92v7.16c0,1.78-.37,3.14-1.11,4.09s-1.86,1.42-3.34,1.42c-1.56,0-2.7-.47-3.4-1.41Z"/>
    <path class="cls-3" d="m91.91,164.02h1.77v1.45c.62-1.1,1.6-1.65,2.92-1.65,1.1,0,1.99.35,2.67,1.05.68.7,1.02,1.7,1.02,3.02,0,.82-.17,1.54-.5,2.16-.33.62-.79,1.1-1.36,1.45-.57.34-1.21.51-1.91.51-.66,0-1.23-.12-1.71-.35-.48-.23-.86-.56-1.13-.99l.02,5.3h-1.79v-11.93Zm5.88,5.72c.4-.47.59-1.07.59-1.81s-.2-1.39-.59-1.84-.96-.69-1.71-.69c-.41,0-.79.1-1.15.3-.36.2-.64.48-.85.85s-.31.8-.31,1.28v.12c0,.49.1.92.31,1.3.21.38.49.67.84.88.35.21.74.31,1.16.31.74,0,1.3-.24,1.7-.71Z"/>
    <path class="cls-3" d="m107.38,171.64c-.67-.24-1.15-.5-1.45-.8l.9-1.62c.24.22.61.44,1.11.67.5.23.99.35,1.45.35.6,0,1.09-.14,1.47-.42s.57-.67.57-1.17c0-.38-.1-.72-.31-1-.2-.28-.45-.52-.75-.71s-.71-.42-1.26-.69c-.65-.32-1.09-.56-1.33-.71-1.1-.74-1.65-1.76-1.65-3.06,0-1.08.36-1.9,1.07-2.47.71-.57,1.62-.86,2.7-.86,1.17,0,2.16.33,2.98,1l-.9,1.55c-.22-.23-.52-.42-.91-.59-.39-.16-.81-.25-1.25-.25-.57,0-1.01.13-1.33.38-.32.25-.49.63-.49,1.13,0,.35.1.67.31.94s.46.52.77.72.73.45,1.27.75c.51.28.9.51,1.17.67.27.16.53.36.76.59.33.29.6.65.8,1.05.2.41.31.86.31,1.34,0,.76-.17,1.41-.52,1.94s-.82.94-1.43,1.21c-.61.27-1.29.41-2.07.41-.68,0-1.35-.12-2.02-.36Z"/>
    <path class="cls-3" d="m115.42,159.33h1.79v4.69l-.07,1.45c.21-.48.56-.87,1.04-1.18.48-.31,1.03-.47,1.67-.47.8,0,1.42.17,1.85.5s.72.8.87,1.4c.15.6.22,1.38.22,2.35v3.76h-1.82v-3.77c0-.66-.04-1.17-.11-1.55-.07-.37-.22-.66-.44-.85s-.54-.29-.96-.29c-.34,0-.68.1-1.03.31-.35.2-.63.5-.86.89-.23.39-.34.85-.34,1.39v3.88h-1.8v-12.5Z"/>
    <path class="cls-3" d="m126.6,171.45c-.62-.36-1.1-.86-1.45-1.48-.34-.62-.51-1.31-.51-2.07s.17-1.43.5-2.06c.33-.62.81-1.12,1.44-1.48.62-.36,1.34-.54,2.16-.54s1.53.18,2.15.54c.62.36,1.09.86,1.43,1.48.33.62.5,1.31.5,2.06s-.17,1.45-.51,2.07c-.34.62-.82,1.12-1.44,1.48-.62.36-1.33.54-2.13.54s-1.52-.18-2.14-.54Zm3.75-1.68c.38-.49.57-1.1.57-1.84s-.2-1.36-.61-1.86-.95-.76-1.62-.76-1.16.25-1.56.75c-.39.5-.59,1.12-.59,1.87s.21,1.33.63,1.83.96.74,1.62.74,1.18-.24,1.56-.73Z"/>
    <path class="cls-3" d="m134.81,164.02h1.77v1.45c.62-1.1,1.6-1.65,2.92-1.65,1.1,0,1.99.35,2.67,1.05.68.7,1.02,1.7,1.02,3.02,0,.82-.17,1.54-.5,2.16-.33.62-.79,1.1-1.36,1.45-.57.34-1.21.51-1.91.51-.66,0-1.23-.12-1.71-.35-.48-.23-.86-.56-1.13-.99l.02,5.3h-1.79v-11.93Zm5.88,5.72c.4-.47.59-1.07.59-1.81s-.2-1.39-.59-1.84-.96-.69-1.71-.69c-.41,0-.79.1-1.15.3-.36.2-.64.48-.85.85s-.31.8-.31,1.28v.12c0,.49.1.92.31,1.3.21.38.49.67.84.88.35.21.74.31,1.16.31.74,0,1.3-.24,1.7-.71Z"/>
    <path class="cls-3" d="m149.5,162.2c-.24-.24-.36-.53-.36-.88,0-.32.12-.59.36-.82s.53-.34.88-.34.63.11.87.34c.24.23.36.5.36.82,0,.35-.12.65-.35.88-.23.24-.52.36-.88.36s-.65-.12-.88-.36Zm-.05,1.82h1.9v7.8h-1.9v-7.8Z"/>
    <path class="cls-3" d="m47.52,179.73h3.18c1.79,0,2.98.3,3.57.9.59.6.88,1.33.88,2.18,0,.57-.12,1.1-.37,1.61-.25.5-.65.88-1.19,1.13.8.2,1.4.56,1.78,1.07.38.51.57,1.11.57,1.8,0,.73-.11,1.36-.34,1.9-.23.54-.7,1-1.41,1.36-.71.36-1.75.54-3.09.54h-3.57v-12.5Zm3.48,5.3c.8,0,1.38-.2,1.72-.59.34-.39.51-.89.51-1.49,0-1.08-.77-1.61-2.31-1.61h-1.53v3.69h1.62Zm.34,5.59c1.03,0,1.73-.21,2.08-.62.36-.41.54-.94.54-1.57,0-.6-.2-1.06-.61-1.39-.41-.33-1.03-.49-1.85-.49h-2.11v4.08h1.96Z"/>
    <path class="cls-3" d="m58.2,179.73h1.82v12.5h-1.82v-12.5Z"/>
    <path class="cls-3" d="m64.1,191.89c-.59-.33-1.07-.81-1.43-1.43-.36-.62-.54-1.34-.54-2.17s.16-1.53.47-2.14c.31-.61.76-1.09,1.33-1.43.58-.34,1.26-.51,2.04-.51.45,0,.88.08,1.28.24s.73.35,1,.59c.27.23.45.46.54.69l.03-1.31h1.75v7.8h-1.73l-.03-1.38c-.19.41-.54.77-1.05,1.08s-1.08.47-1.72.47c-.7,0-1.35-.17-1.95-.5Zm1.19-8.78c-.39-.19-.7-.46-.93-.82-.23-.35-.35-.75-.35-1.21s.12-.84.35-1.2.54-.63.93-.83c.39-.2.81-.3,1.25-.3s.88.1,1.27.3c.39.2.7.48.93.83s.35.76.35,1.2-.12.84-.35,1.19c-.23.35-.54.63-.93.82-.39.2-.81.3-1.27.3s-.86-.1-1.25-.29Zm2.7,7.08c.44-.45.66-1.03.66-1.76v-.12c0-.49-.1-.92-.31-1.31-.2-.38-.48-.69-.83-.9-.35-.21-.74-.32-1.16-.32-.72,0-1.29.24-1.68.71s-.59,1.08-.59,1.83.2,1.37.59,1.84c.39.47.96.71,1.69.71.65,0,1.19-.22,1.63-.67Zm-.73-8.33c.19-.2.29-.46.29-.77s-.1-.58-.29-.77c-.19-.2-.43-.3-.71-.3s-.5.1-.69.3c-.19.2-.28.46-.28.77s.09.58.28.77c.19.2.42.3.69.3s.52-.1.71-.3Z"/>
    <path class="cls-3" d="m75.14,196.07c-.56-.16-.96-.31-1.2-.44l.41-1.7c.75.49,1.56.73,2.45.73.68,0,1.25-.16,1.72-.49.46-.33.7-.97.71-1.92v-1.39c-.24.44-.62.81-1.16,1.1-.53.29-1.12.44-1.77.44-.68,0-1.3-.17-1.87-.5-.57-.33-1.01-.81-1.34-1.44-.33-.62-.49-1.35-.49-2.18s.16-1.5.47-2.12.76-1.1,1.33-1.44,1.25-.51,2.02-.51c.45,0,.88.08,1.27.24s.73.35,1.01.59c.28.23.46.46.55.69l.03-1.31h1.73v7.75c0,1.33-.34,2.35-1.02,3.06-.68.71-1.73,1.07-3.16,1.07-.58,0-1.15-.08-1.71-.24Zm3.31-5.89c.44-.45.66-1.03.66-1.76v-.12c0-.49-.1-.92-.31-1.31s-.48-.69-.83-.9c-.35-.21-.74-.32-1.16-.32-.73,0-1.29.24-1.68.71-.4.47-.59,1.08-.59,1.83s.2,1.37.59,1.84c.39.47.95.71,1.69.71.65,0,1.19-.22,1.63-.67Z"/>
    <path class="cls-3" d="m84.88,191.89c-.59-.33-1.07-.81-1.43-1.43-.36-.62-.54-1.34-.54-2.17s.16-1.53.47-2.14c.31-.61.76-1.09,1.33-1.43.58-.34,1.26-.51,2.04-.51.45,0,.88.08,1.28.24s.73.35,1,.59c.27.23.45.46.54.69l.03-1.31h1.75v7.8h-1.73l-.03-1.38c-.19.41-.54.77-1.05,1.08s-1.08.47-1.72.47c-.7,0-1.35-.17-1.95-.5Zm1.19-8.78c-.39-.19-.7-.46-.93-.82-.23-.35-.35-.75-.35-1.21s.12-.84.35-1.2.54-.63.93-.83c.39-.2.81-.3,1.25-.3s.88.1,1.27.3c.39.2.7.48.93.83s.35.76.35,1.2-.12.84-.35,1.19c-.23.35-.54.63-.93.82-.39.2-.81.3-1.27.3s-.86-.1-1.25-.29Zm2.7,7.08c.44-.45.66-1.03.66-1.76v-.12c0-.49-.1-.92-.31-1.31-.2-.38-.48-.69-.83-.9-.35-.21-.74-.32-1.16-.32-.72,0-1.29.24-1.68.71s-.59,1.08-.59,1.83.2,1.37.59,1.84c.39.47.96.71,1.69.71.65,0,1.19-.22,1.63-.67Zm-.73-8.33c.19-.2.29-.46.29-.77s-.1-.58-.29-.77c-.19-.2-.43-.3-.71-.3s-.5.1-.69.3c-.19.2-.28.46-.28.77s.09.58.28.77c.19.2.42.3.69.3s.52-.1.71-.3Z"/>
    <path class="cls-3" d="m93.78,184.42h1.84v1.53c.18-.52.48-.94.88-1.26s.87-.48,1.39-.48c.36,0,.61.03.75.1l-.25,1.85c-.1-.07-.32-.1-.66-.1-.53,0-1.02.17-1.45.51s-.65.88-.65,1.63v4.01h-1.84v-7.8Z"/>
    <path class="cls-3" d="m101.44,191.89c-.59-.33-1.07-.81-1.43-1.43s-.54-1.34-.54-2.17c0-1.24.35-2.22,1.04-2.97.69-.74,1.63-1.11,2.8-1.11.66,0,1.26.16,1.8.48.54.32.91.71,1.11,1.16l-.08-1.33v-4.81h1.8v12.5h-1.75l-.03-1.38c-.19.41-.54.77-1.05,1.08s-1.08.47-1.72.47c-.7,0-1.35-.17-1.95-.5Zm3.88-1.72c.44-.45.66-1.03.66-1.76v-.12c0-.49-.1-.92-.31-1.31s-.48-.69-.83-.9c-.35-.21-.74-.32-1.16-.32-.73,0-1.29.24-1.68.71-.4.47-.59,1.08-.59,1.83s.2,1.37.59,1.84c.39.47.95.71,1.69.71.65,0,1.19-.22,1.63-.67Z"/>
    <path class="cls-3" d="m111.36,192.18c-.58-.14-1-.31-1.25-.5l.61-1.44c.68.48,1.46.71,2.33.71s1.31-.25,1.31-.77c0-.23-.09-.4-.27-.53-.18-.12-.5-.27-.97-.44l-.65-.24c-.68-.27-1.22-.6-1.62-.98-.4-.38-.59-.88-.59-1.5,0-.71.28-1.27.84-1.67.56-.4,1.31-.6,2.25-.6.46,0,.92.05,1.37.15.45.1.79.23,1.03.39l-.66,1.46c-.15-.15-.38-.27-.71-.38-.32-.11-.68-.16-1.08-.16-.8,0-1.21.24-1.21.73,0,.27.11.48.32.62.21.14.57.3,1.05.47.04.01.22.07.53.19.72.28,1.26.61,1.61.97s.53.83.53,1.39c0,.77-.29,1.35-.88,1.75-.58.4-1.32.59-2.22.59-.54,0-1.11-.07-1.69-.21Z"/>
    <path class="cls-3" d="m120.14,196.07c-.56-.16-.96-.31-1.2-.44l.41-1.7c.75.49,1.56.73,2.45.73.68,0,1.25-.16,1.72-.49s.7-.97.71-1.92v-1.39c-.24.44-.62.81-1.16,1.1-.53.29-1.12.44-1.77.44-.68,0-1.3-.17-1.87-.5s-1.01-.81-1.34-1.44c-.33-.62-.49-1.35-.49-2.18s.16-1.5.47-2.12.76-1.1,1.33-1.44c.58-.34,1.25-.51,2.02-.51.45,0,.88.08,1.28.24.4.16.73.35,1.01.59.28.23.46.46.55.69l.03-1.31h1.73v7.75c0,1.33-.34,2.35-1.02,3.06-.68.71-1.73,1.07-3.16,1.07-.58,0-1.15-.08-1.71-.24Zm3.31-5.89c.44-.45.66-1.03.66-1.76v-.12c0-.49-.1-.92-.31-1.31s-.48-.69-.83-.9c-.35-.21-.74-.32-1.16-.32-.72,0-1.29.24-1.68.71s-.59,1.08-.59,1.83.2,1.37.59,1.84c.39.47.96.71,1.69.71.65,0,1.19-.22,1.63-.67Z"/>
    <path class="cls-3" d="m129.88,191.89c-.59-.33-1.07-.81-1.43-1.43-.36-.62-.54-1.34-.54-2.17s.16-1.53.47-2.14c.31-.61.76-1.09,1.33-1.43.58-.34,1.26-.51,2.04-.51.45,0,.88.08,1.28.24s.73.35,1,.59c.27.23.45.46.54.69l.03-1.31h1.75v7.8h-1.73l-.03-1.38c-.19.41-.54.77-1.05,1.08s-1.08.47-1.72.47c-.7,0-1.35-.17-1.95-.5Zm3.88-1.7c.44-.45.66-1.03.66-1.76v-.12c0-.49-.1-.92-.31-1.31-.2-.38-.48-.69-.83-.9-.35-.21-.74-.32-1.16-.32-.72,0-1.29.24-1.68.71s-.59,1.08-.59,1.83.2,1.37.59,1.84c.39.47.96.71,1.69.71.65,0,1.19-.22,1.63-.67Z"/>
    <path class="cls-3" d="m140.33,191.89c-.59-.33-1.07-.81-1.43-1.43s-.54-1.34-.54-2.17c0-1.24.35-2.22,1.04-2.97.69-.74,1.63-1.11,2.8-1.11.66,0,1.26.16,1.8.48.54.32.91.71,1.11,1.16l-.08-1.33v-4.81h1.8v12.5h-1.75l-.03-1.38c-.19.41-.54.77-1.05,1.08s-1.08.47-1.72.47c-.7,0-1.35-.17-1.95-.5Zm3.88-1.72c.44-.45.66-1.03.66-1.76v-.12c0-.49-.1-.92-.31-1.31s-.48-.69-.83-.9c-.35-.21-.74-.32-1.16-.32-.73,0-1.29.24-1.68.71-.4.47-.59,1.08-.59,1.83s.2,1.37.59,1.84c.39.47.95.71,1.69.71.65,0,1.19-.22,1.63-.67Z"/>
    <path class="cls-3" d="m150.63,191.84c-.62-.37-1.08-.86-1.38-1.48-.29-.62-.44-1.29-.44-2.03,0-.83.17-1.55.52-2.18.35-.62.82-1.1,1.44-1.44s1.3-.5,2.07-.5c1.2,0,2.09.33,2.68.99.58.66.88,1.6.88,2.8,0,.31-.02.62-.05.95h-5.61c.12.69.37,1.19.74,1.5.37.31.88.46,1.54.46.54,0,.99-.04,1.34-.14s.67-.22.97-.37l.56,1.31c-.28.18-.67.34-1.16.48-.49.14-1.08.2-1.77.2-.93,0-1.71-.18-2.33-.55Zm3.98-4.16c.01-.7-.14-1.2-.46-1.49s-.77-.43-1.36-.43c-1.19,0-1.88.64-2.06,1.92h3.88Z"/>
    <path class="cls-3" d="m162.47,184.42h1.84v1.41c.25-.53.62-.94,1.1-1.21s1.03-.41,1.66-.41c1.39.01,2.25.49,2.57,1.44.25-.44.62-.79,1.12-1.05.5-.26,1.03-.39,1.58-.39.82,0,1.43.16,1.85.47.42.31.7.75.84,1.33s.21,1.34.21,2.3v3.91h-1.85v-3.93c0-.92-.09-1.58-.28-1.97-.19-.4-.55-.6-1.08-.6-.71,0-1.26.24-1.62.72-.37.48-.55,1.11-.55,1.9v3.88h-1.84v-4.2c0-.6-.02-1.05-.07-1.34-.05-.29-.17-.53-.37-.7-.2-.17-.53-.26-.99-.26-.4,0-.77.12-1.11.36-.35.24-.62.56-.83.96-.21.4-.31.84-.31,1.3v3.88h-1.85v-7.8Z"/>
    <path class="cls-3" d="m178.95,191.84c-.62-.37-1.08-.86-1.38-1.48s-.44-1.29-.44-2.03c0-.83.17-1.55.52-2.18.35-.62.82-1.1,1.44-1.44.61-.33,1.3-.5,2.07-.5,1.2,0,2.09.33,2.68.99.58.66.88,1.6.88,2.8,0,.31-.02.62-.05.95h-5.61c.12.69.37,1.19.74,1.5s.88.46,1.54.46c.54,0,.99-.04,1.34-.14.35-.09.67-.22.97-.37l.56,1.31c-.28.18-.67.34-1.16.48-.49.14-1.08.2-1.77.2-.93,0-1.71-.18-2.33-.55Zm3.98-4.16c.01-.7-.14-1.2-.46-1.49s-.77-.43-1.36-.43c-1.19,0-1.88.64-2.06,1.92h3.88Z"/>
    <path class="cls-3" d="m188.14,191.89c-.59-.33-1.07-.81-1.43-1.43s-.54-1.34-.54-2.17c0-1.24.35-2.22,1.04-2.97.69-.74,1.63-1.11,2.8-1.11.66,0,1.26.16,1.8.48.54.32.91.71,1.11,1.16l-.08-1.33v-4.81h1.8v12.5h-1.75l-.03-1.38c-.19.41-.54.77-1.05,1.08s-1.08.47-1.72.47c-.7,0-1.35-.17-1.95-.5Zm3.88-1.72c.44-.45.66-1.03.66-1.76v-.12c0-.49-.1-.92-.31-1.31s-.48-.69-.83-.9c-.35-.21-.74-.32-1.16-.32-.73,0-1.29.24-1.68.71-.4.47-.59,1.08-.59,1.83s.2,1.37.59,1.84c.39.47.95.71,1.69.71.65,0,1.19-.22,1.63-.67Z"/>
    <path class="cls-3" d="m201.35,179.73h3.18c1.79,0,2.98.3,3.57.9.59.6.88,1.33.88,2.18,0,.57-.12,1.1-.37,1.61-.25.5-.65.88-1.19,1.13.8.2,1.4.56,1.78,1.07.38.51.57,1.11.57,1.8,0,.73-.11,1.36-.34,1.9-.23.54-.7,1-1.41,1.36s-1.75.54-3.09.54h-3.57v-12.5Zm3.49,5.3c.8,0,1.38-.2,1.72-.59.34-.39.51-.89.51-1.49,0-1.08-.77-1.61-2.31-1.61h-1.53v3.69h1.62Zm.34,5.59c1.03,0,1.73-.21,2.08-.62.36-.41.54-.94.54-1.57,0-.6-.2-1.06-.61-1.39-.41-.33-1.03-.49-1.85-.49h-2.11v4.08h1.96Z"/>
    <path class="cls-3" d="m214.12,192.46l-3.23-8.04h2.07l1.67,4.96.37,1.21.37-1.21,1.75-4.96h2.01l-4.79,12.09h-1.9l1.68-4.05Z"/>
    <path class="cls-3" d="m221,185.92h-1.38v-1.5h1.38v-3.18l1.85-.41v3.59h1.8v1.5h-1.8v6.31h-1.85v-6.31Z"/>
    <path class="cls-3" d="m226.24,179.73h1.79v4.69l-.07,1.45c.22-.48.56-.87,1.04-1.18.48-.31,1.03-.47,1.67-.47.8,0,1.42.17,1.85.5.43.33.72.8.87,1.4.15.6.22,1.38.22,2.35v3.76h-1.82v-3.77c0-.66-.04-1.17-.11-1.55-.07-.37-.22-.66-.44-.85-.22-.19-.54-.29-.96-.29-.34,0-.68.1-1.03.31-.35.2-.63.5-.86.89-.23.39-.34.85-.34,1.39v3.88h-1.8v-12.5Z"/>
    <path class="cls-3" d="m236.12,182.6c-.24-.24-.36-.53-.36-.88,0-.32.12-.59.36-.82.24-.23.53-.34.88-.34s.63.11.87.34c.24.23.36.5.36.82,0,.35-.12.65-.35.88-.23.24-.52.36-.88.36s-.65-.12-.88-.36Zm-.05,1.82h1.9v7.8h-1.9v-7.8Z"/>
    <path class="cls-3" d="m240.71,182.6c-.24-.24-.36-.53-.36-.88,0-.32.12-.59.36-.82.24-.23.53-.34.88-.34s.63.11.87.34c.24.23.36.5.36.82,0,.35-.12.65-.35.88-.23.24-.52.36-.88.36s-.65-.12-.88-.36Zm-.05,1.82h1.9v7.8h-1.9v-7.8Z"/>
    <path class="cls-3" d="m245.11,184.42h1.84v1.41c.25-.53.61-.94,1.1-1.21.48-.27,1.03-.41,1.66-.41,1.39.01,2.25.49,2.57,1.44.25-.44.62-.79,1.12-1.05.5-.26,1.03-.39,1.58-.39.82,0,1.43.16,1.85.47.42.31.7.75.84,1.33s.21,1.34.21,2.3v3.91h-1.85v-3.93c0-.92-.09-1.58-.28-1.97-.19-.4-.55-.6-1.08-.6-.71,0-1.25.24-1.62.72-.37.48-.55,1.11-.55,1.9v3.88h-1.84v-4.2c0-.6-.02-1.05-.07-1.34-.04-.29-.17-.53-.37-.7-.2-.17-.53-.26-.99-.26-.4,0-.77.12-1.11.36-.35.24-.62.56-.83.96-.21.4-.31.84-.31,1.3v3.88h-1.85v-7.8Z"/>
    <path class="cls-3" d="m51.6,227.77c.53-.71.98-1.38,1.33-1.99.36-.61.54-1.18.54-1.7,0-.63-.17-1.12-.5-1.45-.33-.33-.84-.5-1.5-.5-.61,0-1.1.17-1.48.51-.37.34-.69.75-.94,1.24l-1.58-.85c.4-.76.92-1.4,1.56-1.92.65-.52,1.47-.78,2.48-.78,1.26,0,2.22.33,2.89.98.67.65,1,1.5,1,2.56,0,1.37-.68,2.89-2.04,4.56l-2.31,2.92h4.85v1.68h-8.5l4.2-5.25Z"/>
    <path class="cls-3" d="m59.23,231.48c-.74-1.2-1.11-2.77-1.11-4.69s.36-3.56,1.07-4.72c.71-1.16,1.88-1.74,3.48-1.74,3.03,0,4.54,2.15,4.54,6.46,0,1.96-.37,3.53-1.1,4.72-.74,1.18-1.88,1.78-3.43,1.78s-2.71-.6-3.45-1.8Zm5.38-1.27c.36-.89.54-2.03.54-3.43,0-1.46-.18-2.62-.53-3.47s-1-1.27-1.94-1.27-1.59.42-1.95,1.27c-.36.85-.54,2.01-.54,3.47,0,3.17.83,4.76,2.48,4.76.93,0,1.57-.44,1.93-1.33Z"/>
    <path class="cls-3" d="m70.37,220.72l1.92-.54v12.85h-1.92v-12.31Z"/>
    <path class="cls-3" d="m77.79,232.78c-.64-.33-1.14-.82-1.51-1.44-.37-.63-.55-1.36-.55-2.2,0-.59.09-1.17.27-1.74.18-.57.57-1.4,1.16-2.47.59-1.08,1.53-2.68,2.82-4.81l1.63.95c-1.11,1.68-1.99,3.08-2.63,4.22-.05.08-.09.16-.14.24-.05.08-.08.14-.12.17.18-.17.42-.31.73-.41.31-.1.66-.15,1.05-.15.75,0,1.41.18,1.99.54s1.02.83,1.33,1.43c.31.59.47,1.24.47,1.93,0,.88-.19,1.65-.56,2.3s-.89,1.14-1.56,1.47c-.66.33-1.42.5-2.27.5-.77,0-1.48-.17-2.12-.5Zm3.93-1.84c.41-.45.62-1.04.62-1.75s-.21-1.34-.64-1.78c-.42-.44-.97-.65-1.62-.65-.72,0-1.31.22-1.74.66s-.65,1.04-.65,1.8c0,.69.22,1.26.67,1.72.45.45,1.01.68,1.67.68.71,0,1.28-.23,1.69-.68Z"/>
    <path class="cls-3" d="m90.82,225.22h1.8l.02,1.43c.21-.48.55-.87,1.02-1.17.46-.31,1.01-.46,1.63-.46.8,0,1.42.17,1.85.5s.72.8.87,1.4c.15.6.22,1.38.22,2.35v3.76h-1.84v-3.71c0-.99-.1-1.7-.29-2.13-.19-.44-.59-.65-1.19-.65-.34,0-.69.1-1.04.31-.35.21-.64.51-.88.91-.23.4-.35.86-.35,1.39v3.88h-1.84v-7.8Z"/>
    <path class="cls-3" d="m102.09,232.65c-.62-.36-1.11-.86-1.45-1.48-.34-.62-.51-1.31-.51-2.07s.17-1.43.5-2.06c.33-.62.81-1.12,1.44-1.48s1.34-.54,2.16-.54,1.53.18,2.15.54,1.09.86,1.43,1.48c.33.62.5,1.31.5,2.06s-.17,1.45-.51,2.07c-.34.62-.82,1.12-1.44,1.48-.62.36-1.33.54-2.13.54s-1.52-.18-2.14-.54Zm3.75-1.68c.38-.49.57-1.1.57-1.84s-.2-1.36-.61-1.86c-.41-.5-.95-.76-1.62-.76s-1.17.25-1.56.75c-.39.5-.59,1.12-.59,1.87s.21,1.33.63,1.83c.42.49.96.74,1.62.74s1.18-.24,1.56-.73Z"/>
    <path class="cls-3" d="m109.03,225.22h2.09l1.68,3.52.54,1.41.54-1.41,1.67-3.52h2.04l-4.1,7.8h-.36l-4.11-7.8Z"/>
    <path class="cls-3" d="m119.92,232.64c-.62-.37-1.08-.86-1.38-1.48s-.44-1.29-.44-2.03c0-.83.17-1.55.52-2.18.35-.62.82-1.1,1.44-1.44.61-.33,1.3-.5,2.07-.5,1.2,0,2.09.33,2.68.99.58.66.88,1.6.88,2.8,0,.31-.02.62-.05.95h-5.61c.12.69.37,1.19.74,1.5s.88.46,1.54.46c.54,0,.99-.04,1.34-.14.35-.09.67-.22.97-.37l.56,1.31c-.28.18-.67.34-1.16.48-.49.14-1.08.2-1.77.2-.93,0-1.71-.18-2.33-.55Zm3.98-4.16c.01-.7-.14-1.2-.46-1.49s-.77-.43-1.36-.43c-1.19,0-1.88.64-2.06,1.92h3.88Z"/>
    <path class="cls-3" d="m127.61,225.22h1.84v1.41c.25-.53.61-.94,1.1-1.21.48-.27,1.03-.41,1.66-.41,1.39.01,2.25.49,2.57,1.44.25-.44.62-.79,1.12-1.05.5-.26,1.03-.39,1.58-.39.82,0,1.43.16,1.85.47.42.31.7.75.84,1.33.14.57.21,1.34.21,2.3v3.91h-1.85v-3.93c0-.92-.09-1.58-.28-1.97-.19-.4-.55-.6-1.08-.6-.71,0-1.25.24-1.62.72-.37.48-.55,1.11-.55,1.9v3.88h-1.84v-4.2c0-.6-.02-1.05-.07-1.34-.04-.29-.17-.53-.37-.7-.2-.17-.53-.26-.99-.26-.4,0-.77.12-1.11.36-.35.24-.62.56-.83.96s-.31.84-.31,1.3v3.88h-1.85v-7.8Z"/>
    <path class="cls-3" d="m145.64,232.73c-.5-.31-.85-.67-1.04-1.08l-.03,1.38h-1.77v-12.5h1.8v4.81l-.08,1.33c.19-.45.57-.84,1.13-1.16.56-.32,1.17-.48,1.83-.48.77,0,1.44.17,2.01.52s1.01.83,1.32,1.44c.31.62.46,1.33.46,2.15s-.18,1.55-.54,2.16c-.36.61-.83,1.08-1.43,1.41-.59.33-1.24.49-1.95.49-.63,0-1.21-.16-1.71-.47Zm3.1-1.77c.4-.47.59-1.08.59-1.83s-.2-1.37-.59-1.84c-.39-.47-.96-.71-1.71-.71-.65,0-1.19.22-1.63.67-.44.45-.66,1.03-.66,1.76v.12c0,.49.1.92.31,1.31s.49.69.83.9c.35.22.73.32,1.15.32.74,0,1.3-.24,1.7-.71Z"/>
    <path class="cls-3" d="m154.57,232.64c-.62-.37-1.08-.86-1.38-1.48-.29-.62-.44-1.29-.44-2.03,0-.83.17-1.55.52-2.18.35-.62.82-1.1,1.44-1.44s1.3-.5,2.07-.5c1.2,0,2.09.33,2.68.99.58.66.88,1.6.88,2.8,0,.31-.02.62-.05.95h-5.61c.12.69.37,1.19.74,1.5.37.31.88.46,1.54.46.54,0,.99-.04,1.34-.14s.67-.22.97-.37l.56,1.31c-.28.18-.67.34-1.16.48-.49.14-1.08.2-1.77.2-.93,0-1.71-.18-2.33-.55Zm3.98-4.16c.01-.7-.14-1.2-.46-1.49s-.77-.43-1.36-.43c-1.19,0-1.88.64-2.06,1.92h3.88Z"/>
    <path class="cls-3" d="m162.2,225.22h1.84v1.53c.18-.52.48-.94.88-1.26s.87-.48,1.39-.48c.36,0,.61.03.75.1l-.25,1.85c-.1-.07-.32-.1-.66-.1-.53,0-1.02.17-1.45.51s-.65.88-.65,1.63v4.01h-1.84v-7.8Z"/>
    <path class="cls-3" d="m168.63,227.1c-.24-.23-.36-.52-.36-.86s.12-.64.35-.88c.23-.23.52-.35.88-.35s.64.12.88.35c.23.23.35.52.35.88s-.12.63-.35.86-.52.35-.88.35-.63-.12-.87-.35Zm0,5.75c-.24-.23-.36-.52-.36-.86s.12-.64.35-.88c.23-.23.52-.35.88-.35s.64.12.88.35c.23.23.35.52.35.88s-.12.63-.35.86c-.23.23-.52.35-.88.35s-.63-.12-.87-.35Z"/>
    <path class="cls-3" d="m181.92,220.51l6.02,12.51h-2.19l-1.07-2.45h-5.73l-1.07,2.45h-2.12l5.98-12.51h.19Zm-1.33-.67c-.39-.19-.69-.45-.92-.78s-.34-.72-.34-1.15c0-.63.25-1.15.74-1.56s1.08-.6,1.78-.6c.44,0,.86.09,1.24.27.38.18.69.44.93.77.23.33.35.71.35,1.11s-.12.8-.35,1.13c-.23.33-.54.6-.93.79-.39.19-.8.29-1.24.29s-.87-.09-1.26-.28Zm.48,5.99l-1.36,3.03h4.22l-1.34-3.01-.73-1.72h-.03l-.75,1.7Zm1.5-7.22c.2-.19.3-.42.3-.71s-.1-.5-.3-.67c-.2-.18-.44-.26-.72-.26s-.52.09-.71.26c-.19.18-.29.4-.29.67s.1.52.29.71.43.28.71.28.52-.09.72-.28Z"/>
    <path class="cls-3" d="m191.79,232.73c-.5-.31-.85-.67-1.04-1.08l-.03,1.38h-1.77v-12.5h1.8v4.81l-.08,1.33c.19-.45.57-.84,1.13-1.16.56-.32,1.17-.48,1.83-.48.77,0,1.44.17,2.01.52s1.01.83,1.32,1.44c.31.62.46,1.33.46,2.15s-.18,1.55-.54,2.16c-.36.61-.83,1.08-1.43,1.41-.59.33-1.24.49-1.95.49-.63,0-1.21-.16-1.71-.47Zm3.1-1.77c.4-.47.59-1.08.59-1.83s-.2-1.37-.59-1.84c-.39-.47-.96-.71-1.71-.71-.65,0-1.19.22-1.63.67-.44.45-.66,1.03-.66,1.76v.12c0,.49.1.92.31,1.31s.49.69.83.9c.35.22.73.32,1.15.32.74,0,1.3-.24,1.7-.71Z"/>
    <path class="cls-3" d="m199.36,225.22h1.8l.02,1.43c.21-.48.55-.87,1.02-1.17.46-.31,1.01-.46,1.63-.46.8,0,1.42.17,1.85.5s.72.8.87,1.4c.15.6.22,1.38.22,2.35v3.76h-1.84v-3.71c0-.99-.1-1.7-.29-2.13-.19-.44-.59-.65-1.19-.65-.34,0-.69.1-1.04.31-.35.21-.64.51-.88.91-.23.4-.35.86-.35,1.39v3.88h-1.84v-7.8Z"/>
    <path class="cls-3" d="m210.5,232.64c-.62-.37-1.08-.86-1.38-1.48s-.44-1.29-.44-2.03c0-.83.17-1.55.52-2.18.35-.62.82-1.1,1.44-1.44.61-.33,1.3-.5,2.07-.5,1.2,0,2.09.33,2.68.99.58.66.88,1.6.88,2.8,0,.31-.02.62-.05.95h-5.61c.12.69.37,1.19.74,1.5.37.31.88.46,1.54.46.54,0,.99-.04,1.34-.14s.67-.22.97-.37l.56,1.31c-.29.18-.67.34-1.16.48-.49.14-1.08.2-1.77.2-.93,0-1.71-.18-2.33-.55Zm3.98-4.16c.01-.7-.14-1.2-.46-1.49-.32-.29-.77-.43-1.36-.43-1.19,0-1.88.64-2.06,1.92h3.88Z"/>
    <path class="cls-3" d="m218.13,225.22h1.84v1.53c.18-.52.48-.94.88-1.26s.87-.48,1.39-.48c.36,0,.61.03.75.1l-.25,1.85c-.1-.07-.32-.1-.66-.1-.53,0-1.02.17-1.45.51s-.65.88-.65,1.63v4.01h-1.84v-7.8Z"/>
    <path class="cls-3" d="m229.44,232.98c-.58-.14-1-.31-1.25-.5l.61-1.44c.68.48,1.46.71,2.33.71s1.31-.25,1.31-.77c0-.23-.09-.4-.27-.53-.18-.12-.5-.27-.97-.44l-.65-.24c-.68-.27-1.22-.6-1.62-.98-.4-.38-.59-.88-.59-1.5,0-.71.28-1.27.84-1.67.56-.4,1.31-.6,2.25-.6.46,0,.92.05,1.37.15s.79.23,1.03.39l-.66,1.46c-.15-.15-.38-.27-.71-.38-.32-.11-.68-.16-1.08-.16-.81,0-1.21.24-1.21.73,0,.27.11.48.32.62.22.14.57.3,1.05.47.04.01.22.07.53.19.73.28,1.26.61,1.62.97s.53.83.53,1.39c0,.77-.29,1.35-.88,1.75-.58.4-1.32.59-2.22.59-.54,0-1.11-.07-1.69-.21Z"/>
    <path class="cls-3" d="m237.63,232.65c-.62-.36-1.11-.86-1.45-1.48-.34-.62-.51-1.31-.51-2.07s.17-1.43.5-2.06c.33-.62.81-1.12,1.44-1.48.62-.36,1.34-.54,2.16-.54s1.53.18,2.15.54c.62.36,1.09.86,1.43,1.48.33.62.5,1.31.5,2.06s-.17,1.45-.51,2.07c-.34.62-.82,1.12-1.44,1.48-.62.36-1.33.54-2.13.54s-1.52-.18-2.14-.54Zm3.75-1.68c.38-.49.57-1.1.57-1.84s-.2-1.36-.61-1.86-.95-.76-1.62-.76-1.16.25-1.56.75c-.39.5-.59,1.12-.59,1.87s.21,1.33.63,1.83c.42.49.96.74,1.62.74s1.17-.24,1.55-.73Z"/>
    <path class="cls-3" d="m245.81,225.22h1.84v1.41c.25-.53.61-.94,1.1-1.21.48-.27,1.03-.41,1.66-.41,1.39.01,2.25.49,2.57,1.44.25-.44.62-.79,1.12-1.05.5-.26,1.03-.39,1.58-.39.82,0,1.43.16,1.85.47.42.31.7.75.84,1.33s.21,1.34.21,2.3v3.91h-1.85v-3.93c0-.92-.09-1.58-.28-1.97-.19-.4-.55-.6-1.08-.6-.71,0-1.25.24-1.62.72-.37.48-.55,1.11-.55,1.9v3.88h-1.84v-4.2c0-.6-.02-1.05-.07-1.34-.04-.29-.17-.53-.37-.7-.2-.17-.53-.26-.99-.26-.4,0-.77.12-1.11.36-.35.24-.62.56-.83.96-.21.4-.31.84-.31,1.3v3.88h-1.85v-7.8Z"/>
    <path class="cls-3" d="m265.82,226.69h-1.26v-1.46h1.26v-1.68c0-1.02.25-1.81.74-2.37s1.21-.84,2.17-.84c.39,0,.82.11,1.31.32l-.36,1.73c-.08-.09-.2-.18-.37-.26-.17-.09-.34-.13-.54-.13-.76,0-1.15.49-1.16,1.48v1.75h1.84v1.46h-1.84v6.34h-1.8v-6.34Z"/>
    <path class="cls-3" d="m273.48,233.26l-3.23-8.04h2.07l1.67,4.96.37,1.21.37-1.21,1.75-4.96h2.01l-4.79,12.09h-1.9l1.68-4.05Z"/>
    <path class="cls-3" d="m280.68,232.98c-.58-.14-1-.31-1.25-.5l.61-1.44c.68.48,1.46.71,2.33.71s1.31-.25,1.31-.77c0-.23-.09-.4-.27-.53-.18-.12-.5-.27-.97-.44l-.65-.24c-.68-.27-1.22-.6-1.62-.98-.4-.38-.59-.88-.59-1.5,0-.71.28-1.27.84-1.67.56-.4,1.31-.6,2.25-.6.46,0,.92.05,1.37.15s.79.23,1.03.39l-.66,1.46c-.15-.15-.38-.27-.71-.38-.32-.11-.68-.16-1.08-.16-.81,0-1.21.24-1.21.73,0,.27.11.48.32.62.22.14.57.3,1.05.47.04.01.22.07.53.19.73.28,1.26.61,1.62.97s.53.83.53,1.39c0,.77-.29,1.35-.88,1.75-.58.4-1.32.59-2.22.59-.54,0-1.11-.07-1.69-.21Z"/>
    <path class="cls-3" d="m287.56,223.4c-.24-.24-.36-.53-.36-.88,0-.32.12-.59.36-.82.24-.23.53-.34.88-.34s.63.11.87.34c.24.23.36.5.36.82,0,.35-.12.65-.35.88-.23.24-.52.36-.88.36s-.65-.12-.88-.36Zm-.05,1.82h1.9v7.8h-1.9v-7.8Z"/>
    <path class="cls-3" d="m292.96,232.98c-.58-.14-1-.31-1.25-.5l.61-1.44c.68.48,1.46.71,2.33.71s1.31-.25,1.31-.77c0-.23-.09-.4-.27-.53-.18-.12-.5-.27-.97-.44l-.65-.24c-.68-.27-1.22-.6-1.62-.98-.4-.38-.59-.88-.59-1.5,0-.71.28-1.27.84-1.67.56-.4,1.31-.6,2.25-.6.46,0,.92.05,1.37.15s.79.23,1.03.39l-.66,1.46c-.15-.15-.38-.27-.71-.38-.32-.11-.68-.16-1.08-.16-.81,0-1.21.24-1.21.73,0,.27.11.48.32.62.22.14.57.3,1.05.47.04.01.22.07.53.19.73.28,1.26.61,1.62.97s.53.83.53,1.39c0,.77-.29,1.35-.88,1.75-.58.4-1.32.59-2.22.59-.54,0-1.11-.07-1.69-.21Z"/>
    <path class="cls-3" d="m306.7,233.03h-2.16l-1.58-2.55-.44-.87-1.02,1.1v2.31h-1.77v-12.5h1.75v6.85l-.03,1.33,2.98-3.49h2.26l-2.94,3.26,2.96,4.54Z"/>
    <path class="cls-3" d="m315.24,232.73c-.5-.31-.85-.67-1.04-1.08l-.03,1.38h-1.77v-12.5h1.8v4.81l-.08,1.33c.19-.45.57-.84,1.13-1.16.56-.32,1.17-.48,1.83-.48.77,0,1.44.17,2.01.52.57.35,1.01.83,1.32,1.44.31.62.46,1.33.46,2.15s-.18,1.55-.54,2.16c-.36.61-.83,1.08-1.43,1.41-.59.33-1.24.49-1.95.49-.63,0-1.2-.16-1.71-.47Zm3.1-1.77c.4-.47.6-1.08.6-1.83s-.2-1.37-.59-1.84-.96-.71-1.71-.71c-.65,0-1.19.22-1.63.67-.44.45-.66,1.03-.66,1.76v.12c0,.49.1.92.31,1.31.21.39.49.69.83.9.34.22.73.32,1.15.32.74,0,1.3-.24,1.7-.71Z"/>
    <path class="cls-3" d="m323.3,232.24c-.4-.63-.6-1.52-.6-2.65v-4.37h1.84v3.91c0,.65.04,1.15.11,1.5.07.36.22.62.44.79s.55.26.99.26c.32,0,.62-.09.92-.27.29-.18.54-.43.72-.74.19-.31.28-.65.28-1.03v-4.42h1.82v7.8h-1.5l-.2-1.14c-.28.44-.64.77-1.06.99-.42.21-.94.32-1.54.32-1.08,0-1.82-.32-2.22-.95Z"/>
    <path class="cls-3" d="m332.95,226.72h-1.38v-1.5h1.38v-3.18l1.85-.41v3.59h1.8v1.5h-1.8v6.31h-1.85v-6.31Z"/>
    <path class="cls-3" d="m338.29,223.4c-.24-.24-.36-.53-.36-.88,0-.32.12-.59.36-.82.24-.23.53-.34.88-.34s.63.11.87.34c.24.23.36.5.36.82,0,.35-.12.65-.35.88-.23.24-.52.36-.88.36s-.65-.12-.88-.36Zm-.05,1.82h1.9v7.8h-1.9v-7.8Z"/>
    <path class="cls-3" d="m349.74,233.03h-2.16l-1.58-2.55-.44-.87-1.02,1.1v2.31h-1.77v-12.5h1.75v6.85l-.03,1.33,2.98-3.49h2.26l-2.94,3.26,2.96,4.54Z"/>
    <path class="cls-3" d="m355.4,225.22h1.77v1.45c.62-1.1,1.6-1.65,2.92-1.65,1.1,0,1.99.35,2.67,1.05.68.7,1.02,1.7,1.02,3.02,0,.82-.17,1.54-.5,2.16-.33.62-.79,1.1-1.36,1.45-.57.34-1.21.51-1.91.51-.66,0-1.23-.12-1.71-.35-.48-.23-.86-.56-1.13-.99l.02,5.3h-1.79v-11.93Zm5.88,5.72c.4-.47.59-1.07.59-1.81s-.2-1.39-.59-1.84c-.39-.46-.96-.69-1.71-.69-.41,0-.79.1-1.15.3-.36.2-.64.48-.85.85-.21.37-.31.8-.31,1.28v.12c0,.49.1.92.31,1.3.21.38.49.67.84.88.35.21.74.31,1.16.31.74,0,1.3-.24,1.7-.71Z"/>
    <path class="cls-3" d="m367.24,232.69c-.6-.33-1.07-.81-1.43-1.43-.36-.62-.54-1.34-.54-2.17s.16-1.53.47-2.14c.31-.61.76-1.09,1.33-1.43s1.26-.51,2.04-.51c.45,0,.88.08,1.28.24.4.16.73.35,1,.59.27.23.45.46.54.69l.03-1.31h1.75v7.8h-1.73l-.03-1.38c-.19.41-.54.77-1.05,1.08s-1.08.47-1.72.47c-.7,0-1.35-.17-1.95-.5Zm1.19-8.78c-.39-.19-.7-.46-.93-.82-.23-.35-.35-.75-.35-1.21s.12-.84.35-1.2c.23-.36.54-.63.93-.83.39-.2.81-.3,1.25-.3s.88.1,1.27.3c.39.2.7.48.93.83s.35.76.35,1.2-.12.84-.35,1.19c-.23.35-.54.63-.93.82-.39.2-.81.3-1.27.3s-.86-.1-1.25-.29Zm2.69,7.08c.44-.45.66-1.03.66-1.76v-.12c0-.49-.1-.92-.31-1.31-.2-.38-.48-.69-.83-.9-.35-.21-.74-.32-1.16-.32-.73,0-1.29.24-1.68.71-.4.47-.6,1.08-.6,1.83s.2,1.37.59,1.84.96.71,1.69.71c.65,0,1.19-.22,1.63-.67Zm-.73-8.33c.19-.2.29-.46.29-.77s-.1-.58-.29-.77c-.19-.2-.43-.3-.71-.3s-.5.1-.69.3c-.19.2-.28.46-.28.77s.09.58.28.77c.19.2.42.3.69.3s.52-.1.71-.3Z"/>
    <path class="cls-3" d="m45.92,240.93h2.16l3.74,8.58,3.76-8.58h2.14l-5.76,12.5h-.25l-5.78-12.5Z"/>
    <path class="cls-3" d="m59,253.04c-.62-.37-1.08-.86-1.38-1.48-.29-.62-.44-1.29-.44-2.03,0-.83.17-1.55.52-2.18.35-.62.82-1.1,1.44-1.44s1.3-.5,2.07-.5c1.2,0,2.09.33,2.68.99.58.66.88,1.6.88,2.8,0,.31-.02.62-.05.95h-5.61c.12.69.37,1.19.74,1.5.37.31.88.46,1.54.46.54,0,.99-.04,1.34-.14s.67-.22.97-.37l.56,1.31c-.28.18-.67.34-1.16.48-.49.14-1.08.2-1.77.2-.93,0-1.71-.18-2.33-.55Zm3.98-4.16c.01-.7-.14-1.2-.46-1.49s-.77-.43-1.36-.43c-1.19,0-1.88.64-2.06,1.92h3.88Z"/>
    <path class="cls-3" d="m67.68,253.38c-.58-.14-1-.31-1.25-.5l.61-1.44c.68.48,1.46.71,2.33.71s1.31-.25,1.31-.77c0-.23-.09-.4-.27-.53-.18-.12-.5-.27-.97-.44l-.65-.24c-.68-.27-1.22-.6-1.62-.98-.4-.38-.59-.88-.59-1.5,0-.71.28-1.27.84-1.67.56-.4,1.31-.6,2.25-.6.46,0,.92.05,1.37.15.45.1.79.23,1.03.39l-.66,1.46c-.15-.15-.38-.27-.71-.38-.32-.11-.68-.16-1.08-.16-.8,0-1.21.24-1.21.73,0,.27.11.48.32.62.21.14.57.3,1.05.47.04.01.22.07.53.19.72.28,1.26.61,1.61.97s.53.83.53,1.39c0,.77-.29,1.35-.88,1.75-.58.4-1.32.59-2.22.59-.54,0-1.11-.07-1.69-.21Z"/>
    <path class="cls-3" d="m75.04,247.12h-1.38v-1.5h1.38v-3.18l1.85-.41v3.59h1.8v1.5h-1.8v6.31h-1.85v-6.31Z"/>
    <path class="cls-3" d="m81.56,253.04c-.62-.37-1.08-.86-1.38-1.48-.29-.62-.44-1.29-.44-2.03,0-.83.17-1.55.52-2.18.35-.62.82-1.1,1.44-1.44s1.3-.5,2.07-.5c1.2,0,2.09.33,2.68.99.58.66.88,1.6.88,2.8,0,.31-.02.62-.05.95h-5.61c.12.69.37,1.19.74,1.5.37.31.88.46,1.54.46.54,0,.99-.04,1.34-.14s.67-.22.97-.37l.56,1.31c-.28.18-.67.34-1.16.48-.49.14-1.08.2-1.77.2-.93,0-1.71-.18-2.33-.55Zm3.98-4.16c.01-.7-.14-1.2-.46-1.49s-.77-.43-1.36-.43c-1.19,0-1.88.64-2.06,1.92h3.88Z"/>
    <path class="cls-3" d="m89.19,245.62h1.84v1.53c.18-.52.48-.94.88-1.26s.87-.48,1.39-.48c.36,0,.61.03.75.1l-.25,1.85c-.1-.07-.32-.1-.66-.1-.53,0-1.02.17-1.45.51s-.65.88-.65,1.63v4.01h-1.84v-7.8Z"/>
    <path class="cls-3" d="m98.26,253.13c-.5-.31-.85-.67-1.04-1.08l-.03,1.38h-1.77v-12.5h1.8v4.81l-.08,1.33c.19-.45.57-.84,1.13-1.16.56-.32,1.17-.48,1.83-.48.77,0,1.44.17,2.01.52s1.01.83,1.32,1.44c.31.62.46,1.33.46,2.15s-.18,1.55-.54,2.16c-.36.61-.83,1.08-1.43,1.41-.59.33-1.24.49-1.95.49-.63,0-1.21-.16-1.71-.47Zm3.1-1.77c.4-.47.59-1.08.59-1.83s-.2-1.37-.59-1.84c-.39-.47-.96-.71-1.71-.71-.65,0-1.19.22-1.63.67-.44.45-.66,1.03-.66,1.76v.12c0,.49.1.92.31,1.31s.49.69.83.9c.35.22.73.32,1.15.32.74,0,1.3-.24,1.7-.71Z"/>
    <path class="cls-3" d="m105.78,245.62h1.84v1.53c.18-.52.48-.94.88-1.26s.87-.48,1.39-.48c.36,0,.61.03.75.1l-.25,1.85c-.1-.07-.32-.1-.66-.1-.53,0-1.02.17-1.45.51s-.65.88-.65,1.63v4.01h-1.84v-7.8Z"/>
    <path class="cls-3" d="m113.43,253.05c-.62-.36-1.11-.86-1.45-1.48-.34-.62-.51-1.31-.51-2.07s.17-1.43.5-2.06c.33-.62.81-1.12,1.44-1.48s1.34-.54,2.16-.54,1.53.18,2.15.54,1.09.86,1.43,1.48c.33.62.5,1.31.5,2.06s-.17,1.45-.51,2.07c-.34.62-.82,1.12-1.44,1.48-.62.36-1.33.54-2.13.54s-1.52-.18-2.14-.54Zm3.75-1.68c.38-.49.57-1.1.57-1.84s-.2-1.36-.61-1.86c-.41-.5-.95-.76-1.62-.76s-1.17.25-1.56.75c-.39.5-.59,1.12-.59,1.87s.21,1.33.63,1.83c.42.49.96.74,1.62.74s1.18-.24,1.56-.73Z"/>
    <path class="cls-3" d="m123.69,257.27c-.56-.16-.96-.31-1.2-.44l.41-1.7c.75.49,1.56.73,2.45.73.68,0,1.25-.16,1.72-.49s.7-.97.71-1.92v-1.39c-.24.44-.62.81-1.16,1.1-.53.29-1.12.44-1.77.44-.68,0-1.3-.17-1.87-.5s-1.01-.81-1.34-1.44c-.33-.62-.49-1.35-.49-2.18s.16-1.5.47-2.12.76-1.1,1.33-1.44c.58-.34,1.25-.51,2.02-.51.45,0,.88.08,1.28.24.4.16.73.35,1.01.59.28.23.46.46.55.69l.03-1.31h1.73v7.75c0,1.33-.34,2.35-1.02,3.06-.68.71-1.73,1.07-3.16,1.07-.58,0-1.15-.08-1.71-.24Zm3.31-5.89c.44-.45.66-1.03.66-1.76v-.12c0-.49-.1-.92-.31-1.31s-.48-.69-.83-.9c-.35-.21-.74-.32-1.16-.32-.72,0-1.29.24-1.68.71s-.59,1.08-.59,1.83.2,1.37.59,1.84c.39.47.96.71,1.69.71.65,0,1.19-.22,1.63-.67Z"/>
    <path class="cls-3" d="m133.43,253.09c-.59-.33-1.07-.81-1.43-1.43-.36-.62-.54-1.34-.54-2.17s.16-1.53.47-2.14c.31-.61.76-1.09,1.33-1.43.58-.34,1.26-.51,2.04-.51.45,0,.88.08,1.28.24s.73.35,1,.59c.27.23.45.46.54.69l.03-1.31h1.75v7.8h-1.73l-.03-1.38c-.19.41-.54.77-1.05,1.08s-1.08.47-1.72.47c-.7,0-1.35-.17-1.95-.5Zm3.88-1.7c.44-.45.66-1.03.66-1.76v-.12c0-.49-.1-.92-.31-1.31-.2-.38-.48-.69-.83-.9-.35-.21-.74-.32-1.16-.32-.72,0-1.29.24-1.68.71s-.59,1.08-.59,1.83.2,1.37.59,1.84c.39.47.96.71,1.69.71.65,0,1.19-.22,1.63-.67Z"/>
    <path class="cls-3" d="m143.88,253.09c-.59-.33-1.07-.81-1.43-1.43s-.54-1.34-.54-2.17c0-1.24.35-2.22,1.04-2.97.69-.74,1.63-1.11,2.8-1.11.66,0,1.26.16,1.8.48.54.32.91.71,1.11,1.16l-.08-1.33v-4.81h1.8v12.5h-1.75l-.03-1.38c-.19.41-.54.77-1.05,1.08s-1.08.47-1.72.47c-.7,0-1.35-.17-1.95-.5Zm3.88-1.72c.44-.45.66-1.03.66-1.76v-.12c0-.49-.1-.92-.31-1.31s-.48-.69-.83-.9c-.35-.21-.74-.32-1.16-.32-.73,0-1.29.24-1.68.71-.4.47-.59,1.08-.59,1.83s.2,1.37.59,1.84c.39.47.95.71,1.69.71.65,0,1.19-.22,1.63-.67Z"/>
    <path class="cls-3" d="m154.18,253.04c-.62-.37-1.08-.86-1.38-1.48-.29-.62-.44-1.29-.44-2.03,0-.83.17-1.55.52-2.18.35-.62.82-1.1,1.44-1.44s1.3-.5,2.07-.5c1.2,0,2.09.33,2.68.99.58.66.88,1.6.88,2.8,0,.31-.02.62-.05.95h-5.61c.12.69.37,1.19.74,1.5.37.31.88.46,1.54.46.54,0,.99-.04,1.34-.14s.67-.22.97-.37l.56,1.31c-.28.18-.67.34-1.16.48-.49.14-1.08.2-1.77.2-.93,0-1.71-.18-2.33-.55Zm3.98-4.16c.01-.7-.14-1.2-.46-1.49s-.77-.43-1.36-.43c-1.19,0-1.88.64-2.06,1.92h3.88Z"/>
    <path class="cls-3" d="m167.01,241.12l1.92-.54v12.85h-1.92v-12.31Z"/>
    <path class="cls-3" d="m173.17,251.88c-.74-1.2-1.11-2.77-1.11-4.69s.36-3.56,1.07-4.72c.71-1.16,1.88-1.74,3.48-1.74,3.03,0,4.54,2.15,4.54,6.46,0,1.96-.37,3.53-1.1,4.72-.74,1.18-1.88,1.78-3.43,1.78s-2.71-.6-3.45-1.8Zm5.38-1.27c.36-.89.54-2.03.54-3.43,0-1.46-.18-2.62-.53-3.47s-1-1.27-1.94-1.27-1.59.42-1.95,1.27c-.36.85-.54,2.01-.54,3.47,0,3.17.83,4.76,2.48,4.76.93,0,1.57-.44,1.93-1.33Z"/>
    <path class="cls-3" d="m184.3,241.12l1.92-.54v12.85h-1.92v-12.31Z"/>
    <path class="cls-3" d="m190,253.25c-.24-.23-.36-.52-.36-.86s.12-.64.35-.88c.23-.23.52-.35.88-.35s.64.12.88.35c.23.23.35.52.35.88s-.12.63-.35.86c-.23.23-.52.35-.88.35s-.63-.12-.87-.35Z"/>
  </g>
  <g>
    <path class="cls-3" d="m52.47,299.97c.53-.71.98-1.38,1.33-1.99.36-.61.54-1.18.54-1.7,0-.63-.17-1.12-.5-1.45s-.84-.5-1.5-.5c-.61,0-1.1.17-1.48.51s-.69.75-.94,1.24l-1.58-.85c.4-.76.92-1.4,1.56-1.92s1.47-.78,2.48-.78c1.26,0,2.22.33,2.89.98.67.65,1,1.5,1,2.56,0,1.37-.68,2.89-2.04,4.56l-2.31,2.92h4.85v1.68h-8.5l4.2-5.25Z"/>
    <path class="cls-3" d="m60.1,303.68c-.74-1.2-1.1-2.77-1.1-4.69s.36-3.56,1.07-4.72c.71-1.16,1.88-1.74,3.48-1.74,3.03,0,4.54,2.15,4.54,6.46,0,1.96-.37,3.53-1.1,4.72s-1.88,1.78-3.43,1.78-2.71-.6-3.45-1.8Zm5.38-1.27c.36-.89.54-2.03.54-3.43s-.18-2.62-.53-3.47c-.35-.85-1-1.28-1.94-1.28s-1.59.43-1.95,1.28-.54,2.01-.54,3.47c0,3.17.83,4.76,2.48,4.76.93,0,1.57-.45,1.93-1.33Z"/>
    <path class="cls-3" d="m74.45,299.97c.53-.71.98-1.38,1.33-1.99.36-.61.54-1.18.54-1.7,0-.63-.17-1.12-.5-1.45s-.84-.5-1.5-.5c-.61,0-1.1.17-1.48.51s-.69.75-.94,1.24l-1.58-.85c.4-.76.92-1.4,1.56-1.92s1.47-.78,2.48-.78c1.26,0,2.22.33,2.89.98.67.65,1,1.5,1,2.56,0,1.37-.68,2.89-2.04,4.56l-2.31,2.92h4.85v1.68h-8.5l4.2-5.25Z"/>
    <path class="cls-3" d="m82.08,303.68c-.74-1.2-1.1-2.77-1.1-4.69s.36-3.56,1.07-4.72c.71-1.16,1.88-1.74,3.48-1.74,3.03,0,4.54,2.15,4.54,6.46,0,1.96-.37,3.53-1.1,4.72s-1.88,1.78-3.43,1.78-2.71-.6-3.45-1.8Zm5.38-1.27c.36-.89.54-2.03.54-3.43s-.18-2.62-.53-3.47c-.35-.85-1-1.28-1.94-1.28s-1.59.43-1.95,1.28-.54,2.01-.54,3.47c0,3.17.83,4.76,2.48,4.76.93,0,1.57-.45,1.93-1.33Z"/>
    <path class="cls-3" d="m96.4,297.42h1.8l.02,1.43c.22-.48.56-.87,1.02-1.17s1.01-.46,1.63-.46c.8,0,1.42.17,1.85.5.43.33.72.8.87,1.4.15.6.22,1.38.22,2.35v3.76h-1.84v-3.71c0-.99-.1-1.7-.29-2.13-.19-.44-.59-.65-1.19-.65-.34,0-.69.11-1.04.31-.35.21-.64.51-.88.91-.23.4-.35.86-.35,1.39v3.88h-1.84v-7.8Z"/>
    <path class="cls-3" d="m107.67,304.85c-.62-.36-1.1-.86-1.45-1.48-.34-.62-.51-1.32-.51-2.07s.17-1.43.5-2.06c.33-.62.81-1.12,1.44-1.48.62-.36,1.34-.54,2.16-.54s1.53.18,2.15.54c.62.36,1.09.86,1.43,1.48.33.62.5,1.31.5,2.06s-.17,1.45-.51,2.07c-.34.62-.82,1.12-1.44,1.48-.62.36-1.33.54-2.13.54s-1.52-.18-2.14-.54Zm3.75-1.68c.38-.49.57-1.1.57-1.84s-.2-1.36-.61-1.86c-.41-.5-.95-.76-1.62-.76s-1.16.25-1.56.75c-.39.5-.59,1.12-.59,1.87s.21,1.33.63,1.83c.42.49.96.74,1.62.74s1.18-.24,1.56-.73Z"/>
    <path class="cls-3" d="m114.6,297.42h2.09l1.68,3.52.54,1.41.54-1.41,1.67-3.52h2.04l-4.1,7.8h-.36l-4.11-7.8Z"/>
    <path class="cls-3" d="m125.5,304.84c-.62-.37-1.08-.86-1.38-1.48-.29-.62-.44-1.29-.44-2.03,0-.83.17-1.55.52-2.18.35-.62.82-1.1,1.44-1.44.61-.33,1.3-.5,2.07-.5,1.2,0,2.09.33,2.68.99.58.66.88,1.6.88,2.8,0,.31-.02.62-.05.95h-5.61c.12.69.37,1.19.74,1.5.37.31.88.46,1.54.46.54,0,.99-.05,1.34-.14.35-.09.67-.21.97-.37l.56,1.31c-.28.18-.67.34-1.16.48s-1.08.2-1.77.2c-.93,0-1.71-.18-2.33-.55Zm3.98-4.16c.01-.7-.14-1.2-.46-1.49s-.77-.43-1.36-.43c-1.19,0-1.88.64-2.06,1.92h3.88Z"/>
    <path class="cls-3" d="m133.18,297.42h1.84v1.41c.25-.53.61-.94,1.1-1.21.48-.27,1.03-.41,1.66-.41,1.39.01,2.25.49,2.57,1.45.25-.44.62-.79,1.12-1.05s1.03-.39,1.58-.39c.82,0,1.43.16,1.85.47.42.31.7.75.84,1.33.14.57.21,1.34.21,2.3v3.91h-1.85v-3.93c0-.92-.09-1.58-.28-1.97-.19-.4-.55-.59-1.08-.59-.71,0-1.26.24-1.62.72-.37.48-.55,1.11-.55,1.9v3.88h-1.84v-4.2c0-.6-.02-1.05-.07-1.34-.05-.29-.17-.53-.37-.7s-.53-.25-.99-.25c-.4,0-.77.12-1.11.36-.35.24-.62.56-.83.96-.21.4-.31.84-.31,1.3v3.88h-1.85v-7.8Z"/>
    <path class="cls-3" d="m151.21,304.93c-.5-.31-.85-.67-1.05-1.08l-.03,1.38h-1.77v-12.5h1.8v4.81l-.08,1.33c.19-.45.57-.84,1.13-1.16s1.17-.48,1.83-.48c.77,0,1.44.17,2.01.52s1.01.83,1.32,1.44c.31.62.46,1.33.46,2.15s-.18,1.55-.54,2.16c-.36.61-.83,1.08-1.43,1.41-.59.33-1.24.49-1.95.49-.63,0-1.2-.16-1.71-.47Zm3.1-1.77c.4-.47.59-1.08.59-1.83s-.2-1.37-.59-1.84-.96-.71-1.71-.71c-.65,0-1.19.22-1.63.67-.44.45-.66,1.03-.66,1.76v.12c0,.49.1.92.31,1.31.21.39.49.69.83.9.35.21.73.32,1.15.32.74,0,1.3-.23,1.7-.71Z"/>
    <path class="cls-3" d="m160.15,304.84c-.62-.37-1.08-.86-1.38-1.48-.29-.62-.44-1.29-.44-2.03,0-.83.17-1.55.52-2.18.35-.62.82-1.1,1.44-1.44.61-.33,1.3-.5,2.07-.5,1.2,0,2.09.33,2.68.99.58.66.88,1.6.88,2.8,0,.31-.02.62-.05.95h-5.61c.12.69.37,1.19.74,1.5.37.31.88.46,1.54.46.54,0,.99-.05,1.34-.14.35-.09.67-.21.97-.37l.56,1.31c-.28.18-.67.34-1.16.48s-1.08.2-1.77.2c-.93,0-1.71-.18-2.33-.55Zm3.98-4.16c.01-.7-.14-1.2-.46-1.49s-.77-.43-1.36-.43c-1.19,0-1.88.64-2.06,1.92h3.88Z"/>
    <path class="cls-3" d="m167.78,297.42h1.84v1.53c.18-.52.48-.94.88-1.26s.87-.48,1.39-.48c.36,0,.61.03.75.1l-.25,1.85c-.1-.07-.32-.1-.66-.1-.53,0-1.02.17-1.45.51-.44.34-.65.88-.65,1.63v4.01h-1.84v-7.8Z"/>
    <path class="cls-3" d="m174.21,299.3c-.24-.23-.36-.52-.36-.86s.12-.64.35-.88c.23-.23.52-.35.88-.35s.64.12.88.35c.23.23.35.52.35.88s-.12.63-.35.86c-.23.23-.52.35-.88.35s-.63-.12-.87-.35Zm0,5.75c-.24-.23-.36-.52-.36-.86s.12-.64.35-.88c.23-.23.52-.35.88-.35s.64.12.88.35c.23.23.35.52.35.88s-.12.63-.35.86c-.23.23-.52.35-.88.35s-.63-.12-.87-.35Z"/>
    <path class="cls-3" d="m182.91,292.73h5.86v1.65h-3.98v3.54h3.09v1.67h-3.09v5.64h-1.89v-12.5Z"/>
    <path class="cls-3" d="m190.56,292.73h1.82v12.5h-1.82v-12.5Z"/>
    <path class="cls-3" d="m197.21,305.47l-3.23-8.04h2.07l1.67,4.96.38,1.21.37-1.21,1.75-4.96h2.01l-4.79,12.09h-1.9l1.68-4.05Z"/>
    <path class="cls-3" d="m204.09,298.92h-1.38v-1.5h1.38v-3.18l1.85-.41v3.59h1.8v1.5h-1.8v6.31h-1.85v-6.31Z"/>
    <path class="cls-3" d="m209.92,298.92h-1.38v-1.5h1.38v-3.18l1.85-.41v3.59h1.8v1.5h-1.8v6.31h-1.85v-6.31Z"/>
    <path class="cls-3" d="m216.43,304.84c-.62-.37-1.08-.86-1.38-1.48-.29-.62-.44-1.29-.44-2.03,0-.83.17-1.55.52-2.18.35-.62.82-1.1,1.44-1.44.61-.33,1.3-.5,2.07-.5,1.2,0,2.09.33,2.68.99.58.66.88,1.6.88,2.8,0,.31-.02.62-.05.95h-5.61c.12.69.37,1.19.74,1.5.37.31.88.46,1.54.46.54,0,.99-.05,1.34-.14.35-.09.67-.21.97-.37l.56,1.31c-.28.18-.67.34-1.16.48s-1.08.2-1.77.2c-.93,0-1.71-.18-2.33-.55Zm3.98-4.16c.01-.7-.14-1.2-.46-1.49s-.77-.43-1.36-.43c-1.19,0-1.88.64-2.06,1.92h3.88Z"/>
    <path class="cls-3" d="m224.07,297.42h1.84v1.53c.18-.52.48-.94.88-1.26s.87-.48,1.39-.48c.36,0,.61.03.75.1l-.25,1.85c-.1-.07-.32-.1-.66-.1-.53,0-1.02.17-1.45.51-.44.34-.65.88-.65,1.63v4.01h-1.84v-7.8Z"/>
    <path class="cls-3" d="m235.12,298.89h-1.26v-1.46h1.26v-1.68c0-1.02.25-1.81.74-2.37.49-.56,1.21-.84,2.17-.84.39,0,.82.11,1.31.32l-.36,1.73c-.08-.09-.2-.18-.37-.26-.17-.08-.34-.13-.54-.13-.76,0-1.15.49-1.16,1.48v1.75h1.84v1.46h-1.84v6.34h-1.8v-6.34Z"/>
    <path class="cls-3" d="m240.49,297.42h1.84v1.53c.18-.52.48-.94.88-1.26s.87-.48,1.39-.48c.36,0,.61.03.75.1l-.25,1.85c-.1-.07-.32-.1-.66-.1-.53,0-1.02.17-1.45.51-.44.34-.65.88-.65,1.63v4.01h-1.84v-7.8Z"/>
    <path class="cls-3" d="m248.15,304.9c-.6-.33-1.07-.81-1.43-1.43-.36-.62-.54-1.34-.54-2.17s.16-1.53.47-2.14c.31-.61.76-1.09,1.33-1.43s1.26-.51,2.04-.51c.45,0,.88.08,1.28.24.4.16.73.35,1,.59.27.23.45.46.54.69l.03-1.31h1.75v7.8h-1.73l-.03-1.38c-.19.41-.54.77-1.05,1.08s-1.08.47-1.72.47c-.7,0-1.35-.17-1.95-.5Zm3.88-1.7c.44-.45.66-1.03.66-1.76v-.12c0-.49-.1-.92-.31-1.31-.2-.39-.48-.69-.83-.9-.35-.21-.74-.32-1.16-.32-.73,0-1.29.24-1.68.71-.4.47-.6,1.08-.6,1.83s.2,1.37.59,1.84.96.71,1.69.71c.65,0,1.19-.22,1.63-.67Z"/>
    <path class="cls-3" d="m259.78,292.73h2.16l3.74,8.58,3.76-8.58h2.14l-5.76,12.5h-.25l-5.78-12.5Z"/>
    <path class="cls-3" d="m272.85,304.84c-.62-.37-1.08-.86-1.38-1.48-.29-.62-.44-1.29-.44-2.03,0-.83.17-1.55.52-2.18.35-.62.82-1.1,1.44-1.44.61-.33,1.3-.5,2.07-.5,1.2,0,2.09.33,2.68.99.58.66.88,1.6.88,2.8,0,.31-.02.62-.05.95h-5.61c.12.69.37,1.19.74,1.5.37.31.88.46,1.54.46.54,0,.99-.05,1.34-.14.35-.09.67-.21.97-.37l.56,1.31c-.28.18-.67.34-1.16.48s-1.08.2-1.77.2c-.93,0-1.71-.18-2.33-.55Zm3.98-4.16c.01-.7-.14-1.2-.46-1.49s-.77-.43-1.36-.43c-1.19,0-1.88.64-2.06,1.92h3.88Z"/>
    <path class="cls-3" d="m281.53,305.18c-.58-.14-1-.31-1.25-.5l.61-1.45c.68.48,1.46.71,2.33.71s1.31-.25,1.31-.76c0-.23-.09-.4-.27-.53-.18-.12-.5-.27-.97-.44l-.65-.24c-.68-.27-1.22-.6-1.62-.98-.4-.38-.59-.88-.59-1.5,0-.71.28-1.27.84-1.67.56-.4,1.31-.6,2.25-.6.46,0,.92.05,1.37.15.45.1.79.23,1.03.39l-.66,1.46c-.15-.15-.38-.27-.71-.38-.32-.11-.68-.16-1.08-.16-.81,0-1.21.24-1.21.73,0,.27.11.48.32.62.22.14.57.3,1.05.47.04.01.22.07.53.19.73.28,1.26.61,1.62.97.35.36.53.83.53,1.39,0,.77-.29,1.35-.88,1.75s-1.32.59-2.22.59c-.54,0-1.11-.07-1.69-.21Z"/>
    <path class="cls-3" d="m288.9,298.92h-1.38v-1.5h1.38v-3.18l1.85-.41v3.59h1.8v1.5h-1.8v6.31h-1.85v-6.31Z"/>
    <path class="cls-3" d="m295.41,304.84c-.62-.37-1.08-.86-1.38-1.48-.29-.62-.44-1.29-.44-2.03,0-.83.17-1.55.52-2.18.35-.62.82-1.1,1.44-1.44.61-.33,1.3-.5,2.07-.5,1.2,0,2.09.33,2.68.99.58.66.88,1.6.88,2.8,0,.31-.02.62-.05.95h-5.61c.12.69.37,1.19.74,1.5.37.31.88.46,1.54.46.54,0,.99-.05,1.34-.14.35-.09.67-.21.97-.37l.56,1.31c-.28.18-.67.34-1.16.48s-1.08.2-1.77.2c-.93,0-1.71-.18-2.33-.55Zm3.98-4.16c.01-.7-.14-1.2-.46-1.49s-.77-.43-1.36-.43c-1.19,0-1.88.64-2.06,1.92h3.88Z"/>
    <path class="cls-3" d="m303.05,297.42h1.84v1.53c.18-.52.48-.94.88-1.26s.87-.48,1.39-.48c.36,0,.61.03.75.1l-.25,1.85c-.1-.07-.32-.1-.66-.1-.53,0-1.02.17-1.45.51-.44.34-.65.88-.65,1.63v4.01h-1.84v-7.8Z"/>
    <path class="cls-3" d="m312.11,304.93c-.5-.31-.85-.67-1.04-1.08l-.03,1.38h-1.77v-12.5h1.8v4.81l-.08,1.33c.19-.45.57-.84,1.13-1.16.56-.32,1.17-.48,1.83-.48.77,0,1.44.17,2.01.52.57.35,1.01.83,1.32,1.44.31.62.46,1.33.46,2.15s-.18,1.55-.54,2.16c-.36.61-.83,1.08-1.43,1.41-.59.33-1.24.49-1.95.49-.63,0-1.2-.16-1.71-.47Zm3.1-1.77c.4-.47.6-1.08.6-1.83s-.2-1.37-.59-1.84-.96-.71-1.71-.71c-.65,0-1.19.22-1.63.67-.44.45-.66,1.03-.66,1.76v.12c0,.49.1.92.31,1.31.21.39.49.69.83.9.34.21.73.32,1.15.32.74,0,1.3-.23,1.7-.71Z"/>
    <path class="cls-3" d="m319.64,297.42h1.84v1.53c.18-.52.48-.94.88-1.26s.87-.48,1.39-.48c.36,0,.61.03.75.1l-.25,1.85c-.1-.07-.32-.1-.66-.1-.53,0-1.02.17-1.45.51-.44.34-.65.88-.65,1.63v4.01h-1.84v-7.8Z"/>
    <path class="cls-3" d="m327.29,304.85c-.62-.36-1.11-.86-1.45-1.48-.34-.62-.51-1.32-.51-2.07s.17-1.43.5-2.06c.33-.62.81-1.12,1.44-1.48.62-.36,1.34-.54,2.16-.54s1.53.18,2.15.54c.62.36,1.09.86,1.43,1.48.33.62.5,1.31.5,2.06s-.17,1.45-.51,2.07c-.34.62-.82,1.12-1.44,1.48-.62.36-1.33.54-2.13.54s-1.52-.18-2.14-.54Zm3.75-1.68c.38-.49.57-1.1.57-1.84s-.2-1.36-.61-1.86c-.41-.5-.95-.76-1.62-.76s-1.16.25-1.56.75c-.39.5-.59,1.12-.59,1.87s.21,1.33.63,1.83c.42.49.96.74,1.62.74s1.17-.24,1.55-.73Z"/>
    <path class="cls-3" d="m340.31,298.92h-1.38v-1.5h1.38v-3.18l1.85-.41v3.59h1.8v1.5h-1.8v6.31h-1.85v-6.31Z"/>
    <path class="cls-3" d="m345.65,295.61c-.24-.24-.36-.53-.36-.88,0-.32.12-.59.36-.82.24-.23.53-.34.88-.34s.63.11.87.34c.24.23.36.5.36.82,0,.35-.12.65-.35.88s-.52.36-.88.36-.65-.12-.88-.36Zm-.05,1.82h1.9v7.8h-1.9v-7.8Z"/>
    <path class="cls-3" d="m350.2,292.73h1.82v12.5h-1.82v-12.5Z"/>
    <path class="cls-3" d="m49.24,325.44c-.67-.24-1.15-.5-1.44-.8l.9-1.61c.24.21.61.44,1.11.67.5.23.99.35,1.45.35.6,0,1.09-.14,1.47-.42s.57-.67.57-1.17c0-.39-.1-.72-.31-1s-.45-.52-.75-.71c-.29-.19-.71-.42-1.26-.69-.65-.32-1.09-.55-1.33-.71-1.1-.74-1.65-1.76-1.65-3.06,0-1.08.36-1.9,1.07-2.47s1.62-.86,2.7-.86c1.17,0,2.16.33,2.98,1l-.9,1.55c-.22-.23-.52-.42-.91-.59-.39-.16-.81-.25-1.25-.25-.57,0-1.01.13-1.33.38-.32.25-.48.63-.48,1.13,0,.35.1.67.31.94.2.28.46.52.77.72s.73.45,1.27.75c.51.28.9.51,1.17.67s.53.36.77.59c.33.29.6.65.8,1.05.2.41.31.86.31,1.34,0,.76-.17,1.41-.52,1.94-.35.53-.82.94-1.43,1.21-.61.27-1.29.41-2.07.41-.68,0-1.35-.12-2.02-.36Z"/>
    <path class="cls-3" d="m57.88,319.32h-1.38v-1.5h1.38v-3.18l1.85-.41v3.59h1.8v1.5h-1.8v6.31h-1.85v-6.31Z"/>
    <path class="cls-3" d="m63.51,324.85c-.4-.63-.6-1.52-.6-2.65v-4.37h1.84v3.91c0,.65.04,1.15.11,1.5.07.36.22.62.44.79.22.17.55.25.99.25.32,0,.62-.09.92-.27.29-.18.54-.43.72-.74s.28-.65.28-1.03v-4.42h1.82v7.8h-1.5l-.2-1.14c-.28.44-.64.77-1.06.99-.43.22-.94.32-1.54.32-1.08,0-1.82-.32-2.22-.95Z"/>
    <path class="cls-3" d="m73.98,325.3c-.59-.33-1.07-.81-1.43-1.43-.36-.62-.54-1.34-.54-2.17,0-1.24.35-2.22,1.04-2.97.69-.74,1.63-1.11,2.8-1.11.66,0,1.26.16,1.8.48s.91.71,1.1,1.16l-.08-1.33v-4.81h1.8v12.5h-1.75l-.03-1.38c-.19.41-.54.77-1.05,1.08s-1.08.47-1.72.47c-.7,0-1.35-.17-1.95-.5Zm3.88-1.72c.44-.45.66-1.03.66-1.76v-.12c0-.49-.1-.92-.31-1.31-.2-.38-.48-.69-.83-.9-.35-.22-.74-.32-1.16-.32-.73,0-1.29.24-1.68.71-.4.47-.59,1.08-.59,1.83s.2,1.37.59,1.84c.39.47.95.71,1.69.71.65,0,1.19-.22,1.63-.67Z"/>
    <path class="cls-3" d="m83.1,316.01c-.24-.24-.36-.53-.36-.88,0-.32.12-.59.36-.82.24-.23.53-.34.88-.34s.63.11.87.34c.24.23.36.5.36.82,0,.35-.12.65-.35.88s-.52.36-.88.36-.65-.12-.88-.36Zm-.05,1.82h1.9v7.8h-1.9v-7.8Z"/>
    <path class="cls-3" d="m88.87,325.25c-.62-.37-1.08-.86-1.38-1.48-.29-.62-.44-1.29-.44-2.03,0-.83.17-1.55.52-2.18.35-.62.82-1.1,1.44-1.44.61-.33,1.3-.5,2.07-.5,1.2,0,2.09.33,2.68.99.58.66.88,1.6.88,2.8,0,.31-.02.62-.05.95h-5.61c.12.69.37,1.19.74,1.5.37.31.88.46,1.54.46.54,0,.99-.05,1.34-.14.35-.09.67-.21.97-.37l.56,1.31c-.28.18-.67.34-1.16.48s-1.08.2-1.77.2c-.93,0-1.71-.18-2.33-.55Zm3.98-4.16c.01-.7-.14-1.2-.46-1.49s-.77-.43-1.36-.43c-1.19,0-1.88.64-2.06,1.92h3.88Z"/>
    <path class="cls-3" d="m97.54,325.58c-.58-.14-1-.31-1.25-.5l.61-1.45c.68.48,1.46.71,2.33.71s1.31-.25,1.31-.76c0-.23-.09-.4-.27-.53-.18-.12-.5-.27-.97-.44l-.65-.24c-.68-.27-1.22-.6-1.61-.98-.4-.38-.6-.88-.6-1.5,0-.71.28-1.27.84-1.67.56-.4,1.31-.6,2.25-.6.46,0,.92.05,1.37.15.45.1.79.23,1.03.39l-.66,1.46c-.15-.15-.38-.27-.71-.38-.32-.11-.68-.16-1.08-.16-.8,0-1.21.24-1.21.73,0,.27.11.48.32.62.21.14.57.3,1.05.47.05.01.22.07.53.19.73.28,1.26.61,1.61.97.35.36.53.83.53,1.39,0,.77-.29,1.35-.88,1.75-.58.4-1.32.59-2.22.59-.54,0-1.11-.07-1.69-.21Z"/>
    <path class="cls-3" d="m104.91,319.32h-1.38v-1.5h1.38v-3.18l1.85-.41v3.59h1.8v1.5h-1.8v6.31h-1.85v-6.31Z"/>
    <path class="cls-3" d="m110.01,317.83h1.84v1.53c.18-.52.48-.94.88-1.26s.87-.48,1.39-.48c.36,0,.61.03.75.1l-.25,1.85c-.1-.07-.32-.1-.66-.1-.53,0-1.02.17-1.45.51-.44.34-.65.88-.65,1.63v4.01h-1.84v-7.8Z"/>
    <path class="cls-3" d="m129.41,322.36h-5.61c.12.69.37,1.19.74,1.5.37.31.88.46,1.54.46.54,0,.99-.05,1.34-.14.35-.09.67-.21.97-.37l.56,1.31c-.28.18-.67.34-1.16.48s-1.08.2-1.77.2c-1.13,0-1.99-.55-2.57-1.65v1.48h-1.22l-.34-2.09c-.12.68-.42,1.23-.9,1.64-.48.41-1.05.62-1.72.62s-1.31-.16-1.85-.49c-.54-.33-.97-.8-1.27-1.42-.3-.62-.45-1.35-.45-2.18s.15-1.52.45-2.13c.3-.62.72-1.1,1.25-1.44.53-.34,1.13-.51,1.8-.51s1.26.18,1.74.54c.48.36.84.83,1.08,1.41l.03-1.75h1.39v1.16c.29-.44.66-.78,1.09-1.01s.88-.35,1.36-.35c1.2,0,2.09.33,2.68.99.58.66.88,1.6.88,2.8,0,.31-.02.62-.05.95Zm-7.53-.95c0-.65-.22-1.18-.67-1.6-.45-.42-.99-.63-1.62-.63s-1.13.23-1.45.7c-.32.46-.48,1.08-.48,1.84s.16,1.39.48,1.85c.32.46.81.7,1.45.7.41,0,.79-.12,1.14-.37.35-.25.63-.58.84-1s.31-.87.31-1.36v-.12Zm5.34-1.81c-.32-.29-.77-.43-1.36-.43-1.19,0-1.88.64-2.06,1.92h3.88c.01-.7-.14-1.2-.46-1.49Z"/>
    <path class="cls-3" d="m132.89,325.3c-.59-.33-1.07-.81-1.43-1.43-.36-.62-.54-1.34-.54-2.17,0-1.24.35-2.22,1.04-2.97.69-.74,1.63-1.11,2.8-1.11.66,0,1.26.16,1.8.48s.91.71,1.1,1.16l-.08-1.33v-4.81h1.8v12.5h-1.75l-.03-1.38c-.19.41-.54.77-1.05,1.08s-1.08.47-1.72.47c-.7,0-1.35-.17-1.95-.5Zm3.88-1.72c.44-.45.66-1.03.66-1.76v-.12c0-.49-.1-.92-.31-1.31-.2-.38-.48-.69-.83-.9-.35-.22-.74-.32-1.16-.32-.73,0-1.29.24-1.68.71-.4.47-.59,1.08-.59,1.83s.2,1.37.59,1.84c.39.47.95.71,1.69.71.65,0,1.19-.22,1.63-.67Z"/>
    <path class="cls-3" d="m143.18,325.25c-.62-.37-1.08-.86-1.38-1.48-.29-.62-.44-1.29-.44-2.03,0-.83.17-1.55.52-2.18.35-.62.82-1.1,1.44-1.44.61-.33,1.3-.5,2.07-.5,1.2,0,2.09.33,2.68.99.58.66.88,1.6.88,2.8,0,.31-.02.62-.05.95h-5.61c.12.69.37,1.19.74,1.5.37.31.88.46,1.54.46.54,0,.99-.05,1.34-.14.35-.09.67-.21.97-.37l.56,1.31c-.28.18-.67.34-1.16.48s-1.08.2-1.77.2c-.93,0-1.71-.18-2.33-.55Zm3.98-4.16c.01-.7-.14-1.2-.46-1.49s-.77-.43-1.36-.43c-1.19,0-1.88.64-2.06,1.92h3.88Z"/>
    <path class="cls-3" d="m159.23,320.38c.53-.71.98-1.38,1.33-1.99.36-.61.54-1.18.54-1.7,0-.63-.17-1.12-.5-1.45s-.84-.5-1.5-.5c-.61,0-1.1.17-1.48.51s-.69.75-.94,1.24l-1.58-.85c.4-.76.92-1.4,1.56-1.92s1.47-.78,2.48-.78c1.26,0,2.22.33,2.89.98.67.65,1,1.5,1,2.56,0,1.37-.68,2.89-2.04,4.56l-2.31,2.92h4.85v1.68h-8.5l4.2-5.25Z"/>
    <path class="cls-3" d="m171.28,322.5h-5.71l3.59-9.79,1.77.66-2.7,7.34h3.06l.1-2.84h1.89v2.84h1.73v1.79h-1.73v3.13h-1.99v-3.13Z"/>
    <path class="cls-3" d="m184.3,320.04l-1.02,1.26v4.33h-1.87v-12.5h1.87v5.58l4.28-5.58h2.28l-4.3,5.49,4.91,7h-2.33l-3.82-5.59Z"/>
    <path class="cls-3" d="m198.68,319.68c.32.61.48,1.29.48,2.02s-.17,1.45-.51,2.07c-.34.62-.82,1.12-1.44,1.48-.62.36-1.33.54-2.13.54-.36,0-.74-.04-1.12-.14l-.83,1.84-.97-.44.82-1.79c-.62-.35-1.11-.84-1.46-1.47s-.53-1.33-.53-2.1.17-1.43.5-2.06c.33-.62.81-1.12,1.44-1.48.62-.36,1.34-.54,2.16-.54.41,0,.84.06,1.29.17l.83-1.84.95.44-.83,1.82c.58.36,1.03.85,1.35,1.46Zm-5.58,3.17c.13.35.33.64.58.88l2.04-4.5c-.2-.07-.43-.1-.68-.1-.65,0-1.16.25-1.56.75s-.59,1.12-.59,1.87c0,.4.07.77.21,1.11Zm3.59.72c.38-.49.57-1.1.57-1.84,0-.37-.06-.73-.17-1.05-.11-.33-.27-.61-.48-.85l-2.01,4.4c.15.04.32.07.53.07.66,0,1.18-.24,1.56-.73Z"/>
    <path class="cls-3" d="m204.1,325.33c-.5-.31-.85-.67-1.05-1.08l-.03,1.38h-1.77v-12.5h1.8v4.81l-.08,1.33c.19-.45.57-.84,1.13-1.16s1.17-.48,1.83-.48c.77,0,1.44.17,2.02.52.57.35,1.01.83,1.32,1.44.31.62.46,1.33.46,2.15s-.18,1.55-.54,2.16c-.36.61-.83,1.08-1.43,1.41-.6.33-1.24.49-1.95.49-.63,0-1.2-.16-1.71-.47Zm3.1-1.77c.4-.47.6-1.08.6-1.83s-.2-1.37-.59-1.84-.96-.71-1.71-.71c-.65,0-1.19.22-1.63.67-.44.45-.66,1.03-.66,1.76v.12c0,.49.1.92.31,1.31.21.39.49.69.83.9.35.21.73.32,1.15.32.74,0,1.3-.23,1.7-.71Z"/>
    <path class="cls-3" d="m213.03,325.25c-.62-.37-1.08-.86-1.38-1.48-.29-.62-.44-1.29-.44-2.03,0-.83.17-1.55.52-2.18.35-.62.82-1.1,1.44-1.44.61-.33,1.3-.5,2.07-.5,1.2,0,2.09.33,2.68.99.58.66.88,1.6.88,2.8,0,.31-.02.62-.05.95h-5.61c.12.69.37,1.19.74,1.5.37.31.88.46,1.54.46.54,0,.99-.05,1.34-.14.35-.09.67-.21.97-.37l.56,1.31c-.28.18-.67.34-1.16.48s-1.08.2-1.77.2c-.93,0-1.71-.18-2.33-.55Zm3.98-4.16c.01-.7-.14-1.2-.46-1.49s-.77-.43-1.36-.43c-1.19,0-1.88.64-2.06,1.92h3.88Z"/>
    <path class="cls-3" d="m220.72,317.83h1.8l.02,1.43c.21-.48.55-.87,1.02-1.17s1.01-.46,1.63-.46c.8,0,1.42.17,1.85.5.43.33.72.8.87,1.4.15.6.22,1.38.22,2.35v3.76h-1.84v-3.71c0-.99-.1-1.7-.29-2.13-.19-.44-.59-.65-1.19-.65-.34,0-.69.11-1.04.31-.35.21-.64.51-.88.91-.23.4-.35.86-.35,1.39v3.88h-1.84v-7.8Z"/>
    <path class="cls-3" d="m230.58,313.13h1.79v4.69l-.07,1.44c.22-.48.56-.87,1.04-1.18.48-.31,1.03-.47,1.67-.47.8,0,1.42.17,1.85.5.43.33.72.8.87,1.4s.22,1.38.22,2.35v3.76h-1.82v-3.77c0-.66-.04-1.17-.11-1.55-.07-.37-.22-.66-.44-.85-.22-.19-.54-.29-.96-.29-.34,0-.68.1-1.03.31-.35.2-.63.5-.86.89-.23.39-.34.85-.34,1.39v3.88h-1.8v-12.5Z"/>
    <path class="cls-3" d="m241.77,325.3c-.6-.33-1.07-.81-1.43-1.43-.36-.62-.54-1.34-.54-2.17s.16-1.53.47-2.14c.31-.61.76-1.09,1.33-1.43s1.26-.51,2.04-.51c.45,0,.88.08,1.28.24.4.16.73.35,1,.59.27.23.45.46.54.69l.03-1.31h1.75v7.8h-1.73l-.03-1.38c-.19.41-.54.77-1.05,1.08s-1.08.47-1.72.47c-.7,0-1.35-.17-1.95-.5Zm3.88-1.7c.44-.45.66-1.03.66-1.76v-.12c0-.49-.1-.92-.31-1.31-.2-.39-.48-.69-.83-.9-.35-.21-.74-.32-1.16-.32-.73,0-1.29.24-1.68.71-.4.47-.6,1.08-.6,1.83s.2,1.37.59,1.84.96.71,1.69.71c.65,0,1.19-.22,1.63-.67Z"/>
    <path class="cls-3" d="m249.48,317.83h2.09l1.68,3.52.54,1.41.54-1.41,1.67-3.52h2.04l-4.1,7.8h-.36l-4.11-7.8Z"/>
    <path class="cls-3" d="m259.22,317.83h1.8l.02,1.43c.21-.48.55-.87,1.02-1.17s1.01-.46,1.63-.46c.8,0,1.42.17,1.85.5.43.33.72.8.87,1.4.15.6.22,1.38.22,2.35v3.76h-1.84v-3.71c0-.99-.1-1.7-.29-2.13-.19-.44-.59-.65-1.19-.65-.34,0-.69.11-1.04.31-.35.21-.64.51-.88.91-.23.4-.35.86-.35,1.39v3.88h-1.84v-7.8Z"/>
    <path class="cls-3" d="m276.17,320.04l-1.02,1.26v4.33h-1.87v-12.5h1.87v5.58l4.28-5.58h2.28l-4.3,5.49,4.91,7h-2.33l-3.83-5.59Z"/>
  </g>
  <line class="cls-4" x1="5.67" y1="69.4" x2="5.67" y2="304.42"/>
  <circle class="cls-2" cx="6.06" cy="69.98" r="4.5"/>
  <circle class="cls-2" cx="6.06" cy="144.98" r="4.5"/>
  <circle class="cls-2" cx="6.06" cy="299.98" r="4.5"/>
  <circle class="cls-2" cx="6.06" cy="227.98" r="4.5"/>
</svg>