<?xml version="1.0" encoding="UTF-8"?>
<svg id="Layer_1" data-name="Layer 1" xmlns="http://www.w3.org/2000/svg" viewBox="0 0 373.17 265.1">
  <defs>
    <style>
      .cls-1 {
        fill: #fff;
      }

      .cls-2 {
        fill: #231f20;
      }
    </style>
  </defs>
  <g>
    <path class="cls-2" d="m49.85,7.6c.53-.71.98-1.38,1.33-1.99.36-.61.54-1.18.54-1.7,0-.63-.17-1.12-.5-1.45-.33-.33-.84-.5-1.5-.5-.61,0-1.1.17-1.48.51-.37.34-.69.75-.94,1.24l-1.58-.85c.4-.76.92-1.4,1.56-1.92.65-.52,1.47-.78,2.48-.78,1.26,0,2.22.33,2.89.98.67.65,1,1.5,1,2.56,0,1.37-.68,2.89-2.04,4.56l-2.31,2.92h4.85v1.68h-8.5l4.2-5.25Z"/>
    <path class="cls-2" d="m57.48,11.31c-.74-1.2-1.1-2.77-1.1-4.69s.36-3.56,1.07-4.72c.71-1.16,1.88-1.74,3.48-1.74,3.03,0,4.54,2.15,4.54,6.46,0,1.96-.37,3.53-1.1,4.72-.74,1.18-1.88,1.78-3.43,1.78s-2.71-.6-3.45-1.8Zm5.38-1.27c.36-.89.54-2.03.54-3.43,0-1.46-.18-2.62-.53-3.47-.35-.85-1-1.27-1.94-1.27s-1.59.42-1.95,1.27-.54,2.01-.54,3.47c0,3.17.83,4.76,2.48,4.76.93,0,1.57-.44,1.93-1.33Z"/>
    <path class="cls-2" d="m68.62.54l1.92-.54v12.85h-1.92V.54Z"/>
    <path class="cls-2" d="m75.71,12.82c-.63-.19-1.16-.48-1.59-.85l.87-1.6c.25.22.62.43,1.1.64.49.21,1.03.31,1.63.31.77,0,1.4-.22,1.9-.65.49-.44.74-1.03.74-1.78,0-.7-.22-1.28-.67-1.74s-1.17-.69-2.17-.69c-.51,0-1.04.05-1.6.14s-.95.2-1.17.32l.25-6.56h6.41v1.67h-4.56l-.17,2.96c.33-.09.8-.14,1.43-.14,1.31,0,2.35.34,3.1,1.03.75.69,1.13,1.63,1.13,2.83,0,.86-.18,1.63-.54,2.29-.36.67-.88,1.19-1.57,1.56s-1.51.55-2.46.55c-.75,0-1.44-.1-2.07-.29Z"/>
    <path class="cls-2" d="m85.17,6.93c-.24-.23-.36-.52-.36-.86s.12-.64.35-.88.52-.35.88-.35.64.12.88.35c.23.23.35.52.35.88s-.12.63-.35.86c-.23.23-.52.35-.88.35s-.63-.12-.87-.35Zm0,5.75c-.24-.23-.36-.52-.36-.86s.12-.64.35-.88.52-.35.88-.35.64.12.88.35c.23.23.35.52.35.88s-.12.63-.35.86-.52.35-.88.35-.63-.12-.87-.35Z"/>
    <path class="cls-2" d="m96.28,2.02h-3.2V.36h8.31v1.67h-3.23v10.83h-1.89V2.02Z"/>
    <path class="cls-2" d="m102.52.36h1.79v4.69l-.07,1.45c.22-.48.56-.87,1.04-1.18.48-.31,1.03-.47,1.67-.47.8,0,1.42.17,1.85.5s.72.8.87,1.4c.15.6.22,1.38.22,2.35v3.76h-1.82v-3.77c0-.66-.04-1.17-.11-1.55-.07-.37-.22-.66-.44-.85-.22-.19-.54-.29-.96-.29-.34,0-.68.1-1.03.31-.35.2-.63.5-.86.89-.23.39-.34.85-.34,1.39v3.88h-1.8V.36Z"/>
    <path class="cls-2" d="m112.15,5.05h1.84v1.53c.18-.52.48-.94.88-1.26s.87-.48,1.39-.48c.36,0,.61.03.75.1l-.25,1.85c-.1-.07-.32-.1-.66-.1-.53,0-1.02.17-1.45.51-.44.34-.65.88-.65,1.63v4.01h-1.84v-7.8Z"/>
    <path class="cls-2" d="m118.5,3.23c-.24-.24-.36-.53-.36-.88,0-.32.12-.59.36-.82.24-.23.53-.34.88-.34s.63.11.87.34.36.5.36.82c0,.35-.12.65-.35.88-.23.24-.52.36-.88.36s-.65-.12-.88-.36Zm-.05,1.82h1.9v7.8h-1.9v-7.8Z"/>
    <path class="cls-2" d="m123.63,6.51h-1.26v-1.46h1.26v-1.68c0-1.02.25-1.81.74-2.37.49-.56,1.22-.84,2.17-.84.38,0,.82.11,1.31.32l-.36,1.73c-.08-.09-.2-.18-.37-.26-.16-.09-.34-.13-.54-.13-.76,0-1.15.49-1.16,1.48v1.75h1.84v1.46h-1.84v6.34h-1.8v-6.34Z"/>
    <path class="cls-2" d="m129.73,6.54h-1.38v-1.5h1.38V1.87l1.85-.41v3.59h1.8v1.5h-1.8v6.31h-1.85v-6.31Z"/>
    <path class="cls-2" d="m139.17.36h2.75c1.55,0,2.69.33,3.41.99s1.08,1.57,1.08,2.73c0,1.34-.39,2.36-1.17,3.08-.78.71-1.94,1.07-3.48,1.07h-.66v4.62h-1.92V.36Zm2.63,6.19c1,0,1.69-.22,2.09-.66.4-.44.6-.97.6-1.6,0-.67-.19-1.21-.58-1.63-.39-.42-1.03-.63-1.94-.63h-.88v4.52h.71Z"/>
    <path class="cls-2" d="m148.21.36h1.82v12.5h-1.82V.36Z"/>
    <path class="cls-2" d="m154.12,12.52c-.59-.33-1.07-.81-1.43-1.43-.36-.62-.54-1.34-.54-2.17s.16-1.53.47-2.14c.31-.61.76-1.09,1.33-1.43.58-.34,1.26-.51,2.04-.51.45,0,.88.08,1.28.24.4.16.73.35,1,.59.27.23.45.46.54.69l.03-1.31h1.75v7.8h-1.73l-.03-1.38c-.19.41-.54.77-1.05,1.08s-1.08.47-1.72.47c-.7,0-1.35-.17-1.95-.5Zm3.88-1.7c.44-.45.66-1.03.66-1.76v-.12c0-.49-.1-.92-.31-1.31-.2-.38-.48-.69-.83-.9-.35-.21-.74-.32-1.16-.32-.73,0-1.29.24-1.68.71-.4.47-.59,1.08-.59,1.83s.2,1.37.59,1.84.95.71,1.69.71c.65,0,1.19-.22,1.63-.67Z"/>
    <path class="cls-2" d="m163.07,5.05h1.8l.02,1.43c.22-.48.56-.87,1.02-1.17.46-.31,1.01-.46,1.63-.46.8,0,1.42.17,1.85.5s.72.8.87,1.4c.15.6.22,1.38.22,2.35v3.76h-1.84v-3.71c0-.99-.1-1.7-.29-2.13-.19-.44-.59-.65-1.19-.65-.34,0-.69.1-1.04.31-.35.21-.64.51-.88.91-.23.4-.35.86-.35,1.39v3.88h-1.84v-7.8Z"/>
    <path class="cls-2" d="m174.2,12.47c-.62-.37-1.08-.86-1.38-1.48-.29-.62-.44-1.29-.44-2.03,0-.83.17-1.55.52-2.18.35-.62.82-1.1,1.44-1.44.61-.33,1.3-.5,2.07-.5,1.2,0,2.09.33,2.68.99.58.66.88,1.6.88,2.8,0,.31-.02.62-.05.95h-5.61c.12.69.37,1.19.74,1.5.37.31.88.46,1.54.46.54,0,.99-.04,1.34-.14.35-.09.67-.22.97-.37l.56,1.31c-.28.18-.67.34-1.16.48-.49.14-1.08.2-1.77.2-.93,0-1.71-.18-2.33-.55Zm3.98-4.16c.01-.7-.14-1.2-.46-1.49s-.77-.43-1.36-.43c-1.19,0-1.88.64-2.06,1.92h3.88Z"/>
    <path class="cls-2" d="m182.57,6.54h-1.38v-1.5h1.38V1.87l1.85-.41v3.59h1.8v1.5h-1.8v6.31h-1.85v-6.31Z"/>
    <path class="cls-2" d="m192.88,12.81c-.58-.14-1-.31-1.25-.5l.61-1.44c.68.48,1.46.71,2.33.71s1.31-.25,1.31-.77c0-.23-.09-.4-.27-.53-.18-.12-.5-.27-.97-.44l-.65-.24c-.68-.27-1.22-.6-1.62-.98-.4-.38-.6-.88-.6-1.5,0-.71.28-1.27.84-1.67s1.31-.6,2.25-.6c.46,0,.92.05,1.37.15s.79.23,1.03.39l-.66,1.46c-.15-.15-.38-.27-.71-.38-.32-.11-.68-.16-1.08-.16-.8,0-1.21.24-1.21.73,0,.27.11.48.32.62.21.14.57.3,1.05.47.05.01.22.07.53.19.73.28,1.26.61,1.62.97s.53.83.53,1.39c0,.77-.29,1.35-.88,1.75-.58.4-1.32.59-2.22.59-.54,0-1.11-.07-1.69-.21Z"/>
    <path class="cls-2" d="m200.25,6.54h-1.38v-1.5h1.38V1.87l1.85-.41v3.59h1.8v1.5h-1.8v6.31h-1.85v-6.31Z"/>
    <path class="cls-2" d="m206.9,12.52c-.59-.33-1.07-.81-1.43-1.43s-.54-1.34-.54-2.17.16-1.53.47-2.14c.31-.61.76-1.09,1.33-1.43.58-.34,1.26-.51,2.04-.51.45,0,.88.08,1.28.24.4.16.73.35,1,.59.27.23.45.46.54.69l.03-1.31h1.75v7.8h-1.73l-.03-1.38c-.19.41-.54.77-1.05,1.08s-1.08.47-1.72.47c-.7,0-1.35-.17-1.95-.5Zm3.88-1.7c.44-.45.66-1.03.66-1.76v-.12c0-.49-.1-.92-.31-1.31-.2-.38-.48-.69-.83-.9-.35-.21-.74-.32-1.16-.32-.73,0-1.29.24-1.68.71s-.6,1.08-.6,1.83.2,1.37.59,1.84c.39.47.96.71,1.69.71.65,0,1.19-.22,1.63-.67Z"/>
    <path class="cls-2" d="m215.8,5.05h1.84v1.53c.18-.52.48-.94.88-1.26s.87-.48,1.39-.48c.36,0,.61.03.75.1l-.25,1.85c-.1-.07-.32-.1-.66-.1-.53,0-1.02.17-1.45.51s-.65.88-.65,1.63v4.01h-1.84v-7.8Z"/>
    <path class="cls-2" d="m222.63,6.54h-1.38v-1.5h1.38V1.87l1.85-.41v3.59h1.8v1.5h-1.8v6.31h-1.85v-6.31Z"/>
    <path class="cls-2" d="m229.15,12.47c-.62-.37-1.08-.86-1.38-1.48-.29-.62-.44-1.29-.44-2.03,0-.83.17-1.55.52-2.18.35-.62.82-1.1,1.44-1.44s1.3-.5,2.07-.5c1.2,0,2.09.33,2.68.99.58.66.88,1.6.88,2.8,0,.31-.02.62-.05.95h-5.61c.12.69.37,1.19.74,1.5s.88.46,1.54.46c.54,0,.99-.04,1.34-.14s.67-.22.97-.37l.56,1.31c-.28.18-.67.34-1.16.48-.49.14-1.08.2-1.77.2-.93,0-1.71-.18-2.33-.55Zm3.98-4.16c.01-.7-.14-1.2-.46-1.49s-.77-.43-1.36-.43c-1.19,0-1.88.64-2.06,1.92h3.88Z"/>
    <path class="cls-2" d="m236.78,5.05h1.84v1.53c.18-.52.48-.94.88-1.26s.87-.48,1.39-.48c.36,0,.61.03.75.1l-.25,1.85c-.1-.07-.32-.1-.66-.1-.53,0-1.02.17-1.45.51s-.65.88-.65,1.63v4.01h-1.84v-7.8Z"/>
    <path class="cls-2" d="m248.09,12.81c-.58-.14-1-.31-1.25-.5l.61-1.44c.68.48,1.46.71,2.33.71s1.31-.25,1.31-.77c0-.23-.09-.4-.27-.53-.18-.12-.5-.27-.97-.44l-.65-.24c-.68-.27-1.22-.6-1.62-.98-.4-.38-.59-.88-.59-1.5,0-.71.28-1.27.84-1.67.56-.4,1.31-.6,2.25-.6.46,0,.92.05,1.37.15s.79.23,1.03.39l-.66,1.46c-.15-.15-.38-.27-.71-.38-.32-.11-.68-.16-1.08-.16-.81,0-1.21.24-1.21.73,0,.27.11.48.32.62.22.14.57.3,1.05.47.04.01.22.07.53.19.73.28,1.26.61,1.62.97s.53.83.53,1.39c0,.77-.29,1.35-.88,1.75-.58.4-1.32.59-2.22.59-.54,0-1.11-.07-1.69-.21Z"/>
    <path class="cls-2" d="m256.28,12.48c-.62-.36-1.11-.86-1.45-1.48-.34-.62-.51-1.31-.51-2.07s.17-1.43.5-2.06c.33-.62.81-1.12,1.44-1.48.62-.36,1.34-.54,2.16-.54s1.53.18,2.15.54c.62.36,1.09.86,1.43,1.48.33.62.5,1.31.5,2.06s-.17,1.45-.51,2.07c-.34.62-.82,1.12-1.44,1.48-.62.36-1.33.54-2.13.54s-1.52-.18-2.14-.54Zm3.75-1.68c.38-.49.57-1.1.57-1.84s-.2-1.36-.61-1.86-.95-.76-1.62-.76-1.16.25-1.56.75c-.39.5-.59,1.12-.59,1.87s.21,1.33.63,1.83c.42.49.96.74,1.62.74s1.17-.24,1.55-.73Z"/>
    <path class="cls-2" d="m264.45,5.05h1.84v1.41c.25-.53.61-.94,1.1-1.21.48-.27,1.03-.41,1.66-.41,1.39.01,2.25.49,2.57,1.44.25-.44.62-.79,1.12-1.05.5-.26,1.03-.39,1.58-.39.82,0,1.43.16,1.85.47.42.31.7.75.84,1.33s.21,1.34.21,2.3v3.91h-1.85v-3.93c0-.92-.09-1.58-.28-1.97-.19-.4-.55-.6-1.08-.6-.71,0-1.25.24-1.62.72-.37.48-.55,1.11-.55,1.9v3.88h-1.84v-4.2c0-.6-.02-1.05-.07-1.34-.04-.29-.17-.53-.37-.7-.2-.17-.53-.26-.99-.26-.4,0-.77.12-1.11.36-.35.24-.62.56-.83.96-.21.4-.31.84-.31,1.3v3.88h-1.85v-7.8Z"/>
    <path class="cls-2" d="m50.41,28.92l-2.31,4.33h-.32l-3.28-7.8h1.97l1.68,4.54,2.23-4.54h.07l2.24,4.51,1.68-4.51h1.94l-3.26,7.8h-.32l-2.31-4.33Z"/>
    <path class="cls-2" d="m58.72,32.87c-.62-.37-1.08-.86-1.38-1.48-.29-.62-.44-1.29-.44-2.03,0-.83.17-1.55.52-2.18.35-.62.82-1.1,1.44-1.44.61-.33,1.3-.5,2.07-.5,1.2,0,2.09.33,2.68.99.58.66.88,1.6.88,2.8,0,.31-.02.62-.05.95h-5.61c.12.69.37,1.19.74,1.5.37.31.88.46,1.54.46.54,0,.99-.04,1.34-.14.35-.09.67-.22.97-.37l.56,1.31c-.28.18-.67.34-1.16.48-.49.14-1.08.2-1.77.2-.93,0-1.71-.18-2.33-.55Zm3.98-4.16c.01-.7-.14-1.2-.46-1.49s-.77-.43-1.36-.43c-1.19,0-1.88.64-2.06,1.92h3.88Z"/>
    <path class="cls-2" d="m69.32,32.95c-.5-.31-.85-.67-1.05-1.08l-.03,1.38h-1.77v-12.5h1.8v4.81l-.08,1.33c.19-.45.57-.84,1.13-1.16.56-.32,1.17-.48,1.83-.48.77,0,1.44.17,2.01.52s1.01.83,1.32,1.44c.31.62.46,1.33.46,2.15s-.18,1.55-.54,2.16c-.36.61-.83,1.08-1.43,1.41-.59.33-1.24.49-1.95.49-.63,0-1.2-.16-1.71-.47Zm3.1-1.77c.4-.47.59-1.08.59-1.83s-.2-1.37-.59-1.84-.96-.71-1.71-.71c-.65,0-1.19.22-1.63.67s-.66,1.03-.66,1.76v.12c0,.49.1.92.31,1.31.21.39.49.69.83.9.35.22.73.32,1.15.32.74,0,1.3-.24,1.7-.71Z"/>
    <path class="cls-2" d="m77.89,33.21c-.58-.14-1-.31-1.25-.5l.61-1.44c.68.48,1.46.71,2.33.71s1.31-.25,1.31-.77c0-.23-.09-.4-.27-.53-.18-.12-.5-.27-.97-.44l-.65-.24c-.68-.27-1.22-.6-1.61-.98-.4-.38-.6-.88-.6-1.5,0-.71.28-1.27.84-1.67.56-.4,1.31-.6,2.25-.6.46,0,.92.05,1.37.15s.79.23,1.03.39l-.66,1.46c-.15-.15-.38-.27-.71-.38-.32-.11-.68-.16-1.08-.16-.8,0-1.21.24-1.21.73,0,.27.11.48.32.62.21.14.57.3,1.05.47.05.01.22.07.53.19.73.28,1.26.61,1.61.97.35.36.53.83.53,1.39,0,.77-.29,1.35-.88,1.75-.58.4-1.32.59-2.22.59-.54,0-1.11-.07-1.69-.21Z"/>
    <path class="cls-2" d="m84.66,20.76h1.79v4.69l-.07,1.45c.22-.48.56-.87,1.04-1.18.48-.31,1.03-.47,1.67-.47.8,0,1.42.17,1.85.5s.72.8.87,1.4c.15.6.22,1.38.22,2.35v3.76h-1.82v-3.77c0-.66-.04-1.17-.11-1.55-.07-.37-.22-.66-.44-.85-.22-.19-.54-.29-.96-.29-.34,0-.68.1-1.03.31-.35.2-.63.5-.86.89-.23.39-.34.85-.34,1.39v3.88h-1.8v-12.5Z"/>
    <path class="cls-2" d="m95.85,32.88c-.62-.36-1.1-.86-1.45-1.48-.34-.62-.51-1.31-.51-2.07s.17-1.43.5-2.06c.33-.62.81-1.12,1.44-1.48.62-.36,1.34-.54,2.16-.54s1.53.18,2.15.54c.62.36,1.09.86,1.43,1.48.33.62.5,1.31.5,2.06s-.17,1.45-.51,2.07c-.34.62-.82,1.12-1.44,1.48s-1.33.54-2.13.54-1.52-.18-2.14-.54Zm3.75-1.68c.38-.49.57-1.1.57-1.84s-.2-1.36-.61-1.86c-.41-.5-.95-.76-1.62-.76s-1.16.25-1.56.75c-.39.5-.59,1.12-.59,1.87s.21,1.33.63,1.83c.42.49.96.74,1.62.74s1.18-.24,1.56-.73Z"/>
    <path class="cls-2" d="m104.06,25.45h1.77v1.45c.62-1.1,1.6-1.65,2.92-1.65,1.1,0,1.99.35,2.67,1.05.68.7,1.02,1.7,1.02,3.02,0,.82-.17,1.54-.5,2.16-.33.62-.79,1.1-1.36,1.45-.57.34-1.21.51-1.91.51-.66,0-1.23-.12-1.71-.35-.48-.23-.86-.56-1.13-.99l.02,5.3h-1.78v-11.93Zm5.88,5.72c.4-.47.59-1.07.59-1.81s-.2-1.39-.59-1.84c-.39-.46-.96-.69-1.71-.69-.41,0-.79.1-1.15.3s-.64.48-.85.85c-.21.37-.31.8-.31,1.28v.12c0,.49.1.92.31,1.3.21.38.49.67.84.88.35.21.74.31,1.16.31.74,0,1.3-.24,1.7-.71Z"/>
    <path class="cls-2" d="m118.6,25.45h1.77v1.45c.62-1.1,1.6-1.65,2.92-1.65,1.1,0,1.99.35,2.67,1.05.68.7,1.02,1.7,1.02,3.02,0,.82-.17,1.54-.5,2.16-.33.62-.79,1.1-1.36,1.45-.57.34-1.21.51-1.91.51-.66,0-1.23-.12-1.71-.35-.48-.23-.86-.56-1.13-.99l.02,5.3h-1.78v-11.93Zm5.88,5.72c.4-.47.59-1.07.59-1.81s-.2-1.39-.59-1.84c-.39-.46-.96-.69-1.71-.69-.41,0-.79.1-1.15.3s-.64.48-.85.85c-.21.37-.31.8-.31,1.28v.12c0,.49.1.92.31,1.3.21.38.49.67.84.88.35.21.74.31,1.16.31.74,0,1.3-.24,1.7-.71Z"/>
    <path class="cls-2" d="m130.44,32.92c-.59-.33-1.07-.81-1.43-1.43-.36-.62-.54-1.34-.54-2.17s.16-1.53.47-2.14c.31-.61.76-1.09,1.33-1.43.58-.34,1.26-.51,2.04-.51.45,0,.88.08,1.28.24.4.16.73.35,1,.59.27.23.45.46.54.69l.03-1.31h1.75v7.8h-1.73l-.03-1.38c-.19.41-.54.77-1.05,1.08s-1.08.47-1.72.47c-.7,0-1.35-.17-1.95-.5Zm1.19-8.78c-.39-.19-.7-.46-.94-.82-.23-.35-.35-.75-.35-1.21s.12-.84.35-1.2.54-.63.94-.83c.39-.2.81-.3,1.25-.3s.88.1,1.27.3.7.48.94.83c.23.36.35.76.35,1.2s-.12.84-.35,1.19c-.23.35-.54.63-.94.82-.39.2-.81.3-1.27.3s-.86-.1-1.25-.29Zm2.69,7.08c.44-.45.66-1.03.66-1.76v-.12c0-.49-.1-.92-.31-1.31-.2-.38-.48-.69-.83-.9-.35-.21-.74-.32-1.16-.32-.73,0-1.29.24-1.68.71-.4.47-.59,1.08-.59,1.83s.2,1.37.59,1.84.95.71,1.69.71c.65,0,1.19-.22,1.63-.67Zm-.73-8.33c.19-.2.29-.46.29-.77s-.1-.58-.29-.77c-.19-.2-.43-.3-.71-.3s-.5.1-.69.3c-.19.2-.28.46-.28.77s.09.58.28.77.42.3.69.3.52-.1.71-.3Z"/>
    <path class="cls-2" d="m144.91,32.87c-.62-.37-1.08-.86-1.38-1.48-.29-.62-.44-1.29-.44-2.03,0-.83.17-1.55.52-2.18.35-.62.82-1.1,1.44-1.44.61-.33,1.3-.5,2.07-.5,1.2,0,2.09.33,2.68.99.58.66.88,1.6.88,2.8,0,.31-.02.62-.05.95h-5.61c.12.69.37,1.19.74,1.5.37.31.88.46,1.54.46.54,0,.99-.04,1.34-.14.35-.09.67-.22.97-.37l.56,1.31c-.28.18-.67.34-1.16.48-.49.14-1.08.2-1.77.2-.93,0-1.71-.18-2.33-.55Zm3.98-4.16c.01-.7-.14-1.2-.46-1.49s-.77-.43-1.36-.43c-1.19,0-1.88.64-2.06,1.92h3.88Z"/>
    <path class="cls-2" d="m153.28,26.94h-1.38v-1.5h1.38v-3.18l1.85-.41v3.59h1.8v1.5h-1.8v6.31h-1.85v-6.31Z"/>
    <path class="cls-2" d="m163.59,33.21c-.58-.14-1-.31-1.25-.5l.61-1.44c.68.48,1.46.71,2.33.71s1.31-.25,1.31-.77c0-.23-.09-.4-.27-.53-.18-.12-.5-.27-.97-.44l-.65-.24c-.68-.27-1.22-.6-1.61-.98-.4-.38-.6-.88-.6-1.5,0-.71.28-1.27.84-1.67.56-.4,1.31-.6,2.25-.6.46,0,.92.05,1.37.15s.79.23,1.03.39l-.66,1.46c-.15-.15-.38-.27-.71-.38-.32-.11-.68-.16-1.08-.16-.8,0-1.21.24-1.21.73,0,.27.11.48.32.62.21.14.57.3,1.05.47.05.01.22.07.53.19.73.28,1.26.61,1.61.97.35.36.53.83.53,1.39,0,.77-.29,1.35-.88,1.75-.58.4-1.32.59-2.22.59-.54,0-1.11-.07-1.69-.21Z"/>
    <path class="cls-2" d="m170.96,26.94h-1.38v-1.5h1.38v-3.18l1.85-.41v3.59h1.8v1.5h-1.8v6.31h-1.85v-6.31Z"/>
    <path class="cls-2" d="m176.59,32.47c-.4-.63-.6-1.52-.6-2.65v-4.37h1.84v3.91c0,.65.04,1.15.11,1.5.07.36.22.62.44.79.22.17.55.26.99.26.32,0,.62-.09.92-.27.29-.18.54-.43.72-.74.19-.31.28-.65.28-1.03v-4.42h1.82v7.8h-1.5l-.2-1.14c-.28.44-.64.77-1.06.99-.43.21-.94.32-1.54.32-1.08,0-1.82-.32-2.22-.95Z"/>
    <path class="cls-2" d="m186.92,32.87c-.62-.37-1.08-.86-1.38-1.48s-.44-1.29-.44-2.03c0-.83.17-1.55.52-2.18.35-.62.82-1.1,1.44-1.44.61-.33,1.3-.5,2.07-.5,1.2,0,2.09.33,2.68.99.58.66.88,1.6.88,2.8,0,.31-.02.62-.05.95h-5.61c.12.69.37,1.19.74,1.5.37.31.88.46,1.54.46.54,0,.99-.04,1.34-.14s.67-.22.97-.37l.56,1.31c-.28.18-.67.34-1.16.48-.49.14-1.08.2-1.77.2-.93,0-1.71-.18-2.33-.55Zm3.98-4.16c.01-.7-.14-1.2-.46-1.49-.32-.29-.77-.43-1.36-.43-1.19,0-1.88.64-2.06,1.92h3.88Z"/>
    <path class="cls-2" d="m196.68,37.09c-.56-.16-.96-.31-1.2-.44l.41-1.7c.75.49,1.56.73,2.45.73.68,0,1.25-.16,1.72-.49s.7-.97.71-1.92v-1.39c-.24.44-.62.81-1.16,1.1-.53.29-1.12.44-1.77.44-.68,0-1.3-.17-1.87-.5s-1.01-.81-1.34-1.44c-.33-.62-.49-1.35-.49-2.18s.16-1.5.47-2.12.76-1.1,1.33-1.44,1.25-.51,2.02-.51c.45,0,.88.08,1.27.24.4.16.73.35,1.01.59.28.23.46.46.55.69l.03-1.31h1.73v7.75c0,1.33-.34,2.35-1.02,3.06-.68.71-1.73,1.07-3.16,1.07-.58,0-1.15-.08-1.71-.24Zm3.31-5.89c.44-.45.66-1.03.66-1.76v-.12c0-.49-.1-.92-.31-1.31-.2-.39-.48-.69-.83-.9-.35-.21-.74-.32-1.16-.32-.73,0-1.29.24-1.68.71s-.59,1.08-.59,1.83.2,1.37.59,1.84c.39.47.95.71,1.69.71.65,0,1.19-.22,1.63-.67Z"/>
    <path class="cls-2" d="m205.41,32.47c-.4-.63-.6-1.52-.6-2.65v-4.37h1.84v3.91c0,.65.04,1.15.11,1.5s.22.62.44.79c.22.17.55.26.99.26.32,0,.62-.09.92-.27.29-.18.54-.43.72-.74.19-.31.28-.65.28-1.03v-4.42h1.82v7.8h-1.5l-.2-1.14c-.28.44-.64.77-1.06.99-.42.21-.94.32-1.54.32-1.08,0-1.82-.32-2.22-.95Z"/>
    <path class="cls-2" d="m214.53,20.76h1.82v12.5h-1.82v-12.5Z"/>
    <path class="cls-2" d="m217.69,25.45h2.09l1.68,3.52.54,1.41.54-1.41,1.67-3.52h2.04l-4.1,7.8h-.36l-4.11-7.8Z"/>
    <path class="cls-2" d="m231.78,23.63c-.24-.24-.36-.53-.36-.88,0-.32.12-.59.36-.82.24-.23.53-.34.88-.34s.63.11.87.34c.24.23.36.5.36.82,0,.35-.12.65-.35.88-.23.24-.52.36-.88.36s-.65-.12-.88-.36Zm-.05,1.82h1.9v7.8h-1.9v-7.8Z"/>
    <path class="cls-2" d="m242.32,25.16l.05,1.36v6.73h-1.9v-12.51h.24l7.34,8.19-.07-1.43v-6.75h1.9v12.5h-.25l-7.31-8.09Z"/>
    <path class="cls-2" d="m253.92,32.88c-.62-.36-1.11-.86-1.45-1.48-.34-.62-.51-1.31-.51-2.07s.17-1.43.5-2.06c.33-.62.81-1.12,1.44-1.48.62-.36,1.34-.54,2.16-.54s1.53.18,2.15.54c.62.36,1.09.86,1.43,1.48.33.62.5,1.31.5,2.06s-.17,1.45-.51,2.07c-.34.62-.82,1.12-1.44,1.48-.62.36-1.33.54-2.13.54s-1.52-.18-2.14-.54Zm3.75-1.68c.38-.49.57-1.1.57-1.84s-.2-1.36-.61-1.86-.95-.76-1.62-.76-1.16.25-1.56.75c-.39.5-.59,1.12-.59,1.87s.21,1.33.63,1.83c.42.49.96.74,1.62.74s1.17-.24,1.55-.73Z"/>
    <path class="cls-2" d="m262.04,25.45h1.84v1.53c.18-.52.48-.94.88-1.26s.87-.48,1.39-.48c.36,0,.61.03.75.1l-.25,1.85c-.1-.07-.32-.1-.66-.1-.53,0-1.02.17-1.45.51s-.65.88-.65,1.63v4.01h-1.84v-7.8Z"/>
    <path class="cls-2" d="m269.7,32.92c-.6-.33-1.07-.81-1.43-1.43-.36-.62-.54-1.34-.54-2.17,0-1.24.35-2.22,1.04-2.97.69-.74,1.63-1.11,2.8-1.11.66,0,1.26.16,1.8.48.54.32.91.71,1.11,1.16l-.08-1.33v-4.81h1.8v12.5h-1.75l-.03-1.38c-.19.41-.54.77-1.05,1.08s-1.08.47-1.72.47c-.7,0-1.35-.17-1.95-.5Zm3.88-1.72c.44-.45.66-1.03.66-1.76v-.12c0-.49-.1-.92-.31-1.31s-.48-.69-.83-.9c-.35-.21-.74-.32-1.16-.32-.73,0-1.29.24-1.68.71-.4.47-.6,1.08-.6,1.83s.2,1.37.59,1.84.96.71,1.69.71c.65,0,1.19-.22,1.63-.67Z"/>
    <path class="cls-2" d="m277.39,25.45h2.09l1.68,3.52.54,1.41.54-1.41,1.67-3.52h2.04l-4.1,7.8h-.36l-4.11-7.8Z"/>
    <path class="cls-2" d="m288.29,32.87c-.62-.37-1.08-.86-1.38-1.48-.29-.62-.44-1.29-.44-2.03,0-.83.17-1.55.52-2.18.35-.62.82-1.1,1.44-1.44s1.3-.5,2.07-.5c1.2,0,2.09.33,2.68.99.58.66.88,1.6.88,2.8,0,.31-.02.62-.05.95h-5.61c.12.69.37,1.19.74,1.5s.88.46,1.54.46c.54,0,.99-.04,1.34-.14s.67-.22.97-.37l.56,1.31c-.28.18-.67.34-1.16.48-.49.14-1.08.2-1.77.2-.93,0-1.71-.18-2.33-.55Zm3.98-4.16c.01-.7-.14-1.2-.46-1.49s-.77-.43-1.36-.43c-1.19,0-1.88.64-2.06,1.92h3.88Z"/>
    <path class="cls-2" d="m296.97,33.21c-.58-.14-1-.31-1.25-.5l.61-1.44c.68.48,1.46.71,2.33.71s1.31-.25,1.31-.77c0-.23-.09-.4-.27-.53-.18-.12-.5-.27-.97-.44l-.65-.24c-.68-.27-1.22-.6-1.62-.98-.4-.38-.59-.88-.59-1.5,0-.71.28-1.27.84-1.67.56-.4,1.31-.6,2.25-.6.46,0,.92.05,1.37.15s.79.23,1.03.39l-.66,1.46c-.15-.15-.38-.27-.71-.38-.32-.11-.68-.16-1.08-.16-.81,0-1.21.24-1.21.73,0,.27.11.48.32.62.22.14.57.3,1.05.47.04.01.22.07.53.19.73.28,1.26.61,1.62.97s.53.83.53,1.39c0,.77-.29,1.35-.88,1.75-.58.4-1.32.59-2.22.59-.54,0-1.11-.07-1.69-.21Z"/>
    <path class="cls-2" d="m304.33,26.94h-1.38v-1.5h1.38v-3.18l1.85-.41v3.59h1.8v1.5h-1.8v6.31h-1.85v-6.31Z"/>
  </g>
  <g>
    <path class="cls-2" d="m51.04,83.77c.53-.71.98-1.38,1.33-1.99.36-.61.54-1.18.54-1.7,0-.63-.17-1.12-.5-1.45-.33-.33-.84-.5-1.5-.5-.61,0-1.1.17-1.48.51-.37.34-.69.75-.94,1.24l-1.58-.85c.4-.76.92-1.4,1.56-1.92.65-.52,1.47-.78,2.48-.78,1.26,0,2.22.33,2.89.98.67.65,1,1.5,1,2.56,0,1.37-.68,2.89-2.04,4.56l-2.31,2.92h4.85v1.68h-8.5l4.2-5.25Z"/>
    <path class="cls-2" d="m58.68,87.48c-.74-1.2-1.1-2.77-1.1-4.69s.36-3.56,1.07-4.72c.71-1.16,1.88-1.74,3.48-1.74,3.03,0,4.54,2.15,4.54,6.46,0,1.96-.37,3.53-1.1,4.72-.74,1.18-1.88,1.78-3.43,1.78s-2.71-.6-3.45-1.8Zm5.38-1.27c.36-.89.54-2.03.54-3.43,0-1.46-.18-2.62-.53-3.47-.35-.85-1-1.27-1.94-1.27s-1.59.42-1.95,1.27-.54,2.01-.54,3.47c0,3.17.83,4.76,2.48,4.76.93,0,1.57-.44,1.93-1.33Z"/>
    <path class="cls-2" d="m69.81,76.72l1.92-.54v12.85h-1.92v-12.31Z"/>
    <path class="cls-2" d="m77.23,88.78c-.64-.33-1.15-.82-1.51-1.44-.37-.63-.55-1.36-.55-2.2,0-.59.09-1.17.27-1.74.18-.57.57-1.4,1.16-2.47s1.53-2.68,2.82-4.81l1.63.95c-1.11,1.68-1.99,3.08-2.64,4.22-.05.08-.09.16-.14.24-.05.08-.08.14-.12.17.18-.17.42-.31.73-.41s.66-.15,1.05-.15c.75,0,1.41.18,1.99.54s1.02.83,1.33,1.43c.31.59.47,1.24.47,1.93,0,.88-.19,1.65-.56,2.3s-.89,1.14-1.56,1.47c-.66.33-1.42.5-2.27.5-.77,0-1.48-.17-2.12-.5Zm3.93-1.84c.41-.45.62-1.04.62-1.75s-.21-1.34-.64-1.78c-.42-.44-.97-.65-1.62-.65-.73,0-1.31.22-1.74.66-.44.44-.65,1.04-.65,1.8,0,.69.22,1.26.67,1.72s1.01.68,1.67.68c.71,0,1.28-.23,1.69-.68Z"/>
    <path class="cls-2" d="m88.17,92.99l.39-1.65c.18.07.36.13.53.18.17.05.33.08.48.08.37,0,.64-.1.81-.31.16-.2.25-.62.25-1.24v-8.82h1.84v8.91c0,.99-.25,1.74-.77,2.26-.51.52-1.23.78-2.16.78-.42,0-.87-.06-1.36-.19Zm2.38-13.58c-.24-.24-.36-.53-.36-.88,0-.32.12-.59.36-.82.24-.23.53-.34.88-.34s.63.11.87.34c.24.23.36.5.36.82,0,.35-.12.65-.35.88-.23.24-.52.36-.88.36s-.65-.12-.88-.36Z"/>
    <path class="cls-2" d="m95.49,88.24c-.4-.63-.6-1.52-.6-2.65v-4.37h1.84v3.91c0,.65.04,1.15.11,1.5.07.36.22.62.44.79.22.17.55.26.99.26.32,0,.62-.09.92-.27.29-.18.54-.43.72-.74.19-.31.28-.65.28-1.03v-4.42h1.82v7.8h-1.5l-.2-1.14c-.28.44-.64.77-1.06.99-.43.21-.94.32-1.54.32-1.08,0-1.82-.32-2.22-.95Z"/>
    <path class="cls-2" d="m104.61,76.53h1.82v12.5h-1.82v-12.5Z"/>
    <path class="cls-2" d="m109.2,79.4c-.24-.24-.36-.53-.36-.88,0-.32.12-.59.36-.82.24-.23.53-.34.88-.34s.63.11.87.34.36.5.36.82c0,.35-.12.65-.35.88-.23.24-.52.36-.88.36s-.65-.12-.88-.36Zm-.05,1.82h1.9v7.8h-1.9v-7.8Z"/>
    <path class="cls-2" d="m113.88,83.1c-.24-.23-.36-.52-.36-.86s.12-.64.35-.88.52-.35.88-.35.64.12.88.35c.23.23.35.52.35.88s-.12.63-.35.86c-.23.23-.52.35-.88.35s-.63-.12-.87-.35Zm0,5.75c-.24-.23-.36-.52-.36-.86s.12-.64.35-.88.52-.35.88-.35.64.12.88.35c.23.23.35.52.35.88s-.12.63-.35.86-.52.35-.88.35-.63-.12-.87-.35Z"/>
    <path class="cls-2" d="m124.98,78.2h-3.2v-1.67h8.31v1.67h-3.23v10.83h-1.89v-10.83Z"/>
    <path class="cls-2" d="m131.22,76.53h1.79v4.69l-.07,1.45c.22-.48.56-.87,1.04-1.18.48-.31,1.03-.47,1.67-.47.8,0,1.42.17,1.85.5s.72.8.87,1.4c.15.6.22,1.38.22,2.35v3.76h-1.82v-3.77c0-.66-.04-1.17-.11-1.55-.07-.37-.22-.66-.44-.85-.22-.19-.54-.29-.96-.29-.34,0-.68.1-1.03.31-.35.2-.63.5-.86.89-.23.39-.34.85-.34,1.39v3.88h-1.8v-12.5Z"/>
    <path class="cls-2" d="m140.85,81.22h1.84v1.53c.18-.52.48-.94.88-1.26s.87-.48,1.39-.48c.36,0,.61.03.75.1l-.25,1.85c-.1-.07-.32-.1-.66-.1-.53,0-1.02.17-1.45.51-.44.34-.65.88-.65,1.63v4.01h-1.84v-7.8Z"/>
    <path class="cls-2" d="m147.2,79.4c-.24-.24-.36-.53-.36-.88,0-.32.12-.59.36-.82.24-.23.53-.34.88-.34s.63.11.87.34.36.5.36.82c0,.35-.12.65-.35.88-.23.24-.52.36-.88.36s-.65-.12-.88-.36Zm-.05,1.82h1.9v7.8h-1.9v-7.8Z"/>
    <path class="cls-2" d="m152.33,82.69h-1.26v-1.46h1.26v-1.68c0-1.02.25-1.81.74-2.37.49-.56,1.22-.84,2.17-.84.38,0,.82.11,1.31.32l-.36,1.73c-.08-.09-.2-.18-.37-.26-.16-.09-.34-.13-.54-.13-.76,0-1.15.49-1.16,1.48v1.75h1.84v1.46h-1.84v6.34h-1.8v-6.34Z"/>
    <path class="cls-2" d="m158.43,82.72h-1.38v-1.5h1.38v-3.18l1.85-.41v3.59h1.8v1.5h-1.8v6.31h-1.85v-6.31Z"/>
    <path class="cls-2" d="m167.87,76.53h2.75c1.55,0,2.69.33,3.41.99s1.08,1.57,1.08,2.73c0,1.34-.39,2.36-1.17,3.08-.78.71-1.94,1.07-3.48,1.07h-.66v4.62h-1.92v-12.5Zm2.63,6.19c1,0,1.69-.22,2.09-.66.4-.44.6-.97.6-1.6,0-.67-.19-1.21-.58-1.63-.39-.42-1.03-.63-1.94-.63h-.88v4.52h.71Z"/>
    <path class="cls-2" d="m176.91,76.53h1.82v12.5h-1.82v-12.5Z"/>
    <path class="cls-2" d="m182.82,88.69c-.59-.33-1.07-.81-1.43-1.43-.36-.62-.54-1.34-.54-2.17s.16-1.53.47-2.14c.31-.61.76-1.09,1.33-1.43.58-.34,1.26-.51,2.04-.51.45,0,.88.08,1.27.24s.73.35,1,.59c.27.23.45.46.54.69l.03-1.31h1.75v7.8h-1.73l-.03-1.38c-.19.41-.54.77-1.05,1.08s-1.08.47-1.72.47c-.7,0-1.35-.17-1.95-.5Zm3.88-1.7c.44-.45.66-1.03.66-1.76v-.12c0-.49-.1-.92-.31-1.31-.2-.38-.48-.69-.83-.9-.35-.21-.74-.32-1.16-.32-.72,0-1.29.24-1.68.71-.4.47-.59,1.08-.59,1.83s.2,1.37.59,1.84.95.71,1.69.71c.65,0,1.19-.22,1.63-.67Z"/>
    <path class="cls-2" d="m191.77,81.22h1.8l.02,1.43c.21-.48.55-.87,1.02-1.17.46-.31,1.01-.46,1.63-.46.8,0,1.42.17,1.85.5s.72.8.87,1.4c.15.6.22,1.38.22,2.35v3.76h-1.84v-3.71c0-.99-.1-1.7-.29-2.13-.19-.44-.59-.65-1.19-.65-.34,0-.69.1-1.04.31-.35.21-.64.51-.88.91-.23.4-.35.86-.35,1.39v3.88h-1.84v-7.8Z"/>
    <path class="cls-2" d="m202.9,88.64c-.62-.37-1.08-.86-1.38-1.48s-.44-1.29-.44-2.03c0-.83.17-1.55.52-2.18.35-.62.82-1.1,1.44-1.44.61-.33,1.3-.5,2.07-.5,1.2,0,2.09.33,2.68.99.58.66.88,1.6.88,2.8,0,.31-.02.62-.05.95h-5.61c.12.69.37,1.19.74,1.5s.88.46,1.54.46c.54,0,.99-.04,1.34-.14.35-.09.67-.22.97-.37l.56,1.31c-.28.18-.67.34-1.16.48-.49.14-1.08.2-1.77.2-.93,0-1.71-.18-2.33-.55Zm3.98-4.16c.01-.7-.14-1.2-.46-1.49s-.77-.43-1.36-.43c-1.19,0-1.88.64-2.06,1.92h3.88Z"/>
    <path class="cls-2" d="m211.27,82.72h-1.38v-1.5h1.38v-3.18l1.85-.41v3.59h1.8v1.5h-1.8v6.31h-1.85v-6.31Z"/>
    <path class="cls-2" d="m220.67,76.53h1.79v4.69l-.07,1.45c.22-.48.56-.87,1.04-1.18.48-.31,1.03-.47,1.67-.47.8,0,1.42.17,1.85.5.43.33.72.8.87,1.4.15.6.22,1.38.22,2.35v3.76h-1.82v-3.77c0-.66-.04-1.17-.11-1.55-.07-.37-.22-.66-.44-.85-.22-.19-.54-.29-.96-.29-.34,0-.68.1-1.03.31-.35.2-.63.5-.86.89-.23.39-.34.85-.34,1.39v3.88h-1.8v-12.5Z"/>
    <path class="cls-2" d="m231.86,88.65c-.62-.36-1.11-.86-1.45-1.48-.34-.62-.51-1.31-.51-2.07s.17-1.43.5-2.06c.33-.62.81-1.12,1.44-1.48.62-.36,1.34-.54,2.16-.54s1.53.18,2.15.54c.62.36,1.09.86,1.43,1.48.33.62.5,1.31.5,2.06s-.17,1.45-.51,2.07c-.34.62-.82,1.12-1.44,1.48-.62.36-1.33.54-2.13.54s-1.52-.18-2.14-.54Zm3.75-1.68c.38-.49.57-1.1.57-1.84s-.2-1.36-.61-1.86-.95-.76-1.62-.76-1.16.25-1.56.75c-.39.5-.59,1.12-.59,1.87s.21,1.33.63,1.83c.42.49.96.74,1.62.74s1.17-.24,1.55-.73Z"/>
    <path class="cls-2" d="m240.19,76.53h1.82v12.5h-1.82v-12.5Z"/>
    <path class="cls-2" d="m246.09,88.69c-.6-.33-1.07-.81-1.43-1.43-.36-.62-.54-1.34-.54-2.17,0-1.24.35-2.22,1.04-2.97.69-.74,1.63-1.11,2.8-1.11.66,0,1.26.16,1.8.48.54.32.91.71,1.11,1.16l-.08-1.33v-4.81h1.8v12.5h-1.75l-.03-1.38c-.19.41-.54.77-1.05,1.08s-1.08.47-1.72.47c-.7,0-1.35-.17-1.95-.5Zm3.88-1.72c.44-.45.66-1.03.66-1.76v-.12c0-.49-.1-.92-.31-1.31s-.48-.69-.83-.9c-.35-.21-.74-.32-1.16-.32-.73,0-1.29.24-1.68.71-.4.47-.6,1.08-.6,1.83s.2,1.37.59,1.84.96.71,1.69.71c.65,0,1.19-.22,1.63-.67Z"/>
    <path class="cls-2" d="m256.39,88.64c-.62-.37-1.08-.86-1.38-1.48-.29-.62-.44-1.29-.44-2.03,0-.83.17-1.55.52-2.18.35-.62.82-1.1,1.44-1.44s1.3-.5,2.07-.5c1.2,0,2.09.33,2.68.99.58.66.88,1.6.88,2.8,0,.31-.02.62-.05.95h-5.61c.12.69.37,1.19.74,1.5s.88.46,1.54.46c.54,0,.99-.04,1.34-.14s.67-.22.97-.37l.56,1.31c-.28.18-.67.34-1.16.48-.49.14-1.08.2-1.77.2-.93,0-1.71-.18-2.33-.55Zm3.98-4.16c.01-.7-.14-1.2-.46-1.49s-.77-.43-1.36-.43c-1.19,0-1.88.64-2.06,1.92h3.88Z"/>
    <path class="cls-2" d="m264.02,81.22h1.84v1.53c.18-.52.48-.94.88-1.26s.87-.48,1.39-.48c.36,0,.61.03.75.1l-.25,1.85c-.1-.07-.32-.1-.66-.1-.53,0-1.02.17-1.45.51s-.65.88-.65,1.63v4.01h-1.84v-7.8Z"/>
    <path class="cls-2" d="m275.7,88.64c-.62-.37-1.08-.86-1.38-1.48-.29-.62-.44-1.29-.44-2.03,0-.83.17-1.55.52-2.18.35-.62.82-1.1,1.44-1.44s1.3-.5,2.07-.5c1.2,0,2.09.33,2.68.99.58.66.88,1.6.88,2.8,0,.31-.02.62-.05.95h-5.61c.12.69.37,1.19.74,1.5s.88.46,1.54.46c.54,0,.99-.04,1.34-.14s.67-.22.97-.37l.56,1.31c-.28.18-.67.34-1.16.48-.49.14-1.08.2-1.77.2-.93,0-1.71-.18-2.33-.55Zm3.98-4.16c.01-.7-.14-1.2-.46-1.49s-.77-.43-1.36-.43c-1.19,0-1.88.64-2.06,1.92h3.88Z"/>
    <path class="cls-2" d="m283.38,81.22h1.8l.02,1.43c.21-.48.55-.87,1.02-1.17.46-.31,1.01-.46,1.63-.46.8,0,1.42.17,1.85.5s.72.8.87,1.4c.15.6.22,1.38.22,2.35v3.76h-1.84v-3.71c0-.99-.1-1.7-.29-2.13-.19-.44-.59-.65-1.19-.65-.34,0-.69.1-1.04.31-.35.21-.64.51-.88.91-.23.4-.35.86-.35,1.39v3.88h-1.84v-7.8Z"/>
    <path class="cls-2" d="m46.96,96.93h2.75c1.55,0,2.69.33,3.41.99s1.08,1.57,1.08,2.73c0,1.34-.39,2.36-1.17,3.08-.78.71-1.94,1.07-3.48,1.07h-.66v4.62h-1.92v-12.5Zm2.63,6.19c1,0,1.69-.22,2.09-.66.4-.44.6-.97.6-1.6,0-.67-.19-1.21-.58-1.63-.39-.42-1.03-.63-1.94-.63h-.88v4.52h.71Z"/>
    <path class="cls-2" d="m57.35,109.05c-.62-.36-1.1-.86-1.45-1.48-.34-.62-.51-1.31-.51-2.07s.17-1.43.5-2.06c.33-.62.81-1.12,1.44-1.48.62-.36,1.34-.54,2.16-.54s1.53.18,2.15.54c.62.36,1.09.86,1.43,1.48.33.62.5,1.31.5,2.06s-.17,1.45-.51,2.07c-.34.62-.82,1.12-1.44,1.48s-1.33.54-2.13.54-1.52-.18-2.14-.54Zm3.75-1.68c.38-.49.57-1.1.57-1.84s-.2-1.36-.61-1.86c-.41-.5-.95-.76-1.62-.76s-1.16.25-1.56.75c-.39.5-.59,1.12-.59,1.87s.21,1.33.63,1.83c.42.49.96.74,1.62.74s1.18-.24,1.56-.73Z"/>
    <path class="cls-2" d="m65.56,101.62h1.77v1.45c.62-1.1,1.6-1.65,2.92-1.65,1.1,0,1.99.35,2.67,1.05.68.7,1.02,1.7,1.02,3.02,0,.82-.17,1.54-.5,2.16-.33.62-.79,1.1-1.36,1.45-.57.34-1.21.51-1.91.51-.66,0-1.23-.12-1.71-.35-.48-.23-.86-.56-1.13-.99l.02,5.3h-1.78v-11.93Zm5.88,5.72c.4-.47.59-1.07.59-1.81s-.2-1.39-.59-1.84c-.39-.46-.96-.69-1.71-.69-.41,0-.79.1-1.15.3s-.64.48-.85.85c-.21.37-.31.8-.31,1.28v.12c0,.49.1.92.31,1.3.21.38.49.67.84.88.35.21.74.31,1.16.31.74,0,1.3-.24,1.7-.71Z"/>
    <path class="cls-2" d="m81.08,108.18c-.7-.94-1.05-2.31-1.05-4.1v-7.16h1.9v7.19c0,1.33.2,2.28.59,2.85s1.05.86,1.96.86,1.56-.28,1.95-.84c.39-.56.59-1.52.59-2.86v-7.19h1.92v7.16c0,1.78-.37,3.14-1.11,4.09s-1.86,1.42-3.34,1.42c-1.56,0-2.7-.47-3.4-1.41Z"/>
    <path class="cls-2" d="m91.35,101.62h1.77v1.45c.62-1.1,1.6-1.65,2.92-1.65,1.1,0,1.99.35,2.67,1.05.68.7,1.02,1.7,1.02,3.02,0,.82-.17,1.54-.5,2.16-.33.62-.79,1.1-1.36,1.45-.57.34-1.21.51-1.91.51-.66,0-1.23-.12-1.71-.35-.48-.23-.86-.56-1.13-.99l.02,5.3h-1.78v-11.93Zm5.88,5.72c.4-.47.59-1.07.59-1.81s-.2-1.39-.59-1.84c-.39-.46-.96-.69-1.71-.69-.41,0-.79.1-1.15.3s-.64.48-.85.85c-.21.37-.31.8-.31,1.28v.12c0,.49.1.92.31,1.3.21.38.49.67.84.88.35.21.74.31,1.16.31.74,0,1.3-.24,1.7-.71Z"/>
    <path class="cls-2" d="m106.82,109.24c-.67-.24-1.15-.5-1.44-.8l.9-1.62c.24.22.61.44,1.11.67.5.23.99.35,1.45.35.6,0,1.09-.14,1.47-.42s.57-.67.57-1.17c0-.38-.1-.72-.31-1-.2-.28-.45-.52-.75-.71-.29-.19-.71-.42-1.26-.69-.65-.32-1.09-.56-1.33-.71-1.1-.74-1.65-1.76-1.65-3.06,0-1.08.36-1.9,1.07-2.47.71-.57,1.62-.86,2.7-.86,1.17,0,2.16.33,2.98,1l-.9,1.55c-.22-.23-.52-.42-.91-.59-.39-.16-.81-.25-1.25-.25-.57,0-1.01.13-1.33.38-.32.25-.48.63-.48,1.13,0,.35.1.67.31.94s.46.52.77.72.73.45,1.27.75c.51.28.9.51,1.17.67.27.16.53.36.77.59.33.29.6.65.8,1.05.2.41.31.86.31,1.34,0,.76-.17,1.41-.52,1.94s-.82.94-1.43,1.21c-.61.27-1.29.41-2.07.41-.68,0-1.35-.12-2.02-.36Z"/>
    <path class="cls-2" d="m114.86,96.93h1.79v4.69l-.07,1.45c.22-.48.56-.87,1.04-1.18.48-.31,1.03-.47,1.67-.47.8,0,1.42.17,1.85.5s.72.8.87,1.4c.15.6.22,1.38.22,2.35v3.76h-1.82v-3.77c0-.66-.04-1.17-.11-1.55-.07-.37-.22-.66-.44-.85-.22-.19-.54-.29-.96-.29-.34,0-.68.1-1.03.31-.35.2-.63.5-.86.89-.23.39-.34.85-.34,1.39v3.88h-1.8v-12.5Z"/>
    <path class="cls-2" d="m126.05,109.05c-.62-.36-1.1-.86-1.45-1.48-.34-.62-.51-1.31-.51-2.07s.17-1.43.5-2.06c.33-.62.81-1.12,1.44-1.48.62-.36,1.34-.54,2.16-.54s1.53.18,2.15.54c.62.36,1.09.86,1.43,1.48.33.62.5,1.31.5,2.06s-.17,1.45-.51,2.07c-.34.62-.82,1.12-1.44,1.48s-1.33.54-2.13.54-1.52-.18-2.14-.54Zm3.75-1.68c.38-.49.57-1.1.57-1.84s-.2-1.36-.61-1.86c-.41-.5-.95-.76-1.62-.76s-1.16.25-1.56.75c-.39.5-.59,1.12-.59,1.87s.21,1.33.63,1.83c.42.49.96.74,1.62.74s1.18-.24,1.56-.73Z"/>
    <path class="cls-2" d="m134.26,101.62h1.77v1.45c.62-1.1,1.6-1.65,2.92-1.65,1.1,0,1.99.35,2.67,1.05.68.7,1.02,1.7,1.02,3.02,0,.82-.17,1.54-.5,2.16-.33.62-.79,1.1-1.36,1.45-.57.34-1.21.51-1.91.51-.66,0-1.23-.12-1.71-.35-.48-.23-.86-.56-1.13-.99l.02,5.3h-1.78v-11.93Zm5.88,5.72c.4-.47.59-1.07.59-1.81s-.2-1.39-.59-1.84c-.39-.46-.96-.69-1.71-.69-.41,0-.79.1-1.15.3s-.64.48-.85.85c-.21.37-.31.8-.31,1.28v.12c0,.49.1.92.31,1.3.21.38.49.67.84.88.35.21.74.31,1.16.31.74,0,1.3-.24,1.7-.71Z"/>
    <path class="cls-2" d="m148.95,99.8c-.24-.24-.36-.53-.36-.88,0-.32.12-.59.36-.82.24-.23.53-.34.88-.34s.63.11.87.34.36.5.36.82c0,.35-.12.65-.35.88-.23.24-.52.36-.88.36s-.65-.12-.88-.36Zm-.05,1.82h1.9v7.8h-1.9v-7.8Z"/>
    <path class="cls-2" d="m46.96,117.33h3.18c1.79,0,2.98.3,3.57.9.59.6.88,1.33.88,2.18,0,.57-.12,1.1-.37,1.61-.25.5-.65.88-1.19,1.13.8.2,1.4.56,1.78,1.07.38.51.57,1.11.57,1.8,0,.73-.11,1.36-.34,1.9-.23.54-.7,1-1.41,1.36-.71.36-1.75.54-3.09.54h-3.57v-12.5Zm3.48,5.3c.8,0,1.38-.2,1.72-.59.34-.39.51-.89.51-1.49,0-1.08-.77-1.61-2.31-1.61h-1.53v3.69h1.62Zm.34,5.59c1.03,0,1.73-.21,2.08-.62s.54-.94.54-1.57c0-.6-.2-1.06-.61-1.39-.41-.33-1.03-.49-1.85-.49h-2.11v4.08h1.96Z"/>
    <path class="cls-2" d="m57.64,117.33h1.82v12.5h-1.82v-12.5Z"/>
    <path class="cls-2" d="m63.55,129.49c-.59-.33-1.07-.81-1.43-1.43-.36-.62-.54-1.34-.54-2.17s.16-1.53.47-2.14c.31-.61.76-1.09,1.33-1.43.58-.34,1.26-.51,2.04-.51.45,0,.88.08,1.28.24.4.16.73.35,1,.59.27.23.45.46.54.69l.03-1.31h1.75v7.8h-1.73l-.03-1.38c-.19.41-.54.77-1.05,1.08s-1.08.47-1.72.47c-.7,0-1.35-.17-1.95-.5Zm1.19-8.78c-.39-.19-.7-.46-.94-.82-.23-.35-.35-.75-.35-1.21s.12-.84.35-1.2.54-.63.94-.83c.39-.2.81-.3,1.25-.3s.88.1,1.27.3.7.48.94.83c.23.36.35.76.35,1.2s-.12.84-.35,1.19c-.23.35-.54.63-.94.82-.39.2-.81.3-1.27.3s-.86-.1-1.25-.29Zm2.69,7.08c.44-.45.66-1.03.66-1.76v-.12c0-.49-.1-.92-.31-1.31-.2-.38-.48-.69-.83-.9-.35-.21-.74-.32-1.16-.32-.73,0-1.29.24-1.68.71-.4.47-.59,1.08-.59,1.83s.2,1.37.59,1.84.95.71,1.69.71c.65,0,1.19-.22,1.63-.67Zm-.73-8.33c.19-.2.29-.46.29-.77s-.1-.58-.29-.77c-.19-.2-.43-.3-.71-.3s-.5.1-.69.3c-.19.2-.28.46-.28.77s.09.58.28.77.42.3.69.3.52-.1.71-.3Z"/>
    <path class="cls-2" d="m74.58,133.67c-.56-.16-.96-.31-1.2-.44l.41-1.7c.75.49,1.56.73,2.45.73.68,0,1.25-.16,1.72-.49.46-.33.7-.97.71-1.92v-1.39c-.24.44-.62.81-1.16,1.1-.53.29-1.12.44-1.77.44-.68,0-1.3-.17-1.87-.5-.57-.33-1.01-.81-1.34-1.44-.33-.62-.49-1.35-.49-2.18s.16-1.5.47-2.12.76-1.1,1.33-1.44c.58-.34,1.25-.51,2.02-.51.45,0,.88.08,1.27.24.4.16.73.35,1.01.59.28.23.46.46.55.69l.03-1.31h1.73v7.75c0,1.33-.34,2.35-1.02,3.06-.68.71-1.73,1.07-3.16,1.07-.58,0-1.15-.08-1.71-.24Zm3.31-5.89c.44-.45.66-1.03.66-1.76v-.12c0-.49-.1-.92-.31-1.31s-.48-.69-.83-.9c-.35-.21-.74-.32-1.16-.32-.73,0-1.29.24-1.68.71-.4.47-.59,1.08-.59,1.83s.2,1.37.59,1.84.95.71,1.69.71c.65,0,1.19-.22,1.63-.67Z"/>
    <path class="cls-2" d="m84.32,129.49c-.59-.33-1.07-.81-1.43-1.43-.36-.62-.54-1.34-.54-2.17s.16-1.53.47-2.14c.31-.61.76-1.09,1.33-1.43.58-.34,1.26-.51,2.04-.51.45,0,.88.08,1.28.24.4.16.73.35,1,.59.27.23.45.46.54.69l.03-1.31h1.75v7.8h-1.73l-.03-1.38c-.19.41-.54.77-1.05,1.08s-1.08.47-1.72.47c-.7,0-1.35-.17-1.95-.5Zm1.19-8.78c-.39-.19-.7-.46-.94-.82-.23-.35-.35-.75-.35-1.21s.12-.84.35-1.2.54-.63.94-.83c.39-.2.81-.3,1.25-.3s.88.1,1.27.3.7.48.94.83c.23.36.35.76.35,1.2s-.12.84-.35,1.19c-.23.35-.54.63-.94.82-.39.2-.81.3-1.27.3s-.86-.1-1.25-.29Zm2.69,7.08c.44-.45.66-1.03.66-1.76v-.12c0-.49-.1-.92-.31-1.31-.2-.38-.48-.69-.83-.9-.35-.21-.74-.32-1.16-.32-.73,0-1.29.24-1.68.71-.4.47-.59,1.08-.59,1.83s.2,1.37.59,1.84.95.71,1.69.71c.65,0,1.19-.22,1.63-.67Zm-.73-8.33c.19-.2.29-.46.29-.77s-.1-.58-.29-.77c-.19-.2-.43-.3-.71-.3s-.5.1-.69.3c-.19.2-.28.46-.28.77s.09.58.28.77.42.3.69.3.52-.1.71-.3Z"/>
    <path class="cls-2" d="m93.22,122.02h1.84v1.53c.18-.52.48-.94.88-1.26s.87-.48,1.39-.48c.36,0,.61.03.75.1l-.25,1.85c-.1-.07-.32-.1-.66-.1-.53,0-1.02.17-1.45.51-.44.34-.65.88-.65,1.63v4.01h-1.84v-7.8Z"/>
    <path class="cls-2" d="m100.88,129.49c-.59-.33-1.07-.81-1.43-1.43-.36-.62-.54-1.34-.54-2.17,0-1.24.35-2.22,1.04-2.97.69-.74,1.63-1.11,2.8-1.11.66,0,1.26.16,1.8.48.54.32.91.71,1.1,1.16l-.08-1.33v-4.81h1.8v12.5h-1.75l-.03-1.38c-.19.41-.54.77-1.05,1.08s-1.08.47-1.72.47c-.7,0-1.35-.17-1.95-.5Zm3.88-1.72c.44-.45.66-1.03.66-1.76v-.12c0-.49-.1-.92-.31-1.31s-.48-.69-.83-.9c-.35-.21-.74-.32-1.16-.32-.73,0-1.29.24-1.68.71-.4.47-.59,1.08-.59,1.83s.2,1.37.59,1.84.95.71,1.69.71c.65,0,1.19-.22,1.63-.67Z"/>
    <path class="cls-2" d="m110.81,129.78c-.58-.14-1-.31-1.25-.5l.61-1.44c.68.48,1.46.71,2.33.71s1.31-.25,1.31-.77c0-.23-.09-.4-.27-.53-.18-.12-.5-.27-.97-.44l-.65-.24c-.68-.27-1.22-.6-1.61-.98-.4-.38-.6-.88-.6-1.5,0-.71.28-1.27.84-1.67.56-.4,1.31-.6,2.25-.6.46,0,.92.05,1.37.15s.79.23,1.03.39l-.66,1.46c-.15-.15-.38-.27-.71-.38-.32-.11-.68-.16-1.08-.16-.8,0-1.21.24-1.21.73,0,.27.11.48.32.62.21.14.57.3,1.05.47.05.01.22.07.53.19.73.28,1.26.61,1.61.97.35.36.53.83.53,1.39,0,.77-.29,1.35-.88,1.75-.58.4-1.32.59-2.22.59-.54,0-1.11-.07-1.69-.21Z"/>
    <path class="cls-2" d="m119.58,133.67c-.56-.16-.96-.31-1.2-.44l.41-1.7c.75.49,1.56.73,2.45.73.68,0,1.25-.16,1.72-.49.46-.33.7-.97.71-1.92v-1.39c-.24.44-.62.81-1.16,1.1-.53.29-1.12.44-1.77.44-.68,0-1.3-.17-1.87-.5-.57-.33-1.01-.81-1.34-1.44-.33-.62-.49-1.35-.49-2.18s.16-1.5.47-2.12.76-1.1,1.33-1.44c.58-.34,1.25-.51,2.02-.51.45,0,.88.08,1.27.24.4.16.73.35,1.01.59.28.23.46.46.55.69l.03-1.31h1.73v7.75c0,1.33-.34,2.35-1.02,3.06-.68.71-1.73,1.07-3.16,1.07-.58,0-1.15-.08-1.71-.24Zm3.31-5.89c.44-.45.66-1.03.66-1.76v-.12c0-.49-.1-.92-.31-1.31s-.48-.69-.83-.9c-.35-.21-.74-.32-1.16-.32-.73,0-1.29.24-1.68.71-.4.47-.59,1.08-.59,1.83s.2,1.37.59,1.84.95.71,1.69.71c.65,0,1.19-.22,1.63-.67Z"/>
    <path class="cls-2" d="m129.32,129.49c-.59-.33-1.07-.81-1.43-1.43-.36-.62-.54-1.34-.54-2.17s.16-1.53.47-2.14c.31-.61.76-1.09,1.33-1.43.58-.34,1.26-.51,2.04-.51.45,0,.88.08,1.28.24.4.16.73.35,1,.59.27.23.45.46.54.69l.03-1.31h1.75v7.8h-1.73l-.03-1.38c-.19.41-.54.77-1.05,1.08s-1.08.47-1.72.47c-.7,0-1.35-.17-1.95-.5Zm3.88-1.7c.44-.45.66-1.03.66-1.76v-.12c0-.49-.1-.92-.31-1.31-.2-.38-.48-.69-.83-.9-.35-.21-.74-.32-1.16-.32-.73,0-1.29.24-1.68.71-.4.47-.59,1.08-.59,1.83s.2,1.37.59,1.84.95.71,1.69.71c.65,0,1.19-.22,1.63-.67Z"/>
    <path class="cls-2" d="m139.78,129.49c-.59-.33-1.07-.81-1.43-1.43-.36-.62-.54-1.34-.54-2.17,0-1.24.35-2.22,1.04-2.97.69-.74,1.63-1.11,2.8-1.11.66,0,1.26.16,1.8.48.54.32.91.71,1.1,1.16l-.08-1.33v-4.81h1.8v12.5h-1.75l-.03-1.38c-.19.41-.54.77-1.05,1.08s-1.08.47-1.72.47c-.7,0-1.35-.17-1.95-.5Zm3.88-1.72c.44-.45.66-1.03.66-1.76v-.12c0-.49-.1-.92-.31-1.31s-.48-.69-.83-.9c-.35-.21-.74-.32-1.16-.32-.73,0-1.29.24-1.68.71-.4.47-.59,1.08-.59,1.83s.2,1.37.59,1.84.95.71,1.69.71c.65,0,1.19-.22,1.63-.67Z"/>
    <path class="cls-2" d="m150.07,129.44c-.62-.37-1.08-.86-1.38-1.48-.29-.62-.44-1.29-.44-2.03,0-.83.17-1.55.52-2.18.35-.62.82-1.1,1.44-1.44.61-.33,1.3-.5,2.07-.5,1.2,0,2.09.33,2.68.99.58.66.88,1.6.88,2.8,0,.31-.02.62-.05.95h-5.61c.12.69.37,1.19.74,1.5.37.31.88.46,1.54.46.54,0,.99-.04,1.34-.14.35-.09.67-.22.97-.37l.56,1.31c-.28.18-.67.34-1.16.48-.49.14-1.08.2-1.77.2-.93,0-1.71-.18-2.33-.55Zm3.98-4.16c.01-.7-.14-1.2-.46-1.49s-.77-.43-1.36-.43c-1.19,0-1.88.64-2.06,1.92h3.88Z"/>
    <path class="cls-2" d="m161.92,122.02h1.84v1.41c.25-.53.61-.94,1.1-1.21.48-.27,1.03-.41,1.66-.41,1.39.01,2.25.49,2.57,1.44.25-.44.62-.79,1.12-1.05.5-.26,1.03-.39,1.58-.39.82,0,1.43.16,1.85.47.42.31.7.75.84,1.33.14.57.21,1.34.21,2.3v3.91h-1.85v-3.93c0-.92-.09-1.58-.28-1.97-.19-.4-.55-.6-1.08-.6-.71,0-1.26.24-1.62.72-.37.48-.55,1.11-.55,1.9v3.88h-1.84v-4.2c0-.6-.02-1.05-.07-1.34-.05-.29-.17-.53-.37-.7-.2-.17-.53-.26-.99-.26-.4,0-.77.12-1.11.36-.35.24-.62.56-.83.96-.21.4-.31.84-.31,1.3v3.88h-1.85v-7.8Z"/>
    <path class="cls-2" d="m178.39,129.44c-.62-.37-1.08-.86-1.38-1.48-.29-.62-.44-1.29-.44-2.03,0-.83.17-1.55.52-2.18.35-.62.82-1.1,1.44-1.44.61-.33,1.3-.5,2.07-.5,1.2,0,2.09.33,2.68.99.58.66.88,1.6.88,2.8,0,.31-.02.62-.05.95h-5.61c.12.69.37,1.19.74,1.5.37.31.88.46,1.54.46.54,0,.99-.04,1.34-.14.35-.09.67-.22.97-.37l.56,1.31c-.28.18-.67.34-1.16.48-.49.14-1.08.2-1.77.2-.93,0-1.71-.18-2.33-.55Zm3.98-4.16c.01-.7-.14-1.2-.46-1.49s-.77-.43-1.36-.43c-1.19,0-1.88.64-2.06,1.92h3.88Z"/>
    <path class="cls-2" d="m187.58,129.49c-.59-.33-1.07-.81-1.43-1.43-.36-.62-.54-1.34-.54-2.17,0-1.24.35-2.22,1.04-2.97.69-.74,1.63-1.11,2.8-1.11.66,0,1.26.16,1.8.48.54.32.91.71,1.1,1.16l-.08-1.33v-4.81h1.8v12.5h-1.75l-.03-1.38c-.19.41-.54.77-1.05,1.08s-1.08.47-1.72.47c-.7,0-1.35-.17-1.95-.5Zm3.88-1.72c.44-.45.66-1.03.66-1.76v-.12c0-.49-.1-.92-.31-1.31s-.48-.69-.83-.9c-.35-.21-.74-.32-1.16-.32-.72,0-1.29.24-1.68.71s-.59,1.08-.59,1.83.2,1.37.59,1.84c.39.47.96.71,1.69.71.65,0,1.19-.22,1.63-.67Z"/>
    <path class="cls-2" d="m200.8,117.33h3.18c1.79,0,2.98.3,3.57.9.59.6.88,1.33.88,2.18,0,.57-.12,1.1-.37,1.61-.25.5-.65.88-1.19,1.13.8.2,1.4.56,1.78,1.07.38.51.57,1.11.57,1.8,0,.73-.11,1.36-.34,1.9-.23.54-.7,1-1.41,1.36-.71.36-1.75.54-3.09.54h-3.57v-12.5Zm3.48,5.3c.8,0,1.38-.2,1.72-.59.34-.39.51-.89.51-1.49,0-1.08-.77-1.61-2.31-1.61h-1.53v3.69h1.62Zm.34,5.59c1.03,0,1.73-.21,2.08-.62.36-.41.54-.94.54-1.57,0-.6-.2-1.06-.61-1.39-.41-.33-1.03-.49-1.85-.49h-2.11v4.08h1.96Z"/>
    <path class="cls-2" d="m213.56,130.06l-3.23-8.04h2.07l1.67,4.96.37,1.21.37-1.21,1.75-4.96h2.01l-4.79,12.09h-1.9l1.68-4.05Z"/>
    <path class="cls-2" d="m220.45,123.52h-1.38v-1.5h1.38v-3.18l1.85-.41v3.59h1.8v1.5h-1.8v6.31h-1.85v-6.31Z"/>
    <path class="cls-2" d="m225.68,117.33h1.79v4.69l-.07,1.45c.22-.48.56-.87,1.04-1.18.48-.31,1.03-.47,1.67-.47.8,0,1.42.17,1.85.5.43.33.72.8.87,1.4.15.6.22,1.38.22,2.35v3.76h-1.82v-3.77c0-.66-.04-1.17-.11-1.55-.07-.37-.22-.66-.44-.85-.22-.19-.54-.29-.96-.29-.34,0-.68.1-1.03.31-.35.2-.63.5-.86.89-.23.39-.34.85-.34,1.39v3.88h-1.8v-12.5Z"/>
    <path class="cls-2" d="m235.56,120.2c-.24-.24-.36-.53-.36-.88,0-.32.12-.59.36-.82.24-.23.53-.34.88-.34s.63.11.87.34c.24.23.36.5.36.82,0,.35-.12.65-.35.88-.23.24-.52.36-.88.36s-.65-.12-.88-.36Zm-.05,1.82h1.9v7.8h-1.9v-7.8Z"/>
    <path class="cls-2" d="m240.15,120.2c-.24-.24-.36-.53-.36-.88,0-.32.12-.59.36-.82.24-.23.53-.34.88-.34s.63.11.87.34c.24.23.36.5.36.82,0,.35-.12.65-.35.88-.23.24-.52.36-.88.36s-.65-.12-.88-.36Zm-.05,1.82h1.9v7.8h-1.9v-7.8Z"/>
    <path class="cls-2" d="m244.55,122.02h1.84v1.41c.25-.53.61-.94,1.1-1.21.48-.27,1.03-.41,1.66-.41,1.39.01,2.25.49,2.57,1.44.25-.44.62-.79,1.12-1.05.5-.26,1.03-.39,1.58-.39.82,0,1.43.16,1.85.47.42.31.7.75.84,1.33s.21,1.34.21,2.3v3.91h-1.85v-3.93c0-.92-.09-1.58-.28-1.97-.19-.4-.55-.6-1.08-.6-.71,0-1.25.24-1.62.72-.37.48-.55,1.11-.55,1.9v3.88h-1.84v-4.2c0-.6-.02-1.05-.07-1.34-.04-.29-.17-.53-.37-.7-.2-.17-.53-.26-.99-.26-.4,0-.77.12-1.11.36-.35.24-.62.56-.83.96-.21.4-.31.84-.31,1.3v3.88h-1.85v-7.8Z"/>
    <path class="cls-2" d="m51.04,165.37c.53-.71.98-1.38,1.33-1.99.36-.61.54-1.18.54-1.7,0-.63-.17-1.12-.5-1.45-.33-.33-.84-.5-1.5-.5-.61,0-1.1.17-1.48.51-.37.34-.69.75-.94,1.24l-1.58-.85c.4-.76.92-1.4,1.56-1.92.65-.52,1.47-.78,2.48-.78,1.26,0,2.22.33,2.89.98.67.65,1,1.5,1,2.56,0,1.37-.68,2.89-2.04,4.56l-2.31,2.92h4.85v1.68h-8.5l4.2-5.25Z"/>
    <path class="cls-2" d="m58.68,169.08c-.74-1.2-1.1-2.77-1.1-4.69s.36-3.56,1.07-4.72c.71-1.16,1.88-1.74,3.48-1.74,3.03,0,4.54,2.15,4.54,6.46,0,1.96-.37,3.53-1.1,4.72-.74,1.18-1.88,1.78-3.43,1.78s-2.71-.6-3.45-1.8Zm5.38-1.27c.36-.89.54-2.03.54-3.43,0-1.46-.18-2.62-.53-3.47-.35-.85-1-1.27-1.94-1.27s-1.59.42-1.95,1.27-.54,2.01-.54,3.47c0,3.17.83,4.76,2.48,4.76.93,0,1.57-.44,1.93-1.33Z"/>
    <path class="cls-2" d="m69.81,158.32l1.92-.54v12.85h-1.92v-12.31Z"/>
    <path class="cls-2" d="m77.23,170.38c-.64-.33-1.15-.82-1.51-1.44-.37-.63-.55-1.36-.55-2.2,0-.59.09-1.17.27-1.74.18-.57.57-1.4,1.16-2.47s1.53-2.68,2.82-4.81l1.63.95c-1.11,1.68-1.99,3.08-2.64,4.22-.05.08-.09.16-.14.24-.05.08-.08.14-.12.17.18-.17.42-.31.73-.41s.66-.15,1.05-.15c.75,0,1.41.18,1.99.54s1.02.83,1.33,1.43c.31.59.47,1.24.47,1.93,0,.88-.19,1.65-.56,2.3s-.89,1.14-1.56,1.47c-.66.33-1.42.5-2.27.5-.77,0-1.48-.17-2.12-.5Zm3.93-1.84c.41-.45.62-1.04.62-1.75s-.21-1.34-.64-1.78c-.42-.44-.97-.65-1.62-.65-.73,0-1.31.22-1.74.66-.44.44-.65,1.04-.65,1.8,0,.69.22,1.26.67,1.72s1.01.68,1.67.68c.71,0,1.28-.23,1.69-.68Z"/>
    <path class="cls-2" d="m90.26,162.82h1.8l.02,1.43c.22-.48.56-.87,1.02-1.17.46-.31,1.01-.46,1.63-.46.8,0,1.42.17,1.85.5s.72.8.87,1.4c.15.6.22,1.38.22,2.35v3.76h-1.84v-3.71c0-.99-.1-1.7-.29-2.13-.19-.44-.59-.65-1.19-.65-.34,0-.69.1-1.04.31-.35.21-.64.51-.88.91-.23.4-.35.86-.35,1.39v3.88h-1.84v-7.8Z"/>
    <path class="cls-2" d="m101.53,170.25c-.62-.36-1.1-.86-1.45-1.48-.34-.62-.51-1.31-.51-2.07s.17-1.43.5-2.06c.33-.62.81-1.12,1.44-1.48.62-.36,1.34-.54,2.16-.54s1.53.18,2.15.54c.62.36,1.09.86,1.43,1.48.33.62.5,1.31.5,2.06s-.17,1.45-.51,2.07c-.34.62-.82,1.12-1.44,1.48s-1.33.54-2.13.54-1.52-.18-2.14-.54Zm3.75-1.68c.38-.49.57-1.1.57-1.84s-.2-1.36-.61-1.86c-.41-.5-.95-.76-1.62-.76s-1.16.25-1.56.75c-.39.5-.59,1.12-.59,1.87s.21,1.33.63,1.83c.42.49.96.74,1.62.74s1.18-.24,1.56-.73Z"/>
    <path class="cls-2" d="m108.47,162.82h2.09l1.68,3.52.54,1.41.54-1.41,1.67-3.52h2.04l-4.1,7.8h-.36l-4.11-7.8Z"/>
    <path class="cls-2" d="m119.37,170.24c-.62-.37-1.08-.86-1.38-1.48-.29-.62-.44-1.29-.44-2.03,0-.83.17-1.55.52-2.18.35-.62.82-1.1,1.44-1.44.61-.33,1.3-.5,2.07-.5,1.2,0,2.09.33,2.68.99.58.66.88,1.6.88,2.8,0,.31-.02.62-.05.95h-5.61c.12.69.37,1.19.74,1.5.37.31.88.46,1.54.46.54,0,.99-.04,1.34-.14.35-.09.67-.22.97-.37l.56,1.31c-.28.18-.67.34-1.16.48-.49.14-1.08.2-1.77.2-.93,0-1.71-.18-2.33-.55Zm3.98-4.16c.01-.7-.14-1.2-.46-1.49s-.77-.43-1.36-.43c-1.19,0-1.88.64-2.06,1.92h3.88Z"/>
    <path class="cls-2" d="m127.05,162.82h1.84v1.41c.25-.53.61-.94,1.1-1.21.48-.27,1.03-.41,1.66-.41,1.39.01,2.25.49,2.57,1.44.25-.44.62-.79,1.12-1.05.5-.26,1.03-.39,1.58-.39.82,0,1.43.16,1.85.47.42.31.7.75.84,1.33.14.57.21,1.34.21,2.3v3.91h-1.85v-3.93c0-.92-.09-1.58-.28-1.97-.19-.4-.55-.6-1.08-.6-.71,0-1.26.24-1.62.72-.37.48-.55,1.11-.55,1.9v3.88h-1.84v-4.2c0-.6-.02-1.05-.07-1.34-.05-.29-.17-.53-.37-.7-.2-.17-.53-.26-.99-.26-.4,0-.77.12-1.11.36-.35.24-.62.56-.83.96-.21.4-.31.84-.31,1.3v3.88h-1.85v-7.8Z"/>
    <path class="cls-2" d="m145.08,170.33c-.5-.31-.85-.67-1.05-1.08l-.03,1.38h-1.77v-12.5h1.8v4.81l-.08,1.33c.19-.45.57-.84,1.13-1.16.56-.32,1.17-.48,1.83-.48.77,0,1.44.17,2.01.52s1.01.83,1.32,1.44c.31.62.46,1.33.46,2.15s-.18,1.55-.54,2.16c-.36.61-.83,1.08-1.43,1.41-.59.33-1.24.49-1.95.49-.63,0-1.2-.16-1.71-.47Zm3.1-1.77c.4-.47.59-1.08.59-1.83s-.2-1.37-.59-1.84-.96-.71-1.71-.71c-.65,0-1.19.22-1.63.67s-.66,1.03-.66,1.76v.12c0,.49.1.92.31,1.31.21.39.49.69.83.9.35.22.73.32,1.15.32.74,0,1.3-.24,1.7-.71Z"/>
    <path class="cls-2" d="m154.01,170.24c-.62-.37-1.08-.86-1.38-1.48-.29-.62-.44-1.29-.44-2.03,0-.83.17-1.55.52-2.18.35-.62.82-1.1,1.44-1.44.61-.33,1.3-.5,2.07-.5,1.2,0,2.09.33,2.68.99.58.66.88,1.6.88,2.8,0,.31-.02.62-.05.95h-5.61c.12.69.37,1.19.74,1.5.37.31.88.46,1.54.46.54,0,.99-.04,1.34-.14.35-.09.67-.22.97-.37l.56,1.31c-.28.18-.67.34-1.16.48-.49.14-1.08.2-1.77.2-.93,0-1.71-.18-2.33-.55Zm3.98-4.16c.01-.7-.14-1.2-.46-1.49s-.77-.43-1.36-.43c-1.19,0-1.88.64-2.06,1.92h3.88Z"/>
    <path class="cls-2" d="m161.65,162.82h1.84v1.53c.18-.52.48-.94.88-1.26s.87-.48,1.39-.48c.36,0,.61.03.75.1l-.25,1.85c-.1-.07-.32-.1-.66-.1-.53,0-1.02.17-1.45.51-.44.34-.65.88-.65,1.63v4.01h-1.84v-7.8Z"/>
    <path class="cls-2" d="m168.07,164.7c-.24-.23-.36-.52-.36-.86s.12-.64.35-.88.52-.35.88-.35.64.12.88.35c.23.23.35.52.35.88s-.12.63-.35.86c-.23.23-.52.35-.88.35s-.63-.12-.87-.35Zm0,5.75c-.24-.23-.36-.52-.36-.86s.12-.64.35-.88.52-.35.88-.35.64.12.88.35c.23.23.35.52.35.88s-.12.63-.35.86-.52.35-.88.35-.63-.12-.87-.35Z"/>
    <path class="cls-2" d="m181.37,158.11l6.02,12.51h-2.19l-1.07-2.45h-5.73l-1.07,2.45h-2.12l5.98-12.51h.19Zm-1.33-.67c-.39-.19-.69-.45-.92-.78s-.34-.72-.34-1.15c0-.63.25-1.15.74-1.56.49-.4,1.08-.6,1.78-.6.44,0,.86.09,1.24.27.39.18.69.44.93.77.23.33.35.71.35,1.11s-.12.8-.35,1.13c-.23.33-.54.6-.93.79s-.8.29-1.24.29-.87-.09-1.26-.28Zm.48,5.99l-1.36,3.03h4.22l-1.34-3.01-.73-1.72h-.03l-.75,1.7Zm1.5-7.22c.2-.19.3-.42.3-.71s-.1-.5-.3-.67c-.2-.18-.44-.26-.72-.26s-.52.09-.71.26c-.19.18-.29.4-.29.67s.1.52.29.71c.19.19.43.28.71.28s.52-.09.72-.28Z"/>
    <path class="cls-2" d="m191.23,170.33c-.5-.31-.85-.67-1.05-1.08l-.03,1.38h-1.77v-12.5h1.8v4.81l-.08,1.33c.19-.45.57-.84,1.13-1.16.56-.32,1.17-.48,1.83-.48.77,0,1.44.17,2.01.52s1.01.83,1.32,1.44.46,1.33.46,2.15-.18,1.55-.54,2.16c-.36.61-.83,1.08-1.43,1.41-.59.33-1.24.49-1.95.49-.63,0-1.2-.16-1.71-.47Zm3.1-1.77c.4-.47.59-1.08.59-1.83s-.2-1.37-.59-1.84c-.39-.47-.96-.71-1.71-.71-.65,0-1.19.22-1.63.67-.44.45-.66,1.03-.66,1.76v.12c0,.49.1.92.31,1.31.21.39.49.69.83.9.35.22.73.32,1.15.32.74,0,1.3-.24,1.7-.71Z"/>
    <path class="cls-2" d="m198.81,162.82h1.8l.02,1.43c.22-.48.56-.87,1.02-1.17.46-.31,1.01-.46,1.63-.46.8,0,1.42.17,1.85.5s.72.8.87,1.4c.15.6.22,1.38.22,2.35v3.76h-1.84v-3.71c0-.99-.1-1.7-.29-2.13-.19-.44-.59-.65-1.19-.65-.34,0-.69.1-1.04.31-.35.21-.64.51-.88.91-.23.4-.35.86-.35,1.39v3.88h-1.84v-7.8Z"/>
    <path class="cls-2" d="m209.94,170.24c-.62-.37-1.08-.86-1.38-1.48-.3-.62-.44-1.29-.44-2.03,0-.83.17-1.55.52-2.18.35-.62.82-1.1,1.44-1.44s1.3-.5,2.07-.5c1.2,0,2.09.33,2.68.99.58.66.88,1.6.88,2.8,0,.31-.02.62-.05.95h-5.61c.12.69.37,1.19.74,1.5s.88.46,1.54.46c.54,0,.99-.04,1.34-.14s.67-.22.97-.37l.56,1.31c-.28.18-.67.34-1.16.48-.49.14-1.08.2-1.77.2-.93,0-1.71-.18-2.33-.55Zm3.98-4.16c.01-.7-.14-1.2-.46-1.49s-.77-.43-1.36-.43c-1.19,0-1.88.64-2.06,1.92h3.88Z"/>
    <path class="cls-2" d="m217.58,162.82h1.84v1.53c.18-.52.48-.94.88-1.26s.87-.48,1.39-.48c.36,0,.61.03.75.1l-.25,1.85c-.1-.07-.32-.1-.66-.1-.53,0-1.02.17-1.45.51s-.65.88-.65,1.63v4.01h-1.84v-7.8Z"/>
    <path class="cls-2" d="m228.89,170.58c-.58-.14-1-.31-1.25-.5l.61-1.44c.68.48,1.46.71,2.33.71s1.31-.25,1.31-.77c0-.23-.09-.4-.27-.53-.18-.12-.5-.27-.97-.44l-.65-.24c-.68-.27-1.22-.6-1.62-.98-.4-.38-.59-.88-.59-1.5,0-.71.28-1.27.84-1.67.56-.4,1.31-.6,2.25-.6.46,0,.92.05,1.37.15s.79.23,1.03.39l-.66,1.46c-.15-.15-.38-.27-.71-.38-.32-.11-.68-.16-1.08-.16-.81,0-1.21.24-1.21.73,0,.27.11.48.32.62.22.14.57.3,1.05.47.04.01.22.07.53.19.73.28,1.26.61,1.62.97s.53.83.53,1.39c0,.77-.29,1.35-.88,1.75-.58.4-1.32.59-2.22.59-.54,0-1.11-.07-1.69-.21Z"/>
    <path class="cls-2" d="m237.07,170.25c-.62-.36-1.11-.86-1.45-1.48-.34-.62-.51-1.31-.51-2.07s.17-1.43.5-2.06c.33-.62.81-1.12,1.44-1.48.62-.36,1.34-.54,2.16-.54s1.53.18,2.15.54c.62.36,1.09.86,1.43,1.48.33.62.5,1.31.5,2.06s-.17,1.45-.51,2.07c-.34.62-.82,1.12-1.44,1.48-.62.36-1.33.54-2.13.54s-1.52-.18-2.14-.54Zm3.75-1.68c.38-.49.57-1.1.57-1.84s-.2-1.36-.61-1.86-.95-.76-1.62-.76-1.16.25-1.56.75c-.39.5-.59,1.12-.59,1.87s.21,1.33.63,1.83c.42.49.96.74,1.62.74s1.17-.24,1.55-.73Z"/>
    <path class="cls-2" d="m245.25,162.82h1.84v1.41c.25-.53.61-.94,1.1-1.21.48-.27,1.03-.41,1.66-.41,1.39.01,2.25.49,2.57,1.44.25-.44.62-.79,1.12-1.05.5-.26,1.03-.39,1.58-.39.82,0,1.43.16,1.85.47.42.31.7.75.84,1.33s.21,1.34.21,2.3v3.91h-1.85v-3.93c0-.92-.09-1.58-.28-1.97-.19-.4-.55-.6-1.08-.6-.71,0-1.25.24-1.62.72-.37.48-.55,1.11-.55,1.9v3.88h-1.84v-4.2c0-.6-.02-1.05-.07-1.34-.04-.29-.17-.53-.37-.7-.2-.17-.53-.26-.99-.26-.4,0-.77.12-1.11.36-.35.24-.62.56-.83.96-.21.4-.31.84-.31,1.3v3.88h-1.85v-7.8Z"/>
    <path class="cls-2" d="m265.26,164.29h-1.26v-1.46h1.26v-1.68c0-1.02.25-1.81.74-2.37s1.21-.84,2.17-.84c.39,0,.82.11,1.31.32l-.36,1.73c-.08-.09-.2-.18-.37-.26-.17-.09-.34-.13-.54-.13-.76,0-1.15.49-1.16,1.48v1.75h1.84v1.46h-1.84v6.34h-1.8v-6.34Z"/>
    <path class="cls-2" d="m272.93,170.86l-3.23-8.04h2.07l1.67,4.96.37,1.21.37-1.21,1.75-4.96h2.01l-4.79,12.09h-1.9l1.68-4.05Z"/>
    <path class="cls-2" d="m280.13,170.58c-.58-.14-1-.31-1.25-.5l.61-1.44c.68.48,1.46.71,2.33.71s1.31-.25,1.31-.77c0-.23-.09-.4-.27-.53-.18-.12-.5-.27-.97-.44l-.65-.24c-.68-.27-1.22-.6-1.62-.98-.4-.38-.59-.88-.59-1.5,0-.71.28-1.27.84-1.67.56-.4,1.31-.6,2.25-.6.46,0,.92.05,1.37.15s.79.23,1.03.39l-.66,1.46c-.15-.15-.38-.27-.71-.38-.32-.11-.68-.16-1.08-.16-.81,0-1.21.24-1.21.73,0,.27.11.48.32.62.22.14.57.3,1.05.47.04.01.22.07.53.19.73.28,1.26.61,1.62.97s.53.83.53,1.39c0,.77-.29,1.35-.88,1.75-.58.4-1.32.59-2.22.59-.54,0-1.11-.07-1.69-.21Z"/>
    <path class="cls-2" d="m287,161c-.24-.24-.36-.53-.36-.88,0-.32.12-.59.36-.82.24-.23.53-.34.88-.34s.63.11.87.34c.24.23.36.5.36.82,0,.35-.12.65-.35.88-.23.24-.52.36-.88.36s-.65-.12-.88-.36Zm-.05,1.82h1.9v7.8h-1.9v-7.8Z"/>
    <path class="cls-2" d="m292.4,170.58c-.58-.14-1-.31-1.25-.5l.61-1.44c.68.48,1.46.71,2.33.71s1.31-.25,1.31-.77c0-.23-.09-.4-.27-.53-.18-.12-.5-.27-.97-.44l-.65-.24c-.68-.27-1.22-.6-1.62-.98-.4-.38-.59-.88-.59-1.5,0-.71.28-1.27.84-1.67.56-.4,1.31-.6,2.25-.6.46,0,.92.05,1.37.15s.79.23,1.03.39l-.66,1.46c-.15-.15-.38-.27-.71-.38-.32-.11-.68-.16-1.08-.16-.81,0-1.21.24-1.21.73,0,.27.11.48.32.62.22.14.57.3,1.05.47.04.01.22.07.53.19.73.28,1.26.61,1.62.97s.53.83.53,1.39c0,.77-.29,1.35-.88,1.75-.58.4-1.32.59-2.22.59-.54,0-1.11-.07-1.69-.21Z"/>
    <path class="cls-2" d="m306.14,170.63h-2.16l-1.58-2.55-.44-.87-1.02,1.1v2.31h-1.77v-12.5h1.75v6.85l-.03,1.33,2.98-3.49h2.26l-2.94,3.26,2.96,4.54Z"/>
    <path class="cls-2" d="m314.69,170.33c-.5-.31-.85-.67-1.04-1.08l-.03,1.38h-1.77v-12.5h1.8v4.81l-.08,1.33c.19-.45.57-.84,1.13-1.16.56-.32,1.17-.48,1.83-.48.77,0,1.44.17,2.01.52.57.35,1.01.83,1.32,1.44.31.62.46,1.33.46,2.15s-.18,1.55-.54,2.16c-.36.61-.83,1.08-1.43,1.41-.59.33-1.24.49-1.95.49-.63,0-1.2-.16-1.71-.47Zm3.1-1.77c.4-.47.6-1.08.6-1.83s-.2-1.37-.59-1.84-.96-.71-1.71-.71c-.65,0-1.19.22-1.63.67-.44.45-.66,1.03-.66,1.76v.12c0,.49.1.92.31,1.31.21.39.49.69.83.9.34.22.73.32,1.15.32.74,0,1.3-.24,1.7-.71Z"/>
    <path class="cls-2" d="m322.74,169.84c-.4-.63-.6-1.52-.6-2.65v-4.37h1.84v3.91c0,.65.04,1.15.11,1.5.07.36.22.62.44.79s.55.26.99.26c.32,0,.62-.09.92-.27.29-.18.54-.43.72-.74.19-.31.28-.65.28-1.03v-4.42h1.82v7.8h-1.5l-.2-1.14c-.28.44-.64.77-1.06.99-.42.21-.94.32-1.54.32-1.08,0-1.82-.32-2.22-.95Z"/>
    <path class="cls-2" d="m332.39,164.32h-1.38v-1.5h1.38v-3.18l1.85-.41v3.59h1.8v1.5h-1.8v6.31h-1.85v-6.31Z"/>
    <path class="cls-2" d="m337.73,161c-.24-.24-.36-.53-.36-.88,0-.32.12-.59.36-.82.24-.23.53-.34.88-.34s.63.11.87.34c.24.23.36.5.36.82,0,.35-.12.65-.35.88-.23.24-.52.36-.88.36s-.65-.12-.88-.36Zm-.05,1.82h1.9v7.8h-1.9v-7.8Z"/>
    <path class="cls-2" d="m349.19,170.63h-2.16l-1.58-2.55-.44-.87-1.02,1.1v2.31h-1.77v-12.5h1.75v6.85l-.03,1.33,2.98-3.49h2.26l-2.94,3.26,2.96,4.54Z"/>
    <path class="cls-2" d="m354.85,162.82h1.77v1.45c.62-1.1,1.6-1.65,2.92-1.65,1.1,0,1.99.35,2.67,1.05.68.7,1.02,1.7,1.02,3.02,0,.82-.17,1.54-.5,2.16-.33.62-.79,1.1-1.36,1.45-.57.34-1.21.51-1.91.51-.66,0-1.23-.12-1.71-.35-.48-.23-.86-.56-1.13-.99l.02,5.3h-1.79v-11.93Zm5.88,5.72c.4-.47.59-1.07.59-1.81s-.2-1.39-.59-1.84c-.39-.46-.96-.69-1.71-.69-.41,0-.79.1-1.15.3-.36.2-.64.48-.85.85-.21.37-.31.8-.31,1.28v.12c0,.49.1.92.31,1.3.21.38.49.67.84.88.35.21.74.31,1.16.31.74,0,1.3-.24,1.7-.71Z"/>
    <path class="cls-2" d="m366.69,170.29c-.6-.33-1.07-.81-1.43-1.43-.36-.62-.54-1.34-.54-2.17s.16-1.53.47-2.14c.31-.61.76-1.09,1.33-1.43s1.26-.51,2.04-.51c.45,0,.88.08,1.28.24.4.16.73.35,1,.59.27.23.45.46.54.69l.03-1.31h1.75v7.8h-1.73l-.03-1.38c-.19.41-.54.77-1.05,1.08s-1.08.47-1.72.47c-.7,0-1.35-.17-1.95-.5Zm1.19-8.78c-.39-.19-.7-.46-.93-.82-.23-.35-.35-.75-.35-1.21s.12-.84.35-1.2c.23-.36.54-.63.93-.83.39-.2.81-.3,1.25-.3s.88.1,1.27.3c.39.2.7.48.93.83s.35.76.35,1.2-.12.84-.35,1.19c-.23.35-.54.63-.93.82-.39.2-.81.3-1.27.3s-.86-.1-1.25-.29Zm2.69,7.08c.44-.45.66-1.03.66-1.76v-.12c0-.49-.1-.92-.31-1.31-.2-.38-.48-.69-.83-.9-.35-.21-.74-.32-1.16-.32-.73,0-1.29.24-1.68.71-.4.47-.6,1.08-.6,1.83s.2,1.37.59,1.84.96.71,1.69.71c.65,0,1.19-.22,1.63-.67Zm-.73-8.33c.19-.2.29-.46.29-.77s-.1-.58-.29-.77c-.19-.2-.43-.3-.71-.3s-.5.1-.69.3c-.19.2-.28.46-.28.77s.09.58.28.77c.19.2.42.3.69.3s.52-.1.71-.3Z"/>
    <path class="cls-2" d="m45.37,178.53h2.16l3.74,8.58,3.76-8.58h2.14l-5.76,12.5h-.26l-5.78-12.5Z"/>
    <path class="cls-2" d="m58.44,190.64c-.62-.37-1.08-.86-1.38-1.48-.29-.62-.44-1.29-.44-2.03,0-.83.17-1.55.52-2.18.35-.62.82-1.1,1.44-1.44.61-.33,1.3-.5,2.07-.5,1.2,0,2.09.33,2.68.99.58.66.88,1.6.88,2.8,0,.31-.02.62-.05.95h-5.61c.12.69.37,1.19.74,1.5.37.31.88.46,1.54.46.54,0,.99-.04,1.34-.14.35-.09.67-.22.97-.37l.56,1.31c-.28.18-.67.34-1.16.48-.49.14-1.08.2-1.77.2-.93,0-1.71-.18-2.33-.55Zm3.98-4.16c.01-.7-.14-1.2-.46-1.49s-.77-.43-1.36-.43c-1.19,0-1.88.64-2.06,1.92h3.88Z"/>
    <path class="cls-2" d="m67.12,190.98c-.58-.14-1-.31-1.25-.5l.61-1.44c.68.48,1.46.71,2.33.71s1.31-.25,1.31-.77c0-.23-.09-.4-.27-.53-.18-.12-.5-.27-.97-.44l-.65-.24c-.68-.27-1.22-.6-1.61-.98-.4-.38-.6-.88-.6-1.5,0-.71.28-1.27.84-1.67.56-.4,1.31-.6,2.25-.6.46,0,.92.05,1.37.15s.79.23,1.03.39l-.66,1.46c-.15-.15-.38-.27-.71-.38-.32-.11-.68-.16-1.08-.16-.8,0-1.21.24-1.21.73,0,.27.11.48.32.62.21.14.57.3,1.05.47.05.01.22.07.53.19.73.28,1.26.61,1.61.97.35.36.53.83.53,1.39,0,.77-.29,1.35-.88,1.75-.58.4-1.32.59-2.22.59-.54,0-1.11-.07-1.69-.21Z"/>
    <path class="cls-2" d="m74.49,184.72h-1.38v-1.5h1.38v-3.18l1.85-.41v3.59h1.8v1.5h-1.8v6.31h-1.85v-6.31Z"/>
    <path class="cls-2" d="m81,190.64c-.62-.37-1.08-.86-1.38-1.48-.29-.62-.44-1.29-.44-2.03,0-.83.17-1.55.52-2.18.35-.62.82-1.1,1.44-1.44.61-.33,1.3-.5,2.07-.5,1.2,0,2.09.33,2.68.99.58.66.88,1.6.88,2.8,0,.31-.02.62-.05.95h-5.61c.12.69.37,1.19.74,1.5.37.31.88.46,1.54.46.54,0,.99-.04,1.34-.14.35-.09.67-.22.97-.37l.56,1.31c-.28.18-.67.34-1.16.48-.49.14-1.08.2-1.77.2-.93,0-1.71-.18-2.33-.55Zm3.98-4.16c.01-.7-.14-1.2-.46-1.49s-.77-.43-1.36-.43c-1.19,0-1.88.64-2.06,1.92h3.88Z"/>
    <path class="cls-2" d="m88.63,183.22h1.84v1.53c.18-.52.48-.94.88-1.26s.87-.48,1.39-.48c.36,0,.61.03.75.1l-.25,1.85c-.1-.07-.32-.1-.66-.1-.53,0-1.02.17-1.45.51-.44.34-.65.88-.65,1.63v4.01h-1.84v-7.8Z"/>
    <path class="cls-2" d="m97.7,190.73c-.5-.31-.85-.67-1.05-1.08l-.03,1.38h-1.77v-12.5h1.8v4.81l-.08,1.33c.19-.45.57-.84,1.13-1.16.56-.32,1.17-.48,1.83-.48.77,0,1.44.17,2.01.52s1.01.83,1.32,1.44c.31.62.46,1.33.46,2.15s-.18,1.55-.54,2.16c-.36.61-.83,1.08-1.43,1.41-.59.33-1.24.49-1.95.49-.63,0-1.2-.16-1.71-.47Zm3.1-1.77c.4-.47.59-1.08.59-1.83s-.2-1.37-.59-1.84-.96-.71-1.71-.71c-.65,0-1.19.22-1.63.67s-.66,1.03-.66,1.76v.12c0,.49.1.92.31,1.31.21.39.49.69.83.9.35.22.73.32,1.15.32.74,0,1.3-.24,1.7-.71Z"/>
    <path class="cls-2" d="m105.22,183.22h1.84v1.53c.18-.52.48-.94.88-1.26s.87-.48,1.39-.48c.36,0,.61.03.75.1l-.25,1.85c-.1-.07-.32-.1-.66-.1-.53,0-1.02.17-1.45.51-.44.34-.65.88-.65,1.63v4.01h-1.84v-7.8Z"/>
    <path class="cls-2" d="m112.87,190.65c-.62-.36-1.1-.86-1.45-1.48-.34-.62-.51-1.31-.51-2.07s.17-1.43.5-2.06c.33-.62.81-1.12,1.44-1.48.62-.36,1.34-.54,2.16-.54s1.53.18,2.15.54c.62.36,1.09.86,1.43,1.48.33.62.5,1.31.5,2.06s-.17,1.45-.51,2.07c-.34.62-.82,1.12-1.44,1.48s-1.33.54-2.13.54-1.52-.18-2.14-.54Zm3.75-1.68c.38-.49.57-1.1.57-1.84s-.2-1.36-.61-1.86c-.41-.5-.95-.76-1.62-.76s-1.16.25-1.56.75c-.39.5-.59,1.12-.59,1.87s.21,1.33.63,1.83c.42.49.96.74,1.62.74s1.18-.24,1.56-.73Z"/>
    <path class="cls-2" d="m123.13,194.87c-.56-.16-.96-.31-1.2-.44l.41-1.7c.75.49,1.56.73,2.45.73.68,0,1.25-.16,1.72-.49.46-.33.7-.97.71-1.92v-1.39c-.24.44-.62.81-1.16,1.1-.53.29-1.12.44-1.77.44-.68,0-1.3-.17-1.87-.5-.57-.33-1.01-.81-1.34-1.44-.33-.62-.49-1.35-.49-2.18s.16-1.5.47-2.12.76-1.1,1.33-1.44c.58-.34,1.25-.51,2.02-.51.45,0,.88.08,1.27.24.4.16.73.35,1.01.59.28.23.46.46.55.69l.03-1.31h1.73v7.75c0,1.33-.34,2.35-1.02,3.06-.68.71-1.73,1.07-3.16,1.07-.58,0-1.15-.08-1.71-.24Zm3.31-5.89c.44-.45.66-1.03.66-1.76v-.12c0-.49-.1-.92-.31-1.31s-.48-.69-.83-.9c-.35-.21-.74-.32-1.16-.32-.73,0-1.29.24-1.68.71-.4.47-.59,1.08-.59,1.83s.2,1.37.59,1.84.95.71,1.69.71c.65,0,1.19-.22,1.63-.67Z"/>
    <path class="cls-2" d="m132.87,190.69c-.59-.33-1.07-.81-1.43-1.43-.36-.62-.54-1.34-.54-2.17s.16-1.53.47-2.14c.31-.61.76-1.09,1.33-1.43.58-.34,1.26-.51,2.04-.51.45,0,.88.08,1.28.24.4.16.73.35,1,.59.27.23.45.46.54.69l.03-1.31h1.75v7.8h-1.73l-.03-1.38c-.19.41-.54.77-1.05,1.08s-1.08.47-1.72.47c-.7,0-1.35-.17-1.95-.5Zm3.88-1.7c.44-.45.66-1.03.66-1.76v-.12c0-.49-.1-.92-.31-1.31-.2-.38-.48-.69-.83-.9-.35-.21-.74-.32-1.16-.32-.73,0-1.29.24-1.68.71-.4.47-.59,1.08-.59,1.83s.2,1.37.59,1.84.95.71,1.69.71c.65,0,1.19-.22,1.63-.67Z"/>
    <path class="cls-2" d="m143.33,190.69c-.59-.33-1.07-.81-1.43-1.43-.36-.62-.54-1.34-.54-2.17,0-1.24.35-2.22,1.04-2.97.69-.74,1.63-1.11,2.8-1.11.66,0,1.26.16,1.8.48.54.32.91.71,1.1,1.16l-.08-1.33v-4.81h1.8v12.5h-1.75l-.03-1.38c-.19.41-.54.77-1.05,1.08s-1.08.47-1.72.47c-.7,0-1.35-.17-1.95-.5Zm3.88-1.72c.44-.45.66-1.03.66-1.76v-.12c0-.49-.1-.92-.31-1.31s-.48-.69-.83-.9c-.35-.21-.74-.32-1.16-.32-.73,0-1.29.24-1.68.71-.4.47-.59,1.08-.59,1.83s.2,1.37.59,1.84.95.71,1.69.71c.65,0,1.19-.22,1.63-.67Z"/>
    <path class="cls-2" d="m153.62,190.64c-.62-.37-1.08-.86-1.38-1.48-.29-.62-.44-1.29-.44-2.03,0-.83.17-1.55.52-2.18.35-.62.82-1.1,1.44-1.44.61-.33,1.3-.5,2.07-.5,1.2,0,2.09.33,2.68.99.58.66.88,1.6.88,2.8,0,.31-.02.62-.05.95h-5.61c.12.69.37,1.19.74,1.5.37.31.88.46,1.54.46.54,0,.99-.04,1.34-.14.35-.09.67-.22.97-.37l.56,1.31c-.28.18-.67.34-1.16.48-.49.14-1.08.2-1.77.2-.93,0-1.71-.18-2.33-.55Zm3.98-4.16c.01-.7-.14-1.2-.46-1.49s-.77-.43-1.36-.43c-1.19,0-1.88.64-2.06,1.92h3.88Z"/>
    <path class="cls-2" d="m166.46,178.72l1.92-.54v12.85h-1.92v-12.31Z"/>
    <path class="cls-2" d="m172.61,189.48c-.74-1.2-1.1-2.77-1.1-4.69s.36-3.56,1.07-4.72c.71-1.16,1.88-1.74,3.48-1.74,3.03,0,4.54,2.15,4.54,6.46,0,1.96-.37,3.53-1.1,4.72-.74,1.18-1.88,1.78-3.43,1.78s-2.71-.6-3.45-1.8Zm5.38-1.27c.36-.89.54-2.03.54-3.43,0-1.46-.18-2.62-.53-3.47-.35-.85-1-1.27-1.94-1.27s-1.59.42-1.95,1.27-.54,2.01-.54,3.47c0,3.17.83,4.76,2.48,4.76.93,0,1.57-.44,1.93-1.33Z"/>
    <path class="cls-2" d="m183.75,178.72l1.92-.54v12.85h-1.92v-12.31Z"/>
    <path class="cls-2" d="m189.44,190.85c-.24-.23-.36-.52-.36-.86s.12-.64.35-.88c.23-.23.52-.35.88-.35s.64.12.88.35c.23.23.35.52.35.88s-.12.63-.35.86c-.23.23-.52.35-.88.35s-.63-.12-.87-.35Z"/>
  </g>
  <g>
    <path class="cls-2" d="m51.91,237.57c.53-.71.98-1.38,1.33-1.99.36-.61.54-1.18.54-1.7,0-.63-.17-1.12-.5-1.45s-.84-.5-1.5-.5c-.61,0-1.1.17-1.48.51s-.69.75-.94,1.24l-1.58-.85c.4-.76.92-1.4,1.56-1.92s1.47-.78,2.48-.78c1.26,0,2.22.33,2.89.98.67.65,1,1.5,1,2.56,0,1.37-.68,2.89-2.04,4.56l-2.31,2.92h4.85v1.68h-8.5l4.2-5.25Z"/>
    <path class="cls-2" d="m59.55,241.28c-.74-1.2-1.1-2.77-1.1-4.69s.36-3.56,1.07-4.72c.71-1.16,1.88-1.74,3.48-1.74,3.03,0,4.54,2.15,4.54,6.46,0,1.96-.37,3.53-1.1,4.72s-1.88,1.78-3.43,1.78-2.71-.6-3.45-1.8Zm5.38-1.27c.36-.89.54-2.03.54-3.43s-.18-2.62-.53-3.47c-.35-.85-1-1.28-1.94-1.28s-1.59.43-1.95,1.28-.54,2.01-.54,3.47c0,3.17.83,4.76,2.48,4.76.93,0,1.57-.45,1.93-1.33Z"/>
    <path class="cls-2" d="m73.89,237.57c.53-.71.98-1.38,1.33-1.99.36-.61.54-1.18.54-1.7,0-.63-.17-1.12-.5-1.45s-.84-.5-1.5-.5c-.61,0-1.1.17-1.48.51s-.69.75-.94,1.24l-1.58-.85c.4-.76.92-1.4,1.56-1.92s1.47-.78,2.48-.78c1.26,0,2.22.33,2.89.98.67.65,1,1.5,1,2.56,0,1.37-.68,2.89-2.04,4.56l-2.31,2.92h4.85v1.68h-8.5l4.2-5.25Z"/>
    <path class="cls-2" d="m81.53,241.28c-.74-1.2-1.1-2.77-1.1-4.69s.36-3.56,1.07-4.72c.71-1.16,1.88-1.74,3.48-1.74,3.03,0,4.54,2.15,4.54,6.46,0,1.96-.37,3.53-1.1,4.72s-1.88,1.78-3.43,1.78-2.71-.6-3.45-1.8Zm5.38-1.27c.36-.89.54-2.03.54-3.43s-.18-2.62-.53-3.47c-.35-.85-1-1.28-1.94-1.28s-1.59.43-1.95,1.28-.54,2.01-.54,3.47c0,3.17.83,4.76,2.48,4.76.93,0,1.57-.45,1.93-1.33Z"/>
    <path class="cls-2" d="m95.84,235.02h1.8l.02,1.43c.22-.48.56-.87,1.02-1.17s1.01-.46,1.63-.46c.8,0,1.42.17,1.85.5.43.33.72.8.87,1.4.15.6.22,1.38.22,2.35v3.76h-1.84v-3.71c0-.99-.1-1.7-.29-2.13-.19-.44-.59-.65-1.19-.65-.34,0-.69.11-1.04.31-.35.21-.64.51-.88.91-.23.4-.35.86-.35,1.39v3.88h-1.84v-7.8Z"/>
    <path class="cls-2" d="m107.11,242.45c-.62-.36-1.1-.86-1.45-1.48-.34-.62-.51-1.32-.51-2.07s.17-1.43.5-2.06c.33-.62.81-1.12,1.44-1.48.62-.36,1.34-.54,2.16-.54s1.53.18,2.15.54c.62.36,1.09.86,1.43,1.48.33.62.5,1.31.5,2.06s-.17,1.45-.51,2.07c-.34.62-.82,1.12-1.44,1.48-.62.36-1.33.54-2.13.54s-1.52-.18-2.14-.54Zm3.75-1.68c.38-.49.57-1.1.57-1.84s-.2-1.36-.61-1.86c-.41-.5-.95-.76-1.62-.76s-1.16.25-1.56.75c-.39.5-.59,1.12-.59,1.87s.21,1.33.63,1.83c.42.49.96.74,1.62.74s1.18-.24,1.56-.73Z"/>
    <path class="cls-2" d="m114.05,235.02h2.09l1.68,3.52.54,1.41.54-1.41,1.67-3.52h2.04l-4.1,7.8h-.36l-4.11-7.8Z"/>
    <path class="cls-2" d="m124.94,242.44c-.62-.37-1.08-.86-1.38-1.48-.29-.62-.44-1.29-.44-2.03,0-.83.17-1.55.52-2.18.35-.62.82-1.1,1.44-1.44.61-.33,1.3-.5,2.07-.5,1.2,0,2.09.33,2.68.99.58.66.88,1.6.88,2.8,0,.31-.02.62-.05.95h-5.61c.12.69.37,1.19.74,1.5.37.31.88.46,1.54.46.54,0,.99-.05,1.34-.14.35-.09.67-.21.97-.37l.56,1.31c-.28.18-.67.34-1.16.48s-1.08.2-1.77.2c-.93,0-1.71-.18-2.33-.55Zm3.98-4.16c.01-.7-.14-1.2-.46-1.49s-.77-.43-1.36-.43c-1.19,0-1.88.64-2.06,1.92h3.88Z"/>
    <path class="cls-2" d="m132.63,235.02h1.84v1.41c.25-.53.61-.94,1.1-1.21.48-.27,1.03-.41,1.66-.41,1.39.01,2.25.49,2.57,1.45.25-.44.62-.79,1.12-1.05s1.03-.39,1.58-.39c.82,0,1.43.16,1.85.47.42.31.7.75.84,1.33.14.57.21,1.34.21,2.3v3.91h-1.85v-3.93c0-.92-.09-1.58-.28-1.97-.19-.4-.55-.59-1.08-.59-.71,0-1.26.24-1.62.72-.37.48-.55,1.11-.55,1.9v3.88h-1.84v-4.2c0-.6-.02-1.05-.07-1.34-.05-.29-.17-.53-.37-.7s-.53-.25-.99-.25c-.4,0-.77.12-1.11.36-.35.24-.62.56-.83.96-.21.4-.31.84-.31,1.3v3.88h-1.85v-7.8Z"/>
    <path class="cls-2" d="m150.66,242.53c-.5-.31-.85-.67-1.05-1.08l-.03,1.38h-1.77v-12.5h1.8v4.81l-.08,1.33c.19-.45.57-.84,1.13-1.16s1.17-.48,1.83-.48c.77,0,1.44.17,2.01.52s1.01.83,1.32,1.44c.31.62.46,1.33.46,2.15s-.18,1.55-.54,2.16c-.36.61-.83,1.08-1.43,1.41-.59.33-1.24.49-1.95.49-.63,0-1.2-.16-1.71-.47Zm3.1-1.77c.4-.47.59-1.08.59-1.83s-.2-1.37-.59-1.84-.96-.71-1.71-.71c-.65,0-1.19.22-1.63.67-.44.45-.66,1.03-.66,1.76v.12c0,.49.1.92.31,1.31.21.39.49.69.83.9.35.21.73.32,1.15.32.74,0,1.3-.23,1.7-.71Z"/>
    <path class="cls-2" d="m159.59,242.44c-.62-.37-1.08-.86-1.38-1.48-.29-.62-.44-1.29-.44-2.03,0-.83.17-1.55.52-2.18.35-.62.82-1.1,1.44-1.44.61-.33,1.3-.5,2.07-.5,1.2,0,2.09.33,2.68.99.58.66.88,1.6.88,2.8,0,.31-.02.62-.05.95h-5.61c.12.69.37,1.19.74,1.5.37.31.88.46,1.54.46.54,0,.99-.05,1.34-.14.35-.09.67-.21.97-.37l.56,1.31c-.28.18-.67.34-1.16.48s-1.08.2-1.77.2c-.93,0-1.71-.18-2.33-.55Zm3.98-4.16c.01-.7-.14-1.2-.46-1.49s-.77-.43-1.36-.43c-1.19,0-1.88.64-2.06,1.92h3.88Z"/>
    <path class="cls-2" d="m167.22,235.02h1.84v1.53c.18-.52.48-.94.88-1.26s.87-.48,1.39-.48c.36,0,.61.03.75.1l-.25,1.85c-.1-.07-.32-.1-.66-.1-.53,0-1.02.17-1.45.51-.44.34-.65.88-.65,1.63v4.01h-1.84v-7.8Z"/>
    <path class="cls-2" d="m173.65,236.9c-.24-.23-.36-.52-.36-.86s.12-.64.35-.88c.23-.23.52-.35.88-.35s.64.12.88.35c.23.23.35.52.35.88s-.12.63-.35.86c-.23.23-.52.35-.88.35s-.63-.12-.87-.35Zm0,5.75c-.24-.23-.36-.52-.36-.86s.12-.64.35-.88c.23-.23.52-.35.88-.35s.64.12.88.35c.23.23.35.52.35.88s-.12.63-.35.86c-.23.23-.52.35-.88.35s-.63-.12-.87-.35Z"/>
    <path class="cls-2" d="m182.35,230.33h5.86v1.65h-3.98v3.54h3.09v1.67h-3.09v5.64h-1.89v-12.5Z"/>
    <path class="cls-2" d="m190,230.33h1.82v12.5h-1.82v-12.5Z"/>
    <path class="cls-2" d="m196.65,243.07l-3.23-8.04h2.07l1.67,4.96.37,1.21.37-1.21,1.75-4.96h2.01l-4.79,12.09h-1.9l1.68-4.05Z"/>
    <path class="cls-2" d="m203.54,236.52h-1.38v-1.5h1.38v-3.18l1.85-.41v3.59h1.8v1.5h-1.8v6.31h-1.85v-6.31Z"/>
    <path class="cls-2" d="m209.36,236.52h-1.38v-1.5h1.38v-3.18l1.85-.41v3.59h1.8v1.5h-1.8v6.31h-1.85v-6.31Z"/>
    <path class="cls-2" d="m215.88,242.44c-.62-.37-1.08-.86-1.38-1.48-.29-.62-.44-1.29-.44-2.03,0-.83.17-1.55.52-2.18.35-.62.82-1.1,1.44-1.44.61-.33,1.3-.5,2.07-.5,1.2,0,2.09.33,2.68.99.58.66.88,1.6.88,2.8,0,.31-.02.62-.05.95h-5.61c.12.69.37,1.19.74,1.5.37.31.88.46,1.54.46.54,0,.99-.05,1.34-.14.35-.09.67-.21.97-.37l.56,1.31c-.28.18-.67.34-1.16.48s-1.08.2-1.77.2c-.93,0-1.71-.18-2.33-.55Zm3.98-4.16c.01-.7-.14-1.2-.46-1.49s-.77-.43-1.36-.43c-1.19,0-1.88.64-2.06,1.92h3.88Z"/>
    <path class="cls-2" d="m223.51,235.02h1.84v1.53c.18-.52.48-.94.88-1.26s.87-.48,1.39-.48c.36,0,.61.03.75.1l-.25,1.85c-.1-.07-.32-.1-.66-.1-.53,0-1.02.17-1.45.51-.44.34-.65.88-.65,1.63v4.01h-1.84v-7.8Z"/>
    <path class="cls-2" d="m234.56,236.49h-1.26v-1.46h1.26v-1.68c0-1.02.25-1.81.74-2.37.49-.56,1.21-.84,2.17-.84.39,0,.82.11,1.31.32l-.36,1.73c-.08-.09-.2-.18-.37-.26-.17-.08-.34-.13-.54-.13-.76,0-1.15.49-1.16,1.48v1.75h1.84v1.46h-1.84v6.34h-1.8v-6.34Z"/>
    <path class="cls-2" d="m239.93,235.02h1.84v1.53c.18-.52.48-.94.88-1.26s.87-.48,1.39-.48c.36,0,.61.03.75.1l-.25,1.85c-.1-.07-.32-.1-.66-.1-.53,0-1.02.17-1.45.51-.44.34-.65.88-.65,1.63v4.01h-1.84v-7.8Z"/>
    <path class="cls-2" d="m247.59,242.5c-.6-.33-1.07-.81-1.43-1.43-.36-.62-.54-1.34-.54-2.17s.16-1.53.47-2.14c.31-.61.76-1.09,1.33-1.43s1.26-.51,2.04-.51c.45,0,.88.08,1.28.24.4.16.73.35,1,.59.27.23.45.46.54.69l.03-1.31h1.75v7.8h-1.73l-.03-1.38c-.19.41-.54.77-1.05,1.08s-1.08.47-1.72.47c-.7,0-1.35-.17-1.95-.5Zm3.88-1.7c.44-.45.66-1.03.66-1.76v-.12c0-.49-.1-.92-.31-1.31-.2-.39-.48-.69-.83-.9-.35-.21-.74-.32-1.16-.32-.73,0-1.29.24-1.68.71-.4.47-.6,1.08-.6,1.83s.2,1.37.59,1.84.96.71,1.69.71c.65,0,1.19-.22,1.63-.67Z"/>
    <path class="cls-2" d="m259.22,230.33h2.16l3.74,8.58,3.76-8.58h2.14l-5.76,12.5h-.25l-5.78-12.5Z"/>
    <path class="cls-2" d="m272.3,242.44c-.62-.37-1.08-.86-1.38-1.48-.29-.62-.44-1.29-.44-2.03,0-.83.17-1.55.52-2.18.35-.62.82-1.1,1.44-1.44.61-.33,1.3-.5,2.07-.5,1.2,0,2.09.33,2.68.99.58.66.88,1.6.88,2.8,0,.31-.02.62-.05.95h-5.61c.12.69.37,1.19.74,1.5.37.31.88.46,1.54.46.54,0,.99-.05,1.34-.14.35-.09.67-.21.97-.37l.56,1.31c-.28.18-.67.34-1.16.48s-1.08.2-1.77.2c-.93,0-1.71-.18-2.33-.55Zm3.98-4.16c.01-.7-.14-1.2-.46-1.49s-.77-.43-1.36-.43c-1.19,0-1.88.64-2.06,1.92h3.88Z"/>
    <path class="cls-2" d="m280.98,242.78c-.58-.14-1-.31-1.25-.5l.61-1.45c.68.48,1.46.71,2.33.71s1.31-.25,1.31-.76c0-.23-.09-.4-.27-.53-.18-.12-.5-.27-.97-.44l-.65-.24c-.68-.27-1.22-.6-1.62-.98-.4-.38-.59-.88-.59-1.5,0-.71.28-1.27.84-1.67.56-.4,1.31-.6,2.25-.6.46,0,.92.05,1.37.15.45.1.79.23,1.03.39l-.66,1.46c-.15-.15-.38-.27-.71-.38-.32-.11-.68-.16-1.08-.16-.81,0-1.21.24-1.21.73,0,.27.11.48.32.62.22.14.57.3,1.05.47.04.01.22.07.53.19.73.28,1.26.61,1.62.97.35.36.53.83.53,1.39,0,.77-.29,1.35-.88,1.75s-1.32.59-2.22.59c-.54,0-1.11-.07-1.69-.21Z"/>
    <path class="cls-2" d="m288.35,236.52h-1.38v-1.5h1.38v-3.18l1.85-.41v3.59h1.8v1.5h-1.8v6.31h-1.85v-6.31Z"/>
    <path class="cls-2" d="m294.86,242.44c-.62-.37-1.08-.86-1.38-1.48-.29-.62-.44-1.29-.44-2.03,0-.83.17-1.55.52-2.18.35-.62.82-1.1,1.44-1.44.61-.33,1.3-.5,2.07-.5,1.2,0,2.09.33,2.68.99.58.66.88,1.6.88,2.8,0,.31-.02.62-.05.95h-5.61c.12.69.37,1.19.74,1.5.37.31.88.46,1.54.46.54,0,.99-.05,1.34-.14.35-.09.67-.21.97-.37l.56,1.31c-.28.18-.67.34-1.16.48s-1.08.2-1.77.2c-.93,0-1.71-.18-2.33-.55Zm3.98-4.16c.01-.7-.14-1.2-.46-1.49s-.77-.43-1.36-.43c-1.19,0-1.88.64-2.06,1.92h3.88Z"/>
    <path class="cls-2" d="m302.49,235.02h1.84v1.53c.18-.52.48-.94.88-1.26s.87-.48,1.39-.48c.36,0,.61.03.75.1l-.25,1.85c-.1-.07-.32-.1-.66-.1-.53,0-1.02.17-1.45.51-.44.34-.65.88-.65,1.63v4.01h-1.84v-7.8Z"/>
    <path class="cls-2" d="m311.56,242.53c-.5-.31-.85-.67-1.04-1.08l-.03,1.38h-1.77v-12.5h1.8v4.81l-.08,1.33c.19-.45.57-.84,1.13-1.16.56-.32,1.17-.48,1.83-.48.77,0,1.44.17,2.01.52.57.35,1.01.83,1.32,1.44.31.62.46,1.33.46,2.15s-.18,1.55-.54,2.16c-.36.61-.83,1.08-1.43,1.41-.59.33-1.24.49-1.95.49-.63,0-1.2-.16-1.71-.47Zm3.1-1.77c.4-.47.6-1.08.6-1.83s-.2-1.37-.59-1.84-.96-.71-1.71-.71c-.65,0-1.19.22-1.63.67-.44.45-.66,1.03-.66,1.76v.12c0,.49.1.92.31,1.31.21.39.49.69.83.9.34.21.73.32,1.15.32.74,0,1.3-.23,1.7-.71Z"/>
    <path class="cls-2" d="m319.08,235.02h1.84v1.53c.18-.52.48-.94.88-1.26s.87-.48,1.39-.48c.36,0,.61.03.75.1l-.25,1.85c-.1-.07-.32-.1-.66-.1-.53,0-1.02.17-1.45.51-.44.34-.65.88-.65,1.63v4.01h-1.84v-7.8Z"/>
    <path class="cls-2" d="m326.73,242.45c-.62-.36-1.11-.86-1.45-1.48-.34-.62-.51-1.32-.51-2.07s.17-1.43.5-2.06c.33-.62.81-1.12,1.44-1.48.62-.36,1.34-.54,2.16-.54s1.53.18,2.15.54c.62.36,1.09.86,1.43,1.48.33.62.5,1.31.5,2.06s-.17,1.45-.51,2.07c-.34.62-.82,1.12-1.44,1.48-.62.36-1.33.54-2.13.54s-1.52-.18-2.14-.54Zm3.75-1.68c.38-.49.57-1.1.57-1.84s-.2-1.36-.61-1.86c-.41-.5-.95-.76-1.62-.76s-1.16.25-1.56.75c-.39.5-.59,1.12-.59,1.87s.21,1.33.63,1.83c.42.49.96.74,1.62.74s1.17-.24,1.55-.73Z"/>
    <path class="cls-2" d="m339.75,236.52h-1.38v-1.5h1.38v-3.18l1.85-.41v3.59h1.8v1.5h-1.8v6.31h-1.85v-6.31Z"/>
    <path class="cls-2" d="m345.09,233.21c-.24-.24-.36-.53-.36-.88,0-.32.12-.59.36-.82.24-.23.53-.34.88-.34s.63.11.87.34c.24.23.36.5.36.82,0,.35-.12.65-.35.88s-.52.36-.88.36-.65-.12-.88-.36Zm-.05,1.82h1.9v7.8h-1.9v-7.8Z"/>
    <path class="cls-2" d="m349.65,230.33h1.82v12.5h-1.82v-12.5Z"/>
    <path class="cls-2" d="m48.68,263.04c-.67-.24-1.15-.5-1.44-.8l.9-1.61c.24.21.61.44,1.11.67.5.23.99.35,1.45.35.6,0,1.09-.14,1.47-.42s.57-.67.57-1.17c0-.39-.1-.72-.31-1s-.45-.52-.75-.71c-.29-.19-.71-.42-1.26-.69-.65-.32-1.09-.55-1.33-.71-1.1-.74-1.65-1.76-1.65-3.06,0-1.08.36-1.9,1.07-2.47s1.62-.86,2.7-.86c1.17,0,2.16.33,2.98,1l-.9,1.55c-.22-.23-.52-.42-.91-.59-.39-.16-.81-.25-1.25-.25-.57,0-1.01.13-1.33.38-.32.25-.48.63-.48,1.13,0,.35.1.67.31.94.2.28.46.52.77.72s.73.45,1.27.75c.51.28.9.51,1.17.67s.53.36.77.59c.33.29.6.65.8,1.05.2.41.31.86.31,1.34,0,.76-.17,1.41-.52,1.94-.35.53-.82.94-1.43,1.21-.61.27-1.29.41-2.07.41-.68,0-1.35-.12-2.02-.36Z"/>
    <path class="cls-2" d="m57.32,256.92h-1.38v-1.5h1.38v-3.18l1.85-.41v3.59h1.8v1.5h-1.8v6.31h-1.85v-6.31Z"/>
    <path class="cls-2" d="m62.95,262.45c-.4-.63-.6-1.52-.6-2.65v-4.37h1.84v3.91c0,.65.04,1.15.11,1.5.07.36.22.62.44.79.22.17.55.25.99.25.32,0,.62-.09.92-.27.29-.18.54-.43.72-.74s.28-.65.28-1.03v-4.42h1.82v7.8h-1.5l-.2-1.14c-.28.44-.64.77-1.06.99-.43.22-.94.32-1.54.32-1.08,0-1.82-.32-2.22-.95Z"/>
    <path class="cls-2" d="m73.43,262.9c-.59-.33-1.07-.81-1.43-1.43-.36-.62-.54-1.34-.54-2.17,0-1.24.35-2.22,1.04-2.97.69-.74,1.63-1.11,2.8-1.11.66,0,1.26.16,1.8.48s.91.71,1.1,1.16l-.08-1.33v-4.81h1.8v12.5h-1.75l-.03-1.38c-.19.41-.54.77-1.05,1.08s-1.08.47-1.72.47c-.7,0-1.35-.17-1.95-.5Zm3.88-1.72c.44-.45.66-1.03.66-1.76v-.12c0-.49-.1-.92-.31-1.31-.2-.38-.48-.69-.83-.9-.35-.22-.74-.32-1.16-.32-.73,0-1.29.24-1.68.71-.4.47-.59,1.08-.59,1.83s.2,1.37.59,1.84c.39.47.95.71,1.69.71.65,0,1.19-.22,1.63-.67Z"/>
    <path class="cls-2" d="m82.55,253.61c-.24-.24-.36-.53-.36-.88,0-.32.12-.59.36-.82.24-.23.53-.34.88-.34s.63.11.87.34c.24.23.36.5.36.82,0,.35-.12.65-.35.88s-.52.36-.88.36-.65-.12-.88-.36Zm-.05,1.82h1.9v7.8h-1.9v-7.8Z"/>
    <path class="cls-2" d="m88.31,262.84c-.62-.37-1.08-.86-1.38-1.48-.29-.62-.44-1.29-.44-2.03,0-.83.17-1.55.52-2.18.35-.62.82-1.1,1.44-1.44.61-.33,1.3-.5,2.07-.5,1.2,0,2.09.33,2.68.99.58.66.88,1.6.88,2.8,0,.31-.02.62-.05.95h-5.61c.12.69.37,1.19.74,1.5.37.31.88.46,1.54.46.54,0,.99-.05,1.34-.14.35-.09.67-.21.97-.37l.56,1.31c-.28.18-.67.34-1.16.48s-1.08.2-1.77.2c-.93,0-1.71-.18-2.33-.55Zm3.98-4.16c.01-.7-.14-1.2-.46-1.49s-.77-.43-1.36-.43c-1.19,0-1.88.64-2.06,1.92h3.88Z"/>
    <path class="cls-2" d="m96.99,263.18c-.58-.14-1-.31-1.25-.5l.61-1.45c.68.48,1.46.71,2.33.71s1.31-.25,1.31-.76c0-.23-.09-.4-.27-.53-.18-.12-.5-.27-.97-.44l-.65-.24c-.68-.27-1.22-.6-1.61-.98-.4-.38-.6-.88-.6-1.5,0-.71.28-1.27.84-1.67.56-.4,1.31-.6,2.25-.6.46,0,.92.05,1.37.15.45.1.79.23,1.03.39l-.66,1.46c-.15-.15-.38-.27-.71-.38-.32-.11-.68-.16-1.08-.16-.8,0-1.21.24-1.21.73,0,.27.11.48.32.62.21.14.57.3,1.05.47.05.01.22.07.53.19.73.28,1.26.61,1.61.97.35.36.53.83.53,1.39,0,.77-.29,1.35-.88,1.75-.58.4-1.32.59-2.22.59-.54,0-1.11-.07-1.69-.21Z"/>
    <path class="cls-2" d="m104.36,256.92h-1.38v-1.5h1.38v-3.18l1.85-.41v3.59h1.8v1.5h-1.8v6.31h-1.85v-6.31Z"/>
    <path class="cls-2" d="m109.46,255.42h1.84v1.53c.18-.52.48-.94.88-1.26s.87-.48,1.39-.48c.36,0,.61.03.75.1l-.25,1.85c-.1-.07-.32-.1-.66-.1-.53,0-1.02.17-1.45.51-.44.34-.65.88-.65,1.63v4.01h-1.84v-7.8Z"/>
    <path class="cls-2" d="m128.85,259.96h-5.61c.12.69.37,1.19.74,1.5.37.31.88.46,1.54.46.54,0,.99-.05,1.34-.14.35-.09.67-.21.97-.37l.56,1.31c-.28.18-.67.34-1.16.48s-1.08.2-1.77.2c-1.13,0-1.99-.55-2.57-1.65v1.48h-1.22l-.34-2.09c-.12.68-.42,1.23-.9,1.64-.48.41-1.05.62-1.72.62s-1.31-.16-1.85-.49c-.54-.33-.97-.8-1.27-1.42-.3-.62-.45-1.35-.45-2.18s.15-1.52.45-2.13c.3-.62.72-1.1,1.25-1.44.53-.34,1.13-.51,1.8-.51s1.26.18,1.74.54c.48.36.84.83,1.08,1.41l.03-1.75h1.39v1.16c.29-.44.66-.78,1.09-1.01s.88-.35,1.36-.35c1.2,0,2.09.33,2.68.99.58.66.88,1.6.88,2.8,0,.31-.02.62-.05.95Zm-7.53-.95c0-.65-.22-1.18-.67-1.6-.45-.42-.99-.63-1.62-.63s-1.13.23-1.45.7c-.32.46-.48,1.08-.48,1.84s.16,1.39.48,1.85c.32.46.81.7,1.45.7.41,0,.79-.12,1.14-.37.35-.25.63-.58.84-1s.31-.87.31-1.36v-.12Zm5.34-1.81c-.32-.29-.77-.43-1.36-.43-1.19,0-1.88.64-2.06,1.92h3.88c.01-.7-.14-1.2-.46-1.49Z"/>
    <path class="cls-2" d="m132.33,262.9c-.59-.33-1.07-.81-1.43-1.43-.36-.62-.54-1.34-.54-2.17,0-1.24.35-2.22,1.04-2.97.69-.74,1.63-1.11,2.8-1.11.66,0,1.26.16,1.8.48s.91.71,1.1,1.16l-.08-1.33v-4.81h1.8v12.5h-1.75l-.03-1.38c-.19.41-.54.77-1.05,1.08s-1.08.47-1.72.47c-.7,0-1.35-.17-1.95-.5Zm3.88-1.72c.44-.45.66-1.03.66-1.76v-.12c0-.49-.1-.92-.31-1.31-.2-.38-.48-.69-.83-.9-.35-.22-.74-.32-1.16-.32-.73,0-1.29.24-1.68.71-.4.47-.59,1.08-.59,1.83s.2,1.37.59,1.84c.39.47.95.71,1.69.71.65,0,1.19-.22,1.63-.67Z"/>
    <path class="cls-2" d="m142.62,262.84c-.62-.37-1.08-.86-1.38-1.48-.29-.62-.44-1.29-.44-2.03,0-.83.17-1.55.52-2.18.35-.62.82-1.1,1.44-1.44.61-.33,1.3-.5,2.07-.5,1.2,0,2.09.33,2.68.99.58.66.88,1.6.88,2.8,0,.31-.02.62-.05.95h-5.61c.12.69.37,1.19.74,1.5.37.31.88.46,1.54.46.54,0,.99-.05,1.34-.14.35-.09.67-.21.97-.37l.56,1.31c-.28.18-.67.34-1.16.48s-1.08.2-1.77.2c-.93,0-1.71-.18-2.33-.55Zm3.98-4.16c.01-.7-.14-1.2-.46-1.49s-.77-.43-1.36-.43c-1.19,0-1.88.64-2.06,1.92h3.88Z"/>
    <path class="cls-2" d="m158.67,257.97c.53-.71.98-1.38,1.33-1.99.36-.61.54-1.18.54-1.7,0-.63-.17-1.12-.5-1.45s-.84-.5-1.5-.5c-.61,0-1.1.17-1.48.51s-.69.75-.94,1.24l-1.58-.85c.4-.76.92-1.4,1.56-1.92s1.47-.78,2.48-.78c1.26,0,2.22.33,2.89.98.67.65,1,1.5,1,2.56,0,1.37-.68,2.89-2.04,4.56l-2.31,2.92h4.85v1.68h-8.5l4.2-5.25Z"/>
    <path class="cls-2" d="m170.72,260.1h-5.71l3.59-9.79,1.77.66-2.7,7.34h3.06l.1-2.84h1.89v2.84h1.73v1.79h-1.73v3.13h-1.99v-3.13Z"/>
    <path class="cls-2" d="m183.75,257.63l-1.02,1.26v4.33h-1.87v-12.5h1.87v5.58l4.28-5.58h2.28l-4.3,5.49,4.91,7h-2.33l-3.82-5.59Z"/>
    <path class="cls-2" d="m198.12,257.28c.32.61.48,1.29.48,2.02s-.17,1.45-.51,2.07c-.34.62-.82,1.12-1.44,1.48-.62.36-1.33.54-2.13.54-.36,0-.74-.04-1.12-.14l-.83,1.84-.97-.44.82-1.79c-.62-.35-1.11-.84-1.46-1.47s-.53-1.33-.53-2.1.17-1.43.5-2.06c.33-.62.81-1.12,1.44-1.48.62-.36,1.34-.54,2.16-.54.41,0,.84.06,1.29.17l.83-1.84.95.44-.83,1.82c.58.36,1.03.85,1.35,1.46Zm-5.58,3.17c.13.35.33.64.58.88l2.04-4.5c-.2-.07-.43-.1-.68-.1-.65,0-1.16.25-1.56.75s-.59,1.12-.59,1.87c0,.4.07.77.21,1.11Zm3.59.72c.38-.49.57-1.1.57-1.84,0-.37-.06-.73-.17-1.05-.11-.33-.27-.61-.48-.85l-2.01,4.4c.15.04.32.07.53.07.66,0,1.18-.24,1.56-.73Z"/>
    <path class="cls-2" d="m203.54,262.93c-.5-.31-.85-.67-1.05-1.08l-.03,1.38h-1.77v-12.5h1.8v4.81l-.08,1.33c.19-.45.57-.84,1.13-1.16s1.17-.48,1.83-.48c.77,0,1.44.17,2.02.52.57.35,1.01.83,1.32,1.44.31.62.46,1.33.46,2.15s-.18,1.55-.54,2.16c-.36.61-.83,1.08-1.43,1.41-.6.33-1.24.49-1.95.49-.63,0-1.2-.16-1.71-.47Zm3.1-1.77c.4-.47.6-1.08.6-1.83s-.2-1.37-.59-1.84-.96-.71-1.71-.71c-.65,0-1.19.22-1.63.67-.44.45-.66,1.03-.66,1.76v.12c0,.49.1.92.31,1.31.21.39.49.69.83.9.35.21.73.32,1.15.32.74,0,1.3-.23,1.7-.71Z"/>
    <path class="cls-2" d="m212.48,262.84c-.62-.37-1.08-.86-1.38-1.48-.29-.62-.44-1.29-.44-2.03,0-.83.17-1.55.52-2.18.35-.62.82-1.1,1.44-1.44.61-.33,1.3-.5,2.07-.5,1.2,0,2.09.33,2.68.99.58.66.88,1.6.88,2.8,0,.31-.02.62-.05.95h-5.61c.12.69.37,1.19.74,1.5.37.31.88.46,1.54.46.54,0,.99-.05,1.34-.14.35-.09.67-.21.97-.37l.56,1.31c-.28.18-.67.34-1.16.48s-1.08.2-1.77.2c-.93,0-1.71-.18-2.33-.55Zm3.98-4.16c.01-.7-.14-1.2-.46-1.49s-.77-.43-1.36-.43c-1.19,0-1.88.64-2.06,1.92h3.88Z"/>
    <path class="cls-2" d="m220.16,255.42h1.8l.02,1.43c.21-.48.55-.87,1.02-1.17s1.01-.46,1.63-.46c.8,0,1.42.17,1.85.5.43.33.72.8.87,1.4.15.6.22,1.38.22,2.35v3.76h-1.84v-3.71c0-.99-.1-1.7-.29-2.13-.19-.44-.59-.65-1.19-.65-.34,0-.69.11-1.04.31-.35.21-.64.51-.88.91-.23.4-.35.86-.35,1.39v3.88h-1.84v-7.8Z"/>
    <path class="cls-2" d="m230.02,250.73h1.79v4.69l-.07,1.44c.22-.48.56-.87,1.04-1.18.48-.31,1.03-.47,1.67-.47.8,0,1.42.17,1.85.5.43.33.72.8.87,1.4s.22,1.38.22,2.35v3.76h-1.82v-3.77c0-.66-.04-1.17-.11-1.55-.07-.37-.22-.66-.44-.85-.22-.19-.54-.29-.96-.29-.34,0-.68.1-1.03.31-.35.2-.63.5-.86.89-.23.39-.34.85-.34,1.39v3.88h-1.8v-12.5Z"/>
    <path class="cls-2" d="m241.21,262.9c-.6-.33-1.07-.81-1.43-1.43-.36-.62-.54-1.34-.54-2.17s.16-1.53.47-2.14c.31-.61.76-1.09,1.33-1.43s1.26-.51,2.04-.51c.45,0,.88.08,1.28.24.4.16.73.35,1,.59.27.23.45.46.54.69l.03-1.31h1.75v7.8h-1.73l-.03-1.38c-.19.41-.54.77-1.05,1.08s-1.08.47-1.72.47c-.7,0-1.35-.17-1.95-.5Zm3.88-1.7c.44-.45.66-1.03.66-1.76v-.12c0-.49-.1-.92-.31-1.31-.2-.39-.48-.69-.83-.9-.35-.21-.74-.32-1.16-.32-.73,0-1.29.24-1.68.71-.4.47-.6,1.08-.6,1.83s.2,1.37.59,1.84.96.71,1.69.71c.65,0,1.19-.22,1.63-.67Z"/>
    <path class="cls-2" d="m248.92,255.42h2.09l1.68,3.52.54,1.41.54-1.41,1.67-3.52h2.04l-4.1,7.8h-.36l-4.11-7.8Z"/>
    <path class="cls-2" d="m258.67,255.42h1.8l.02,1.43c.21-.48.55-.87,1.02-1.17s1.01-.46,1.63-.46c.8,0,1.42.17,1.85.5.43.33.72.8.87,1.4.15.6.22,1.38.22,2.35v3.76h-1.84v-3.71c0-.99-.1-1.7-.29-2.13-.19-.44-.59-.65-1.19-.65-.34,0-.69.11-1.04.31-.35.21-.64.51-.88.91-.23.4-.35.86-.35,1.39v3.88h-1.84v-7.8Z"/>
    <path class="cls-2" d="m275.61,257.63l-1.02,1.26v4.33h-1.87v-12.5h1.87v5.58l4.28-5.58h2.28l-4.3,5.49,4.91,7h-2.33l-3.83-5.59Z"/>
  </g>
  <rect class="cls-1" x="4.11" y="7" width="2" height="235.02"/>
  <g>
    <circle class="cls-1" cx="5.5" cy="7.58" r="4.5"/>
    <path class="cls-1" d="m5.5,13.08c-3.03,0-5.5-2.47-5.5-5.5S2.47,2.08,5.5,2.08s5.5,2.47,5.5,5.5-2.47,5.5-5.5,5.5Zm0-9c-1.93,0-3.5,1.57-3.5,3.5s1.57,3.5,3.5,3.5,3.5-1.57,3.5-3.5-1.57-3.5-3.5-3.5Z"/>
  </g>
  <g>
    <circle class="cls-1" cx="5.5" cy="82.58" r="4.5"/>
    <path class="cls-1" d="m5.5,88.08c-3.03,0-5.5-2.47-5.5-5.5s2.47-5.5,5.5-5.5,5.5,2.47,5.5,5.5-2.47,5.5-5.5,5.5Zm0-9c-1.93,0-3.5,1.57-3.5,3.5s1.57,3.5,3.5,3.5,3.5-1.57,3.5-3.5-1.57-3.5-3.5-3.5Z"/>
  </g>
  <g>
    <circle class="cls-1" cx="5.5" cy="237.58" r="4.5"/>
    <path class="cls-1" d="m5.5,243.08c-3.03,0-5.5-2.47-5.5-5.5s2.47-5.5,5.5-5.5,5.5,2.47,5.5,5.5-2.47,5.5-5.5,5.5Zm0-9c-1.93,0-3.5,1.57-3.5,3.5s1.57,3.5,3.5,3.5,3.5-1.57,3.5-3.5-1.57-3.5-3.5-3.5Z"/>
  </g>
  <g>
    <circle class="cls-1" cx="5.5" cy="165.58" r="4.5"/>
    <path class="cls-1" d="m5.5,171.08c-3.03,0-5.5-2.47-5.5-5.5s2.47-5.5,5.5-5.5,5.5,2.47,5.5,5.5-2.47,5.5-5.5,5.5Zm0-9c-1.93,0-3.5,1.57-3.5,3.5s1.57,3.5,3.5,3.5,3.5-1.57,3.5-3.5-1.57-3.5-3.5-3.5Z"/>
  </g>
</svg>